<svg width="44" height="11" viewBox="0 0 44 11" fill="none" xmlns="http://www.w3.org/2000/svg">
<g clip-path="url(#clip0_1271_3285)">
<path d="M16.0313 2.61298C13.9885 2.61298 12.6983 2.74721 12.6983 2.74721V3.70368L15.736 3.67654C16.8916 3.67654 17.1473 3.89182 17.1605 4.99389V5.72005C16.5421 5.58546 16.2194 5.49157 15.3594 5.49157H14.338C12.7386 5.49157 11.9318 5.66614 11.9318 7.49437V8.17799C11.9318 10.2483 12.7386 10.3286 14.338 10.3418H14.9156C15.6821 10.3418 16.5693 9.9116 17.1605 9.61563V10.2758H18.4778V4.77715C18.4778 2.88144 17.5771 2.59978 16.0313 2.61298ZM17.1605 8.70097C16.5557 8.90268 15.776 9.26539 15.1313 9.26539H14.5261C13.5726 9.26539 13.1952 9.0369 13.1952 8.05513V7.66711C13.1952 6.55147 13.5044 6.45685 14.5261 6.45685H15.4665C16.1123 6.45685 16.5557 6.49719 17.1605 6.5511V8.70097Z" fill="white"/>
<path d="M26.757 2.61292H25.4404V10.2746H26.757V2.61292Z" fill="white"/>
<path d="M21.9724 2.12928C21.9724 1.28247 22.1734 1.1211 22.8056 1.1211C23.0338 1.1211 23.9884 1.14824 23.9884 1.14824L24.0955 0.233939C24.0955 0.233939 23.0319 0.072937 22.3351 0.072937C20.9782 0.072937 20.655 0.852273 20.655 1.96791V2.61742H19.5548V2.6805V3.65935V3.72683H20.655V10.2744H21.9724V3.72683H24.1237V2.61742H21.9724V2.12928Z" fill="white"/>
<path d="M32.4023 2.61298C30.3592 2.61298 29.0694 2.74721 29.0694 2.74721V3.70368L32.1064 3.67471C33.262 3.67471 33.5173 3.88999 33.5308 4.99206V5.71822C32.9121 5.58362 32.5898 5.48974 31.7297 5.48974H30.7091C29.1093 5.48974 28.3029 5.66431 28.3029 7.49254V8.17799C28.3029 10.2483 29.1097 10.3286 30.7091 10.3418H31.2867C32.0532 10.3418 32.9404 9.9116 33.5316 9.61563V10.2758H34.8489V4.77715C34.8489 2.88144 33.9482 2.59978 32.4023 2.61298ZM33.5316 8.70097C32.9268 8.90268 32.1471 9.26539 31.502 9.26539H30.8961C29.9426 9.26539 29.5652 9.0369 29.5652 8.05513V7.66711C29.5652 6.55147 29.874 6.45685 30.8961 6.45685H31.8365C32.4823 6.45685 32.9257 6.49719 33.5305 6.5511L33.5316 8.70097Z" fill="white"/>
<path d="M37.9398 3.4733V2.6804H36.6224V10.2742H37.9398V4.42721C38.5445 4.13381 39.3136 3.66951 39.9569 3.66951L41.0971 3.68528V2.61292H40.1824C39.4185 2.61292 38.5317 3.12343 37.9398 3.4733Z" fill="white"/>
<path d="M43.5311 2.61292H42.2137V10.2746H43.5311V2.61292Z" fill="white"/>
<path d="M7.43826 3.64023C6.804 3.0054 5.96924 2.61017 5.07622 2.52188C4.18321 2.43358 3.28721 2.6577 2.54092 3.15602C1.79463 3.65434 1.24424 4.39604 0.983548 5.25471C0.722855 6.11338 0.767992 7.03588 1.11127 7.865C1.45454 8.69411 2.07471 9.37854 2.86608 9.80163C3.65745 10.2247 4.57105 10.3603 5.45118 10.1852C6.33131 10.0102 7.1235 9.53534 7.69275 8.84164C8.262 8.14793 8.57308 7.27829 8.57297 6.38092C8.57365 5.87187 8.47375 5.36771 8.27902 4.89737C8.0843 4.42704 7.79857 3.99981 7.43826 3.64023ZM6.23679 7.80096L5.53081 8.30707L4.71626 7.12468L3.89622 8.31514L3.15356 7.79876L4.02091 6.54009L2.68009 6.08496L2.98669 5.2341L4.2593 5.66577V4.47384H5.12812V5.6907L6.41687 5.25354L6.72347 6.10476L5.38228 6.55953L6.23679 7.80096Z" fill="white"/>
</g>
<defs>
<clipPath id="clip0_1271_3285">
<rect width="42.7083" height="10.2689" fill="white" transform="translate(0.822998 0.072937)"/>
</clipPath>
</defs>
</svg>
