<svg width="10" height="10" viewBox="0 0 10 10" fill="none" xmlns="http://www.w3.org/2000/svg">
<path d="M5.1364 0.7229L6.21153 4.03184L9.69076 4.03184L6.87601 6.07687L7.95115 9.38581L5.1364 7.34078L2.32165 9.38581L3.39678 6.07687L0.582034 4.03184L4.06126 4.03184L5.1364 0.7229Z" fill="#3A3A3A"/>
<path d="M5.1364 2.01429L5.832 4.15515L5.9216 4.4309H6.21153L8.46257 4.4309L6.64144 5.75403L6.40688 5.92445L6.49648 6.20019L7.19209 8.34105L5.37096 7.01793L5.1364 6.84751L4.90183 7.01793L3.08071 8.34105L3.77631 6.20019L3.86591 5.92445L3.63135 5.75403L1.81022 4.4309L4.06126 4.4309H4.35119L4.44079 4.15515L5.1364 2.01429Z" stroke="black" stroke-opacity="0.3" stroke-width="0.798123"/>
</svg>
