<svg width="620" height="517" viewBox="0 0 620 517" fill="none" xmlns="http://www.w3.org/2000/svg">
<g clip-path="url(#clip0_959_2518)">
<path d="M28.7787 492.647C37.3693 508.579 55.6015 515.418 55.6015 515.418C55.6015 515.418 59.9057 496.427 51.3152 480.495C42.7246 464.564 24.4923 457.725 24.4923 457.725C24.4923 457.725 20.1882 476.716 28.7787 492.647Z" fill="#083A2D"/>
<path d="M34.6822 487.405C50.1917 496.736 56.1649 515.27 56.1649 515.27C56.1649 515.27 36.9922 518.675 21.4827 509.344C5.9732 500.013 0 481.479 0 481.479C0 481.479 19.1727 478.074 34.6822 487.405Z" fill="#0A503D"/>
<path d="M382.405 24.8203H285.637V26.2027H382.405V24.8203Z" fill="#F2F2F2"/>
<path d="M356.142 25.8555H354.76V38.6427H356.142V25.8555Z" fill="#F2F2F2"/>
<path d="M313.978 25.8555H312.596V38.6427H313.978V25.8555Z" fill="#F2F2F2"/>
<path d="M431.481 91.1738H334.713V92.5562H431.481V91.1738Z" fill="#F2F2F2"/>
<path d="M362.363 78.7344H360.98V91.5216H362.363V78.7344Z" fill="#F2F2F2"/>
<path d="M404.527 78.7344H403.145V91.5216H404.527V78.7344Z" fill="#F2F2F2"/>
<path d="M560.046 122.279H463.277V123.662H560.046V122.279Z" fill="#F2F2F2"/>
<path d="M490.925 109.838H489.543V122.625H490.925V109.838Z" fill="#F2F2F2"/>
<path d="M533.089 109.838H531.707V122.625H533.089V109.838Z" fill="#F2F2F2"/>
<path d="M550.368 442.998H453.6V444.38H550.368V442.998Z" fill="#F2F2F2"/>
<path d="M481.25 430.557H479.867V443.344H481.25V430.557Z" fill="#F2F2F2"/>
<path d="M523.412 430.557H522.029V443.344H523.412V430.557Z" fill="#F2F2F2"/>
<path d="M385.173 221.121H288.404V222.503H385.173V221.121Z" fill="#F2F2F2"/>
<path d="M316.05 208.68H314.668V221.467H316.05V208.68Z" fill="#F2F2F2"/>
<path d="M358.214 208.68H356.832V221.467H358.214V208.68Z" fill="#F2F2F2"/>
<path d="M415.585 387.703H318.816V389.086H415.585V387.703Z" fill="#F2F2F2"/>
<path d="M346.464 375.26H345.082V388.047H346.464V375.26Z" fill="#F2F2F2"/>
<path d="M388.627 375.26H387.244V388.047H388.627V375.26Z" fill="#F2F2F2"/>
<path d="M570.415 337.244H473.646V338.627H570.415V337.244Z" fill="#F2F2F2"/>
<path d="M501.295 324.803H499.912V337.59H501.295V324.803Z" fill="#F2F2F2"/>
<path d="M543.457 324.803H542.074V337.59H543.457V324.803Z" fill="#F2F2F2"/>
<path d="M250.257 485.352H86.5898V484.175H249.079V427.068H100.349L93.1238 412.015L94.1855 411.506L101.09 425.89H250.257V485.352Z" fill="#083A2D"/>
<path d="M108.373 514.199C115.201 514.199 120.736 508.664 120.736 501.836C120.736 495.008 115.201 489.473 108.373 489.473C101.545 489.473 96.0098 495.008 96.0098 501.836C96.0098 508.664 101.545 514.199 108.373 514.199Z" fill="#0A503D"/>
<path d="M230.24 514.199C237.068 514.199 242.604 508.664 242.604 501.836C242.604 495.008 237.068 489.473 230.24 489.473C223.412 489.473 217.877 495.008 217.877 501.836C217.877 508.664 223.412 514.199 230.24 514.199Z" fill="#0A503D"/>
<path d="M373.892 246.916C378.119 246.916 381.545 243.49 381.545 239.263C381.545 235.036 378.119 231.609 373.892 231.609C369.665 231.609 366.238 235.036 366.238 239.263C366.238 243.49 369.665 246.916 373.892 246.916Z" fill="#0A503D"/>
<path d="M267.762 407.639H83.7993L43.9941 277.529H308.755L308.514 278.295L267.762 407.639ZM84.6704 406.461H266.898L307.15 278.707H45.5856L84.6704 406.461Z" fill="#083A2D"/>
<path d="M253.403 400.868H91.8218L56.8594 285.477H289.408L289.197 286.156L253.403 400.868Z" fill="#F2F2F2"/>
<path d="M312.054 265.906L310.916 265.604L318.686 236.318H363.883V237.496H319.592L312.054 265.906Z" fill="#083A2D"/>
<path d="M295.525 316.975H56.8574V318.152H295.525V316.975Z" fill="#083A2D"/>
<path d="M281.857 360.355H70.1289V361.533H281.857V360.355Z" fill="#083A2D"/>
<path d="M176.961 278.119H175.783V407.051H176.961V278.119Z" fill="#083A2D"/>
<path d="M229.677 278.081L221.225 407.01L222.4 407.087L230.852 278.158L229.677 278.081Z" fill="#083A2D"/>
<path d="M123.089 278.08L121.914 278.156L130.317 407.088L131.492 407.012L123.089 278.08Z" fill="#083A2D"/>
<path d="M619.318 514.947H0V516.33H619.318V514.947Z" fill="#083A2D"/>
<path d="M411.549 42.7691C411.549 42.7691 421.653 71.5275 415.435 75.9519C409.217 80.3763 436.421 116.509 436.421 116.509L469.066 107.66L451.189 77.4267C451.189 77.4267 448.857 47.1935 448.857 42.7691C448.857 38.3447 411.549 42.7691 411.549 42.7691Z" fill="#A0616A"/>
<path opacity="0.1" d="M411.549 42.7691C411.549 42.7691 421.653 71.5275 415.435 75.9519C409.217 80.3763 436.421 116.509 436.421 116.509L469.066 107.66L451.189 77.4267C451.189 77.4267 448.857 47.1935 448.857 42.7691C448.857 38.3447 411.549 42.7691 411.549 42.7691Z" fill="black"/>
<path d="M394.588 247.765C394.588 247.765 391.639 284.634 394.588 303.807C397.538 322.979 401.962 376.071 401.962 376.071C401.962 376.071 401.962 476.357 418.185 477.832C434.408 479.307 446.206 480.781 447.681 474.882C449.155 468.983 440.307 466.033 444.731 463.084C449.155 460.134 450.63 449.811 444.731 438.012C438.832 426.214 444.731 306.756 444.731 306.756L472.752 381.971C472.752 381.971 475.702 443.912 478.651 452.76C481.601 461.609 475.702 477.832 486.025 479.307C496.349 480.781 508.147 471.933 514.046 468.983C519.945 466.033 505.197 466.033 508.147 464.559C511.097 463.084 519.945 458.659 516.996 457.185C514.046 455.71 511.097 384.92 511.097 384.92C511.097 384.92 502.985 233.754 492.662 227.855C482.338 221.956 475.702 232.117 475.702 232.117L394.588 247.765Z" fill="#083A2D"/>
<path d="M421.135 471.932V483.73C421.135 483.73 407.862 515.801 421.135 515.801C434.409 515.801 444.732 519.125 444.732 514.7V474.881L421.135 471.932Z" fill="#083A2D"/>
<path d="M508.147 471.912V483.71C508.147 483.71 521.42 515.782 508.147 515.782C494.874 515.782 484.551 519.105 484.551 514.681V474.862L508.147 471.912Z" fill="#083A2D"/>
<path d="M432.197 64.1529C446.858 64.1529 458.743 52.2678 458.743 37.6067C458.743 22.9457 446.858 11.0605 432.197 11.0605C417.536 11.0605 405.65 22.9457 405.65 37.6067C405.65 52.2678 417.536 64.1529 432.197 64.1529Z" fill="#A0616A"/>
<path d="M424.086 87.0117C424.086 87.0117 431.46 109.134 443.259 104.709L455.057 100.285L475.704 241.864C475.704 241.864 459.481 265.461 435.885 250.713C412.288 235.965 424.086 87.0117 424.086 87.0117Z" fill="#0A503D"/>
<path d="M444.732 82.5886L451.369 68.5781C451.369 68.5781 490.451 87.013 496.35 92.9121C502.249 98.8113 502.249 107.66 502.249 107.66L491.926 144.53C491.926 144.53 494.875 225.643 494.875 228.593C494.875 231.542 505.199 247.765 497.825 241.866C490.451 235.967 488.976 230.067 483.077 238.916C477.178 247.765 463.905 258.088 463.905 258.088L444.732 82.5886Z" fill="#0A503D"/>
<path d="M496.351 188.771L491.926 230.066C491.926 230.066 465.38 253.662 471.279 255.137C477.178 256.612 480.128 250.713 480.128 250.713C480.128 250.713 490.451 261.036 496.351 255.137C502.25 249.238 516.998 193.196 516.998 193.196L496.351 188.771Z" fill="#A0616A"/>
<path d="M432.763 0.0897672C426.878 -0.120614 420.58 -0.224682 415.618 2.94665C413.335 4.53821 411.333 6.49837 409.693 8.7469C404.86 14.8561 400.685 22.5428 402.48 30.1226L404.565 29.3095C404.565 31.3328 404.115 33.3307 403.248 35.1589C403.541 34.3051 404.525 35.6852 404.261 36.5488L401.965 44.0833C405.74 42.6993 410.437 45.5016 411.011 49.4814C411.274 40.7299 412.182 30.6948 419.281 25.5704C422.861 22.9862 427.392 22.1974 431.751 21.4968C435.773 20.8505 439.989 20.2343 443.841 21.5582C447.693 22.8822 450.973 26.8217 450.1 30.8003C451.876 30.1884 453.863 31.4263 454.74 33.0872C455.618 34.748 455.664 36.7073 455.691 38.5857C457.584 39.9238 459.739 37.2668 460.51 35.0805C462.321 29.9488 463.931 24.4862 462.956 19.1324C461.98 13.7786 457.617 8.66226 452.175 8.6441C452.836 7.91857 453.188 6.96455 453.158 5.98384L448.673 5.60486C449.811 5.44362 450.859 4.8915 451.635 4.04305C449.834 6.02468 435.675 0.193869 432.763 0.0897672Z" fill="#083A2D"/>
<path d="M431.458 78.1619C431.458 78.1619 419.453 66.3971 415.132 67.1177C410.811 67.8384 404.912 78.1619 404.912 78.1619C404.912 78.1619 369.517 89.9602 370.992 101.759C372.467 113.557 388.69 171.074 388.69 171.074C388.69 171.074 401.963 240.389 390.164 247.763C378.366 255.137 446.206 274.309 447.681 265.46C449.156 256.611 452.105 168.124 447.681 154.851C443.257 141.578 431.458 78.1619 431.458 78.1619Z" fill="#0A503D"/>
<path d="M483.076 101.76H501.312C501.312 101.76 514.047 157.802 515.522 163.701C516.996 169.6 519.946 197.621 518.471 197.621C516.996 197.621 487.501 191.722 487.501 196.146L483.076 101.76Z" fill="#0A503D"/>
<path d="M482.461 240.538H412.649C405.837 209.199 405.267 178.92 412.649 149.99H482.461C471.195 178.399 470.491 208.471 482.461 240.538Z" fill="#F2F2F2"/>
<path d="M384.266 202.046L404.913 210.895C404.913 210.895 444.732 216.794 444.732 200.571C444.732 184.348 404.913 193.197 404.913 193.197L391.639 188.953L384.266 202.046Z" fill="#A0616A"/>
<path d="M388.689 92.9102L370.992 97.3345L357.719 175.498C357.719 175.498 353.294 196.145 360.668 197.62C368.042 199.095 388.689 210.893 388.689 210.893C388.689 210.893 391.639 188.771 397.538 188.771L382.79 176.973L391.639 125.356L388.689 92.9102Z" fill="#0A503D"/>
<path d="M138.413 243.932H41.6445V245.314H138.413V243.932Z" fill="#F2F2F2"/>
<path d="M69.2906 231.488H67.9082V244.276H69.2906V231.488Z" fill="#F2F2F2"/>
<path d="M111.455 231.488H110.072V244.276H111.455V231.488Z" fill="#F2F2F2"/>
<path d="M172.282 39.3359H75.5137V40.7183H172.282V39.3359Z" fill="#F2F2F2"/>
<path d="M146.015 40.3711H144.633V53.1583H146.015V40.3711Z" fill="#F2F2F2"/>
<path d="M103.851 40.3711H102.469V53.1583H103.851V40.3711Z" fill="#F2F2F2"/>
<path d="M269.741 175.502H172.973V176.884H269.741V175.502Z" fill="#F2F2F2"/>
<path d="M243.474 176.539H242.092V189.326H243.474V176.539Z" fill="#F2F2F2"/>
<path d="M201.312 176.539H199.93V189.326H201.312V176.539Z" fill="#F2F2F2"/>
<path d="M105.233 174.812H8.46484V176.195H105.233V174.812Z" fill="#F2F2F2"/>
<path d="M78.9683 175.848H77.5859V188.635H78.9683V175.848Z" fill="#F2F2F2"/>
<path d="M36.8062 175.848H35.4238V188.635H36.8062V175.848Z" fill="#F2F2F2"/>
<path d="M221.356 105.689H124.588V107.072H221.356V105.689Z" fill="#F2F2F2"/>
<path d="M152.236 93.248H150.854V106.035H152.236V93.248Z" fill="#F2F2F2"/>
<path d="M194.4 93.248H193.018V106.035H194.4V93.248Z" fill="#F2F2F2"/>
</g>
<defs>
<clipPath id="clip0_959_2518">
<rect width="619.318" height="517" fill="white"/>
</clipPath>
</defs>
</svg>
