<svg width="533" height="355" viewBox="0 0 533 355" fill="none" xmlns="http://www.w3.org/2000/svg">
<path d="M341.813 203.855C323.547 171.723 288.704 147.051 251.82 149.428C279.027 179.014 294.891 217.27 296.607 257.427C297.213 272.916 296.274 290.207 306.558 301.806C312.957 309.022 322.739 312.517 332.356 313.251C341.973 313.984 351.588 312.246 361.077 310.516L363.379 311.222C364.255 274.272 360.079 235.987 341.813 203.855Z" fill="#F0F0F0"/>
<path d="M251.765 150.2C279.04 163.33 302.297 185.26 316.574 212.004C319.661 217.786 322.289 223.92 323.435 230.405C324.582 236.894 323.781 243.07 321.565 249.233C319.539 254.867 316.814 260.395 316.193 266.424C315.538 272.778 317.876 278.719 322.084 283.435C327.233 289.204 334.149 292.779 341.033 296.04C348.676 299.661 356.672 303.301 362.086 310.059C362.742 310.878 363.974 309.812 363.319 308.994C353.9 297.237 337.778 295.027 326.597 285.556C321.381 281.136 317.464 275.118 317.711 268.066C317.927 261.899 320.732 256.196 322.833 250.509C325.039 244.538 326.139 238.534 325.348 232.168C324.539 225.656 322.145 219.406 319.22 213.57C312.623 200.41 303.594 188.327 293.252 177.883C281.365 165.877 267.512 155.993 252.293 148.659C251.35 148.205 250.829 149.75 251.765 150.2Z" fill="white"/>
<path d="M312.392 203.066C316.574 200.008 319.532 195.564 320.739 190.527C321.946 185.489 321.324 180.187 318.982 175.566C318.505 174.633 317.033 175.33 317.51 176.265C319.698 180.564 320.278 185.503 319.144 190.191C318.011 194.88 315.238 199.008 311.328 201.832C310.479 202.447 311.548 203.677 312.392 203.066Z" fill="white"/>
<path d="M322.968 246.512C312.491 244.981 302.975 239.557 296.319 231.322C295.66 230.506 294.428 231.571 295.086 232.387C302.028 240.943 311.942 246.568 322.849 248.137C323.889 248.286 324.002 246.66 322.968 246.512V246.512Z" fill="white"/>
<path d="M280.56 167.882C279.189 169.402 277.461 170.558 275.533 171.245C273.605 171.933 271.536 172.13 269.512 171.821C268.475 171.659 268.362 173.284 269.393 173.445C271.63 173.777 273.915 173.556 276.047 172.801C278.179 172.046 280.094 170.781 281.625 169.115C281.782 168.97 281.878 168.771 281.894 168.557C281.91 168.344 281.844 168.133 281.709 167.966C281.567 167.804 281.367 167.704 281.152 167.688C280.937 167.672 280.724 167.742 280.56 167.882Z" fill="white"/>
<path d="M178.432 250.792C179.077 250.912 179.722 251.032 180.372 251.164C189.033 252.816 197.545 255.169 205.825 258.199C206.469 258.423 207.118 258.66 207.754 258.902C227.624 266.417 245.926 277.554 261.73 291.75C268.013 297.404 273.857 303.528 279.212 310.069C286.606 319.103 293.904 329.487 303.566 335.377C304.568 336.003 305.606 336.566 306.677 337.064L362.339 313.976C362.439 313.86 362.545 313.756 362.646 313.64L364.91 312.82C364.658 312.463 364.388 312.099 364.135 311.742C363.99 311.535 363.832 311.332 363.686 311.125C363.585 310.988 363.483 310.852 363.4 310.723C363.366 310.677 363.332 310.632 363.304 310.599C363.221 310.47 363.13 310.358 363.052 310.242C361.55 308.201 360.031 306.166 358.496 304.139C358.491 304.126 358.491 304.126 358.473 304.118C346.734 288.7 333.604 274.127 318.68 262.01C318.231 261.645 317.778 261.268 317.303 260.914C310.546 255.489 303.356 250.626 295.807 246.373C291.665 244.057 287.409 241.953 283.055 240.067C271.795 235.218 259.842 232.169 247.634 231.034C223.299 228.774 198.511 234.322 179.847 249.61C179.369 250.002 178.904 250.388 178.432 250.792Z" fill="#F0F0F0"/>
<path d="M178.85 251.445C208.533 245.508 240.306 249.014 267.807 261.773C273.752 264.531 279.544 267.846 284.364 272.335C289.186 276.825 292.265 282.239 294.206 288.494C295.98 294.212 297.133 300.266 300.267 305.454C303.57 310.922 309.013 314.258 315.213 315.489C322.797 316.995 330.471 315.686 337.931 314.146C346.214 312.435 354.79 310.527 363.181 312.663C364.198 312.922 364.54 311.329 363.525 311.071C348.926 307.354 334.722 315.296 320.093 314.465C313.267 314.077 306.516 311.63 302.468 305.851C298.928 300.797 297.734 294.554 295.987 288.749C294.153 282.653 291.417 277.197 286.952 272.59C282.385 267.878 276.711 264.329 270.862 261.431C257.671 254.895 243.188 250.683 228.642 248.571C211.923 246.141 194.911 246.59 178.343 249.897C177.318 250.102 177.832 251.649 178.85 251.446V251.445Z" fill="white"/>
<path d="M259.086 257.155C260.584 252.197 260.271 246.867 258.202 242.118C256.133 237.369 252.443 233.511 247.792 231.231C246.849 230.773 246.093 232.217 247.037 232.675C251.372 234.79 254.809 238.385 256.726 242.811C258.644 247.237 258.916 252.202 257.494 256.812C257.186 257.814 258.78 258.152 259.086 257.155Z" fill="white"/>
<path d="M293.688 285.477C284.401 290.563 273.538 291.961 263.265 289.394C262.247 289.138 261.905 290.731 262.921 290.986C273.616 293.638 284.918 292.16 294.571 286.846C295.491 286.339 294.603 284.973 293.688 285.477Z" fill="white"/>
<path d="M212.487 248.228C212.307 250.267 211.624 252.23 210.498 253.94C209.372 255.65 207.839 257.053 206.037 258.025C205.111 258.52 206 259.886 206.92 259.394C208.906 258.311 210.597 256.759 211.845 254.873C213.093 252.986 213.86 250.823 214.079 248.572C214.118 248.361 214.074 248.144 213.958 247.964C213.842 247.784 213.662 247.655 213.455 247.604C213.244 247.559 213.024 247.6 212.842 247.717C212.661 247.834 212.533 248.017 212.487 248.228Z" fill="white"/>
<path d="M284.463 288.881C292.258 251.19 302.002 238.624 302.002 238.624L305.725 235.737L310.202 232.26L310.18 231.813L311.242 231.452L311.491 231.258L311.9 230.944L311.966 231.015L312.104 231.159L332.361 224.273L358.061 215.543L369.961 200.075C371.899 197.556 374.395 195.52 377.251 194.126C380.108 192.733 383.249 192.02 386.427 192.044L424.434 192.325C429.573 192.363 434.511 194.322 438.279 197.817L463.26 220.988L502.185 239.579L502.251 239.513L502.66 239.805L508.674 242.681L508.426 243.973L512.148 246.659C512.148 246.659 521.892 258.352 529.688 293.423C531.671 302.346 532.647 321.489 532.999 345.078C533.017 346.271 532.797 347.456 532.353 348.564C531.908 349.671 531.248 350.68 530.411 351.53C529.573 352.38 528.575 353.055 527.474 353.516C526.374 353.977 525.192 354.215 523.999 354.215H316.092V354.215H290.143C288.95 354.215 287.769 353.977 286.669 353.517C285.569 353.056 284.572 352.382 283.734 351.533C282.897 350.684 282.237 349.677 281.792 348.57C281.347 347.464 281.126 346.28 281.142 345.087C281.486 319.419 282.462 298.559 284.463 288.881Z" fill="#3F3D56"/>
<path d="M257.788 32.8691C265.877 32.8691 273.634 36.0824 279.354 41.802C285.074 47.5217 288.287 55.2792 288.287 63.368C288.287 71.4568 285.074 79.2143 279.354 84.9339C273.634 90.6536 265.877 93.8668 257.788 93.8668H30.499C22.4102 93.8668 14.6528 90.6536 8.93314 84.9339C3.21347 79.2143 0.000213623 71.4568 0.000213623 63.368C0.000213623 55.2792 3.21347 47.5217 8.93314 41.802C14.6528 36.0824 22.4102 32.8691 30.499 32.8691H257.788Z" fill="#E5E5E5"/>
<path d="M257.788 39.041C264.24 39.041 270.427 41.604 274.989 46.1661C279.551 50.7282 282.114 56.9157 282.114 63.3675C282.114 69.8193 279.551 76.0068 274.989 80.5689C270.427 85.131 264.24 87.6939 257.788 87.6939H30.4988C24.047 87.6939 17.8595 85.131 13.2974 80.5689C8.73535 76.0068 6.17233 69.8193 6.17233 63.3675C6.17233 56.9157 8.73535 50.7282 13.2974 46.1661C17.8595 41.604 24.047 39.041 30.4988 39.041H257.788Z" fill="white"/>
<path d="M399.462 177.766C371.963 177.766 349.67 155.473 349.67 127.974C349.67 100.474 371.963 78.1816 399.462 78.1816C426.962 78.1816 449.254 100.474 449.254 127.974C449.254 155.473 426.962 177.766 399.462 177.766Z" fill="#9E616A"/>
<path d="M412.2 175.328C412.412 174.86 412.624 174.39 412.836 173.918C412.754 173.921 412.674 173.932 412.592 173.934L412.2 175.328Z" fill="#2F2E41"/>
<path d="M450.639 80.4464C448.12 78.4375 445.177 76.5891 441.957 76.6929C438.738 76.7967 435.472 79.7047 436.14 82.8564C430.225 72.385 420.812 64.3314 409.552 60.109C398.291 55.8867 385.903 55.7655 374.563 59.7667C366.56 62.59 358.712 68.2383 356.874 76.5227C356.402 78.6493 356.301 80.9811 354.973 82.708C353.299 84.8853 350.096 85.3778 347.458 84.6119C347.432 84.6042 347.406 84.5965 347.379 84.5886C346.934 84.4364 346.453 84.4215 345.999 84.5457C345.544 84.6698 345.138 84.9274 344.832 85.2851C344.526 85.6428 344.334 86.0841 344.281 86.552C344.229 87.0199 344.317 87.4929 344.537 87.9096L346.801 92.1325C343.947 92.7687 340.981 92.7056 338.156 91.9486C337.687 91.8256 337.191 91.8507 336.737 92.0206C336.282 92.1904 335.892 92.4967 335.618 92.8974C335.345 93.2981 335.202 93.7736 335.21 94.2586C335.217 94.7436 335.374 95.2145 335.66 95.6065C343.126 105.857 355.6 112.477 368.329 112.399C377.376 112.344 386.516 109.226 395.321 111.306C398.727 112.111 401.91 113.668 404.636 115.863C407.361 118.059 409.561 120.837 411.074 123.993C412.586 127.149 413.372 130.604 413.375 134.104C413.378 137.604 412.597 141.061 411.09 144.22C413.795 141.261 419.024 141.961 421.791 144.862C424.558 147.763 425.274 152.093 424.995 156.092C424.569 162.208 422.172 167.971 419.646 173.581C440.827 172.914 460.861 158.056 467.604 137.96C474.376 117.78 467.279 93.7207 450.639 80.4464Z" fill="#2F2E41"/>
<path opacity="0.2" d="M483.992 277.504L470.026 353.488L461.647 354.217L483.992 277.504Z" fill="black"/>
<path opacity="0.2" d="M330.159 271.771L344.124 353.431L352.504 354.215L330.159 271.771Z" fill="black"/>
<path d="M463.646 54.8737C460.968 55.9918 458.174 54.7664 457.002 51.9602C455.813 49.1111 456.924 46.2189 459.644 45.0829C462.365 43.9467 465.11 45.1751 466.318 48.0702C467.509 50.9218 466.41 53.7194 463.646 54.8737ZM458.517 39.4749L456.388 40.3639C455.856 40.5834 455.261 40.5952 454.721 40.3971C454.18 40.1989 453.734 39.8053 453.47 39.294L453.365 39.088C451.074 34.9565 450.812 29.9353 452.59 24.1717C454.236 19.0014 454.92 15.3651 453.545 12.0709C451.954 8.26215 448.558 7.06905 444.228 8.79739C442.548 9.49876 442.013 9.48759 440.692 10.7989C440.404 11.0876 440.061 11.3154 439.684 11.4688C439.306 11.6222 438.902 11.698 438.494 11.6917C438.101 11.6871 437.712 11.6032 437.351 11.445C436.99 11.2868 436.665 11.0576 436.395 10.7711C435.874 10.2189 435.582 9.48967 435.579 8.73073C435.575 7.97179 435.859 7.23967 436.374 6.68222C438.596 4.35645 441.276 2.51647 444.244 1.27839C453.549 -2.60706 458.234 3.12925 460.377 8.26271C462.474 13.2838 461.294 17.9426 459.399 23.9761C457.811 28.9896 457.904 32.7046 459.708 36.3984C459.838 36.6776 459.91 36.9803 459.921 37.2883C459.931 37.5962 459.879 37.9031 459.768 38.1904C459.657 38.4778 459.488 38.7397 459.273 38.9604C459.058 39.1811 458.801 39.3561 458.517 39.4749L458.517 39.4749Z" fill="#0A503D"/>
<path d="M207.583 77.9148H252.805C252.948 77.9158 253.091 77.8884 253.224 77.8341C253.357 77.7798 253.478 77.6997 253.58 77.5984C253.682 77.4972 253.763 77.3768 253.818 77.2442C253.873 77.1115 253.901 76.9693 253.901 76.8256C253.901 76.6819 253.873 76.5397 253.818 76.407C253.763 76.2744 253.682 76.154 253.58 76.0527C253.478 75.9515 253.357 75.8714 253.224 75.8171C253.091 75.7628 252.948 75.7354 252.805 75.7364H207.583C207.295 75.7383 207.02 75.8539 206.817 76.058C206.615 76.262 206.501 76.538 206.501 76.8256C206.501 77.1132 206.615 77.3891 206.817 77.5932C207.02 77.7973 207.295 77.9129 207.583 77.9148Z" fill="#0A503D"/>
<path d="M150.216 78.2781H195.438C195.581 78.2791 195.724 78.2517 195.857 78.1974C195.99 78.1431 196.111 78.063 196.213 77.9617C196.315 77.8605 196.396 77.7401 196.451 77.6074C196.506 77.4748 196.534 77.3326 196.534 77.1889C196.534 77.0452 196.506 76.903 196.451 76.7703C196.396 76.6377 196.315 76.5173 196.213 76.416C196.111 76.3148 195.99 76.2347 195.857 76.1804C195.724 76.1261 195.581 76.0987 195.438 76.0996H150.216C150.072 76.0987 149.93 76.1261 149.797 76.1804C149.664 76.2347 149.543 76.3148 149.441 76.416C149.339 76.5173 149.258 76.6377 149.203 76.7703C149.147 76.903 149.119 77.0452 149.119 77.1889C149.119 77.3326 149.147 77.4748 149.203 77.6074C149.258 77.7401 149.339 77.8605 149.441 77.9617C149.543 78.063 149.664 78.1431 149.797 78.1974C149.93 78.2517 150.072 78.2791 150.216 78.2781Z" fill="#0A503D"/>
<path d="M92.8486 78.6414H138.071C138.358 78.6394 138.633 78.5238 138.836 78.3198C139.039 78.1157 139.153 77.8398 139.153 77.5522C139.153 77.2645 139.039 76.9886 138.836 76.7845C138.633 76.5805 138.358 76.4649 138.071 76.4629H92.8487C92.705 76.4619 92.5626 76.4894 92.4296 76.5437C92.2966 76.598 92.1756 76.6781 92.0737 76.7793C91.9717 76.8806 91.8908 77.001 91.8356 77.1336C91.7804 77.2662 91.752 77.4085 91.752 77.5522C91.752 77.6958 91.7804 77.8381 91.8356 77.9707C91.8908 78.1034 91.9717 78.2238 92.0737 78.325C92.1756 78.4263 92.2966 78.5063 92.4296 78.5606C92.5626 78.6149 92.705 78.6424 92.8487 78.6414H92.8486Z" fill="#0A503D"/>
<path d="M35.482 79.0047H80.704C80.9916 79.0027 81.2668 78.8871 81.4694 78.683C81.6721 78.479 81.7859 78.203 81.7859 77.9154C81.7859 77.6278 81.6721 77.3519 81.4694 77.1478C81.2668 76.9437 80.9916 76.8281 80.704 76.8262H35.482C35.1944 76.8281 34.9192 76.9437 34.7165 77.1478C34.5139 77.3519 34.4001 77.6278 34.4001 77.9154C34.4001 78.203 34.5139 78.479 34.7165 78.683C34.9192 78.8871 35.1944 79.0027 35.482 79.0047Z" fill="#0A503D"/>
<path d="M230.293 67.8898C225.652 67.8898 221.889 64.1268 221.889 59.4849C221.889 54.8431 225.652 51.0801 230.293 51.0801C234.935 51.0801 238.698 54.8431 238.698 59.4849C238.698 64.1268 234.935 67.8898 230.293 67.8898Z" fill="#0A503D"/>
<path d="M172.58 67.8898C167.938 67.8898 164.175 64.1268 164.175 59.4849C164.175 54.8431 167.938 51.0801 172.58 51.0801C177.222 51.0801 180.985 54.8431 180.985 59.4849C180.985 64.1268 177.222 67.8898 172.58 67.8898Z" fill="#0A503D"/>
<path d="M114.867 67.8898C110.225 67.8898 106.462 64.1268 106.462 59.4849C106.462 54.8431 110.225 51.0801 114.867 51.0801C119.509 51.0801 123.271 54.8431 123.271 59.4849C123.271 64.1268 119.509 67.8898 114.867 67.8898Z" fill="#0A503D"/>
<path d="M57.1532 67.8898C52.5114 67.8898 48.7484 64.1268 48.7484 59.4849C48.7484 54.8431 52.5114 51.0801 57.1532 51.0801C61.7951 51.0801 65.5581 54.8431 65.5581 59.4849C65.5581 64.1268 61.7951 67.8898 57.1532 67.8898Z" fill="#0A503D"/>
</svg>
