<svg width="310" height="341" viewBox="0 0 310 341" fill="none" xmlns="http://www.w3.org/2000/svg">
<path d="M24.1572 303.611L41.0424 208.916H115.888L132.015 303.611H24.1572Z" fill="#BFF0E3"/>
<path d="M60.96 208.09C60.96 198.648 68.61 190.998 78.0519 190.998C87.4937 190.998 95.1437 198.648 95.1437 208.09" fill="white"/>
<path d="M60.96 208.09C60.96 198.648 68.61 190.998 78.0519 190.998C87.4937 190.998 95.1437 198.648 95.1437 208.09" stroke="#B9C6E4" stroke-width="0.689189" stroke-miterlimit="10"/>
<path d="M81.8418 325.872L92.3175 267.016H138.838L148.9 325.872H81.8418Z" fill="white" stroke="#EF749B" stroke-width="0.689189" stroke-miterlimit="10"/>
<path d="M104.723 266.463C104.723 260.605 109.478 255.85 115.336 255.85C121.194 255.85 125.95 260.605 125.95 266.463" stroke="#EF749B" stroke-width="0.689189" stroke-miterlimit="10"/>
<path d="M90.1129 257.78C91.3534 257.435 92.5939 256.953 93.6966 256.264C92.5939 255.575 91.3534 255.023 90.1129 254.748C88.8034 254.403 87.8385 253.369 87.4939 252.129C87.1493 250.819 86.6669 249.648 85.9777 248.545C85.2885 249.648 84.7372 250.888 84.4615 252.129C84.1169 253.438 83.0831 254.403 81.8426 254.748C80.5331 255.092 79.3615 255.575 78.2588 256.264C79.3615 256.953 80.602 257.504 81.8426 257.78C83.152 258.125 84.1169 259.158 84.4615 260.468C84.8061 261.708 85.2885 262.949 85.9777 264.052C86.6669 262.949 87.2183 261.708 87.4939 260.468C87.7696 259.158 88.8034 258.125 90.1129 257.78Z" fill="white"/>
<path d="M66.9554 275.01C67.907 275.01 68.6784 274.239 68.6784 273.287C68.6784 272.336 67.907 271.564 66.9554 271.564C66.0038 271.564 65.2324 272.336 65.2324 273.287C65.2324 274.239 66.0038 275.01 66.9554 275.01Z" fill="white"/>
<path d="M64.1301 258.537H3.48145V311.191H64.1301V258.537Z" fill="#FBD7AD"/>
<path opacity="0.37" d="M3.48145 269.29L64.1301 272.805V267.016H3.48145V269.29Z" fill="#F7A929"/>
<path d="M42.765 267.016C42.765 271.84 38.9056 275.699 34.0812 275.699C29.2569 275.699 25.3975 271.84 25.3975 267.016" fill="white"/>
<path d="M66.1284 256.125H1V267.014H66.1284V256.125Z" fill="white" stroke="#F7C689" stroke-width="0.689189" stroke-miterlimit="10"/>
<path d="M52.2074 292.102H15.9561V298.235H52.2074V292.102Z" fill="white"/>
<path d="M117.887 101.68H130.292" stroke="#B9C6E4" stroke-width="0.689189" stroke-miterlimit="10"/>
<path d="M70.0572 25.8682C71.4356 25.5236 72.745 24.9723 73.9167 24.2142C72.745 23.4561 71.4356 22.9047 70.0572 22.5601C68.6788 22.2155 67.5761 21.1128 67.2315 19.7345C66.8869 18.3561 66.3356 17.0466 65.5775 15.875C64.8194 17.0466 64.268 18.3561 63.9234 19.7345C63.5788 21.1128 62.4761 22.2155 61.0977 22.5601C59.7194 22.9047 58.4099 23.4561 57.2383 24.2142C58.4099 24.9723 59.7194 25.5236 61.0977 25.8682C62.4761 26.2128 63.5788 27.3155 63.9234 28.6939C64.268 30.0723 64.8194 31.3818 65.5775 32.5534C66.3356 31.3818 66.8869 30.0723 67.2315 28.6939C67.5761 27.3155 68.6788 26.2818 70.0572 25.8682Z" fill="#F7A929"/>
<path d="M272.68 196.304C275.116 196.304 277.091 194.329 277.091 191.893C277.091 189.457 275.116 187.482 272.68 187.482C270.244 187.482 268.27 189.457 268.27 191.893C268.27 194.329 270.244 196.304 272.68 196.304Z" stroke="#09392C" stroke-width="1.37838" stroke-miterlimit="10"/>
<path d="M87.9061 68.7344L79.9805 75.006" stroke="#09392C" stroke-width="0.516892" stroke-miterlimit="10"/>
<path d="M149.658 15.5293C149.658 15.5293 148.9 37.7901 150.83 41.4428C152.415 44.682 156.068 46.3361 159.514 45.4401L159.996 57.432C159.996 57.432 170.954 72.5942 183.98 55.9158L182.326 35.9982C182.326 35.9982 185.221 37.9279 188.46 32.2766C191.699 26.6252 188.529 18.7685 182.808 24.0063L181.637 25.109L181.292 17.1144L149.658 15.5293Z" fill="#BFF0E3"/>
<path d="M147.523 16.0813C147.523 16.0813 146.696 11.188 149.452 7.53533C152.209 3.88263 165.993 -0.941696 173.505 1.81506C181.017 4.57182 181.5 13.807 181.637 17.4597L147.523 16.0813Z" fill="#B9C6E4" stroke="#0A503D" stroke-width="0.689189" stroke-miterlimit="10"/>
<path d="M169.298 309.607H147.727V332.833H169.298V309.607Z" fill="#BFF0E3"/>
<path d="M230.087 309.607H208.516V332.833H230.087V309.607Z" fill="#BFF0E3"/>
<path opacity="0.46" d="M130.98 65.91C130.98 65.91 136.839 57.7086 143.73 54.5383L159.72 50.1275L159.926 55.71C159.926 55.71 172.47 65.2208 183.497 54.6072V49.5762C183.497 49.5762 206.998 56.7437 215.337 64.187C220.989 69.2181 230.017 95.2005 230.017 95.2005L206.309 100.783L148.003 101.059V150.68H141.732L140.491 101.128" fill="#EF749B"/>
<path d="M108.238 123.87L120.782 143.168C123.263 146.958 127.398 149.233 131.946 149.233C135.599 149.233 139.045 147.785 141.526 145.166L143.387 99.5421L140.492 101.127L134.979 77.2812L108.238 123.87Z" fill="#BFF0E3"/>
<path d="M77.5003 63.4972L91.4908 122.078C92.4557 126.213 96.6598 128.832 100.795 127.799C101.002 127.73 101.208 127.661 101.415 127.592L137.046 115.876C140.906 114.635 143.111 110.569 142.146 106.64L127.673 48.7486C126.639 44.6134 122.435 42.0634 118.3 43.0972C118.162 43.1662 118.025 43.1662 117.887 43.2351L82.7381 54.2621C78.8787 55.5026 76.6043 59.4999 77.5003 63.4972Z" fill="white" stroke="#F7A929" stroke-width="0.689189" stroke-miterlimit="10"/>
<path d="M123.883 79.0046L97.4178 89.6181L92.8691 72.1127L118.989 61.3613L123.883 79.0046Z" stroke="#EF749B" stroke-width="0.689189" stroke-miterlimit="10"/>
<path d="M123.952 86.8611L101.14 95.8895L100.727 94.2354L123.47 85.207L123.952 86.8611Z" fill="#B9C6E4"/>
<path d="M121.954 93.0648L105.621 99.4742L105.207 97.7513L121.541 91.3418L121.954 93.0648Z" fill="#B9C6E4"/>
<path d="M93.3526 83.1387L89.6999 89.617L87.2878 104.986L83.3594 88.79L93.3526 83.1387Z" fill="#0A503D"/>
<path d="M87.2867 104.987C86.5975 104.298 82.5313 99.749 79.4989 96.372C77.2934 93.9598 75.9151 90.8585 75.6394 87.6193L74.8124 78.6598C74.5367 75.5585 76.0529 72.595 78.7408 71.0787L87.1489 66.3233C88.3205 65.7031 89.7678 66.0477 90.388 67.2193C90.457 67.2882 90.457 67.426 90.5259 67.495L90.6637 67.8396C91.0083 68.6666 90.8705 69.5625 90.3191 70.1828L87.907 73.2152L92.3178 70.872C93.5583 70.3895 94.8678 70.9409 95.4191 72.1814L95.557 72.4571C95.9705 73.3531 95.6948 74.4558 94.9367 75.145L88.2516 80.8652L90.1813 79.9004C91.3529 79.349 92.8002 79.8314 93.3516 81.0031C93.834 82.0368 93.4894 83.2774 92.5934 83.8977C90.5948 85.345 87.4935 87.7571 87.3556 88.0328C87.2178 88.5152 85.5637 97.8882 85.5637 97.8882L87.2867 104.987Z" fill="#BFF0E3"/>
<path d="M132.289 117.461L136.838 126.765" stroke="#09392C" stroke-width="0.516892" stroke-miterlimit="10"/>
<path d="M148.487 154.953L143.387 315.534H170.61L178.811 203.886L206.999 315.534H232.981L204.862 155.022L148.487 154.953Z" fill="#09392C"/>
<path d="M170.746 327.87C170.746 327.87 153.861 331.729 151.173 324.079C148.485 316.429 148.279 316.843 145.315 316.498L144.488 320.84L130.567 327.87L112.027 335.451V339.241H170.677V327.87H170.746Z" fill="#0A503D"/>
<path d="M222.024 101.059H148.074V154.953H222.024V101.059Z" fill="#F7C689" stroke="#F7A929" stroke-width="0.689189" stroke-miterlimit="10"/>
<path d="M177.226 101.471H161.719V119.045H177.226V101.471Z" fill="white"/>
<path d="M149.383 146.683L239.804 56.2617" stroke="#F7A929" stroke-width="0.689189" stroke-miterlimit="10"/>
<path d="M152.691 149.992L243.182 59.5703" stroke="#F7A929" stroke-width="0.689189" stroke-miterlimit="10"/>
<path d="M155.998 153.299L246.489 62.877" stroke="#F7A929" stroke-width="0.689189" stroke-miterlimit="10"/>
<path d="M159.307 156.607L249.797 66.1855" stroke="#F7A929" stroke-width="0.689189" stroke-miterlimit="10"/>
<path d="M162.615 159.914L253.106 69.4922" stroke="#F7A929" stroke-width="0.689189" stroke-miterlimit="10"/>
<path d="M165.924 163.222L256.414 72.8008" stroke="#F7A929" stroke-width="0.689189" stroke-miterlimit="10"/>
<path d="M169.232 166.531L259.723 76.1094" stroke="#F7A929" stroke-width="0.689189" stroke-miterlimit="10"/>
<path d="M172.539 169.909L263.03 79.418" stroke="#F7A929" stroke-width="0.689189" stroke-miterlimit="10"/>
<path d="M175.848 173.217L266.338 82.7266" stroke="#F7A929" stroke-width="0.689189" stroke-miterlimit="10"/>
<path d="M179.154 176.455L269.645 86.0332" stroke="#F7A929" stroke-width="0.689189" stroke-miterlimit="10"/>
<path d="M182.533 179.832L272.955 89.3418" stroke="#F7A929" stroke-width="0.689189" stroke-miterlimit="10"/>
<path d="M185.842 183.141L276.263 92.6504" stroke="#F7A929" stroke-width="0.689189" stroke-miterlimit="10"/>
<path d="M189.148 186.448L279.57 95.957" stroke="#F7A929" stroke-width="0.689189" stroke-miterlimit="10"/>
<path d="M192.457 189.756L282.879 99.2656" stroke="#F7A929" stroke-width="0.689189" stroke-miterlimit="10"/>
<path d="M195.766 193.065L286.187 102.574" stroke="#F7A929" stroke-width="0.689189" stroke-miterlimit="10"/>
<path d="M199.072 196.373L289.494 105.951" stroke="#F7A929" stroke-width="0.689189" stroke-miterlimit="10"/>
<path d="M202.381 199.681L292.802 109.26" stroke="#F7A929" stroke-width="0.689189" stroke-miterlimit="10"/>
<path d="M205.689 202.988L296.111 112.566" stroke="#F7A929" stroke-width="0.689189" stroke-miterlimit="10"/>
<path d="M208.998 206.297L299.42 115.875" stroke="#F7A929" stroke-width="0.689189" stroke-miterlimit="10"/>
<path d="M212.307 209.605L302.797 119.184" stroke="#F7A929" stroke-width="0.689189" stroke-miterlimit="10"/>
<path d="M215.613 212.914L306.104 122.492" stroke="#F7A929" stroke-width="0.689189" stroke-miterlimit="10"/>
<path d="M218.922 216.222L309.412 125.801" stroke="#F7A929" stroke-width="0.689189" stroke-miterlimit="10"/>
<path d="M221.953 101.059H192.387V154.953H221.953V101.059Z" stroke="#F7A929" stroke-width="0.689189" stroke-miterlimit="10"/>
<path d="M227.055 95.8887L235.256 146.199C236.083 152.127 233.188 157.916 227.951 160.879C221.955 164.256 214.994 168.185 214.856 168.391C214.649 168.805 205.414 163.498 202.52 154.952H212.375L217.199 148.267L206.379 100.782L227.055 95.8887Z" fill="#BFF0E3"/>
<path d="M149.314 21.1126H136.84C136.84 21.1126 136.702 16.1504 147.798 16.1504L149.59 16.2193L149.314 21.1126Z" fill="#09392C"/>
<path d="M234.155 329.386C232.777 326.423 230.364 318.359 230.364 318.359H208.242C208.242 318.359 205.829 326.492 204.451 329.386C203.073 332.281 203.417 337.105 203.417 337.105C210.723 341.585 231.467 340.345 235.258 337.105C235.258 337.105 235.533 332.35 234.155 329.386Z" fill="#0A503D"/>
<path d="M198.864 100.093L195.625 70.3887" stroke="#EF749B" stroke-width="0.689189" stroke-miterlimit="10"/>
<path d="M181.706 25.1101L181.361 17.3912C181.361 17.1844 171.161 16.9088 170.059 16.8398C170.128 18.9763 171.023 21.0439 172.471 22.629C173.642 23.6628 175.09 24.4898 176.537 25.0412L179.225 26.2128C180.672 26.8331 180.879 26.5574 181.706 25.1101Z" fill="#0A503D"/>
<path d="M182.051 31.2431L187.082 27.5215" stroke="#09392C" stroke-width="0.689189" stroke-miterlimit="10" stroke-linecap="round" stroke-linejoin="round"/>
<path d="M154.414 36.2747C157.309 36.7572 160.272 35.9991 162.615 34.2072C162.891 34.0004 162.478 33.6558 162.271 33.8626C160.065 35.5856 157.309 36.2747 154.621 35.7923C154.207 35.7234 154.069 36.2058 154.414 36.2747Z" fill="#09392C"/>
<path d="M140.836 26.1431C142.697 23.3864 146.418 22.6972 149.106 24.4891C150.14 25.1783 150.898 26.1431 151.381 27.3147C147.59 29.1755 143.455 29.3134 140.836 26.1431Z" fill="white"/>
<path d="M159.516 45.853L166.959 42.5449L159.722 50.5395L159.516 45.853Z" fill="#09392C"/>
<path d="M158.204 16.4255L149.658 16.2188C149.658 16.2877 149.658 16.3566 149.589 16.3566C148.417 16.9079 147.314 17.735 146.487 18.7687C145.66 20.0093 145.454 21.5944 145.936 22.9728C146.625 24.4201 147.866 25.385 149.451 25.7296C149.52 25.7296 149.451 23.5242 149.451 23.3174C149.589 22.3525 149.795 21.3877 150.76 21.112C151.725 20.8363 152.759 21.1809 153.724 21.2498C156.618 21.3187 157.514 18.7687 158.341 16.5633C158.341 16.5633 158.272 16.4255 158.204 16.4255Z" fill="#0A503D"/>
<path d="M166.751 26.3499C164.891 23.8688 161.445 23.3175 158.963 25.1783C157.999 25.8675 157.309 26.8324 156.965 27.9351C160.48 29.4513 163.995 28.4175 166.751 26.3499Z" fill="white"/>
<path d="M154.416 28.3486C154.002 29.0378 153.795 29.8648 153.933 30.6918C154.071 31.381 154.553 31.8634 155.174 32.0702C155.518 32.1391 155.656 31.6567 155.312 31.5878C154.829 31.4499 154.485 31.0364 154.416 30.554C154.416 29.8648 154.553 29.2445 154.898 28.6242C154.967 28.4864 154.898 28.3486 154.829 28.2796C154.622 28.2107 154.485 28.2107 154.416 28.3486Z" fill="#09392C"/>
<path d="M166.958 21.8704C164.822 20.6988 162.203 20.7677 160.066 21.9393C162.341 21.8704 164.684 21.8704 166.958 21.8704Z" fill="#09392C"/>
<path d="M167.094 21.5949C164.82 20.4233 162.132 20.4233 159.927 21.6638C159.789 21.7327 159.789 21.8706 159.858 22.0084C159.927 22.0773 159.996 22.1462 160.065 22.1462C162.339 22.1462 164.682 22.1462 166.956 22.0773C167.094 22.0773 167.163 21.9395 167.163 21.8017C167.163 21.6638 167.025 21.5949 166.956 21.5949C164.682 21.5949 162.339 21.6638 160.065 21.6638L160.202 22.1462C162.27 21.0435 164.751 20.9746 166.819 22.0773C167.163 22.2152 167.37 21.8017 167.094 21.5949Z" fill="#09392C"/>
<path d="M162.753 28.3488C162.753 27.5907 162.546 26.8326 162.063 26.2124C161.443 25.4543 160.547 24.9718 159.513 24.834C158.273 25.5232 157.377 26.6259 156.895 27.9353C158.755 28.6934 160.823 28.9002 162.753 28.3488Z" fill="#09392C"/>
<path d="M90.7329 79.1406L80.8086 87.0663" stroke="#09392C" stroke-width="0.516892" stroke-miterlimit="10"/>
<path d="M178.81 203.885L169.438 173.078" stroke="white" stroke-width="0.689189" stroke-miterlimit="10"/>
<path d="M194.801 160.881L206.035 173.424" stroke="white" stroke-width="0.689189" stroke-miterlimit="10"/>
<path d="M181.499 13.2559H173.16V16.9086H181.499V13.2559Z" stroke="white" stroke-width="0.689189" stroke-miterlimit="10"/>
<path d="M88.7339 72.5254L78.8096 80.4511" stroke="#09392C" stroke-width="0.516892" stroke-miterlimit="10"/>
<path d="M203.414 100.85L210.375 150.61L202.449 154.952H212.305L217.129 148.266L206.309 100.781L203.414 100.85Z" fill="#F7A929"/>
<path d="M182.327 35.9981L178.812 35.5156L182.534 38.6859L182.327 35.9981Z" fill="#09392C"/>
<path d="M171.302 179.006H163.996" stroke="white" stroke-width="0.689189" stroke-miterlimit="10"/>
<path d="M175.781 15.3915C176.009 15.3915 176.194 15.2063 176.194 14.978C176.194 14.7496 176.009 14.5645 175.781 14.5645C175.552 14.5645 175.367 14.7496 175.367 14.978C175.367 15.2063 175.552 15.3915 175.781 15.3915Z" fill="white"/>
<path d="M179.433 15.3915C179.661 15.3915 179.847 15.2063 179.847 14.978C179.847 14.7496 179.661 14.5645 179.433 14.5645C179.205 14.5645 179.02 14.7496 179.02 14.978C179.02 15.2063 179.205 15.3915 179.433 15.3915Z" fill="white"/>
<path opacity="0.21" d="M167.716 36.1377C169.81 36.1377 171.507 34.4406 171.507 32.3472C171.507 30.2537 169.81 28.5566 167.716 28.5566C165.623 28.5566 163.926 30.2537 163.926 32.3472C163.926 34.4406 165.623 36.1377 167.716 36.1377Z" fill="#EF749B"/>
<path d="M203.551 332.834C203.551 332.834 219.402 338.279 235.047 332.834" stroke="white" stroke-width="0.689189" stroke-miterlimit="10"/>
<path d="M143.387 99.4722L144.558 72.5249L142.422 68.7344" stroke="#EF749B" stroke-width="0.689189" stroke-miterlimit="10"/>
<path opacity="0.43" d="M206.929 103.401L228.363 103.883L227.053 95.8887L206.309 100.782L206.929 103.401Z" fill="#0A503D"/>
<path d="M87.6315 35.1028C89.0017 35.1028 90.1126 33.992 90.1126 32.6217C90.1126 31.2514 89.0017 30.1406 87.6315 30.1406C86.2612 30.1406 85.1504 31.2514 85.1504 32.6217C85.1504 33.992 86.2612 35.1028 87.6315 35.1028Z" fill="#F7A929"/>
<path d="M147.18 16.0801C149.178 16.149 151.177 16.6314 153.038 17.3895C154.899 18.1476 156.415 19.526 158.207 20.422C159.447 21.1112 160.757 21.5247 162.135 21.6625C163.376 21.6625 164.547 21.3868 165.581 20.7666C166.684 20.2152 171.853 17.2517 172.128 17.0449L147.18 16.0801Z" fill="#B9C6E4" stroke="#0A503D" stroke-width="0.689189" stroke-miterlimit="10"/>
<path opacity="0.32" d="M252.486 67.0799C254.83 66.4596 257.104 65.4948 259.171 64.2542C257.104 62.9448 254.83 61.9799 252.486 61.3596C250.074 60.7394 248.213 58.8786 247.593 56.4664C246.973 54.1231 246.077 51.8488 244.767 49.7812C243.458 51.8488 242.493 54.1231 241.942 56.4664C241.321 58.8786 239.461 60.7394 237.048 61.3596C234.705 61.9799 232.431 62.9448 230.363 64.1853C232.431 65.4948 234.705 66.4596 237.048 67.011C239.461 67.6313 241.321 69.4921 241.942 71.9042C242.562 74.2475 243.527 76.5218 244.767 78.5894C246.077 76.5218 247.042 74.2475 247.662 71.9042C248.282 69.561 250.074 67.7002 252.486 67.0799Z" fill="#F7C689"/>
<path opacity="0.32" d="M105.689 163.568C108.033 162.948 110.307 161.983 112.375 160.743C110.307 159.433 108.033 158.468 105.689 157.848C103.277 157.228 101.416 155.367 100.796 152.955C100.176 150.611 99.2799 148.337 97.9705 146.27C96.661 148.337 95.6961 150.611 95.1448 152.955C94.5245 155.367 92.6637 157.228 90.2515 157.848C87.9083 158.468 85.634 159.433 83.5664 160.674C85.634 161.983 87.9083 162.948 90.2515 163.499C92.6637 164.12 94.5245 165.98 95.1448 168.393C95.765 170.736 96.7299 173.01 97.9705 175.078C99.2799 173.01 100.245 170.736 100.865 168.393C101.485 166.049 103.277 164.188 105.689 163.568Z" fill="#F7C689"/>
<path d="M113.477 334.693H170.679" stroke="white" stroke-width="0.689189" stroke-miterlimit="10"/>
</svg>
