<svg width="297" height="251" viewBox="0 0 297 251" fill="none" xmlns="http://www.w3.org/2000/svg">
<g clip-path="url(#clip0_963_3828)">
<path d="M266.184 234.658L261.191 239.254L265.159 232.596C262.033 226.927 256.92 222.027 256.92 222.027C256.92 222.027 246.312 232.19 246.312 240.179C246.312 248.168 251.062 250.957 256.92 250.957C262.778 250.957 267.528 248.168 267.528 240.179C267.462 238.266 267.004 236.387 266.184 234.658Z" fill="#F0F0F0"/>
<path d="M259.91 239.503V239.896C259.887 244.474 259.115 248.045 257.6 250.56C257.579 250.597 257.555 250.632 257.534 250.669L257.364 250.565L257.203 250.464C258.883 247.749 259.477 243.91 259.499 239.918C259.501 239.789 259.503 239.659 259.501 239.528C259.495 237.838 259.392 236.128 259.226 234.467C259.214 234.339 259.201 234.208 259.187 234.078C258.957 231.886 258.626 229.793 258.286 227.974C258.263 227.845 258.238 227.717 258.212 227.59C257.625 224.514 257.027 222.286 256.891 221.793C256.875 221.732 256.865 221.699 256.863 221.691L257.048 221.639L257.05 221.637L257.238 221.584C257.24 221.592 257.273 221.703 257.327 221.91C257.536 222.681 258.078 224.777 258.61 227.541C258.633 227.666 258.659 227.795 258.682 227.923C258.959 229.399 259.23 231.048 259.444 232.779C259.499 233.214 259.548 233.643 259.59 234.066C259.606 234.197 259.62 234.327 259.631 234.456C259.811 236.251 259.904 237.933 259.91 239.503Z" fill="white"/>
<path d="M258.607 227.543C258.476 227.561 258.344 227.578 258.209 227.592C257.844 227.629 257.477 227.648 257.11 227.648C255.545 227.651 254 227.301 252.587 226.627C252.506 226.73 252.424 226.834 252.34 226.939C253.825 227.664 255.457 228.04 257.11 228.038C257.502 228.038 257.894 228.017 258.284 227.976C258.416 227.962 258.549 227.945 258.679 227.925C259.757 227.771 260.806 227.453 261.788 226.984C261.705 226.876 261.623 226.771 261.543 226.668C260.613 227.103 259.623 227.398 258.607 227.543Z" fill="white"/>
<path d="M259.591 234.068C259.457 234.075 259.322 234.079 259.188 234.079C259.147 234.081 259.104 234.081 259.063 234.081C257.367 234.081 255.697 233.671 254.194 232.886C252.691 232.101 251.4 230.964 250.431 229.572C250.353 229.687 250.275 229.802 250.199 229.919C251.209 231.328 252.54 232.475 254.081 233.267C255.622 234.058 257.33 234.471 259.063 234.471C259.118 234.471 259.172 234.471 259.227 234.469C259.363 234.467 259.498 234.463 259.632 234.457C261.714 234.351 263.72 233.647 265.412 232.43C265.35 232.315 265.287 232.2 265.223 232.085C263.579 233.28 261.621 233.969 259.591 234.068Z" fill="white"/>
<path d="M259.908 239.503C259.772 239.515 259.635 239.523 259.499 239.528C259.353 239.534 259.206 239.538 259.06 239.538C256.782 239.536 254.565 238.795 252.743 237.427C250.92 236.06 249.59 234.138 248.951 231.951C248.863 232.109 248.775 232.265 248.691 232.423C249.412 234.605 250.801 236.505 252.662 237.852C254.524 239.199 256.762 239.926 259.06 239.928C259.206 239.928 259.353 239.926 259.497 239.918C259.635 239.914 259.772 239.907 259.908 239.897C262.664 239.681 265.236 238.426 267.101 236.386C267.06 236.242 267.014 236.099 266.967 235.955C265.165 238.011 262.633 239.283 259.908 239.503Z" fill="white"/>
<path d="M224.434 61.9738L224.643 57.9884L225.712 62.4191C229.357 63.5174 233.521 63.4752 233.521 63.4752C233.521 63.4752 233.803 54.8412 230.518 51.4825C227.234 48.1237 224.09 48.9035 221.627 51.3121C219.164 53.7207 218.314 56.8459 221.599 60.2047C222.413 60.9818 223.378 61.5839 224.434 61.9738Z" fill="#F0F0F0"/>
<path d="M225.08 57.3546L224.918 57.1891C223.046 55.255 221.902 53.4362 221.505 51.7562C221.499 51.7318 221.494 51.7074 221.488 51.683L221.602 51.6567L221.712 51.6328C222.122 53.4654 223.45 55.3236 225.082 57.0109C225.134 57.0658 225.187 57.1216 225.242 57.1757C225.939 57.8838 226.685 58.5602 227.438 59.1903C227.496 59.2396 227.555 59.2889 227.614 59.3382C228.612 60.1649 229.612 60.9089 230.503 61.5341C230.565 61.5786 230.629 61.6222 230.692 61.6651C232.203 62.7172 233.371 63.4079 233.631 63.5592C233.662 63.5782 233.68 63.5881 233.684 63.5906L233.628 63.6888V63.6905L233.571 63.7895C233.567 63.7871 233.507 63.754 233.399 63.6895C232.994 63.4507 231.905 62.7925 230.544 61.8491C230.483 61.8062 230.42 61.7626 230.357 61.7181C229.634 61.2115 228.842 60.6295 228.04 59.9898C227.838 59.8295 227.642 59.6692 227.45 59.509C227.389 59.4605 227.33 59.4112 227.272 59.3619C226.459 58.6808 225.728 58.0117 225.08 57.3546Z" fill="white"/>
<path d="M230.545 61.85C230.593 61.7889 230.641 61.727 230.692 61.666C230.83 61.5 230.977 61.3412 231.131 61.1902C231.788 60.5459 232.582 60.0573 233.453 59.7603C233.445 59.6832 233.437 59.6061 233.429 59.5273C232.506 59.8332 231.665 60.3459 230.971 61.0263C230.806 61.1875 230.65 61.3573 230.503 61.535C230.453 61.5952 230.405 61.6571 230.358 61.719C229.968 62.2272 229.658 62.7917 229.438 63.3932C229.517 63.4038 229.595 63.4144 229.671 63.425C229.883 62.8598 230.178 62.329 230.545 61.85Z" fill="white"/>
<path d="M227.45 59.5097C227.503 59.4512 227.558 59.3942 227.615 59.3389C227.631 59.3212 227.649 59.3036 227.666 59.2868C228.379 58.5896 229.25 58.0752 230.205 57.7873C231.16 57.4995 232.17 57.4468 233.149 57.6337C233.135 57.5533 233.12 57.4728 233.104 57.3924C232.101 57.2154 231.07 57.2801 230.096 57.581C229.122 57.8819 228.235 58.4105 227.506 59.1229C227.483 59.1453 227.46 59.1678 227.438 59.191C227.381 59.2479 227.327 59.3049 227.272 59.3626C226.441 60.2632 225.887 61.3841 225.676 62.5913C225.749 62.6141 225.823 62.6368 225.897 62.6587C226.097 61.4803 226.637 60.3859 227.45 59.5097Z" fill="white"/>
<path d="M225.078 57.3547C225.131 57.2937 225.185 57.2343 225.24 57.1757C225.299 57.1132 225.359 57.0514 225.42 56.9913C226.38 56.0556 227.616 55.4557 228.944 55.2815C230.273 55.1073 231.622 55.3681 232.79 56.0248C232.762 55.9224 232.735 55.8207 232.705 55.7199C231.505 55.0986 230.14 54.8712 228.804 55.07C227.467 55.2688 226.227 55.8837 225.26 56.8274C225.199 56.8875 225.138 56.9484 225.081 57.011C225.024 57.0696 224.97 57.1289 224.916 57.1891C223.846 58.413 223.281 59.9978 223.336 61.6226C223.412 61.6664 223.49 61.707 223.569 61.7484C223.482 60.1433 224.023 58.5673 225.078 57.3547Z" fill="white"/>
<path d="M73.0117 91.591L73.2211 87.6056L74.2902 92.0363C77.9354 93.1345 82.0995 93.0924 82.0995 93.0924C82.0995 93.0924 82.381 84.4584 79.0965 81.0996C75.8121 77.7409 72.6686 78.5207 70.2055 80.9293C67.7424 83.3378 66.8925 86.4631 70.1769 89.8219C70.9911 90.599 71.9559 91.2011 73.0117 91.591Z" fill="#F0F0F0"/>
<path d="M73.662 86.9718L73.5001 86.8063C71.6281 84.8722 70.4844 83.0534 70.0873 81.3733C70.0811 81.3489 70.0765 81.3246 70.0703 81.3002L70.1841 81.2739L70.2938 81.25C70.7037 83.0826 72.0318 84.9408 73.6642 86.6281C73.7163 86.683 73.7692 86.7387 73.8237 86.7928C74.521 87.501 75.2673 88.1773 76.0198 88.8075C76.0776 88.8568 76.1371 88.9061 76.1965 88.9554C77.1941 89.782 78.1942 90.526 79.0845 91.1513C79.1473 91.1958 79.2108 91.2394 79.2736 91.2823C80.785 92.3344 81.9526 93.0251 82.2128 93.1764C82.2442 93.1954 82.2619 93.2053 82.2659 93.2078L82.2097 93.306V93.3077L82.1527 93.4067C82.1486 93.4043 82.089 93.3712 81.9811 93.3067C81.5761 93.0679 80.4866 92.4097 79.1264 91.4663C79.0653 91.4234 79.0017 91.3798 78.939 91.3353C78.2159 90.8287 77.424 90.2467 76.6221 89.607C76.4204 89.4467 76.2236 89.2864 76.0317 89.1262C75.9714 89.0777 75.912 89.0284 75.8542 88.9791C75.0406 88.298 74.3099 87.6289 73.662 86.9718Z" fill="white"/>
<path d="M79.1271 91.4671C79.1748 91.4061 79.2233 91.3442 79.2742 91.2832C79.4124 91.1172 79.5589 90.9584 79.7133 90.8074C80.3704 90.1631 81.1637 89.6744 82.0347 89.3774C82.0266 89.3003 82.0186 89.2233 82.0105 89.1445C81.0879 89.4504 80.2473 89.9631 79.553 90.6434C79.3882 90.8047 79.2321 90.9745 79.0852 91.1522C79.0351 91.2124 78.9866 91.2743 78.9397 91.3362C78.55 91.8444 78.2397 92.4089 78.0195 93.0104C78.0989 93.021 78.1766 93.0316 78.2526 93.0421C78.465 92.4769 78.7596 91.9462 79.1271 91.4671Z" fill="white"/>
<path d="M76.0319 89.1269C76.0852 89.0683 76.1402 89.0114 76.1967 88.9561C76.2132 88.9384 76.2312 88.9208 76.2484 88.904C76.9613 88.2068 77.8323 87.6923 78.787 87.4045C79.7417 87.1167 80.7519 87.064 81.7313 87.2509C81.7168 87.1705 81.7023 87.09 81.6862 87.0096C80.6827 86.8326 79.6515 86.8973 78.678 87.1982C77.7045 87.4991 76.8167 88.0277 76.0881 88.7401C76.0652 88.7625 76.0422 88.7849 76.0201 88.8082C75.9635 88.8651 75.9085 88.9221 75.8544 88.9798C75.0231 89.8804 74.4689 91.0013 74.2578 92.2085C74.3313 92.2312 74.4048 92.254 74.4792 92.2759C74.6793 91.0975 75.2189 90.0031 76.0319 89.1269Z" fill="white"/>
<path d="M73.6604 86.9719C73.713 86.9109 73.7672 86.8515 73.8221 86.7929C73.8812 86.7304 73.9411 86.6686 74.0025 86.6085C74.9616 85.6728 76.198 85.0729 77.5265 84.8987C78.8551 84.7245 80.2043 84.9852 81.3722 85.642C81.3442 85.5395 81.317 85.4379 81.2873 85.3371C80.0874 84.7157 78.7222 84.4883 77.3857 84.6872C76.0492 84.886 74.8093 85.5009 73.8422 86.4446C73.7808 86.5047 73.7201 86.5656 73.6626 86.6282C73.6061 86.6868 73.5519 86.7461 73.4985 86.8063C72.4284 88.0302 71.8633 89.615 71.9177 91.2398C71.9942 91.2836 72.0724 91.3242 72.1513 91.3656C72.0639 89.7605 72.6052 88.1845 73.6604 86.9719Z" fill="white"/>
<path d="M98.2969 41.0246L98.5063 37.0392L99.5753 41.4699C103.221 42.5681 107.385 42.526 107.385 42.526C107.385 42.526 107.666 33.892 104.382 30.5332C101.097 27.1745 97.9537 27.9543 95.4906 30.3629C93.0276 32.7714 92.1776 35.8967 95.4621 39.2555C96.2763 40.0326 97.2411 40.6347 98.2969 41.0246Z" fill="#F0F0F0"/>
<path d="M98.9432 36.4074L98.7813 36.2418C96.9093 34.3078 95.7656 32.4889 95.3686 30.8089C95.3624 30.7845 95.3578 30.7601 95.3516 30.7357L95.4653 30.7094L95.575 30.6855C95.985 32.5181 97.3131 34.3763 98.9455 36.0637C98.9975 36.1186 99.0504 36.1743 99.1049 36.2284C99.8023 36.9366 100.549 37.6129 101.301 38.2431C101.359 38.2923 101.418 38.3417 101.478 38.3909C102.475 39.2176 103.475 39.9616 104.366 40.5868C104.429 40.6313 104.492 40.675 104.555 40.7178C106.066 41.7699 107.234 42.4607 107.494 42.6119C107.525 42.6309 107.543 42.6408 107.547 42.6433L107.491 42.7416V42.7432L107.434 42.8423C107.43 42.8398 107.37 42.8067 107.262 42.7423C106.857 42.5035 105.768 41.8452 104.408 40.9018C104.347 40.859 104.283 40.8153 104.22 40.7708C103.497 40.2642 102.705 39.6822 101.903 39.0426C101.702 38.8822 101.505 38.722 101.313 38.5618C101.253 38.5133 101.193 38.464 101.135 38.4147C100.322 37.7336 99.5911 37.0645 98.9432 36.4074Z" fill="white"/>
<path d="M104.408 40.9027C104.456 40.8416 104.505 40.7797 104.555 40.7187C104.694 40.5527 104.84 40.3939 104.995 40.2429C105.652 39.5986 106.445 39.11 107.316 38.813C107.308 38.7359 107.3 38.6588 107.292 38.5801C106.369 38.8859 105.529 39.3986 104.834 40.079C104.669 40.2402 104.513 40.41 104.366 40.5877C104.316 40.6479 104.268 40.7098 104.221 40.7717C103.831 41.28 103.521 41.8445 103.301 42.4459C103.38 42.4565 103.458 42.4671 103.534 42.4777C103.746 41.9125 104.041 41.3818 104.408 40.9027Z" fill="white"/>
<path d="M101.313 38.5625C101.367 38.5039 101.421 38.4469 101.478 38.3916C101.494 38.374 101.512 38.3564 101.53 38.3395C102.243 37.6424 103.114 37.1279 104.068 36.8401C105.023 36.5522 106.033 36.4995 107.013 36.6864C106.998 36.606 106.984 36.5256 106.967 36.4451C105.964 36.2682 104.933 36.3328 103.959 36.6337C102.986 36.9347 102.098 37.4632 101.369 38.1756C101.346 38.1981 101.323 38.2205 101.301 38.2438C101.245 38.3007 101.19 38.3576 101.136 38.4154C100.304 39.3159 99.7501 40.4368 99.5391 41.6441C99.6126 41.6668 99.6861 41.6895 99.7604 41.7114C99.9606 40.533 100.5 39.4387 101.313 38.5625Z" fill="white"/>
<path d="M98.9417 36.4074C98.9942 36.3464 99.0484 36.287 99.1034 36.2285C99.1624 36.1659 99.2223 36.1042 99.2838 36.044C100.243 35.1083 101.479 34.5085 102.808 34.3342C104.136 34.16 105.486 34.4208 106.653 35.0775C106.625 34.9751 106.598 34.8735 106.569 34.7726C105.369 34.1513 104.003 33.9239 102.667 34.1227C101.33 34.3215 100.091 34.9365 99.1235 35.8801C99.062 35.9402 99.0013 36.0012 98.9439 36.0637C98.8873 36.1223 98.8331 36.1817 98.7798 36.2419C97.7096 37.4657 97.1445 39.0505 97.1989 40.6754C97.2754 40.7192 97.3536 40.7598 97.4326 40.8012C97.3451 39.1961 97.8864 37.6201 98.9417 36.4074Z" fill="white"/>
<path d="M40.6942 222.36L32.0446 230.323L38.9187 218.789C33.5029 208.968 24.6455 200.48 24.6455 200.48C24.6455 200.48 6.26953 218.086 6.26953 231.925C6.26953 245.765 14.4967 250.597 24.6455 250.597C34.7942 250.597 43.0214 245.765 43.0214 231.925C43.0214 228.845 42.1097 225.578 40.6942 222.36Z" fill="#F0F0F0"/>
<path d="M29.8212 230.754V231.437C29.7807 239.366 28.4434 245.552 25.8195 249.909C25.7823 249.973 25.7418 250.034 25.7047 250.098L25.4109 249.919L25.1306 249.743C28.0416 245.039 29.0715 238.39 29.1087 231.474C29.1121 231.251 29.1155 231.025 29.1121 230.798C29.1019 227.87 28.923 224.909 28.6359 222.032C28.6157 221.809 28.592 221.582 28.5684 221.356C28.1699 217.56 27.5958 213.934 27.0082 210.783C26.9677 210.56 26.9238 210.337 26.8799 210.117C25.8634 204.789 24.8266 200.929 24.5903 200.074C24.5633 199.97 24.5463 199.912 24.543 199.899L24.8638 199.807L24.8672 199.804L25.1914 199.713C25.1947 199.726 25.2521 199.919 25.3467 200.277C25.708 201.614 26.6469 205.244 27.5688 210.033C27.6093 210.249 27.6532 210.472 27.6937 210.695C28.1733 213.251 28.6427 216.108 29.0142 219.107C29.1087 219.86 29.1931 220.603 29.2674 221.336C29.2944 221.562 29.3181 221.788 29.3383 222.011C29.649 225.122 29.81 228.036 29.8212 230.754Z" fill="white"/>
<path d="M27.568 210.032C27.3418 210.063 27.1121 210.093 26.8791 210.117C26.2463 210.182 25.6106 210.215 24.9745 210.215C22.2634 210.218 19.5861 209.614 17.1398 208.445C16.998 208.624 16.8561 208.803 16.7109 208.986C19.2844 210.242 22.1108 210.893 24.9745 210.89C25.6535 210.89 26.3322 210.854 27.0074 210.782C27.2371 210.759 27.4667 210.728 27.6929 210.694C29.5606 210.427 31.3768 209.877 33.0793 209.063C32.9341 208.878 32.7922 208.695 32.6538 208.516C31.0424 209.269 29.3287 209.78 27.568 210.032Z" fill="white"/>
<path d="M29.2665 221.336C29.0335 221.35 28.8005 221.356 28.5675 221.356C28.4965 221.36 28.4223 221.36 28.3513 221.36C25.4138 221.36 22.5198 220.65 19.916 219.29C17.3123 217.929 15.076 215.96 13.3979 213.549C13.2629 213.748 13.1278 213.947 12.9961 214.15C14.7452 216.59 17.0503 218.577 19.7206 219.949C22.3909 221.32 25.3495 222.035 28.3513 222.035C28.4459 222.035 28.5405 222.035 28.635 222.032C28.8714 222.028 29.1044 222.022 29.3374 222.012C32.9431 221.827 36.4192 220.608 39.3503 218.5C39.2422 218.3 39.1341 218.101 39.0227 217.902C36.1741 219.972 32.7835 221.165 29.2665 221.336Z" fill="white"/>
<path d="M29.8219 230.754C29.5856 230.775 29.3492 230.788 29.1128 230.798C28.8595 230.808 28.6062 230.815 28.3529 230.815C24.4056 230.811 20.566 229.528 17.4089 227.158C14.2518 224.789 11.947 221.461 10.8398 217.672C10.6878 217.945 10.5358 218.216 10.3906 218.489C11.6382 222.269 14.0453 225.56 17.2698 227.894C20.4943 230.228 24.3724 231.486 28.3529 231.491C28.6062 231.491 28.8595 231.487 29.1094 231.474C29.3492 231.467 29.5856 231.453 29.8219 231.437C34.5967 231.063 39.0511 228.889 42.2831 225.355C42.2122 225.105 42.1311 224.858 42.0501 224.608C38.9283 228.169 34.5421 230.374 29.8219 230.754Z" fill="white"/>
<path d="M262.85 154.651C275.384 143.683 280.914 129.498 275.2 122.968C269.486 116.437 254.692 120.035 242.157 131.003C229.622 141.972 224.093 156.157 229.807 162.687C235.521 169.217 250.315 165.619 262.85 154.651Z" fill="#E4E4E4"/>
<path d="M77.6334 162.687C83.3474 156.157 77.818 141.971 65.2831 131.003C52.7483 120.035 37.9547 116.437 32.2407 122.967C26.5266 129.497 32.056 143.683 44.5909 154.651C57.1258 165.619 71.9194 169.217 77.6334 162.687Z" fill="#E4E4E4"/>
<path d="M105.866 250.278C122.522 250.278 136.024 243.244 136.024 234.567C136.024 225.89 122.522 218.855 105.866 218.855C89.2095 218.855 75.707 225.89 75.707 234.567C75.707 243.244 89.2095 250.278 105.866 250.278Z" fill="#E4E4E4"/>
<path d="M201.576 250.278C218.233 250.278 231.735 243.244 231.735 234.567C231.735 225.89 218.233 218.855 201.576 218.855C184.92 218.855 171.418 225.89 171.418 234.567C171.418 243.244 184.92 250.278 201.576 250.278Z" fill="#E4E4E4"/>
<path d="M153.722 228.607C112.895 228.607 79.6797 195.392 79.6797 154.565C79.6797 113.738 112.895 80.5234 153.722 80.5234C194.548 80.5234 227.763 113.738 227.763 154.565C227.763 195.392 194.548 228.607 153.722 228.607ZM153.722 81.2458C113.293 81.2458 80.402 114.137 80.402 154.565C80.402 194.994 113.293 227.885 153.722 227.885C194.15 227.885 227.041 194.994 227.041 154.565C227.041 114.137 194.15 81.2458 153.722 81.2458Z" fill="#3F3D56"/>
<path d="M135.672 203.881C120.735 198.741 108.172 188.352 100.321 174.645C92.4699 160.938 89.8637 144.846 92.9874 129.361C88.8433 137.665 86.5205 146.757 86.1743 156.031C85.8281 165.304 87.4665 174.545 90.9798 183.134C94.4932 191.723 99.8005 199.463 106.547 205.835C113.293 212.208 121.322 217.066 130.097 220.085C138.873 223.103 148.192 224.213 157.43 223.339C166.669 222.466 175.615 219.629 183.669 215.019C191.723 210.409 198.699 204.132 204.131 196.608C209.563 189.084 213.326 180.487 215.167 171.391C208.103 185.521 196.149 196.604 181.527 202.58C166.904 208.556 150.609 209.018 135.672 203.881Z" fill="#F0F0F0"/>
<path d="M131.915 148.663C128.166 148.663 125.117 144.695 125.117 139.818C125.117 134.941 128.166 130.973 131.915 130.973C135.663 130.973 138.712 134.941 138.712 139.818C138.712 144.695 135.663 148.663 131.915 148.663Z" fill="#3F3D56"/>
<path d="M173.09 148.663C169.342 148.663 166.293 144.695 166.293 139.818C166.293 134.941 169.342 130.973 173.09 130.973C176.839 130.973 179.888 134.941 179.888 139.818C179.888 144.695 176.839 148.663 173.09 148.663Z" fill="#3F3D56"/>
<path d="M149.025 12.9825C152.615 12.9825 155.526 10.8803 155.526 8.28714C155.526 5.69397 152.615 3.5918 149.025 3.5918C145.434 3.5918 142.523 5.69397 142.523 8.28714C142.523 10.8803 145.434 12.9825 149.025 12.9825Z" fill="#2F2E41"/>
<path d="M149.028 5.73874C151.222 5.73874 153.001 4.45408 153.001 2.86937C153.001 1.28466 151.222 0 149.028 0C146.833 0 145.055 1.28466 145.055 2.86937C145.055 4.45408 146.833 5.73874 149.028 5.73874Z" fill="#2F2E41"/>
<path d="M144.351 10.1625C142.114 7.92617 141.406 4.91103 142.522 2.9707C142.257 3.12177 142.013 3.30723 141.797 3.52227C139.963 5.35591 140.535 8.9006 143.074 11.4394C145.613 13.9784 149.157 14.55 150.991 12.7164C151.206 12.5 151.391 12.2561 151.542 11.991C149.602 13.1065 146.587 12.3988 144.351 10.1625Z" fill="#2F2E41"/>
<path d="M82.1076 126.382L79.8242 122.588L93.3706 111.975L96.7408 117.574L82.1076 126.382Z" fill="#FFB6B6"/>
<path d="M79.0116 129.561L71.6484 117.329L71.8032 117.235C73.0659 116.475 74.5789 116.248 76.0092 116.603C77.4396 116.959 78.6702 117.868 79.4304 119.131L79.4306 119.131L83.9277 126.602L79.0116 129.561Z" fill="#2F2E41"/>
<path d="M224.817 121.325L227.1 117.531L213.554 106.918L210.184 112.517L224.817 121.325Z" fill="#FFB6B6"/>
<path d="M222.996 121.547L227.493 114.076L227.493 114.076C228.254 112.813 229.484 111.904 230.915 111.549C232.345 111.193 233.858 111.421 235.121 112.181L235.275 112.274L227.912 124.507L222.996 121.547Z" fill="#2F2E41"/>
<path d="M136.283 70.6953L135.421 74.1395L112.15 92.7688L87.1055 116.174L89.7916 122.42L149.486 82.4665L216.785 117.351L219.792 110.466L189.081 89.8794L163.683 72.365L136.283 70.6953Z" fill="#2F2E41"/>
<path d="M144.121 33.8457L134.062 37.1458L135.422 73.7842C135.422 73.7842 152.915 84.2868 163.685 72.3651V35.7189L157.679 33.8457H144.121Z" fill="#0A503D"/>
<path d="M161.453 38.2377L163.685 35.7188C163.685 35.7188 169.892 37.986 169.374 44.7901C168.857 51.5943 165.209 73.2351 165.209 73.2351L164.523 87.3511H158.043L160.625 50.8454L161.453 38.2377Z" fill="#0A503D"/>
<path d="M136.89 39.3217L134.657 36.8027C134.657 36.8027 128.451 39.07 128.968 45.8741C129.486 52.6782 133.134 74.3191 133.134 74.3191L133.82 88.4351H140.3L137.717 51.9294L136.89 39.3217Z" fill="#0A503D"/>
<path d="M137.106 94.2487C139.3 94.2487 141.079 92.4699 141.079 90.2757C141.079 88.0815 139.3 86.3027 137.106 86.3027C134.912 86.3027 133.133 88.0815 133.133 90.2757C133.133 92.4699 134.912 94.2487 137.106 94.2487Z" fill="#FFB6B6"/>
<path d="M161.309 94.2487C163.503 94.2487 165.282 92.4699 165.282 90.2757C165.282 88.0815 163.503 86.3027 161.309 86.3027C159.115 86.3027 157.336 88.0815 157.336 90.2757C157.336 92.4699 159.115 94.2487 161.309 94.2487Z" fill="#FFB6B6"/>
<path d="M148.859 30.8383C154.935 30.8383 159.862 25.912 159.862 19.8352C159.862 13.7583 154.935 8.83203 148.859 8.83203C142.782 8.83203 137.855 13.7583 137.855 19.8352C137.855 25.912 142.782 30.8383 148.859 30.8383Z" fill="#2F2E41"/>
<path d="M149.191 31.2009C154.091 31.2009 158.062 27.2292 158.062 22.3299C158.062 17.4306 154.091 13.459 149.191 13.459C144.292 13.459 140.32 17.4306 140.32 22.3299C140.32 27.2292 144.292 31.2009 149.191 31.2009Z" fill="#FFB6B6"/>
<path d="M139.867 16.7504C141.894 18.1475 144.3 18.8911 146.762 18.8813C145.884 19.4902 144.884 19.9015 143.832 20.0869C147.105 20.789 150.488 20.808 153.769 20.1427C154.499 20.0258 155.202 19.7841 155.85 19.4282C156.172 19.2481 156.453 19.0021 156.675 18.7062C156.896 18.4104 157.052 18.0712 157.134 17.7109C157.352 16.4654 156.381 15.3338 155.373 14.5712C153.828 13.4213 152.048 12.6291 150.16 12.2518C148.272 11.8746 146.324 11.9217 144.456 12.3897C143.237 12.7049 142.015 13.2375 141.223 14.2168C140.431 15.1961 140.196 16.7059 140.951 17.7143L139.867 16.7504Z" fill="#2F2E41"/>
<path d="M296.529 251H0.36118C0.265389 251 0.173521 250.962 0.105787 250.894C0.0380525 250.826 0 250.734 0 250.639C0 250.543 0.0380525 250.451 0.105787 250.383C0.173521 250.315 0.265389 250.277 0.36118 250.277H296.529C296.625 250.277 296.716 250.315 296.784 250.383C296.852 250.451 296.89 250.543 296.89 250.639C296.89 250.734 296.852 250.826 296.784 250.894C296.716 250.962 296.625 251 296.529 251Z" fill="#3F3D56"/>
<path d="M142.523 183.459C142.523 186.141 143.589 188.713 145.485 190.61C147.382 192.507 149.954 193.572 152.636 193.572C155.319 193.572 157.891 192.507 159.787 190.61C161.684 188.713 162.75 186.141 162.75 183.459H142.523Z" fill="#3F3D56"/>
<path d="M189.883 170.819C194.671 170.819 198.551 166.938 198.551 162.151C198.551 157.363 194.671 153.482 189.883 153.482C185.096 153.482 181.215 157.363 181.215 162.151C181.215 166.938 185.096 170.819 189.883 170.819Z" fill="#F0F0F0"/>
<path d="M115.121 170.819C119.909 170.819 123.79 166.938 123.79 162.151C123.79 157.363 119.909 153.482 115.121 153.482C110.334 153.482 106.453 157.363 106.453 162.151C106.453 166.938 110.334 170.819 115.121 170.819Z" fill="#F0F0F0"/>
</g>
<defs>
<clipPath id="clip0_963_3828">
<rect width="296.89" height="251" fill="white"/>
</clipPath>
</defs>
</svg>
