<svg width="541" height="448" viewBox="0 0 541 448" fill="none" xmlns="http://www.w3.org/2000/svg">
<g clip-path="url(#clip0_981_3039)">
<path d="M478.335 256.094C475.365 281.538 469.194 301.966 460.724 318.258C449.453 339.965 430.175 348.711 412.953 357.863C407.977 360.503 402.803 362.752 397.478 364.592C366.14 375.468 331.066 372.583 303.515 366.84C284.191 362.809 264.575 360.329 244.856 359.424C239.232 359.171 233.602 359.045 227.967 359.047C219.277 359.058 62.8117 362.028 24.7168 284.902C15.3113 265.877 8.8645 242.637 6.54837 214.308C-0.00554752 134.219 36.0156 81.6181 82.4791 47.2369C170.374 -17.8008 290.852 -15.0732 377.45 51.6775C435.134 96.1405 489.143 163.432 478.335 256.094Z" fill="#F2F2F2"/>
<path d="M169.061 232.906C169.061 296.567 131.215 318.795 84.5303 318.795C37.8455 318.795 0 296.567 0 232.906C0 169.245 84.5303 88.2578 84.5303 88.2578C84.5303 88.2578 169.061 169.245 169.061 232.906Z" fill="#0A503D"/>
<path d="M81.451 309.057L82.3166 255.778L118.346 189.865L82.4524 247.42L82.8412 223.464L107.672 175.777L82.9444 217.124L83.6443 174.038L110.234 136.073L83.7542 167.263L84.1915 88.2578L81.4431 192.846L81.6691 188.532L54.6351 147.152L81.2357 196.814L78.7167 244.934L78.6418 243.657L47.4766 200.111L78.5471 248.169L78.2321 254.187L78.1757 254.277L78.2016 254.771L71.8111 376.856H80.3493L81.3738 313.797L112.368 265.857L81.451 309.057Z" fill="#3F3D56"/>
<path d="M540.994 236.851C540.994 300.512 503.149 322.74 456.464 322.74C409.779 322.74 371.934 300.512 371.934 236.851C371.934 173.19 456.464 92.2031 456.464 92.2031C456.464 92.2031 540.994 173.19 540.994 236.851Z" fill="#0A503D"/>
<path d="M453.385 313.002L454.25 259.723L490.279 193.81L454.386 251.365L454.775 227.409L479.606 179.722L454.878 221.07L455.578 177.983L482.168 140.018L455.688 171.208L456.125 92.2031L453.377 196.791L453.603 192.477L426.569 151.097L453.169 200.759L450.65 248.879L450.575 247.602L419.41 204.056L450.481 252.114L450.166 258.132L450.109 258.222L450.135 258.717L443.745 380.801H452.283L453.307 317.742L484.302 269.802L453.385 313.002Z" fill="#3F3D56"/>
<path d="M365.171 182.787C365.171 252.39 323.793 276.693 272.751 276.693C221.709 276.693 180.331 252.39 180.331 182.787C180.331 113.184 272.751 24.6387 272.751 24.6387C272.751 24.6387 365.171 113.184 365.171 182.787Z" fill="#0A503D"/>
<path d="M269.385 266.045L270.331 207.794L309.723 135.729L270.48 198.656L270.905 172.464L298.053 120.326L271.017 165.533L271.783 118.425L300.854 76.9161L271.903 111.017L272.381 24.6387L269.376 138.988L269.623 134.271L240.066 89.0294L269.149 143.327L266.395 195.938L266.313 194.541L232.239 146.931L266.21 199.475L265.865 206.054L265.804 206.153L265.832 206.693L258.845 340.173H268.18L269.3 271.228L303.188 218.813L269.385 266.045Z" fill="#3F3D56"/>
<path d="M468.862 386.573C468.862 401.513 370.968 447.999 250.21 447.999C129.452 447.999 31.5586 401.513 31.5586 386.573C31.5586 371.634 121.563 338.109 242.321 338.109C363.079 338.109 468.862 371.634 468.862 386.573Z" fill="#3F3D56"/>
<path opacity="0.1" d="M468.862 386.573C468.862 401.513 370.968 447.999 250.21 447.999C129.452 447.999 31.5586 401.513 31.5586 386.573C31.5586 371.634 121.563 338.109 242.321 338.109C363.079 338.109 468.862 371.634 468.862 386.573Z" fill="black"/>
<path d="M468.862 386.573C468.862 401.513 370.968 413.623 250.21 413.623C129.452 413.623 31.5586 401.513 31.5586 386.573C31.5586 371.634 121.563 338.109 242.321 338.109C363.079 338.109 468.862 371.634 468.862 386.573Z" fill="#3F3D56"/>
<path d="M323.711 311.672C323.711 333.103 337.155 350.444 353.77 350.444L323.711 311.672Z" fill="#3F3D56"/>
<path d="M353.771 350.442C353.771 328.771 368.774 311.234 387.315 311.234L353.771 350.442Z" fill="#0A503D"/>
<path d="M334.602 313.613C334.602 333.97 343.175 350.443 353.77 350.443L334.602 313.613Z" fill="#0A503D"/>
<path d="M353.771 350.443C353.771 322.751 371.112 300.344 392.543 300.344L353.771 350.443Z" fill="#3F3D56"/>
<path d="M347.446 350.716C347.446 350.716 351.709 350.584 352.994 349.669C354.279 348.755 359.551 347.662 359.87 349.129C360.189 350.597 366.276 356.427 361.464 356.465C356.651 356.504 350.281 355.716 348.999 354.935C347.716 354.154 347.446 350.716 347.446 350.716Z" fill="#A8A8A8"/>
<path opacity="0.2" d="M361.549 355.954C356.737 355.993 350.367 355.204 349.084 354.423C348.108 353.828 347.719 351.694 347.589 350.709C347.498 350.713 347.446 350.715 347.446 350.715C347.446 350.715 347.716 354.153 348.999 354.934C350.281 355.715 356.651 356.503 361.464 356.464C362.853 356.453 363.333 355.959 363.306 355.227C363.113 355.669 362.584 355.945 361.549 355.954Z" fill="black"/>
<path opacity="0.1" d="M253.027 395.592C294.11 395.592 327.414 390.294 327.414 383.758C327.414 377.222 294.11 371.924 253.027 371.924C211.945 371.924 178.641 377.222 178.641 383.758C178.641 390.294 211.945 395.592 253.027 395.592Z" fill="black"/>
<path d="M285.713 357.271H278.387V374.178H285.713V357.271Z" fill="#FFB9B9"/>
<path d="M286.276 129.039H258.1V179.757H286.276V129.039Z" fill="#FF6584"/>
<path d="M306.97 225.025L307.945 232.828L282.264 240.629L279.013 226.326L306.97 225.025Z" fill="#FFB9B9"/>
<path d="M268.935 149.933C268.935 149.933 268.285 155.784 266.985 155.784C265.684 155.784 261.133 158.06 261.133 158.06L259.833 164.236L268.935 169.762L283.889 168.137L288.115 161.635L283.889 157.409C283.889 157.409 280.313 149.608 281.613 147.982C282.913 146.357 268.935 149.933 268.935 149.933Z" fill="#FFB9B9"/>
<path opacity="0.1" d="M268.935 149.933C268.935 149.933 268.285 155.784 266.985 155.784C265.684 155.784 261.133 158.06 261.133 158.06L259.833 164.236L268.935 169.762L283.889 168.137L288.115 161.635L283.889 157.409C283.889 157.409 280.313 149.608 281.613 147.982C282.913 146.357 268.935 149.933 268.935 149.933Z" fill="black"/>
<path d="M228.301 352.457C228.301 352.457 225.375 371.962 221.799 373.262C218.223 374.562 235.452 376.838 235.452 376.838L236.753 369.686C236.753 369.686 237.078 356.683 238.378 354.733C239.678 352.782 228.301 352.457 228.301 352.457Z" fill="#FFB9B9"/>
<path d="M261.458 239.005C261.458 239.005 308.595 230.553 308.92 228.928C309.245 227.303 318.672 241.281 312.821 268.588C306.969 295.894 292.341 360.259 292.341 360.259C292.341 360.259 277.387 364.81 277.712 361.235C278.037 357.659 282.913 295.569 282.913 295.569L279.663 269.238L274.136 272.488L251.056 317.999L239.353 357.334C239.353 357.334 224.4 359.934 226.675 354.408C228.951 348.882 236.427 305.971 236.427 305.971L256.907 245.507C256.907 245.507 256.257 239.005 261.458 239.005Z" fill="#2F2E41"/>
<path d="M273.324 154.322C280.865 154.322 286.977 148.209 286.977 140.669C286.977 133.128 280.865 127.016 273.324 127.016C265.784 127.016 259.671 133.128 259.671 140.669C259.671 148.209 265.784 154.322 273.324 154.322Z" fill="#FFB9B9"/>
<path d="M287.465 157.736C287.465 157.736 280.963 163.913 265.685 162.287C250.406 160.662 269.911 197.071 269.911 197.071L276.087 233.804C276.087 233.804 303.394 230.554 304.369 224.377C305.344 218.201 287.465 157.736 287.465 157.736Z" fill="#F2F2F2"/>
<path d="M280.964 192.52C280.964 192.52 273.162 188.619 270.236 177.891C267.31 167.164 264.71 156.111 263.084 156.436C261.712 156.71 248.984 161.62 244.859 164.903C244.098 165.508 243.63 166.058 243.58 166.513C243.255 169.439 255.282 198.696 255.282 198.696C255.282 198.696 264.71 219.826 260.809 226.653C256.908 233.479 256.583 242.256 263.734 241.606C270.886 240.956 294.617 239.656 291.366 221.451C291.366 221.451 297.543 234.129 314.772 225.027C314.772 225.027 325.174 223.402 324.849 219.826C324.524 216.25 308.27 185.368 308.27 185.368C308.27 185.368 305.669 171.715 310.546 166.513L299.493 153.51C299.493 153.51 296.892 149.609 294.292 151.56C291.691 153.51 285.84 156.761 284.865 157.086C283.889 157.411 283.248 155.918 283.248 155.918C280.996 160.629 280.093 165.871 280.639 171.064C281.614 179.516 280.964 192.52 280.964 192.52Z" fill="#2F2E41"/>
<path d="M229.276 369.361C229.276 369.361 228.55 367.085 224.362 369.361C224.362 369.361 225.7 362.209 221.149 362.209C216.598 362.209 214.973 370.661 214.973 370.661C214.973 370.661 213.672 376.187 204.895 378.463C196.118 380.738 202.945 388.54 209.121 388.54C215.298 388.54 223.425 383.664 223.425 383.664C223.425 383.664 240.329 383.989 240.654 380.738C240.979 377.488 239.028 367.735 237.728 367.735C236.428 367.735 233.827 372.286 233.827 372.286L229.276 369.361Z" fill="#2F2E41"/>
<path d="M284.539 363.64C284.539 363.64 279.988 358.764 277.387 366.891C274.787 375.018 272.836 378.269 274.462 379.569C276.087 380.869 277.387 380.219 276.737 382.82C276.087 385.42 278.688 390.947 284.539 390.947C290.39 390.947 292.016 386.721 291.691 383.795C291.366 380.869 288.765 377.293 288.765 377.293L286.164 368.191L284.539 363.64Z" fill="#2F2E41"/>
<path d="M310.22 134.979L292.991 140.83C292.991 140.83 277.388 149.932 284.214 151.883C291.041 153.833 296.892 146.031 296.892 146.031L311.846 142.13L310.22 134.979Z" fill="#FFB9B9"/>
<path d="M264.034 119.557C261.988 120.958 260.36 122.878 258.812 124.815C255.666 128.75 252.583 133.45 253.358 138.428C253.653 140.319 254.493 142.078 254.966 143.932C255.605 146.435 255.563 149.053 255.516 151.635C255.554 152.733 255.418 153.829 255.113 154.884C254.658 155.911 254.123 156.901 253.512 157.845C251.946 160.761 251.908 164.226 251.906 167.536C251.831 168.65 251.983 169.768 252.352 170.822C252.78 171.817 253.575 172.597 254.235 173.456C255.329 174.907 256.059 176.599 256.364 178.391C256.669 180.182 256.539 182.02 255.987 183.751C256.835 183.755 257.667 183.516 258.385 183.064C259.103 182.611 259.676 181.964 260.039 181.196C260.151 182.021 260.08 182.861 259.831 183.655C259.581 184.449 259.159 185.179 258.594 185.791C262.316 184.685 266.305 182.82 267.663 179.183C268.061 177.948 268.286 176.663 268.331 175.365C269.053 166.243 269.466 156.779 266.194 148.233C265.147 145.499 263.723 142.852 263.372 139.946C263.021 137.039 264.094 133.68 266.764 132.48C266.826 133.224 267.157 133.92 267.694 134.439C268.288 134.88 269.387 134.603 269.398 133.863L270.688 135.659C271.183 135.416 271.605 135.048 271.913 134.59L272.797 135.673L274.678 134.305L276.311 136.066C276.94 135.708 277.441 135.162 277.745 134.506C278.096 135.031 278.53 135.607 279.159 135.664C280.528 135.788 280.811 133.615 282.007 132.937C282.449 132.742 282.947 132.711 283.409 132.852C283.871 132.992 284.268 133.293 284.527 133.701C285.021 134.54 285.2 135.527 285.035 136.486C284.539 140.956 280.725 145.035 281.856 149.388C282.492 151.835 284.634 153.798 284.795 156.322C284.924 158.339 283.739 160.247 283.757 162.268C283.778 164.636 285.415 166.648 287.012 168.396C289.855 171.509 292.848 174.475 295.99 177.296L295.019 175.597C295.472 175.562 295.928 175.625 296.354 175.781C296.781 175.938 297.168 176.186 297.491 176.506C297.77 175.53 297.307 174.513 296.871 173.597C294.257 168.109 292.147 162.265 291.832 156.195C291.394 147.757 294.428 139.187 292.505 130.959C291.399 126.353 288.822 122.232 285.163 119.222C283.385 117.758 282.036 116.882 279.733 116.72C277.159 116.497 274.569 116.517 271.999 116.781C269.159 117.051 266.426 118.004 264.034 119.557Z" fill="#FF6584"/>
<path d="M296.892 153.834C296.892 153.834 300.467 154.159 302.093 153.834C303.718 153.509 305.994 151.884 305.994 151.884L318.347 142.782L307.619 144.407C307.619 144.407 309.57 129.453 308.919 129.128C308.269 128.803 340.452 122.627 339.802 132.704C339.152 142.782 320.947 162.611 310.545 166.512L303.718 167.488L296.892 153.834Z" fill="#2F2E41"/>
<path d="M331.922 269.084H178.641V305.15H331.922V269.084Z" fill="white"/>
<path d="M311.916 277.254H198.082V296.414H311.916V277.254Z" fill="#3F3D56"/>
<path d="M224.536 286.413C224.49 285.922 222.317 285.703 219.336 285.826C221.064 283.393 222.064 281.452 221.677 281.146C221.312 280.858 219.817 282.105 217.998 284.131C217.826 281.413 217.426 279.508 216.961 279.508C216.453 279.508 216.024 281.775 215.883 284.89C213.351 283.069 211.306 282.001 210.991 282.399C210.691 282.78 212.059 284.386 214.235 286.308C211.364 286.734 209.341 287.335 209.385 287.818C209.431 288.309 211.604 288.528 214.586 288.405C212.858 290.838 211.857 292.779 212.244 293.085C212.61 293.373 214.104 292.126 215.924 290.1C216.096 292.818 216.495 294.723 216.961 294.723C217.468 294.723 217.898 292.456 218.039 289.341C220.571 291.162 222.615 292.23 222.93 291.832C223.231 291.451 221.862 289.845 219.687 287.923C222.558 287.497 224.581 286.896 224.536 286.413Z" fill="white"/>
<path d="M243.696 286.413C243.651 285.922 241.478 285.703 238.496 285.826C240.224 283.393 241.224 281.452 240.837 281.146C240.472 280.858 238.977 282.105 237.158 284.131C236.986 281.413 236.586 279.508 236.121 279.508C235.613 279.508 235.184 281.775 235.043 284.89C232.511 283.069 230.466 282.001 230.152 282.399C229.851 282.78 231.22 284.386 233.395 286.308C230.524 286.734 228.501 287.335 228.546 287.818C228.591 288.309 230.764 288.528 233.746 288.405C232.018 290.838 231.017 292.779 231.405 293.085C231.77 293.373 233.264 292.126 235.084 290.1C235.256 292.818 235.655 294.723 236.121 294.723C236.629 294.723 237.058 292.456 237.199 289.341C239.731 291.162 241.776 292.23 242.09 291.832C242.391 291.451 241.022 289.845 238.847 287.923C241.718 287.497 243.741 286.896 243.696 286.413Z" fill="white"/>
<path d="M262.856 286.413C262.811 285.922 260.638 285.703 257.656 285.826C259.384 283.393 260.385 281.452 259.997 281.146C259.632 280.858 258.138 282.105 256.318 284.131C256.146 281.413 255.747 279.508 255.281 279.508C254.773 279.508 254.344 281.775 254.203 284.89C251.671 283.069 249.626 282.001 249.312 282.399C249.011 282.78 250.38 284.386 252.555 286.308C249.684 286.734 247.661 287.335 247.706 287.818C247.751 288.309 249.924 288.528 252.906 288.405C251.178 290.838 250.178 292.779 250.565 293.085C250.93 293.373 252.425 292.126 254.244 290.1C254.416 292.818 254.816 294.723 255.281 294.723C255.789 294.723 256.218 292.456 256.359 289.341C258.891 291.162 260.936 292.23 261.25 291.832C261.551 291.451 260.182 289.845 258.007 287.923C260.878 287.497 262.901 286.896 262.856 286.413Z" fill="white"/>
<path d="M282.016 286.413C281.971 285.922 279.798 285.703 276.816 285.826C278.544 283.393 279.545 281.452 279.158 281.146C278.792 280.858 277.298 282.105 275.478 284.131C275.306 281.413 274.907 279.508 274.441 279.508C273.934 279.508 273.504 281.775 273.363 284.89C270.831 283.069 268.787 282.001 268.472 282.399C268.171 282.78 269.54 284.386 271.715 286.308C268.844 286.734 266.821 287.335 266.866 287.818C266.912 288.309 269.085 288.528 272.066 288.405C270.338 290.838 269.338 292.779 269.725 293.085C270.09 293.373 271.585 292.126 273.404 290.1C273.576 292.818 273.976 294.723 274.441 294.723C274.949 294.723 275.378 292.456 275.519 289.341C278.051 291.162 280.096 292.23 280.411 291.832C280.711 291.451 279.343 289.845 277.167 287.923C280.038 287.497 282.061 286.896 282.016 286.413Z" fill="white"/>
<path d="M301.177 286.413C301.131 285.922 298.958 285.703 295.976 285.826C297.704 283.393 298.705 281.452 298.318 281.146C297.952 280.858 296.458 282.105 294.638 284.131C294.466 281.413 294.067 279.508 293.601 279.508C293.094 279.508 292.665 281.775 292.524 284.89C289.992 283.069 287.947 282.001 287.632 282.399C287.331 282.78 288.7 284.386 290.876 286.308C288.004 286.734 285.981 287.335 286.026 287.818C286.072 288.309 288.245 288.528 291.226 288.405C289.499 290.838 288.498 292.779 288.885 293.085C289.25 293.373 290.745 292.126 292.565 290.1C292.737 292.818 293.136 294.723 293.601 294.723C294.109 294.723 294.538 292.456 294.679 289.341C297.211 291.162 299.256 292.23 299.571 291.832C299.871 291.451 298.503 289.845 296.327 287.923C299.198 287.497 301.221 286.896 301.177 286.413Z" fill="white"/>
<path d="M241.629 253.634C241.629 253.634 240.003 275.089 247.805 276.064C255.607 277.04 248.455 251.684 248.455 251.684L241.629 253.634Z" fill="#FFB9B9"/>
<path d="M245.855 165.861L243.579 166.511C243.579 166.511 234.152 241.929 240.329 256.558C240.329 256.558 246.83 252.982 250.081 253.632L255.282 192.193L245.855 165.861Z" fill="#2F2E41"/>
</g>
<defs>
<clipPath id="clip0_981_3039">
<rect width="540.994" height="448" fill="white"/>
</clipPath>
</defs>
</svg>
