<svg width="488" height="431" viewBox="0 0 488 431" fill="none" xmlns="http://www.w3.org/2000/svg">
<path opacity="0.32" d="M79.7706 136.458C82.7542 135.668 85.6501 134.44 88.2827 132.86C85.6501 131.193 82.7542 129.964 79.7706 129.174C76.6992 128.385 74.3299 126.015 73.5401 122.944C72.7503 119.96 71.6095 117.064 69.9421 114.432C68.2748 117.064 67.0463 119.96 66.3442 122.944C65.5545 126.015 63.1851 128.385 60.1137 129.174C57.1301 129.964 54.2342 131.193 51.6016 132.772C54.2342 134.44 57.1301 135.668 60.1137 136.37C63.1851 137.16 65.5545 139.529 66.3442 142.601C67.134 145.584 68.3626 148.48 69.9421 151.113C71.6095 148.48 72.838 145.584 73.6278 142.601C74.4176 139.617 76.6992 137.248 79.7706 136.458Z" fill="#F7C689"/>
<path opacity="0.32" d="M84.5066 167.611C87.0268 167.611 89.0698 165.568 89.0698 163.048C89.0698 160.527 87.0268 158.484 84.5066 158.484C81.9864 158.484 79.9434 160.527 79.9434 163.048C79.9434 165.568 81.9864 167.611 84.5066 167.611Z" fill="#F7C689"/>
<path d="M179.019 171.297C183.495 183.582 184.986 201.923 184.109 214.998C183.056 230.794 177.878 246.414 167.874 258.787C154.185 275.636 130.755 285.114 109.869 279.234C88.9836 273.355 73.2756 250.539 78.3654 229.39C80.998 218.508 88.1061 209.382 95.1264 200.607C109.43 182.705 126.63 147.515 153.746 151.026C165.242 152.693 174.895 160.415 179.019 171.297Z" fill="black"/>
<path d="M163.31 243.604L159.8 206.572L150.937 206.396V206.572H142.249L137.949 243.516L151.2 244.043V243.867L163.31 243.604Z" fill="#FBD7AD"/>
<path d="M159.8 206.572L150.937 206.396V206.572H142.249L141.635 212.1C144.531 215.698 148.831 217.717 153.394 217.717H155.061C156.992 217.717 158.922 217.366 160.765 216.576L159.8 206.572Z" fill="#F27932"/>
<path d="M146.373 166.381C131.63 166.293 132.946 185.16 132.946 185.16C132.946 192.268 133.034 199.903 137.685 205.168C140.054 207.889 145.407 212.803 150.497 212.803H152.164C157.166 212.803 161.115 208.678 163.134 206.309C167.785 200.956 168.838 192.532 168.838 185.511C168.838 185.511 167.872 164.977 154.621 166.293L146.373 166.381Z" fill="#FBD7AD"/>
<path d="M207.801 258.611C206.484 248.871 199.815 240.71 190.601 237.287L163.134 227.283H138.036L110.745 237.287C101.53 240.622 94.9489 248.871 93.5449 258.524L79.3287 308.017C76.9594 316.178 80.9083 324.953 88.6306 328.551L144.793 354.614H151.375L207.099 329.955C214.382 326.708 218.507 318.986 217.103 311.176L207.801 258.611Z" fill="#BFF0E3"/>
<path d="M106.182 283.27H195.165C200.518 283.27 204.905 287.657 204.905 293.01V357.86H96.4414V293.01C96.4414 287.657 100.741 283.27 106.182 283.27Z" fill="white"/>
<path d="M256.33 308.543C250.275 303.541 241.85 302.839 235.093 306.788L137.335 363.828C137.16 371.726 137.686 379.712 139.09 387.522L217.279 368.743C236.848 364.004 253.083 350.314 260.981 331.798L261.683 330.131C264.842 322.584 262.736 313.809 256.33 308.543Z" fill="#0A503D"/>
<path opacity="0.38" d="M243.957 355.054L200.168 362.337L196.131 360.758C192.796 359.441 189.111 359.178 185.6 359.88L178.58 361.284L157.87 351.807L147.252 358.037L157.519 372.166L181.037 377.431L217.28 368.743C227.108 366.374 236.322 361.723 243.957 355.054Z" fill="black"/>
<path d="M139.002 387.52C137.598 379.71 137.071 371.725 137.247 363.827L127.682 369.355L120.574 366.986C117.327 365.933 113.817 366.108 110.745 367.6L106.972 369.355L64.0601 362.335C60.5499 361.808 57.2152 364.178 56.601 367.776C56.4255 369.092 56.601 370.408 57.1275 371.637L64.3233 386.906C65.3764 389.188 67.658 390.592 70.2028 390.592H126.278L139.002 387.52Z" fill="#FBD7AD"/>
<path d="M64.2373 362.335L107.149 369.356L110.922 367.601C113.994 366.197 117.504 365.933 120.751 366.986L126.104 368.741L121.014 390.592H70.3801C67.8352 390.592 65.5536 389.1 64.5006 386.906L57.3048 371.55C55.8129 368.303 57.217 364.441 60.4639 362.862C61.6047 362.335 62.921 362.16 64.2373 362.335Z" fill="#EF749B"/>
<path d="M117.417 375.413C120.225 375.413 120.225 371.025 117.417 371.025C114.609 371.025 114.609 375.413 117.417 375.413Z" fill="white"/>
<path d="M106.62 384.714C109.428 384.714 109.428 380.326 106.62 380.326C103.812 380.326 103.812 384.714 106.62 384.714Z" fill="white"/>
<path d="M89.1567 377.956C91.9648 377.956 91.9648 373.568 89.1567 373.568C86.3486 373.568 86.2608 377.956 89.1567 377.956Z" fill="white"/>
<path d="M89.862 369.007C92.6701 369.007 92.6701 364.619 89.862 364.619C87.0538 364.619 87.0538 369.007 89.862 369.007Z" fill="white"/>
<path d="M101.005 374.974C103.813 374.974 103.813 370.586 101.005 370.586C98.1964 370.586 98.1964 374.974 101.005 374.974Z" fill="white"/>
<path d="M80.9108 385.765C83.7189 385.765 83.7189 381.377 80.9108 381.377C78.1027 381.377 78.1027 385.765 80.9108 385.765Z" fill="white"/>
<path d="M94.6862 390.241C97.4943 390.241 97.4943 385.854 94.6862 385.854C91.878 385.854 91.878 390.241 94.6862 390.241Z" fill="white"/>
<path d="M64.9381 389.892C67.7463 389.892 67.7463 385.504 64.9381 385.504C62.13 385.504 62.13 389.892 64.9381 389.892Z" fill="white"/>
<path d="M64.5846 375.763C67.3927 375.763 67.3927 371.375 64.5846 371.375C61.7765 371.375 61.7765 375.763 64.5846 375.763Z" fill="white"/>
<path d="M73.5376 375.413C76.3457 375.413 76.3457 371.025 73.5376 371.025C70.7294 371.025 70.6417 375.413 73.5376 375.413Z" fill="white"/>
<path d="M66.0807 365.321C68.8888 365.321 68.8888 360.934 66.0807 360.934C63.2726 360.934 63.2726 365.321 66.0807 365.321Z" fill="white"/>
<path d="M164.275 387.522C165.679 379.712 166.294 371.726 166.03 363.828L175.596 369.357L182.704 366.987C185.951 365.934 189.461 366.11 192.532 367.602L196.306 369.357L239.217 362.336C242.727 361.722 246.15 364.179 246.676 367.689C246.852 369.006 246.676 370.322 246.15 371.463L238.954 386.732C237.901 389.014 235.619 390.418 233.075 390.418H177.175L164.275 387.522Z" fill="#FBD7AD"/>
<path opacity="0.27" d="M169.541 365.846L173.139 389.628L164.275 387.522L166.118 363.828L169.541 365.846Z" fill="#F27932"/>
<path d="M47.0365 308.543C53.0916 303.541 61.516 302.839 68.273 306.788L166.031 363.828C166.206 371.726 165.68 379.712 164.276 387.522L86.0871 368.743C66.5179 364.004 50.2834 350.314 42.3856 331.798L41.6836 330.131C38.5244 322.584 40.7183 313.809 47.0365 308.543Z" fill="#0A503D"/>
<path d="M168.753 185.599C169.191 183.493 171.21 182.177 173.228 182.616C173.842 182.703 174.369 182.967 174.895 183.405C176.563 184.722 176.738 187.179 176.212 189.197C175.422 192.005 173.404 194.287 170.771 195.515C170.069 195.866 169.279 196.042 168.489 195.954C167.7 195.866 166.998 195.428 166.646 194.726" fill="#FBD7AD"/>
<path d="M133.211 185.599C132.773 183.493 130.754 182.177 128.736 182.616C128.122 182.703 127.595 182.967 127.069 183.405C125.489 184.722 125.226 187.179 125.752 189.197C126.542 192.005 128.56 194.287 131.193 195.515C131.895 195.866 132.685 196.042 133.475 195.954C134.264 195.866 134.966 195.428 135.317 194.726" fill="#FBD7AD"/>
<path d="M150.673 325.569C155.083 325.569 158.659 321.994 158.659 317.583C158.659 313.173 155.083 309.598 150.673 309.598C146.263 309.598 142.688 313.173 142.688 317.583C142.688 321.994 146.263 325.569 150.673 325.569Z" fill="white" stroke="#BFF0E3" stroke-width="0.87754" stroke-miterlimit="10"/>
<path d="M109.518 152.956C107.851 155.325 106.271 157.958 105.832 160.854C105.394 163.75 106.183 166.996 108.553 168.752C111.887 171.296 116.802 169.805 120.136 167.26C124.787 163.574 130.491 154.009 126.63 148.042C121.804 140.583 112.853 148.217 109.518 152.956Z" fill="black"/>
<path d="M183.846 152.956C185.514 155.325 187.093 157.958 187.532 160.854C187.971 163.75 187.181 166.996 184.812 168.752C181.477 171.296 176.563 169.805 173.228 167.26C168.577 163.574 162.873 154.009 166.734 148.042C171.561 140.583 180.512 148.217 183.846 152.956Z" fill="black"/>
<path d="M176.474 179.895C168.401 181.65 158.397 185.072 152.254 179.456C146.989 174.63 143.479 168.136 142.514 161.115C156.203 159.887 169.717 167.96 176.474 179.895Z" fill="black"/>
<path d="M145.846 197.095C148.917 198.938 152.866 198.762 155.849 196.744C156.288 196.393 155.849 195.691 155.411 195.954C152.69 197.885 149.18 197.973 146.372 196.305C146.197 196.218 145.933 196.218 145.758 196.481C145.582 196.744 145.67 197.007 145.846 197.095Z" fill="black"/>
<path d="M146.46 188.233C144.88 186.565 142.774 185.512 140.493 185.161C138.123 184.722 136.544 184.722 134.438 185.6C135.14 187.706 136.017 189.461 139.176 189.724C141.721 189.988 144.266 189.461 146.46 188.233Z" fill="white"/>
<path d="M134.529 185.6C138.566 184.021 143.217 185.074 146.201 188.32" stroke="black" stroke-width="0.87754" stroke-miterlimit="10"/>
<path d="M144.443 181.737C141.547 179.806 137.773 180.07 135.229 182.439C138.388 182.088 141.284 182 144.443 181.737Z" fill="black" stroke="black" stroke-width="0.87754" stroke-linecap="round" stroke-linejoin="round"/>
<path d="M155.412 188.147C156.992 186.479 159.098 185.426 161.292 185.075C163.661 184.637 165.241 184.637 167.347 185.514C167.083 187.62 165.767 189.375 162.608 189.639C160.151 189.902 157.606 189.375 155.412 188.147Z" fill="white"/>
<path d="M167.347 185.513C163.31 183.933 158.659 184.986 155.676 188.145" stroke="black" stroke-width="0.87754" stroke-miterlimit="10"/>
<path d="M151.111 187.529C152.34 187.793 153.13 188.933 152.866 190.162C152.691 190.864 152.252 191.478 151.638 191.741" stroke="black" stroke-width="0.87754" stroke-miterlimit="10" stroke-linecap="round" stroke-linejoin="round"/>
<path opacity="0.21" d="M139.264 200.43C141.93 200.43 144.09 198.269 144.09 195.604C144.09 192.938 141.93 190.777 139.264 190.777C136.598 190.777 134.438 192.938 134.438 195.604C134.438 198.269 136.598 200.43 139.264 200.43Z" fill="#EF749B"/>
<path opacity="0.21" d="M162.608 200.43C165.273 200.43 167.434 198.269 167.434 195.604C167.434 192.938 165.273 190.777 162.608 190.777C159.942 190.777 157.781 192.938 157.781 195.604C157.781 198.269 159.942 200.43 162.608 200.43Z" fill="#EF749B"/>
<path d="M166.03 188.319C164.363 186.213 161.292 185.862 159.273 187.529C158.747 187.968 158.22 188.494 157.957 189.196C159.449 189.635 160.941 189.811 162.432 189.723L164.012 189.46C164.714 189.284 165.416 188.845 166.03 188.319Z" fill="black"/>
<path d="M136.281 188.494C137.949 186.388 141.02 186.037 143.038 187.705C143.565 188.143 144.091 188.67 144.355 189.372C142.863 189.811 141.371 189.986 139.879 189.899C138.826 189.811 136.72 189.284 136.281 188.494Z" fill="black"/>
<path d="M198.238 231.934V50.2829C198.238 41.8585 205.083 35.0137 213.507 35.0137H420.87C429.295 35.0137 436.139 41.8585 436.139 50.2829V178.228C436.139 186.653 429.295 193.497 420.87 193.497H244.221L203.591 234.128C202.363 235.356 200.432 235.356 199.204 234.128C198.589 233.601 198.238 232.723 198.238 231.934Z" fill="white" stroke="#BFF0E3" stroke-width="0.87754" stroke-miterlimit="10"/>
<path d="M314.598 64.5873L317.23 68.3607C317.406 68.5362 317.581 68.7117 317.757 68.7117L322.145 70.1158C322.671 70.2913 323.022 70.9056 322.847 71.4321C322.847 71.5199 322.759 71.6076 322.671 71.7831L319.951 75.4688C319.775 75.6443 319.775 75.9076 319.775 76.0831L319.863 80.6463C319.863 81.2605 319.424 81.6993 318.81 81.6993C318.722 81.6993 318.547 81.6993 318.459 81.6116L314.071 80.2075C313.896 80.1197 313.632 80.1197 313.369 80.2075L308.982 81.6993C308.455 81.8748 307.841 81.6116 307.665 81.085C307.665 80.9973 307.577 80.8218 307.577 80.734L307.665 76.1708C307.665 75.9076 307.577 75.732 307.49 75.5565L304.769 71.8709C304.418 71.4321 304.506 70.7301 304.945 70.3791C305.033 70.2913 305.12 70.2913 305.296 70.2035L309.684 68.7995C309.947 68.7117 310.122 68.624 310.21 68.4485L312.843 64.675C313.194 64.1485 313.808 64.0608 314.335 64.4118C314.422 64.4118 314.51 64.4995 314.598 64.5873Z" fill="#F7C689"/>
<path d="M340.836 64.5887L343.469 68.3621C343.557 68.5376 343.82 68.7131 343.995 68.7131L348.383 70.1172C348.91 70.2927 349.261 70.9069 349.085 71.4335C349.085 71.5212 348.997 71.609 348.91 71.7845L346.189 75.4702C346.014 75.6457 346.014 75.9089 346.014 76.0844L346.101 80.6476C346.101 81.2619 345.663 81.7007 345.048 81.7007C344.961 81.7007 344.785 81.7007 344.697 81.6129L340.397 80.2089C340.222 80.1211 339.959 80.1211 339.695 80.2089L335.308 81.7007C334.781 81.8762 334.167 81.6129 333.991 81.0864C333.991 80.9987 333.904 80.8231 333.904 80.7354L333.991 76.1722C333.991 75.9089 333.904 75.7334 333.816 75.5579L331.095 71.8722C330.744 71.4335 330.832 70.7314 331.271 70.3804C331.359 70.2927 331.447 70.2927 331.622 70.2049L336.01 68.8009C336.273 68.7131 336.448 68.6253 336.536 68.4498L339.169 64.6764C339.432 64.1499 340.134 64.0621 340.573 64.3254C340.573 64.3254 340.748 64.4131 340.836 64.5887Z" fill="#F7C689"/>
<path d="M366.986 64.5867L369.619 68.3601C369.707 68.5356 369.97 68.7112 370.146 68.7112L374.533 70.1152C375.06 70.2907 375.411 70.905 375.235 71.4315C375.235 71.5193 375.148 71.6948 375.06 71.7825L372.339 75.4682C372.164 75.6437 372.164 75.907 372.164 76.0825L372.252 80.6457C372.252 81.26 371.813 81.6987 371.199 81.6987C371.111 81.6987 370.935 81.6987 370.848 81.611L366.46 80.1192C366.284 80.0314 366.021 80.0314 365.758 80.1192L361.458 81.611C360.931 81.7865 360.317 81.5232 360.142 80.9967C360.142 80.909 360.054 80.7334 360.054 80.6457L360.142 76.0825C360.142 75.8192 360.054 75.6437 359.966 75.4682L357.246 71.7825C356.895 71.3438 356.982 70.6417 357.509 70.2907C357.597 70.203 357.685 70.203 357.86 70.1152L362.248 68.7112C362.511 68.6234 362.687 68.5356 362.774 68.3601L365.407 64.5867C365.758 64.1479 366.372 63.9724 366.899 64.3235C366.811 64.4112 366.899 64.499 366.986 64.5867Z" fill="#F7C689"/>
<path d="M304.594 101.707H395.156" stroke="#BFF0E3" stroke-width="3.51016" stroke-miterlimit="10"/>
<path d="M304.594 115.396H395.156" stroke="#BFF0E3" stroke-width="3.51016" stroke-miterlimit="10"/>
<path d="M304.594 129.174H352.946" stroke="#BFF0E3" stroke-width="3.51016" stroke-miterlimit="10"/>
<path opacity="0.45" d="M285.431 96.4831C287.9 81.27 277.569 66.9358 262.356 64.4668C247.143 61.9978 232.809 72.329 230.34 87.5421C227.871 102.755 238.202 117.089 253.415 119.558C268.628 122.027 282.962 111.696 285.431 96.4831Z" fill="#BFF0E3"/>
<path opacity="0.22" d="M96.4425 312.844L150.675 350.841L204.906 312.844L204.819 330.482L150.675 361.196L95.916 327.411L96.4425 312.844Z" fill="#0A503D"/>
<path d="M239.13 362.335L196.219 369.268L192.445 367.513C189.374 366.109 185.864 365.846 182.617 366.899L177.264 368.741L182.353 390.504H232.987C235.532 390.504 237.814 389.013 238.867 386.819L246.063 371.55C247.555 368.303 246.151 364.441 242.904 362.862C241.851 362.335 240.534 362.16 239.13 362.335Z" fill="#EF749B"/>
<path d="M185.95 375.413C188.758 375.413 188.758 371.025 185.95 371.025C183.142 371.025 183.142 375.413 185.95 375.413Z" fill="white"/>
<path d="M196.745 384.714C199.553 384.714 199.553 380.326 196.745 380.326C193.937 380.326 193.937 384.714 196.745 384.714Z" fill="white"/>
<path d="M214.208 377.956C217.016 377.956 217.016 373.568 214.208 373.568C211.4 373.568 211.4 377.956 214.208 377.956Z" fill="white"/>
<path d="M213.505 369.007C216.313 369.007 216.313 364.619 213.505 364.619C210.696 364.619 210.696 369.007 213.505 369.007Z" fill="white"/>
<path d="M202.36 374.974C205.168 374.974 205.168 370.586 202.36 370.586C199.552 370.586 199.552 374.974 202.36 374.974Z" fill="white"/>
<path d="M222.456 385.765C225.264 385.765 225.264 381.377 222.456 381.377C219.648 381.377 219.648 385.765 222.456 385.765Z" fill="white"/>
<path d="M208.68 390.241C211.488 390.241 211.488 385.854 208.68 385.854C205.872 385.854 205.872 390.241 208.68 390.241Z" fill="white"/>
<path d="M238.428 389.892C241.236 389.892 241.236 385.504 238.428 385.504C235.62 385.504 235.62 389.892 238.428 389.892Z" fill="white"/>
<path d="M238.778 375.763C241.586 375.763 241.586 371.375 238.778 371.375C235.97 371.375 235.97 375.763 238.778 375.763Z" fill="white"/>
<path d="M229.915 375.413C232.723 375.413 232.723 371.025 229.915 371.025C227.106 371.025 227.019 375.413 229.915 375.413Z" fill="white"/>
<path d="M237.286 365.321C240.094 365.321 240.094 360.934 237.286 360.934C234.478 360.934 234.478 365.321 237.286 365.321Z" fill="white"/>
</svg>
