<svg width="546" height="377" viewBox="0 0 546 377" fill="none" xmlns="http://www.w3.org/2000/svg">
<g clip-path="url(#clip0_981_2911)">
<path opacity="0.1" d="M308.834 51.3182C273.836 51.365 240.149 41.4439 207.927 30.4225C175.706 19.4011 143.732 7.05931 109.385 1.82953C87.2957 -1.53214 62.1768 -1.22313 44.9096 10.9828C28.2886 22.7253 23.4755 42.1602 21.1532 60.1157C19.4068 73.6232 18.6015 87.8003 25.1423 100.156C29.6838 108.733 37.4559 115.803 42.9338 123.978C62.0551 152.416 50.5561 188.744 31.9733 217.843C23.2601 231.495 13.0534 244.581 6.46579 259.016C-0.121774 273.451 -2.82328 289.819 3.89538 304.066C10.5532 318.187 25.5917 328.436 41.7306 335.436C74.5045 349.678 112.663 352.731 149.796 353.906C231.993 356.514 314.349 351.195 396.485 345.876C426.881 343.91 457.412 341.929 487.18 336.232C503.707 333.071 520.727 328.38 532.446 318.098C547.32 305.045 550.364 283.732 539.539 268.413C521.387 242.718 473.523 237.872 460.507 210.071C453.329 194.765 459.519 177.212 468.635 162.459C488.187 130.804 521.841 102.45 522.407 67.045C522.796 42.7314 505.295 19.0124 479.155 8.44518C451.756 -2.62305 414.398 0.223605 395.202 20.8525C375.463 42.104 339.735 51.2854 308.834 51.3182Z" fill="#0A503D"/>
<path d="M464.702 302.156C464.702 302.156 458.948 298.359 453.246 301.06C453.246 301.06 455.001 304.441 462.221 304.122L464.702 302.156Z" fill="#0A503D"/>
<path d="M465.432 302.359C465.432 302.359 467.183 309.027 462.792 313.563C462.792 313.563 460.151 310.815 462.792 304.082L465.432 302.359Z" fill="#0A503D"/>
<path d="M472.586 295.958C472.586 295.958 472.16 290.288 459.355 292.17C459.355 292.17 459.294 295.827 463.789 297.559C468.284 299.291 470.344 297.83 472.586 295.958Z" fill="#0A503D"/>
<path d="M473.392 295.92C473.392 295.92 478.804 297.657 473.977 309.666C473.977 309.666 470.405 308.87 469.763 304.09C469.122 299.31 471.023 297.662 473.392 295.92Z" fill="#0A503D"/>
<path d="M480.62 287.878C480.62 287.878 481.356 278.547 468.269 279.502C468.269 279.502 467.333 287.93 478.312 290.121L480.62 287.878Z" fill="#0A503D"/>
<path d="M489.268 277.344C489.268 277.344 487.475 266.767 474.394 269.918C474.394 269.918 474.347 279.062 487.133 279.863L489.268 277.344Z" fill="#0A503D"/>
<path d="M495.589 266.451C495.589 266.451 492.583 256.151 479.624 259.231C479.624 259.231 482.709 268.497 494.728 268.352L495.589 266.451Z" fill="#0A503D"/>
<path d="M501.591 255.815C501.591 255.815 498.656 245.126 486.141 248.324C486.141 248.324 490.317 258.479 500.762 257.622L501.591 255.815Z" fill="#0A503D"/>
<path d="M505.458 245.71C505.458 245.71 503.202 232.638 491.534 235.531C491.534 235.531 494.924 247.424 504.602 247.616L505.458 245.71Z" fill="#0A503D"/>
<path d="M509.087 233.505C509.087 233.505 506.376 220.33 494.573 224.141C494.573 224.141 499.199 236.595 508.249 235.308L509.087 233.505Z" fill="#0A503D"/>
<path d="M511.316 222.146C511.316 222.146 507.013 208.966 497.888 209.322C497.888 209.322 502.284 223.241 510.553 224.772L511.316 222.146Z" fill="#0A503D"/>
<path d="M512.758 211.059C512.758 211.059 508.076 195.197 500.65 196.419C500.65 196.419 503.89 208.545 512.496 213.531L512.758 211.059Z" fill="#0A503D"/>
<path d="M513.572 197.834C513.572 197.834 509.18 184.617 501.867 184.088C501.867 184.088 504.854 197.094 513.427 201.271L513.572 197.834Z" fill="#0A503D"/>
<path d="M514.458 185.49C514.458 185.49 508.984 172.259 504.157 171.959C504.157 171.959 506.536 184.989 513.989 187.662L514.458 185.49Z" fill="#0A503D"/>
<path d="M515.061 174.012C515.061 174.012 511.695 159.643 506.858 158.449C506.858 158.449 507.519 170.206 514.574 175.089L515.061 174.012Z" fill="#0A503D"/>
<path d="M516.888 158.973C516.888 158.973 513.348 147.516 509.429 145.77C509.429 145.77 510.202 159.277 515.984 161.773L516.888 158.973Z" fill="#0A503D"/>
<path d="M518.4 149.14L519.111 128.941C519.111 128.941 511.784 144.167 517.871 152.684L518.4 149.14Z" fill="#0A503D"/>
<path d="M524.056 129.049C524.056 129.049 529.332 114.301 530.611 113.477C530.611 113.477 520.263 123.047 521.275 135.356L524.056 129.049Z" fill="#0A503D"/>
<path d="M480.977 287.807C480.977 287.807 490.257 286.594 489.98 299.709C489.98 299.709 481.595 301.076 478.856 290.227L480.977 287.807Z" fill="#0A503D"/>
<path d="M489.708 276.986C489.708 276.986 500.43 276.954 499.541 290.377C499.541 290.377 490.537 291.987 487.569 279.524L489.708 276.986Z" fill="#0A503D"/>
<path d="M495.692 267.319C495.692 267.319 505.425 262.754 511.652 274.539C511.652 274.539 502.663 278.341 494.83 269.225L495.692 267.319Z" fill="#0A503D"/>
<path d="M501.807 255.913C501.807 255.913 511.775 251.058 517.627 262.566C517.627 262.566 507.243 266.143 500.983 257.735L501.807 255.913Z" fill="#0A503D"/>
<path d="M505.332 245.995C505.332 245.995 514.926 236.832 522.581 246.098C522.581 246.098 512.781 253.641 504.892 248.036L505.332 245.995Z" fill="#0A503D"/>
<path d="M508.544 233.191C508.544 233.191 518.193 223.827 525.788 233.622C525.788 233.622 514.958 241.315 508.197 235.158L508.544 233.191Z" fill="#0A503D"/>
<path d="M510.347 221.772C510.347 221.772 517.782 210.067 526.537 212.679C526.537 212.679 518.821 225.072 510.431 224.52L510.347 221.772Z" fill="#0A503D"/>
<path d="M512.538 210.985C512.538 210.985 520.029 196.246 527.117 198.812C527.117 198.812 521.714 210.142 512.346 213.471L512.538 210.985Z" fill="#0A503D"/>
<path d="M513.058 197.063C513.058 197.063 520.76 185.461 527.975 186.88C527.975 186.88 521.677 198.646 512.309 200.42L513.058 197.063Z" fill="#0A503D"/>
<path d="M513.657 185.235C513.657 185.235 519.626 172.214 524.477 172.125C524.477 172.125 521.611 185.052 514.059 187.444L513.657 185.235Z" fill="#0A503D"/>
<path d="M514.827 173.73C514.827 173.73 521.462 160.546 526.448 160.518C526.448 160.518 523.053 171.792 515.047 174.887L514.827 173.73Z" fill="#0A503D"/>
<path d="M515.825 159.797C515.825 159.797 520.788 148.888 524.898 147.652C524.898 147.652 522.417 160.949 516.373 162.691L515.825 159.797Z" fill="#0A503D"/>
<path d="M518.99 148.741L530.081 131.844C530.081 131.844 527.239 148.512 517.37 151.976L518.99 148.741Z" fill="#0A503D"/>
<path d="M526.603 130.413C526.603 130.413 539.492 121.517 539.96 120.08C539.96 120.08 533.406 132.539 521.232 134.739L526.603 130.413Z" fill="#0A503D"/>
<path d="M527.375 126.41C527.375 126.41 542.175 112.181 545.953 112.195C545.953 112.195 533.748 112.752 527.02 125.651L527.375 126.41Z" fill="#0A503D"/>
<path d="M515.97 161.908L516.508 161.978C519.289 140.211 523.344 127.331 527.923 125.753L527.745 125.238C522.89 126.924 518.807 139.607 515.97 161.908Z" fill="#444053"/>
<path d="M511.878 213.963L512.693 214.028C512.866 211.996 512.997 209.917 513.086 207.843C513.863 189.827 515.066 173.281 516.649 160.878L516.181 160.293C514.594 172.724 513.048 189.766 512.271 207.811C512.182 209.871 512.051 211.94 511.878 213.963Z" fill="#444053"/>
<path d="M449.513 312.542C449.654 312.481 463.995 306.076 478.879 290.804C487.599 281.858 494.845 271.586 500.346 260.371C507.228 246.357 511.423 229.137 512.828 212.408L511.981 212.806C508.82 250.356 491.726 276.013 478.134 289.989C463.395 305.126 449.214 311.465 449.073 311.526L449.513 312.542Z" fill="#444053"/>
<path d="M486.646 39.9062H36.7627C35.6997 39.9062 34.6803 40.3285 33.9287 41.0801C33.1771 41.8317 32.7549 42.8511 32.7549 43.914V55.5909H490.654V43.914C490.654 42.8511 490.232 41.8317 489.48 41.0801C488.728 40.3285 487.709 39.9062 486.646 39.9062Z" fill="#3F3D56"/>
<path d="M32.7549 55.5898V318.362C32.7549 320.505 33.6063 322.561 35.1218 324.076C36.6373 325.592 38.6928 326.443 40.836 326.443H482.573C484.716 326.443 486.771 325.592 488.287 324.076C489.802 322.561 490.654 320.505 490.654 318.362V55.5898H32.7549Z" fill="white"/>
<path opacity="0.8" d="M40.0076 49.5034C41.0419 49.5034 41.8804 48.6649 41.8804 47.6306C41.8804 46.5963 41.0419 45.7578 40.0076 45.7578C38.9732 45.7578 38.1348 46.5963 38.1348 47.6306C38.1348 48.6649 38.9732 49.5034 40.0076 49.5034Z" fill="#FA5959"/>
<path opacity="0.8" d="M45.1575 49.5034C46.1918 49.5034 47.0303 48.6649 47.0303 47.6306C47.0303 46.5963 46.1918 45.7578 45.1575 45.7578C44.1231 45.7578 43.2847 46.5963 43.2847 47.6306C43.2847 48.6649 44.1231 49.5034 45.1575 49.5034Z" fill="#FED253"/>
<path opacity="0.8" d="M50.3083 49.5034C51.3427 49.5034 52.1811 48.6649 52.1811 47.6306C52.1811 46.5963 51.3427 45.7578 50.3083 45.7578C49.274 45.7578 48.4355 46.5963 48.4355 47.6306C48.4355 48.6649 49.274 49.5034 50.3083 49.5034Z" fill="#8CCF4D"/>
<path opacity="0.05" d="M443.324 99.4023H75.3193V261.221H443.324V99.4023Z" fill="black"/>
<path d="M440.515 100.631H78.1284V258.882H440.515V100.631Z" fill="#3F3D56"/>
<path d="M176.919 141.359C169.789 141.359 162.819 143.474 156.89 147.435C150.961 151.396 146.341 157.027 143.612 163.614C140.883 170.202 140.169 177.451 141.56 184.444C142.951 191.437 146.385 197.861 151.427 202.903C156.469 207.945 162.893 211.378 169.886 212.769C176.879 214.16 184.128 213.446 190.715 210.718C197.303 207.989 202.933 203.368 206.895 197.44C210.856 191.511 212.97 184.541 212.97 177.411C212.97 172.676 212.038 167.988 210.226 163.614C208.414 159.241 205.759 155.266 202.411 151.919C199.064 148.571 195.089 145.915 190.715 144.104C186.341 142.292 181.653 141.359 176.919 141.359ZM183.385 178.277V195.347H170.64V178.277C168.877 176.942 167.577 175.087 166.925 172.973C166.272 170.86 166.3 168.595 167.004 166.498C167.708 164.401 169.053 162.578 170.849 161.287C172.645 159.996 174.801 159.301 177.013 159.301C179.225 159.301 181.381 159.996 183.176 161.287C184.972 162.578 186.317 164.401 187.021 166.498C187.725 168.595 187.753 170.86 187.101 172.973C186.448 175.087 185.148 176.942 183.385 178.277Z" fill="#0A503D"/>
<path opacity="0.05" d="M176.919 141.359C169.789 141.359 162.819 143.474 156.89 147.435C150.961 151.396 146.341 157.027 143.612 163.614C140.883 170.202 140.169 177.451 141.56 184.444C142.951 191.437 146.385 197.861 151.427 202.903C156.469 207.945 162.893 211.378 169.886 212.769C176.879 214.16 184.128 213.446 190.715 210.718C197.303 207.989 202.933 203.368 206.895 197.44C210.856 191.511 212.97 184.541 212.97 177.411C212.97 172.676 212.038 167.988 210.226 163.614C208.414 159.241 205.759 155.266 202.411 151.919C199.064 148.571 195.089 145.915 190.715 144.104C186.341 142.292 181.653 141.359 176.919 141.359ZM183.385 178.277V195.347H170.64V178.277C168.877 176.942 167.577 175.087 166.925 172.973C166.272 170.86 166.3 168.595 167.004 166.498C167.708 164.401 169.053 162.578 170.849 161.287C172.645 159.996 174.801 159.301 177.013 159.301C179.225 159.301 181.381 159.996 183.176 161.287C184.972 162.578 186.317 164.401 187.021 166.498C187.725 168.595 187.753 170.86 187.101 172.973C186.448 175.087 185.148 176.942 183.385 178.277Z" fill="black"/>
<path d="M176.919 131.059C167.751 131.059 158.79 133.777 151.167 138.87C143.544 143.963 137.603 151.203 134.095 159.672C130.587 168.142 129.669 177.462 131.458 186.453C133.246 195.444 137.661 203.704 144.143 210.186C150.625 216.668 158.885 221.083 167.876 222.871C176.867 224.66 186.187 223.742 194.657 220.234C203.126 216.725 210.366 210.784 215.459 203.162C220.552 195.539 223.27 186.578 223.27 177.41C223.27 165.117 218.387 153.327 209.694 144.635C201.002 135.942 189.212 131.059 176.919 131.059ZM185.229 178.525V200.469H168.842V178.525C166.574 176.808 164.902 174.422 164.062 171.704C163.223 168.986 163.259 166.073 164.164 163.376C165.069 160.679 166.799 158.335 169.109 156.674C171.418 155.013 174.191 154.12 177.036 154.12C179.88 154.12 182.653 155.013 184.963 156.674C187.272 158.335 189.002 160.679 189.907 163.376C190.813 166.073 190.848 168.986 190.009 171.704C189.17 174.422 187.498 176.808 185.229 178.525Z" fill="#0A503D"/>
<path d="M392.291 171.328H242.467V187.247H392.291V171.328Z" fill="white"/>
<path d="M392.29 200.357H359.984V216.276H392.29V200.357Z" fill="#0A503D"/>
<path d="M257.215 179.049H254.504L256.915 176.642C256.958 176.598 256.982 176.538 256.982 176.476C256.982 176.414 256.958 176.354 256.915 176.31C256.893 176.288 256.867 176.271 256.839 176.259C256.81 176.247 256.78 176.241 256.749 176.241C256.718 176.241 256.687 176.247 256.659 176.259C256.63 176.271 256.604 176.288 256.583 176.31L254.171 178.721V176.006C254.171 175.943 254.147 175.884 254.103 175.84C254.059 175.796 253.999 175.771 253.937 175.771C253.876 175.773 253.817 175.798 253.773 175.841C253.729 175.885 253.704 175.944 253.703 176.006V178.721L251.297 176.296C251.275 176.274 251.249 176.257 251.22 176.245C251.192 176.233 251.161 176.227 251.13 176.227C251.099 176.227 251.069 176.233 251.04 176.245C251.012 176.257 250.986 176.274 250.964 176.296C250.921 176.34 250.897 176.4 250.897 176.462C250.897 176.524 250.921 176.584 250.964 176.628L253.375 179.035H250.66C250.598 179.036 250.539 179.061 250.496 179.105C250.452 179.148 250.427 179.207 250.426 179.269C250.426 179.331 250.45 179.391 250.494 179.434C250.538 179.478 250.598 179.503 250.66 179.503H253.375L250.964 181.914C250.921 181.959 250.897 182.018 250.897 182.08C250.897 182.143 250.921 182.202 250.964 182.247C251.009 182.289 251.069 182.312 251.13 182.312C251.192 182.312 251.252 182.289 251.297 182.247L253.703 179.835V182.546C253.703 182.608 253.728 182.668 253.772 182.712C253.816 182.756 253.875 182.78 253.937 182.78C253.999 182.78 254.059 182.756 254.103 182.712C254.147 182.668 254.171 182.608 254.171 182.546V179.835L256.583 182.247C256.628 182.289 256.687 182.312 256.749 182.312C256.81 182.312 256.87 182.289 256.915 182.247C256.958 182.202 256.982 182.143 256.982 182.08C256.982 182.018 256.958 181.959 256.915 181.914L254.504 179.503H257.215C257.277 179.503 257.336 179.478 257.38 179.434C257.424 179.391 257.449 179.331 257.449 179.269C257.445 179.209 257.419 179.153 257.375 179.112C257.332 179.071 257.274 179.049 257.215 179.049Z" fill="#0A503D"/>
<path d="M267.047 179.049H264.336L266.747 176.642C266.79 176.598 266.814 176.538 266.814 176.476C266.814 176.414 266.79 176.354 266.747 176.31C266.725 176.288 266.699 176.271 266.671 176.259C266.642 176.247 266.612 176.241 266.581 176.241C266.55 176.241 266.519 176.247 266.491 176.259C266.462 176.271 266.436 176.288 266.415 176.31L264.003 178.721V176.006C264.003 175.943 263.979 175.884 263.935 175.84C263.891 175.796 263.831 175.771 263.769 175.771C263.708 175.773 263.649 175.798 263.605 175.841C263.561 175.885 263.536 175.944 263.535 176.006V178.721L261.129 176.296C261.107 176.274 261.081 176.257 261.052 176.245C261.024 176.233 260.993 176.227 260.962 176.227C260.932 176.227 260.901 176.233 260.872 176.245C260.844 176.257 260.818 176.274 260.796 176.296C260.753 176.34 260.729 176.4 260.729 176.462C260.729 176.524 260.753 176.584 260.796 176.628L263.207 179.035H260.492C260.43 179.036 260.371 179.061 260.328 179.105C260.284 179.148 260.259 179.207 260.258 179.269C260.258 179.331 260.282 179.391 260.326 179.434C260.37 179.478 260.43 179.503 260.492 179.503H263.207L260.796 181.914C260.753 181.959 260.729 182.018 260.729 182.08C260.729 182.143 260.753 182.202 260.796 182.247C260.841 182.289 260.901 182.312 260.962 182.312C261.024 182.312 261.084 182.289 261.129 182.247L263.535 179.835V182.546C263.535 182.608 263.56 182.668 263.604 182.712C263.648 182.756 263.707 182.78 263.769 182.78C263.831 182.78 263.891 182.756 263.935 182.712C263.979 182.668 264.003 182.608 264.003 182.546V179.835L266.415 182.247C266.46 182.289 266.519 182.312 266.581 182.312C266.643 182.312 266.702 182.289 266.747 182.247C266.79 182.202 266.814 182.143 266.814 182.08C266.814 182.018 266.79 181.959 266.747 181.914L264.336 179.503H267.047C267.109 179.503 267.168 179.478 267.212 179.434C267.256 179.391 267.281 179.331 267.281 179.269C267.277 179.209 267.251 179.153 267.207 179.112C267.164 179.071 267.106 179.049 267.047 179.049Z" fill="#0A503D"/>
<path d="M276.879 179.049H274.168L276.58 176.642C276.623 176.598 276.647 176.538 276.647 176.476C276.647 176.414 276.623 176.354 276.58 176.31C276.558 176.288 276.532 176.271 276.503 176.259C276.475 176.247 276.444 176.241 276.413 176.241C276.382 176.241 276.352 176.247 276.323 176.259C276.295 176.271 276.269 176.288 276.247 176.31L273.836 178.721V176.006C273.836 175.943 273.811 175.884 273.767 175.84C273.723 175.796 273.664 175.771 273.602 175.771C273.54 175.773 273.481 175.798 273.438 175.841C273.394 175.885 273.369 175.944 273.368 176.006V178.721L270.961 176.296C270.939 176.274 270.914 176.257 270.885 176.245C270.856 176.233 270.826 176.227 270.795 176.227C270.764 176.227 270.733 176.233 270.705 176.245C270.676 176.257 270.651 176.274 270.629 176.296C270.586 176.34 270.561 176.4 270.561 176.462C270.561 176.524 270.586 176.584 270.629 176.628L273.04 179.035H270.324C270.263 179.036 270.204 179.061 270.16 179.105C270.117 179.148 270.092 179.207 270.09 179.269C270.09 179.331 270.115 179.391 270.159 179.434C270.203 179.478 270.262 179.503 270.324 179.503H273.04L270.629 181.914C270.586 181.959 270.561 182.018 270.561 182.08C270.561 182.143 270.586 182.202 270.629 182.247C270.674 182.289 270.733 182.312 270.795 182.312C270.857 182.312 270.916 182.289 270.961 182.247L273.368 179.835V182.546C273.368 182.608 273.392 182.668 273.436 182.712C273.48 182.756 273.54 182.78 273.602 182.78C273.664 182.78 273.723 182.756 273.767 182.712C273.811 182.668 273.836 182.608 273.836 182.546V179.835L276.247 182.247C276.292 182.289 276.352 182.312 276.413 182.312C276.475 182.312 276.534 182.289 276.58 182.247C276.623 182.202 276.647 182.143 276.647 182.08C276.647 182.018 276.623 181.959 276.58 181.914L274.168 179.503H276.879C276.941 179.503 277.001 179.478 277.045 179.434C277.089 179.391 277.113 179.331 277.113 179.269C277.11 179.209 277.083 179.153 277.04 179.112C276.996 179.071 276.939 179.049 276.879 179.049Z" fill="#0A503D"/>
<path d="M286.711 179.049H284L286.412 176.642C286.455 176.598 286.479 176.538 286.479 176.476C286.479 176.414 286.455 176.354 286.412 176.31C286.39 176.288 286.364 176.271 286.335 176.259C286.307 176.247 286.276 176.241 286.245 176.241C286.214 176.241 286.184 176.247 286.155 176.259C286.127 176.271 286.101 176.288 286.079 176.31L283.668 178.721V176.006C283.668 175.943 283.643 175.884 283.599 175.84C283.555 175.796 283.496 175.771 283.434 175.771C283.372 175.773 283.313 175.798 283.27 175.841C283.226 175.885 283.201 175.944 283.2 176.006V178.721L280.793 176.296C280.771 176.274 280.746 176.257 280.717 176.245C280.688 176.233 280.658 176.227 280.627 176.227C280.596 176.227 280.565 176.233 280.537 176.245C280.508 176.257 280.483 176.274 280.461 176.296C280.418 176.34 280.393 176.4 280.393 176.462C280.393 176.524 280.418 176.584 280.461 176.628L282.872 179.035H280.156C280.095 179.036 280.036 179.061 279.992 179.105C279.949 179.148 279.924 179.207 279.922 179.269C279.922 179.331 279.947 179.391 279.991 179.434C280.035 179.478 280.094 179.503 280.156 179.503H282.872L280.461 181.914C280.418 181.959 280.393 182.018 280.393 182.08C280.393 182.143 280.418 182.202 280.461 182.247C280.506 182.289 280.565 182.312 280.627 182.312C280.689 182.312 280.748 182.289 280.793 182.247L283.2 179.835V182.546C283.2 182.608 283.224 182.668 283.268 182.712C283.312 182.756 283.372 182.78 283.434 182.78C283.496 182.78 283.555 182.756 283.599 182.712C283.643 182.668 283.668 182.608 283.668 182.546V179.835L286.079 182.247C286.124 182.289 286.184 182.312 286.245 182.312C286.307 182.312 286.367 182.289 286.412 182.247C286.455 182.202 286.479 182.143 286.479 182.08C286.479 182.018 286.455 181.959 286.412 181.914L284 179.503H286.711C286.773 179.503 286.833 179.478 286.877 179.434C286.921 179.391 286.945 179.331 286.945 179.269C286.942 179.209 286.916 179.153 286.872 179.112C286.828 179.071 286.771 179.049 286.711 179.049Z" fill="#0A503D"/>
<path d="M296.543 179.049H293.832L296.244 176.642C296.287 176.598 296.311 176.538 296.311 176.476C296.311 176.414 296.287 176.354 296.244 176.31C296.222 176.288 296.196 176.271 296.167 176.259C296.139 176.247 296.108 176.241 296.077 176.241C296.046 176.241 296.016 176.247 295.987 176.259C295.959 176.271 295.933 176.288 295.911 176.31L293.5 178.721V176.006C293.5 175.943 293.475 175.884 293.431 175.84C293.388 175.796 293.328 175.771 293.266 175.771C293.204 175.773 293.145 175.798 293.102 175.841C293.058 175.885 293.033 175.944 293.032 176.006V178.721L290.625 176.296C290.603 176.274 290.578 176.257 290.549 176.245C290.521 176.233 290.49 176.227 290.459 176.227C290.428 176.227 290.398 176.233 290.369 176.245C290.34 176.257 290.315 176.274 290.293 176.296C290.25 176.34 290.225 176.4 290.225 176.462C290.225 176.524 290.25 176.584 290.293 176.628L292.704 179.035H289.988C289.927 179.036 289.868 179.061 289.824 179.105C289.781 179.148 289.756 179.207 289.754 179.269C289.754 179.331 289.779 179.391 289.823 179.434C289.867 179.478 289.926 179.503 289.988 179.503H292.704L290.293 181.914C290.25 181.959 290.225 182.018 290.225 182.08C290.225 182.143 290.25 182.202 290.293 182.247C290.338 182.289 290.397 182.312 290.459 182.312C290.521 182.312 290.58 182.289 290.625 182.247L293.032 179.835V182.546C293.032 182.608 293.056 182.668 293.1 182.712C293.144 182.756 293.204 182.78 293.266 182.78C293.328 182.78 293.388 182.756 293.431 182.712C293.475 182.668 293.5 182.608 293.5 182.546V179.835L295.911 182.247C295.956 182.289 296.016 182.312 296.077 182.312C296.139 182.312 296.199 182.289 296.244 182.247C296.287 182.202 296.311 182.143 296.311 182.08C296.311 182.018 296.287 181.959 296.244 181.914L293.832 179.503H296.543C296.605 179.503 296.665 179.478 296.709 179.434C296.753 179.391 296.777 179.331 296.777 179.269C296.774 179.209 296.748 179.153 296.704 179.112C296.661 179.071 296.603 179.049 296.543 179.049Z" fill="#0A503D"/>
<path d="M306.376 179.049H303.665L306.076 176.642C306.119 176.598 306.143 176.538 306.143 176.476C306.143 176.414 306.119 176.354 306.076 176.31C306.054 176.288 306.028 176.271 306 176.259C305.971 176.247 305.941 176.241 305.91 176.241C305.879 176.241 305.848 176.247 305.82 176.259C305.791 176.271 305.765 176.288 305.744 176.31L303.333 178.721V176.006C303.333 175.943 303.308 175.884 303.264 175.84C303.22 175.796 303.16 175.771 303.098 175.771C303.037 175.773 302.978 175.798 302.934 175.841C302.891 175.885 302.866 175.944 302.864 176.006V178.721L300.458 176.296C300.436 176.274 300.41 176.257 300.382 176.245C300.353 176.233 300.322 176.227 300.292 176.227C300.261 176.227 300.23 176.233 300.202 176.245C300.173 176.257 300.147 176.274 300.125 176.296C300.082 176.34 300.058 176.4 300.058 176.462C300.058 176.524 300.082 176.584 300.125 176.628L302.537 179.035H299.821C299.759 179.036 299.7 179.061 299.657 179.105C299.613 179.148 299.588 179.207 299.587 179.269C299.587 179.331 299.612 179.391 299.655 179.434C299.699 179.478 299.759 179.503 299.821 179.503H302.537L300.125 181.914C300.082 181.959 300.058 182.018 300.058 182.08C300.058 182.143 300.082 182.202 300.125 182.247C300.17 182.289 300.23 182.312 300.292 182.312C300.353 182.312 300.413 182.289 300.458 182.247L302.864 179.835V182.546C302.864 182.608 302.889 182.668 302.933 182.712C302.977 182.756 303.036 182.78 303.098 182.78C303.16 182.78 303.22 182.756 303.264 182.712C303.308 182.668 303.333 182.608 303.333 182.546V179.835L305.744 182.247C305.789 182.289 305.848 182.312 305.91 182.312C305.972 182.312 306.031 182.289 306.076 182.247C306.119 182.202 306.143 182.143 306.143 182.08C306.143 182.018 306.119 181.959 306.076 181.914L303.665 179.503H306.376C306.438 179.503 306.497 179.478 306.541 179.434C306.585 179.391 306.61 179.331 306.61 179.269C306.606 179.209 306.58 179.153 306.537 179.112C306.493 179.071 306.436 179.049 306.376 179.049Z" fill="#0A503D"/>
<path d="M316.208 179.049H313.497L315.908 176.642C315.951 176.598 315.976 176.538 315.976 176.476C315.976 176.414 315.951 176.354 315.908 176.31C315.886 176.288 315.861 176.271 315.832 176.259C315.803 176.247 315.773 176.241 315.742 176.241C315.711 176.241 315.68 176.247 315.652 176.259C315.623 176.271 315.598 176.288 315.576 176.31L313.165 178.721V176.006C313.165 175.943 313.14 175.884 313.096 175.84C313.052 175.796 312.993 175.771 312.93 175.771C312.869 175.773 312.81 175.798 312.766 175.841C312.723 175.885 312.698 175.944 312.696 176.006V178.721L310.29 176.296C310.268 176.274 310.242 176.257 310.214 176.245C310.185 176.233 310.154 176.227 310.124 176.227C310.093 176.227 310.062 176.233 310.034 176.245C310.005 176.257 309.979 176.274 309.957 176.296C309.914 176.34 309.89 176.4 309.89 176.462C309.89 176.524 309.914 176.584 309.957 176.628L312.369 179.035H309.653C309.591 179.036 309.532 179.061 309.489 179.105C309.445 179.148 309.42 179.207 309.419 179.269C309.419 179.331 309.444 179.391 309.488 179.434C309.531 179.478 309.591 179.503 309.653 179.503H312.369L309.957 181.914C309.914 181.959 309.89 182.018 309.89 182.08C309.89 182.143 309.914 182.202 309.957 182.247C310.002 182.289 310.062 182.312 310.124 182.312C310.185 182.312 310.245 182.289 310.29 182.247L312.696 179.835V182.546C312.696 182.608 312.721 182.668 312.765 182.712C312.809 182.756 312.868 182.78 312.93 182.78C312.993 182.78 313.052 182.756 313.096 182.712C313.14 182.668 313.165 182.608 313.165 182.546V179.835L315.576 182.247C315.621 182.289 315.68 182.312 315.742 182.312C315.804 182.312 315.863 182.289 315.908 182.247C315.951 182.202 315.976 182.143 315.976 182.08C315.976 182.018 315.951 181.959 315.908 181.914L313.497 179.503H316.208C316.27 179.503 316.329 179.478 316.373 179.434C316.417 179.391 316.442 179.331 316.442 179.269C316.438 179.209 316.412 179.153 316.369 179.112C316.325 179.071 316.268 179.049 316.208 179.049Z" fill="#0A503D"/>
<path d="M326.04 179.049H323.329L325.74 176.642C325.783 176.598 325.808 176.538 325.808 176.476C325.808 176.414 325.783 176.354 325.74 176.31C325.718 176.288 325.693 176.271 325.664 176.259C325.635 176.247 325.605 176.241 325.574 176.241C325.543 176.241 325.512 176.247 325.484 176.259C325.455 176.271 325.43 176.288 325.408 176.31L322.997 178.721V176.006C322.997 175.943 322.972 175.884 322.928 175.84C322.884 175.796 322.825 175.771 322.762 175.771C322.701 175.773 322.642 175.798 322.598 175.841C322.555 175.885 322.53 175.944 322.528 176.006V178.721L320.122 176.296C320.1 176.274 320.074 176.257 320.046 176.245C320.017 176.233 319.986 176.227 319.956 176.227C319.925 176.227 319.894 176.233 319.866 176.245C319.837 176.257 319.811 176.274 319.789 176.296C319.746 176.34 319.722 176.4 319.722 176.462C319.722 176.524 319.746 176.584 319.789 176.628L322.201 179.035H319.485C319.423 179.036 319.364 179.061 319.321 179.105C319.277 179.148 319.252 179.207 319.251 179.269C319.251 179.331 319.276 179.391 319.32 179.434C319.363 179.478 319.423 179.503 319.485 179.503H322.201L319.789 181.914C319.746 181.959 319.722 182.018 319.722 182.08C319.722 182.143 319.746 182.202 319.789 182.247C319.834 182.289 319.894 182.312 319.956 182.312C320.017 182.312 320.077 182.289 320.122 182.247L322.528 179.835V182.546C322.528 182.608 322.553 182.668 322.597 182.712C322.641 182.756 322.7 182.78 322.762 182.78C322.825 182.78 322.884 182.756 322.928 182.712C322.972 182.668 322.997 182.608 322.997 182.546V179.835L325.408 182.247C325.453 182.289 325.512 182.312 325.574 182.312C325.636 182.312 325.695 182.289 325.74 182.247C325.783 182.202 325.808 182.143 325.808 182.08C325.808 182.018 325.783 181.959 325.74 181.914L323.329 179.503H326.04C326.102 179.503 326.161 179.478 326.205 179.434C326.249 179.391 326.274 179.331 326.274 179.269C326.27 179.209 326.244 179.153 326.201 179.112C326.157 179.071 326.1 179.049 326.04 179.049Z" fill="#0A503D"/>
<path d="M335.872 179.049H333.161L335.573 176.642C335.616 176.598 335.64 176.538 335.64 176.476C335.64 176.414 335.616 176.354 335.573 176.31C335.551 176.288 335.525 176.271 335.497 176.259C335.468 176.247 335.437 176.241 335.407 176.241C335.376 176.241 335.345 176.247 335.316 176.259C335.288 176.271 335.262 176.288 335.24 176.31L332.829 178.721V176.006C332.829 175.943 332.804 175.884 332.761 175.84C332.717 175.796 332.657 175.771 332.595 175.771C332.533 175.773 332.474 175.798 332.431 175.841C332.387 175.885 332.362 175.944 332.361 176.006V178.721L329.954 176.296C329.933 176.274 329.907 176.257 329.878 176.245C329.85 176.233 329.819 176.227 329.788 176.227C329.757 176.227 329.727 176.233 329.698 176.245C329.67 176.257 329.644 176.274 329.622 176.296C329.579 176.34 329.555 176.4 329.555 176.462C329.555 176.524 329.579 176.584 329.622 176.628L332.033 179.035H329.318C329.256 179.036 329.197 179.061 329.153 179.105C329.11 179.148 329.085 179.207 329.083 179.269C329.083 179.331 329.108 179.391 329.152 179.434C329.196 179.478 329.256 179.503 329.318 179.503H332.033L329.622 181.914C329.579 181.959 329.555 182.018 329.555 182.08C329.555 182.143 329.579 182.202 329.622 182.247C329.667 182.289 329.726 182.312 329.788 182.312C329.85 182.312 329.909 182.289 329.954 182.247L332.361 179.835V182.546C332.361 182.608 332.386 182.668 332.429 182.712C332.473 182.756 332.533 182.78 332.595 182.78C332.657 182.78 332.717 182.756 332.761 182.712C332.804 182.668 332.829 182.608 332.829 182.546V179.835L335.24 182.247C335.285 182.289 335.345 182.312 335.407 182.312C335.468 182.312 335.528 182.289 335.573 182.247C335.616 182.202 335.64 182.143 335.64 182.08C335.64 182.018 335.616 181.959 335.573 181.914L333.161 179.503H335.872C335.934 179.503 335.994 179.478 336.038 179.434C336.082 179.391 336.106 179.331 336.106 179.269C336.103 179.209 336.077 179.153 336.033 179.112C335.99 179.071 335.932 179.049 335.872 179.049Z" fill="#0A503D"/>
<path d="M345.704 179.049H342.994L345.405 176.642C345.448 176.598 345.472 176.538 345.472 176.476C345.472 176.414 345.448 176.354 345.405 176.31C345.383 176.288 345.357 176.271 345.329 176.259C345.3 176.247 345.269 176.241 345.239 176.241C345.208 176.241 345.177 176.247 345.149 176.259C345.12 176.271 345.094 176.288 345.072 176.31L342.661 178.721V176.006C342.661 175.943 342.636 175.884 342.593 175.84C342.549 175.796 342.489 175.771 342.427 175.771C342.365 175.773 342.306 175.798 342.263 175.841C342.219 175.885 342.194 175.944 342.193 176.006V178.721L339.786 176.296C339.765 176.274 339.739 176.257 339.71 176.245C339.682 176.233 339.651 176.227 339.62 176.227C339.589 176.227 339.559 176.233 339.53 176.245C339.502 176.257 339.476 176.274 339.454 176.296C339.411 176.34 339.387 176.4 339.387 176.462C339.387 176.524 339.411 176.584 339.454 176.628L341.865 179.035H339.15C339.088 179.036 339.029 179.061 338.985 179.105C338.942 179.148 338.917 179.207 338.916 179.269C338.916 179.331 338.94 179.391 338.984 179.434C339.028 179.478 339.088 179.503 339.15 179.503H341.865L339.454 181.914C339.411 181.959 339.387 182.018 339.387 182.08C339.387 182.143 339.411 182.202 339.454 182.247C339.499 182.289 339.558 182.312 339.62 182.312C339.682 182.312 339.741 182.289 339.786 182.247L342.193 179.835V182.546C342.193 182.608 342.218 182.668 342.261 182.712C342.305 182.756 342.365 182.78 342.427 182.78C342.489 182.78 342.549 182.756 342.593 182.712C342.636 182.668 342.661 182.608 342.661 182.546V179.835L345.072 182.247C345.117 182.289 345.177 182.312 345.239 182.312C345.3 182.312 345.36 182.289 345.405 182.247C345.448 182.202 345.472 182.143 345.472 182.08C345.472 182.018 345.448 181.959 345.405 181.914L342.994 179.503H345.704C345.767 179.503 345.826 179.478 345.87 179.434C345.914 179.391 345.939 179.331 345.939 179.269C345.935 179.209 345.909 179.153 345.865 179.112C345.822 179.071 345.764 179.049 345.704 179.049Z" fill="#0A503D"/>
<path d="M355.537 179.049H352.826L355.237 176.642C355.28 176.598 355.305 176.538 355.305 176.476C355.305 176.414 355.28 176.354 355.237 176.31C355.216 176.288 355.19 176.271 355.161 176.259C355.133 176.247 355.102 176.241 355.071 176.241C355.04 176.241 355.01 176.247 354.981 176.259C354.953 176.271 354.927 176.288 354.905 176.31L352.494 178.721V176.006C352.494 175.943 352.469 175.884 352.425 175.84C352.381 175.796 352.322 175.771 352.26 175.771C352.198 175.773 352.139 175.798 352.095 175.841C352.052 175.885 352.027 175.944 352.025 176.006V178.721L349.619 176.296C349.597 176.274 349.571 176.257 349.543 176.245C349.514 176.233 349.484 176.227 349.453 176.227C349.422 176.227 349.391 176.233 349.363 176.245C349.334 176.257 349.308 176.274 349.286 176.296C349.243 176.34 349.219 176.4 349.219 176.462C349.219 176.524 349.243 176.584 349.286 176.628L351.698 179.035H348.982C348.92 179.036 348.862 179.061 348.818 179.105C348.774 179.148 348.749 179.207 348.748 179.269C348.748 179.331 348.773 179.391 348.817 179.434C348.861 179.478 348.92 179.503 348.982 179.503H351.698L349.286 181.914C349.243 181.959 349.219 182.018 349.219 182.08C349.219 182.143 349.243 182.202 349.286 182.247C349.332 182.289 349.391 182.312 349.453 182.312C349.514 182.312 349.574 182.289 349.619 182.247L352.025 179.835V182.546C352.025 182.608 352.05 182.668 352.094 182.712C352.138 182.756 352.197 182.78 352.26 182.78C352.322 182.78 352.381 182.756 352.425 182.712C352.469 182.668 352.494 182.608 352.494 182.546V179.835L354.905 182.247C354.95 182.289 355.009 182.312 355.071 182.312C355.133 182.312 355.192 182.289 355.237 182.247C355.28 182.202 355.305 182.143 355.305 182.08C355.305 182.018 355.28 181.959 355.237 181.914L352.826 179.503H355.537C355.599 179.503 355.659 179.478 355.702 179.434C355.746 179.391 355.771 179.331 355.771 179.269C355.767 179.209 355.741 179.153 355.698 179.112C355.654 179.071 355.597 179.049 355.537 179.049Z" fill="#0A503D"/>
<path d="M430.912 236.005C430.899 235.439 430.828 234.876 430.701 234.324C430.28 232.742 429.329 230.827 427.766 230.349C426.151 229.855 424.592 229.196 423.112 228.383C422.831 223.364 423.983 218.227 422.728 213.363C422.26 211.584 421.487 209.879 421.281 208.058C421.024 205.792 421.642 203.376 420.738 201.288C420.026 199.64 418.462 198.479 416.782 197.87C415.101 197.261 413.289 197.098 411.505 196.934C409.258 196.751 401.982 195.89 399.444 197.898C399.269 198.034 399.112 198.191 398.976 198.366C398.92 198.444 398.87 198.525 398.826 198.61L398.803 198.647C398.752 198.745 398.71 198.847 398.676 198.952C398.641 199.066 398.614 199.184 398.597 199.303C398.597 199.34 398.597 199.378 398.597 199.415C398.597 199.453 398.597 199.579 398.597 199.663V199.79C398.597 199.874 398.597 199.958 398.597 200.047C398.597 200.136 398.597 200.113 398.597 200.146C398.63 200.567 398.69 200.988 398.69 201.405C398.695 201.612 398.677 201.82 398.634 202.023C398.478 202.575 398.214 203.091 397.857 203.54L397.773 203.662C397.721 203.737 397.67 203.807 397.623 203.882C397.576 203.957 397.539 204.013 397.501 204.078C397.464 204.144 397.426 204.186 397.394 204.247C397.348 204.324 397.308 204.404 397.272 204.486C397.272 204.533 397.22 204.575 397.202 204.621C397.143 204.748 397.096 204.88 397.061 205.015C396.951 205.422 396.942 205.849 397.033 206.26C397.159 206.785 397.376 207.285 397.674 207.735C397.792 207.927 397.918 208.114 398.049 208.302L398.377 208.746C398.316 209.181 398.283 209.619 398.278 210.057C398.279 211.523 398.612 212.97 399.252 214.289C399.893 215.608 400.825 216.764 401.977 217.67C402.163 219.647 402.142 221.639 401.916 223.612C401.874 224.024 401.823 224.44 401.767 224.852C401.71 225.264 401.668 225.536 401.612 225.878C400.927 225.976 400.229 225.923 399.566 225.723C399.26 225.587 398.948 225.467 398.63 225.363C397.267 225.021 395.877 226.379 394.528 225.967C394.528 226.032 394.491 226.093 394.467 226.154C394.186 225.979 393.862 225.884 393.531 225.878C392.73 225.84 392.079 225.26 391.499 224.712L389.715 223.031C389.599 222.928 389.495 222.812 389.406 222.685C389.31 222.503 389.238 222.309 389.191 222.109C388.891 221.14 388.165 220.367 387.463 219.632C387.33 219.464 387.153 219.336 386.953 219.262C386.875 219.25 386.796 219.25 386.719 219.262C386.671 219.197 386.619 219.134 386.564 219.075C386.443 218.936 386.313 218.804 386.175 218.682C385.323 217.895 385.239 217.221 384.499 216.341C383.854 215.501 383.269 214.617 382.748 213.695C382.687 213.204 382.603 212.698 382.5 212.188C382.264 211.019 381.921 209.875 381.475 208.77L380.538 206.696L380.431 206.803C379.752 205.792 379.026 205.24 378.375 205.371C377.284 205.595 376.746 207.712 376.919 210.479L377.294 213.288C377.294 213.358 377.326 213.428 377.345 213.499C377.278 213.831 377.243 214.17 377.242 214.51C377.242 214.903 377.607 215.193 377.799 215.545C378.107 216.02 378.269 216.575 378.268 217.141C378.244 217.342 378.183 217.534 378.174 217.731C378.199 218.171 378.352 218.594 378.614 218.948L380.955 222.881L381.423 223.705L381.451 223.743C381.599 224.03 381.814 224.278 382.079 224.464C382.17 225.449 382.432 226.41 382.851 227.306C382.931 227.484 383.02 227.652 383.113 227.821C383.743 228.855 384.484 229.818 385.323 230.691L386.438 231.941C387.538 233.168 388.638 234.399 389.832 235.532C390.259 235.987 390.776 236.348 391.349 236.595C391.63 236.707 391.935 236.743 392.235 236.7C392.534 236.656 392.816 236.534 393.053 236.347C393.053 236.927 393.053 237.508 393.053 238.088C393.227 238.099 393.395 238.156 393.539 238.253C393.684 238.35 393.8 238.484 393.875 238.641C393.951 238.798 393.983 238.973 393.968 239.146C393.954 239.32 393.893 239.486 393.793 239.629C392.81 242.152 391.817 244.699 390.328 246.961C391.379 247.583 392.354 248.326 393.231 249.175C393.801 249.806 394.307 250.492 394.744 251.221C394.786 251.568 394.818 251.91 394.837 252.251C395.184 257.832 393.025 263.371 391.092 268.69C390.534 270.197 389.926 271.775 389.973 273.344C389.606 273.57 389.255 273.822 388.924 274.098C389.308 275.1 389.158 275.994 389.116 277.066C389.102 277.709 388.97 278.343 388.727 278.939C388.524 279.351 388.299 279.753 388.053 280.142C386.84 282.282 386.573 284.824 386.33 287.268C386.185 288.743 386.756 290.545 386.087 291.866C384.93 294.132 383.905 296.548 383.746 299.067C383.74 299.633 383.668 300.198 383.53 300.747C383.385 301.216 383.127 301.614 382.996 302.072C382.861 302.687 382.83 303.32 382.903 303.945C382.992 306.19 382.658 308.431 381.92 310.552C381.334 312.223 380.688 314.012 381.147 315.73C380.017 316.916 379.32 318.448 379.167 320.079C379.154 320.497 379.104 320.912 379.017 321.32C378.874 321.737 378.685 322.138 378.455 322.514C377.512 324.231 377.071 326.177 377.181 328.132C375.777 330.038 375.074 332.388 374.658 334.725C374.241 337.061 374.058 339.439 373.525 341.748C372.813 344.8 371.526 347.886 371.273 351.013C369.756 351.983 369.1 353.86 368.81 355.634C368.52 357.409 368.473 359.272 367.728 360.911C367.344 361.763 366.792 362.526 366.427 363.397C366.171 364.091 365.983 364.807 365.865 365.537C365.64 366.679 365.444 367.953 365.72 369.048C365.323 369.469 364.859 369.822 364.348 370.092C364.423 369.802 364.484 369.512 364.535 369.217C363.327 370.313 361.136 369.929 360.172 371.244C359.882 371.668 359.769 372.189 359.856 372.695C359.944 373.201 360.225 373.653 360.64 373.955C360.942 374.139 361.268 374.279 361.609 374.372C363.95 375.121 366.357 375.875 368.763 375.477C369.048 375.446 369.323 375.359 369.573 375.219C369.886 374.989 370.144 374.691 370.327 374.348C370.687 373.777 371.048 373.206 371.404 372.635C372.266 372.892 373.143 373.097 374.03 373.248C374.119 373.997 374.185 374.746 374.218 375.496C374.686 375.589 375.313 375.617 375.533 375.182C375.6 375.017 375.627 374.839 375.613 374.662C375.613 374.33 375.66 373.89 375.688 373.44H375.781C377.21 373.498 378.631 373.21 379.925 372.602C379.424 368.454 381.077 364.399 382.509 360.476C384.022 356.346 385.319 352.142 386.625 347.937C387.561 344.978 388.596 342.113 389.514 339.149C390.669 335.404 391.828 331.658 392.992 327.912C393.498 326.264 394.008 324.635 394.589 322.996C395.811 319.68 397.261 316.453 398.929 313.337C399.397 312.452 399.866 311.577 400.25 310.659C400.718 309.54 401.05 308.37 401.425 307.213C402.241 304.84 403.223 302.528 404.365 300.293C404.398 300.232 404.421 300.176 404.454 300.12C404.833 301.67 405.212 303.243 405.465 304.802C405.807 306.714 405.834 308.669 405.545 310.589C405.32 311.895 404.894 313.188 404.946 314.513C405.016 316.343 405.994 318.005 406.477 319.77C406.787 321.091 406.963 322.44 407.001 323.797C407.132 325.904 408.274 328.268 407.469 330.221C404.964 336.406 406.177 343.391 404.749 349.885C404.014 353.219 401.762 356.351 401.94 359.759C402.065 362.178 402.277 364.591 402.576 366.998C402.649 367.757 402.846 368.499 403.162 369.194C403.349 369.559 403.563 369.91 403.803 370.242C403.597 370.322 403.424 370.533 403.274 370.977C402.89 372.148 403.274 373.599 404.314 374.255C404.737 374.481 405.194 374.639 405.667 374.723C406.303 374.904 406.962 374.995 407.624 374.995C407.83 374.983 408.035 374.958 408.237 374.92C408.961 375.224 409.7 375.489 410.452 375.716C410.452 375.908 410.489 376.099 410.512 376.291C410.514 376.392 410.536 376.491 410.578 376.582C410.62 376.673 410.681 376.754 410.756 376.821C410.873 376.875 411.002 376.898 411.13 376.886H413.673C413.673 376.675 413.673 376.46 413.673 376.249C413.964 376.28 414.258 376.249 414.536 376.158C414.814 376.068 415.07 375.92 415.288 375.725C415.513 375.438 415.673 375.106 415.756 374.751C416.449 372.401 417.137 370.049 417.821 367.695C418.641 365.094 418.982 362.365 418.828 359.642C417.924 351.013 419.909 342.356 419.263 333.704C418.874 328.504 419.142 323.275 420.059 318.141C420.27 316.98 420.527 315.8 420.621 314.644C420.827 312.462 420.574 310.257 420.729 308.089C420.78 307.33 420.883 306.577 420.977 305.823C421.618 301.144 421.954 296.429 421.983 291.707C421.969 290.142 421.872 288.579 421.693 287.025C422.181 286.9 422.624 286.641 422.971 286.275C423.388 285.732 423.28 284.969 423.276 284.276C423.276 282.619 423.973 281.055 424.535 279.491C425.256 277.334 425.847 275.136 426.305 272.908C426.789 271.113 427.053 269.266 427.091 267.407C427.091 267.22 427.082 267.032 427.063 266.845C427.24 266.723 427.387 266.563 427.494 266.377C427.616 266.103 427.692 265.81 427.719 265.511C427.887 264.317 428.061 263.118 428.229 261.92C428.354 261.061 428.477 260.205 428.599 259.349L430.088 248.96C430.214 248.056 430.345 247.157 430.472 246.258L430.86 243.571C430.903 243.253 430.949 242.934 430.982 242.635C432.125 240.724 431.034 238.177 430.912 236.005ZM418.491 274.903C417.938 273.592 417.423 272.248 417.554 270.834H417.503C417.626 270.399 417.605 269.936 417.442 269.514C417.297 269.172 417.044 268.882 416.889 268.54C416.723 268.123 416.638 267.678 416.637 267.229C416.52 264.381 416.745 261.53 417.306 258.736C417.367 258.408 417.432 258.076 417.493 257.748C417.69 257.635 417.869 257.494 418.027 257.331C418.273 257.051 418.477 256.735 418.631 256.395C419.16 255.332 419.642 254.251 420.087 253.15C420.232 252.795 420.443 252.383 420.803 252.294C420.729 255.033 421.009 257.828 419.895 260.3C419.683 260.698 419.526 261.124 419.427 261.564C419.324 262.262 419.614 262.968 419.511 263.661C419.46 264.022 419.305 264.354 419.244 264.71C419.198 264.885 419.199 265.069 419.247 265.243C419.294 265.417 419.387 265.576 419.516 265.703C419.578 265.746 419.646 265.781 419.717 265.806C419.689 265.993 419.666 266.185 419.647 266.368C419.61 266.752 419.591 267.112 419.567 267.337C419.46 268.482 419.417 269.633 419.441 270.783C419.441 272.023 419.488 273.264 419.469 274.528C419.486 274.891 419.426 275.254 419.291 275.591C419.198 275.765 419.078 275.923 418.935 276.059C418.8 275.638 418.65 275.268 418.491 274.903Z" fill="url(#paint0_linear_981_2911)"/>
<path d="M381.532 220.577C382.961 220.284 383.447 216.767 382.618 212.722C381.789 208.676 379.959 205.634 378.53 205.927C377.102 206.22 376.615 209.737 377.444 213.782C378.273 217.827 380.103 220.87 381.532 220.577Z" fill="#FBBEBE"/>
<path d="M403.349 371.068C402.965 372.229 403.349 373.68 404.388 374.313C404.809 374.537 405.263 374.695 405.732 374.781C406.367 374.96 407.024 375.05 407.684 375.048C408.494 375.01 409.272 374.692 410.082 374.579C410.175 374.556 410.274 374.569 410.358 374.617C410.398 374.66 410.429 374.712 410.447 374.769C410.464 374.826 410.469 374.886 410.461 374.945C410.47 375.405 410.504 375.865 410.564 376.321C410.565 376.422 410.587 376.521 410.629 376.612C410.671 376.703 410.731 376.784 410.807 376.85C410.924 376.905 411.053 376.927 411.182 376.916H413.72C413.777 374.686 413.533 372.459 412.994 370.295C412.959 370.13 412.895 369.971 412.807 369.827C412.591 369.591 412.308 369.428 411.997 369.359C411.376 369.101 410.706 368.984 410.035 369.017C409.215 369.125 408.532 369.654 407.834 370.094C407.137 370.534 406.186 370.923 405.339 370.698C404.491 370.473 403.784 369.766 403.349 371.068Z" fill="#3F3D56"/>
<path d="M366.09 369.011C365.377 369.775 364.502 370.37 363.529 370.753L363.098 370.959C363.039 370.981 362.988 371.022 362.953 371.076C362.945 371.112 362.945 371.15 362.953 371.187C362.961 371.223 362.977 371.257 363 371.287C363.358 371.841 363.888 372.263 364.508 372.489C365.129 372.714 365.806 372.731 366.436 372.537C366.715 372.467 366.973 372.332 367.19 372.143C367.547 371.72 367.752 371.189 367.771 370.636C367.912 370.065 367.888 369.466 367.701 368.908C367.05 367.443 366.811 368.108 366.09 369.011Z" fill="#FBBEBE"/>
<path d="M375.819 374.781C375.833 374.958 375.806 375.136 375.739 375.301C375.519 375.731 374.906 375.708 374.428 375.614C374.356 374.026 374.163 372.445 373.852 370.885C372.944 370.843 372.289 371.705 371.802 372.477L370.547 374.467C370.365 374.81 370.109 375.107 369.798 375.338C369.547 375.475 369.272 375.563 368.988 375.596C366.591 375.994 364.17 375.24 361.857 374.491C361.516 374.399 361.19 374.261 360.888 374.079C360.475 373.776 360.196 373.324 360.109 372.82C360.021 372.315 360.133 371.797 360.42 371.372C361.389 370.061 363.566 370.436 364.774 369.35C364.648 370.114 364.441 370.863 364.156 371.583C365.771 371.34 366.857 369.86 368.159 368.872C368.486 368.595 368.88 368.408 369.301 368.329C369.617 368.303 369.935 368.336 370.238 368.427C371.739 368.805 373.143 369.496 374.358 370.455C374.85 370.843 375.617 371.391 375.833 371.99C376.062 372.707 375.819 374.018 375.819 374.781Z" fill="#3F3D56"/>
<path d="M408.027 220.303C413.369 220.303 417.7 215.972 417.7 210.63C417.7 205.288 413.369 200.957 408.027 200.957C402.684 200.957 398.354 205.288 398.354 210.63C398.354 215.972 402.684 220.303 408.027 220.303Z" fill="#FBBEBE"/>
<path d="M427.082 267.74C427.043 269.589 426.78 271.427 426.3 273.213C425.842 275.432 425.251 277.62 424.53 279.768C423.973 281.327 423.275 282.891 423.28 284.544C423.28 285.232 423.392 285.995 422.971 286.538C422.596 286.919 422.123 287.19 421.604 287.32C421.345 287.389 421.106 287.517 420.906 287.695C420.706 287.873 420.55 288.096 420.452 288.345C420.013 287.689 419.684 286.964 419.478 286.201C418.639 283.629 417.858 281.043 417.137 278.443C417.071 278.293 417.043 278.13 417.054 277.967C417.066 277.803 417.117 277.646 417.203 277.507C417.322 277.403 417.46 277.325 417.61 277.277C418.09 277.081 418.53 276.799 418.907 276.444C419.084 276.287 419.23 276.098 419.338 275.887C419.474 275.551 419.536 275.19 419.52 274.828C419.52 273.588 419.52 272.352 419.488 271.111C419.468 269.965 419.512 268.82 419.619 267.679C419.619 267.454 419.661 267.094 419.698 266.71C419.769 265.975 419.909 265.123 420.307 264.837C420.902 264.439 422.681 264.973 423.355 265.066C424.516 265.226 425.696 265.413 426.829 265.633C426.994 266.323 427.078 267.03 427.082 267.74Z" fill="#3F3D56"/>
<path d="M388.025 221.458C387.65 222.207 386.752 222.567 386.059 223.04L383.685 224.67C383.526 224.813 383.34 224.922 383.138 224.991C382.936 225.06 382.723 225.088 382.51 225.072C382.316 225.001 382.14 224.892 381.989 224.751C381.839 224.61 381.718 224.441 381.634 224.253C381.636 224.241 381.636 224.228 381.634 224.216L381.143 223.392L378.802 219.468C378.541 219.117 378.39 218.697 378.366 218.26C378.366 218.059 378.436 217.871 378.455 217.67C378.461 217.105 378.298 216.55 377.987 216.078C377.8 215.727 377.425 215.437 377.434 215.044C377.416 214.527 377.506 214.012 377.697 213.531C377.942 213.087 378.295 212.71 378.722 212.436C378.942 212.276 379.167 212.127 379.401 211.967C379.525 211.883 379.663 211.819 379.808 211.78C380.197 211.701 380.581 212.024 380.974 212.038C382.664 213.171 383.315 215.315 384.645 216.86C385.394 217.74 385.469 218.415 386.316 219.201C386.452 219.323 386.583 219.454 386.709 219.59C386.877 219.772 387.019 219.977 387.131 220.198C387.285 220.601 388.217 221.074 388.025 221.458Z" fill="#3F3D56"/>
<path d="M404.628 220.306C405.325 221.781 405.868 223.401 405.667 225.021C405.626 225.46 405.487 225.884 405.26 226.262C404.585 227.296 403.171 227.484 401.94 227.544C401.681 227.523 401.419 227.553 401.172 227.633C400.924 227.714 400.695 227.843 400.498 228.013C400.334 228.252 400.253 228.539 400.269 228.828C400.285 229.118 400.397 229.394 400.587 229.614C400.983 230.036 401.474 230.357 402.02 230.55C403.967 231.407 406.07 232.114 408.186 231.917C409.169 231.824 410.124 231.538 411.103 231.393C412.17 231.277 413.242 231.218 414.315 231.215C415.588 231.168 416.857 231.042 418.126 230.915L421.487 230.583C421.671 230.586 421.849 230.521 421.988 230.4C422.237 230.11 421.918 229.684 421.609 229.464C419.825 228.144 417.555 227.235 416.539 225.25C416.07 224.314 415.925 223.2 415.579 222.188C415.232 221.177 414.68 220.264 414.464 219.234C414.35 218.33 414.298 217.42 414.31 216.509C414.322 215.591 413.987 214.701 413.374 214.018C412.704 213.395 411.735 213.236 410.827 213.199C408.589 213.1 406.205 213.634 404.618 215.212C404.192 215.638 403.827 216.148 403.387 216.532C402.947 216.916 402.347 217.029 402.638 217.534C402.928 218.04 403.499 218.354 403.808 218.798C404.121 219.278 404.395 219.783 404.628 220.306Z" fill="#FBBEBE"/>
<path d="M423.697 233.926C423.106 237.532 422.146 241.066 420.831 244.475C420.17 246.014 419.608 247.593 419.146 249.204C418.785 250.655 418.856 252.21 418.523 253.666C418.111 255.478 417.699 257.294 417.367 259.12C416.809 261.909 416.586 264.753 416.702 267.595C416.703 268.042 416.789 268.485 416.955 268.901C417.109 269.238 417.357 269.528 417.503 269.875C417.611 270.179 417.656 270.503 417.633 270.825C417.61 271.147 417.521 271.461 417.371 271.748C417.131 272.283 416.805 272.777 416.407 273.208C412.043 274.51 407.375 274.084 402.829 274.36C398.639 274.613 394.402 275.474 390.272 274.758C389.804 272.885 390.586 270.923 391.255 269.098C393.198 263.793 395.347 258.268 395.001 252.711C394.965 252.062 394.891 251.417 394.781 250.777C394.102 246.839 394.842 242.761 396.026 238.945C396.761 236.567 396.729 234.034 396.56 231.557C396.477 230.753 396.466 229.943 396.527 229.137C396.595 228.313 396.901 227.528 397.407 226.875C397.407 226.843 397.45 226.81 397.473 226.777C397.496 226.744 397.679 226.749 397.824 226.777C397.861 226.793 397.901 226.801 397.941 226.801C397.981 226.801 398.021 226.793 398.058 226.777L398.11 226.744C398.13 226.73 398.153 226.722 398.178 226.722C398.202 226.722 398.226 226.73 398.246 226.744C398.353 226.81 398.414 227.034 398.648 227.077C398.994 227.129 399.343 227.162 399.692 227.175C400.113 227.187 400.531 227.247 400.938 227.353H400.994C401.603 227.456 402.228 227.402 402.81 227.198C403.198 227.101 403.573 226.957 403.925 226.768C404.028 226.655 404.674 226.552 404.805 226.473C405.231 226.215 405.137 225.007 405.226 224.511C405.276 224.013 405.394 223.525 405.578 223.059C405.791 222.716 406.085 222.43 406.434 222.227C406.784 222.024 407.178 221.909 407.581 221.894C408.388 221.874 409.193 221.947 409.983 222.109C411.73 222.357 413.518 222.315 415.232 222.718C416.093 222.919 417.034 223.223 417.826 222.83C418.041 222.882 418.074 223.069 418.074 223.298C418.054 223.516 418.01 223.731 417.943 223.94C417.643 225.232 418.659 226.421 419.595 227.358C419.991 227.799 420.458 228.171 420.977 228.458C421.445 228.673 421.913 228.762 422.381 228.996C422.76 229.199 423.082 229.493 423.318 229.853C423.587 230.266 423.769 230.729 423.851 231.215C423.952 232.121 423.9 233.038 423.697 233.926Z" fill="#3F3D56"/>
<path opacity="0.1" d="M423.697 233.926C423.107 237.532 422.146 241.066 420.832 244.475C420.171 246.014 419.608 247.593 419.146 249.204C418.786 250.655 418.856 252.209 418.523 253.666C418.111 255.477 417.699 257.294 417.367 259.12C417.269 259.176 417.166 259.228 417.063 259.275C416.48 259.553 415.863 259.751 415.227 259.865C414.086 260.003 412.93 259.965 411.8 259.752L405.119 258.858C402.45 258.497 399.608 258.062 397.628 256.255C396.527 255.262 395.806 253.951 395.015 252.687C394.979 252.039 394.905 251.393 394.795 250.753C394.116 246.816 394.856 242.738 396.041 238.922C396.776 236.544 396.743 234.011 396.574 231.534C396.491 230.73 396.48 229.919 396.541 229.113C396.609 228.29 396.915 227.504 397.422 226.852C397.558 226.812 397.698 226.78 397.838 226.758C397.933 226.739 398.028 226.727 398.124 226.721H398.26C398.418 226.721 398.575 226.74 398.728 226.777C399.047 226.878 399.36 226.999 399.664 227.137H399.721C400.122 227.27 400.544 227.33 400.966 227.315C401.584 227.315 402.221 227.217 402.839 227.175C403.602 227.056 404.384 227.196 405.058 227.573C405.493 227.923 405.906 228.3 406.294 228.701C406.763 229.069 407.29 229.356 407.853 229.549C411.883 231.087 416.355 230.993 420.317 229.286C420.697 229.07 421.129 228.96 421.567 228.968C421.89 229.031 422.196 229.162 422.466 229.352C422.747 229.516 423.023 229.675 423.308 229.82C423.578 230.233 423.76 230.697 423.842 231.183C423.949 232.099 423.9 233.027 423.697 233.926Z" fill="black"/>
<path d="M427.775 230.827C425.911 230.257 424.12 229.472 422.438 228.486C422.168 228.297 421.862 228.167 421.539 228.102C421.1 228.097 420.667 228.207 420.284 228.42C416.324 230.127 411.854 230.221 407.825 228.683C407.263 228.488 406.736 228.201 406.266 227.835C405.877 227.435 405.464 227.058 405.03 226.707C403.49 225.709 401.36 226.88 399.637 226.239C399.331 226.102 399.018 225.982 398.7 225.878C397.338 225.536 395.952 226.894 394.613 226.482C394.115 227.836 393.746 229.235 393.513 230.658C393.322 232.293 393.221 233.938 393.208 235.584C393.208 236.572 393.161 237.56 393.208 238.548C393.373 238.575 393.531 238.635 393.671 238.727C393.811 238.818 393.931 238.937 394.023 239.077C394.084 239.24 394.11 239.414 394.097 239.588C394.084 239.762 394.033 239.931 393.948 240.083C392.969 242.597 391.977 245.14 390.493 247.392C391.539 248.015 392.51 248.757 393.386 249.602C395.025 251.334 395.83 253.764 397.6 255.365C399.594 257.168 402.436 257.608 405.091 257.964L411.772 258.858C412.904 259.07 414.061 259.109 415.204 258.975C415.838 258.859 416.454 258.659 417.035 258.38C417.414 258.222 417.761 257.993 418.056 257.706C418.302 257.426 418.506 257.11 418.66 256.77C419.189 255.712 419.671 254.63 420.116 253.535C420.27 253.146 420.504 252.692 420.926 252.659C423.407 250.421 425.748 248.127 428.23 245.889C429.227 245.062 430.121 244.119 430.894 243.08C432.125 241.258 431.006 238.679 430.894 236.478C430.88 235.915 430.809 235.355 430.683 234.807C430.28 233.21 429.334 231.3 427.775 230.827Z" fill="#0A503D"/>
<path opacity="0.1" d="M388.025 221.458C387.65 222.207 386.751 222.567 386.058 223.04L383.685 224.67C383.526 224.812 383.34 224.922 383.138 224.991C382.936 225.06 382.722 225.088 382.509 225.072C382.316 225.001 382.139 224.892 381.989 224.751C381.839 224.61 381.718 224.441 381.634 224.253C381.634 224.145 381.634 224.028 381.634 223.916C381.616 223.537 381.667 223.158 381.784 222.797C382.016 222.267 382.377 221.804 382.833 221.448C383.714 220.614 384.762 219.975 385.909 219.576C386.087 219.506 386.281 219.487 386.47 219.519C386.543 219.538 386.613 219.568 386.676 219.608C386.844 219.791 386.986 219.996 387.098 220.217C387.285 220.601 388.217 221.074 388.025 221.458Z" fill="black"/>
<path d="M393.615 226.393C392.819 226.355 392.168 225.779 391.588 225.231L389.813 223.583C389.694 223.483 389.59 223.366 389.504 223.237C389.408 223.055 389.336 222.861 389.289 222.661C388.912 221.715 388.323 220.869 387.566 220.189C387.434 220.021 387.257 219.894 387.055 219.824C386.865 219.789 386.669 219.808 386.489 219.88C385.342 220.279 384.294 220.917 383.413 221.753C382.957 222.109 382.597 222.572 382.364 223.101C382.246 223.462 382.196 223.841 382.214 224.22C382.225 225.457 382.503 226.677 383.029 227.797C383.108 227.97 383.197 228.144 383.291 228.312C383.916 229.345 384.654 230.304 385.492 231.173L386.606 232.418C387.702 233.645 388.797 234.872 389.986 236C390.413 236.455 390.929 236.815 391.503 237.058C391.791 237.176 392.106 237.212 392.414 237.162C392.721 237.113 393.008 236.979 393.245 236.777C393.469 236.518 393.638 236.215 393.741 235.888C394.462 234.015 395.146 232.067 395.188 230.049C395.198 229.241 395.164 228.433 395.085 227.629C395.015 226.776 394.411 226.444 393.615 226.393Z" fill="#0A503D"/>
<path d="M421.988 291.942C421.961 296.652 421.626 301.355 420.986 306.021C420.892 306.775 420.789 307.529 420.738 308.283C420.583 310.469 420.836 312.665 420.63 314.837C420.523 316.013 420.279 317.178 420.073 318.325C419.158 323.445 418.891 328.66 419.277 333.846C419.923 342.475 417.943 351.109 418.842 359.714C418.951 361.388 418.858 363.068 418.565 364.719C418.398 365.744 418.155 366.755 417.84 367.744C417.156 370.088 416.47 372.429 415.78 374.767C415.699 375.122 415.539 375.455 415.312 375.741C415.073 375.947 414.793 376.1 414.49 376.19C414.187 376.28 413.869 376.304 413.556 376.26C410.854 376.176 408.312 375.01 405.859 373.873C405.576 373.761 405.315 373.603 405.086 373.404C404.576 372.875 404.618 372.042 404.393 371.344C404.168 370.647 403.56 369.991 403.213 369.275C402.928 368.597 402.756 367.878 402.703 367.145C402.391 364.747 402.178 362.341 402.066 359.925C401.888 356.526 404.136 353.398 404.875 350.093C406.28 343.594 405.091 336.627 407.586 330.461C408.373 328.513 407.23 326.154 407.118 324.056C407.078 322.703 406.902 321.357 406.594 320.039C406.125 318.279 405.138 316.621 405.067 314.795C405.016 313.475 405.442 312.187 405.662 310.886C405.954 308.97 405.927 307.02 405.582 305.113C405.334 303.54 404.955 301.967 404.576 300.431L404.491 300.604C403.351 302.834 402.37 305.141 401.556 307.51C401.181 308.657 400.854 309.828 400.385 310.942C400.001 311.878 399.529 312.735 399.065 313.615C397.402 316.719 395.955 319.934 394.734 323.237C394.154 324.857 393.643 326.514 393.138 328.139L389.668 339.376C388.732 342.33 387.706 345.186 386.789 348.136C385.492 352.349 384.195 356.526 382.687 360.646C381.283 364.555 379.611 368.605 380.112 372.735C378.821 373.342 377.403 373.629 375.978 373.573C373.565 373.359 371.198 372.785 368.955 371.869C368.061 371.536 367.134 371.162 366.53 370.427C365.49 369.158 365.748 367.299 366.062 365.684C366.18 364.956 366.368 364.241 366.623 363.549C366.979 362.687 367.56 361.924 367.925 361.072C368.66 359.438 368.707 357.589 368.997 355.814C369.288 354.04 369.934 352.167 371.451 351.202C371.708 348.084 372.991 345.008 373.698 341.96C374.232 339.652 374.41 337.278 374.831 334.937C375.252 332.596 375.931 330.255 377.345 328.359C377.234 326.404 377.675 324.457 378.619 322.741C378.847 322.364 379.034 321.963 379.176 321.547C379.263 321.14 379.313 320.726 379.326 320.311C379.481 318.684 380.176 317.156 381.302 315.97C380.833 314.261 381.484 312.478 382.069 310.82C382.806 308.705 383.14 306.471 383.053 304.233C382.98 303.608 383.01 302.975 383.142 302.36C383.273 301.892 383.53 301.494 383.68 301.044C383.814 300.494 383.884 299.93 383.891 299.363C384.073 296.83 385.099 294.443 386.232 292.181C386.906 290.861 386.335 289.068 386.475 287.597C386.719 285.153 386.985 282.625 388.198 280.495C388.423 280.092 388.666 279.708 388.868 279.292C389.112 278.697 389.243 278.062 389.256 277.419C389.298 276.347 389.448 275.457 389.064 274.46C391.569 272.376 394.987 271.791 398.246 271.651C401.504 271.51 404.8 271.805 407.989 271.112C408.925 270.902 409.862 270.611 410.85 270.471C413.092 270.143 415.368 270.653 417.582 271.159C417.428 272.564 417.943 273.912 418.519 275.218C420.767 280.51 421.946 286.193 421.988 291.942Z" fill="#33313F"/>
<path opacity="0.1" d="M410.962 293.012L405.583 305.11C405.334 303.537 404.955 301.964 404.576 300.428L404.492 300.601V300.348L407.423 293.901L410.962 293.012Z" fill="black"/>
<path opacity="0.1" d="M427.082 267.74C426.771 267.972 426.401 268.11 426.014 268.138C425.421 268.159 424.829 268.078 424.263 267.899L420.049 266.846C419.917 266.813 419.789 266.768 419.666 266.71C419.736 265.975 419.876 265.123 420.274 264.837C420.869 264.439 422.648 264.973 423.322 265.066C424.483 265.226 425.663 265.413 426.796 265.633C426.972 266.322 427.068 267.029 427.082 267.74Z" fill="black"/>
<path d="M430.645 239.883C430.734 240.272 430.861 240.656 430.935 241.049C431.061 242.014 431.028 242.993 430.837 243.947L430.453 246.625L430.069 249.318L428.585 259.679L428.22 262.245L427.705 265.826C427.681 266.124 427.604 266.416 427.48 266.688C427.327 266.942 427.113 267.155 426.857 267.306C426.601 267.457 426.312 267.542 426.015 267.554C425.422 267.573 424.83 267.492 424.264 267.315L420.05 266.257C419.865 266.224 419.69 266.152 419.535 266.046C419.406 265.92 419.313 265.763 419.265 265.589C419.218 265.415 419.217 265.232 419.263 265.058C419.324 264.703 419.479 264.37 419.53 264.014C419.633 263.321 419.343 262.61 419.446 261.921C419.547 261.483 419.704 261.06 419.914 260.662C421.319 257.558 420.504 253.934 420.981 250.563C421.411 247.91 422.532 245.417 424.231 243.334C425.279 242.019 426.483 240.837 427.817 239.813C428.342 239.406 429.175 238.568 429.835 238.408C430.683 238.231 430.505 239.293 430.645 239.883Z" fill="#0A503D"/>
<path d="M398.756 199.551C398.447 200.534 398.929 201.615 398.709 202.617C398.47 203.722 397.431 204.49 397.136 205.6C396.668 207.29 398.101 208.83 399.149 210.235C403.035 215.451 402.525 222.67 401.195 229.033C400.125 234.138 398.646 239.148 396.771 244.015C396.186 245.528 395.539 247.063 394.388 248.196C396.541 247.578 398.831 246.956 400.989 247.555C403.724 248.314 406.083 250.968 408.855 250.364C410.522 249.994 411.692 248.515 413.191 247.695C416 246.183 419.385 247.134 422.517 247.621C423.192 247.78 423.898 247.744 424.554 247.518C425.055 247.248 425.48 246.857 425.79 246.38C427.188 244.586 428.025 242.42 428.196 240.153C428.27 239.024 428.104 237.892 427.708 236.832C427.311 235.772 426.694 234.809 425.898 234.005C425.233 233.378 424.437 232.872 423.926 232.133C423.43 231.269 423.164 230.292 423.154 229.295C422.784 224.145 424.039 218.887 422.747 213.906C422.278 212.131 421.515 210.432 421.309 208.615C421.052 206.353 421.665 203.933 420.766 201.863C420.059 200.22 418.5 199.054 416.819 198.455C415.138 197.856 413.34 197.687 411.557 197.519C408.991 197.303 399.828 196.203 398.756 199.551Z" fill="#33313F"/>
<g opacity="0.1">
<path opacity="0.1" d="M401.195 229.034C400.131 234.117 398.659 239.107 396.794 243.955C397.117 243.314 397.389 242.639 397.647 241.97C399.524 237.104 401.003 232.093 402.071 226.988C403.405 220.62 403.916 213.41 400.03 208.189C399.093 206.944 397.89 205.596 397.932 204.135C397.586 204.577 397.317 205.074 397.136 205.605C396.668 207.295 398.101 208.835 399.149 210.24C403.036 215.451 402.525 222.671 401.195 229.034Z" fill="black"/>
<path opacity="0.1" d="M398.765 202.145C399.141 201.678 399.421 201.142 399.589 200.567C399.662 199.871 399.643 199.169 399.533 198.479C399.172 198.75 398.902 199.123 398.756 199.551C398.48 200.379 398.798 201.278 398.765 202.145Z" fill="black"/>
<path opacity="0.1" d="M426.67 244.321C426.36 244.797 425.935 245.187 425.434 245.454C424.779 245.685 424.072 245.721 423.397 245.557C420.265 245.089 416.843 244.124 414.071 245.637C412.568 246.451 411.402 247.931 409.731 248.305C406.964 248.923 404.604 246.269 401.87 245.496C399.931 244.958 397.89 245.403 395.937 245.964C395.549 246.792 395.026 247.548 394.388 248.202C396.541 247.584 398.831 246.962 400.989 247.561C403.724 248.32 406.083 250.974 408.855 250.37C410.522 250 411.692 248.521 413.191 247.702C416 246.189 419.385 247.14 422.517 247.627C423.192 247.786 423.898 247.75 424.554 247.524C425.055 247.254 425.48 246.863 425.79 246.386C426.638 245.267 427.293 244.013 427.728 242.678C427.415 243.25 427.062 243.799 426.67 244.321Z" fill="black"/>
</g>
</g>
<defs>
<linearGradient id="paint0_linear_981_2911" x1="359.858" y1="286.734" x2="431.492" y2="286.734" gradientUnits="userSpaceOnUse">
<stop stop-color="#808080" stop-opacity="0.25"/>
<stop offset="0.54" stop-color="#808080" stop-opacity="0.12"/>
<stop offset="1" stop-color="#808080" stop-opacity="0.1"/>
</linearGradient>
<clipPath id="clip0_981_2911">
<rect width="546" height="376.943" fill="white"/>
</clipPath>
</defs>
</svg>
