<svg width="11" height="10" viewBox="0 0 11 10" fill="none" xmlns="http://www.w3.org/2000/svg">
<path d="M7.67158 8.32643H0.949813C0.802283 8.32643 0.682671 8.235 0.682671 8.12222V7.16924C0.682671 7.05646 0.802283 6.96503 0.949813 6.96503H7.67158V6.18122C7.67158 5.81735 8.24708 5.63513 8.58368 5.89241L10.4995 7.35693C10.7082 7.51643 10.7082 7.77503 10.4995 7.93452L8.58368 9.39903C8.2471 9.65632 7.67158 9.47409 7.67158 9.11023V8.32643Z" fill="black" fill-opacity="0.3"/>
<path d="M3.66704 2.62648H10.3888C10.5363 2.62648 10.656 2.53504 10.656 2.42227V1.46929C10.656 1.35651 10.5363 1.26508 10.3888 1.26508H3.66704V0.481266C3.66704 0.117398 3.09155 -0.0648261 2.75495 0.192462L0.839113 1.65697C0.630452 1.81648 0.630452 2.07508 0.839113 2.23457L2.75495 3.69908C3.09152 3.95637 3.66704 3.77414 3.66704 3.41027V2.62648Z" fill="black" fill-opacity="0.3"/>
</svg>
