<svg width="468" height="358" viewBox="0 0 468 358" fill="none" xmlns="http://www.w3.org/2000/svg">
<path d="M427.734 58.0547H297.332C302.431 52.2432 311.03 50.1677 318.621 51.8281C322.416 48.6852 326.27 45.2457 330.066 42.0434C334.513 38.3075 339.02 34.5715 344.417 32.4367C349.813 30.3019 356.277 30.0646 361.08 33.2076C365.883 36.3506 368.196 43.526 364.935 48.2701C367.781 45.6015 379.108 38.0703 386.461 46.1945C388.536 48.5073 388.299 52.3025 390.434 54.6153C393.636 58.0547 403.599 55.742 408.284 55.0897C422.219 53.192 419.669 58.0547 427.734 58.0547Z" fill="#BFF0E3"/>
<path d="M114.21 98.2015C99.2658 97.905 89.4218 85.0367 78.6291 76.5566C75.4861 74.0067 72.0466 71.9312 68.3107 70.3893C67.2433 69.9742 67.7177 68.2545 68.7851 68.6696C82.1871 74.0067 90.1928 87.0529 102.942 93.4574C106.441 95.2957 110.296 96.3039 114.21 96.4225C115.336 96.4225 115.336 98.2015 114.21 98.2015Z" fill="#052D22"/>
<path d="M96.0039 234.654L90.9633 247.938L63.6849 229.91L71.6312 253.749L53.9002 246.93L60.4233 264.245L41.1505 269.642" fill="white"/>
<path d="M96.0039 234.654L90.9633 247.938L63.6849 229.91L71.6312 253.749L53.9002 246.93L60.4233 264.245L41.1505 269.642" stroke="#F27932" stroke-width="1.18602" stroke-miterlimit="10"/>
<path d="M235.48 56.4551H122.808C117.708 56.4551 113.557 60.6061 113.557 65.706V292.71C113.557 297.81 117.708 301.961 122.808 301.961H235.48C240.579 301.961 244.73 297.81 244.73 292.71V65.6467C244.73 60.5468 240.579 56.4551 235.48 56.4551Z" fill="white" stroke="#0A503D" stroke-width="0.59301" stroke-miterlimit="10"/>
<path d="M129.984 86.1641H226.822V176.242H129.984V86.1641Z" stroke="#BFF0E3" stroke-width="0.59301" stroke-miterlimit="10"/>
<path d="M212.768 162.484H183.769" stroke="#BFF0E3" stroke-width="0.59301" stroke-miterlimit="10"/>
<path d="M212.768 152.521H162.362" stroke="#BFF0E3" stroke-width="0.59301" stroke-miterlimit="10"/>
<path d="M150.682 97.3125H135.56" stroke="#BFF0E3" stroke-width="0.59301" stroke-miterlimit="10"/>
<path opacity="0.26" d="M196.876 123.226C184.778 119.016 171.495 120.083 160.228 126.191C158.093 115.221 165.268 104.665 176.239 102.53C187.21 100.395 197.765 107.571 199.9 118.541C200.137 119.787 200.256 121.091 200.256 122.396C200.256 123.108 200.197 123.819 200.137 124.531C199.07 123.997 198.002 123.582 196.876 123.226Z" fill="#BFF0E3"/>
<path d="M143.92 191.305H129.984V281.383H226.822V191.305H217.69" stroke="#BFF0E3" stroke-width="0.59301" stroke-miterlimit="10"/>
<path d="M212.768 267.686H183.769" stroke="#BFF0E3" stroke-width="0.59301" stroke-miterlimit="10"/>
<path d="M212.768 257.662H162.362" stroke="#BFF0E3" stroke-width="0.59301" stroke-miterlimit="10"/>
<path d="M150.682 202.453H135.56" stroke="#BFF0E3" stroke-width="0.59301" stroke-miterlimit="10"/>
<path opacity="0.26" d="M169.775 210.104C176.832 212.06 184.185 212.298 191.361 210.756C200.612 216.982 203.043 229.554 196.816 238.805C190.59 248.056 178.018 250.487 168.767 244.261C159.516 238.034 157.085 225.462 163.311 216.212C164.972 213.721 167.166 211.645 169.775 210.104Z" fill="#BFF0E3"/>
<path d="M140.481 187.865L222.85 186.145L228.246 167.999L224.036 148.904H140.481L136.33 168.355L140.481 187.865Z" fill="white" stroke="#BFF0E3" stroke-width="0.59301" stroke-miterlimit="10"/>
<path d="M211.938 157.443V179.266L202.568 172.862L193.258 179.266V157.443H211.938Z" fill="#BFF0E3"/>
<path d="M160.168 158.57L158.805 162.187C158.449 163.077 157.619 163.67 156.729 163.729L152.874 163.907C151.57 163.966 150.562 165.093 150.68 166.398C150.74 167.05 151.036 167.643 151.511 168.058L154.535 170.489C155.246 171.082 155.602 172.031 155.365 172.98L154.357 176.716C154.06 177.961 154.772 179.266 156.077 179.622C156.729 179.8 157.381 179.681 157.915 179.325L161.117 177.19C161.888 176.657 162.896 176.657 163.727 177.19L166.929 179.325C168.055 180.037 169.479 179.681 170.19 178.554C170.546 178.021 170.665 177.309 170.487 176.716L169.479 172.98C169.242 172.091 169.538 171.082 170.309 170.489L173.333 168.058C174.341 167.228 174.46 165.745 173.63 164.737C173.215 164.204 172.622 163.907 171.969 163.907L168.115 163.729C167.166 163.67 166.336 163.077 166.039 162.187L164.675 158.57C164.201 157.384 162.778 156.791 161.592 157.265C160.88 157.503 160.406 157.977 160.168 158.57Z" stroke="#F7A929" stroke-width="0.59301" stroke-miterlimit="10"/>
<path d="M206.661 204.826L197.232 209.452L218.581 252.979C219.885 255.588 223.028 256.655 225.637 255.41C228.247 254.105 229.314 250.962 228.069 248.353L206.661 204.826Z" fill="#0A503D"/>
<path d="M209.152 209.927L200.85 216.924L197.944 210.994L207.67 206.902L209.152 209.927Z" fill="#052D22"/>
<path d="M146.174 137.935C130.578 157.682 133.898 186.325 153.586 201.921C173.274 217.517 201.976 214.196 217.572 194.508C233.168 174.761 229.847 146.119 210.16 130.522C206.186 127.379 201.679 124.889 196.876 123.228C178.552 116.765 158.212 122.695 146.174 137.935Z" stroke="#0A503D" stroke-width="4.15107" stroke-miterlimit="10"/>
<path d="M317.198 152.523C320.874 147.779 322.298 141.611 322.475 135.622C322.713 129.099 320.993 122.576 321.467 116.231C321.882 110.241 320.578 104.252 317.613 99.0334C311.505 88.2406 298.221 81.421 285.887 84.5639C281.143 85.7499 277.051 88.715 272.485 90.6126C264.064 94.1707 252.975 92.6289 244.732 88.6557C244.673 88.8336 244.791 90.5533 244.732 90.7312V146.474C248.29 151.871 252.975 157.267 258.727 160.113C264.479 162.96 271.299 163.849 277.525 162.13C285.531 159.876 292.291 153.472 300.653 153.057C303.855 152.879 306.998 153.65 310.2 153.768C313.402 153.887 315.241 155.073 317.198 152.523Z" fill="#052D22"/>
<path d="M319.926 161.772L308.006 130.283L312.395 116.17C314.055 110.833 313.403 105.08 310.556 100.277L308.243 96.4225C304.33 89.7215 296.798 85.9262 289.089 86.8157C282.981 87.5273 277.466 91.0261 274.323 96.3039C272.366 99.5654 271.24 103.301 271.062 107.097L269.579 136.806C269.401 140.127 271.477 143.211 274.62 144.338C276.102 144.871 277.703 144.931 279.245 144.456L289.089 141.61L289.326 168.177L282.744 195.337L307.057 199.013L319.926 161.772Z" fill="#BFF0E3"/>
<path d="M284.819 166.872C284.819 166.872 286.954 166.397 289.444 165.982L292.41 186.145C292.825 188.754 294.782 190.77 297.391 191.304C299.941 191.778 302.491 190.592 303.855 188.398L319.866 161.475C325.499 160.882 330.303 160.645 332.675 161.12C341.392 162.839 356.87 171.201 369.264 216.685L369.441 217.811C370.153 221.784 368.671 225.817 365.587 228.426L359.716 233.348L319.925 240.701L269.579 229.494L261.514 216.744C261.514 216.685 270.943 169.362 284.819 166.872Z" fill="#F7A929"/>
<path d="M318.441 112.91C310.376 116.646 299.584 115.934 291.282 112.85C282.979 109.767 276.516 100.338 275.567 91.502C279.066 86.58 285.529 84.6231 291.519 85.2161C297.508 85.8091 303.142 88.952 307.352 93.281C311.562 97.61 316.01 107.395 318.441 112.91Z" fill="#052D22"/>
<path d="M315.536 193.734L321.348 245.445" stroke="#F27932" stroke-width="0.59301" stroke-miterlimit="10"/>
<path d="M196.045 226.649L214.428 220.659L209.091 209.926L239.394 223.624L323.008 239.636L321.348 227.953C326.922 227.953 332.318 224.929 337.062 221.786C342.459 218.228 348.033 214.195 354.497 213.78C356.039 213.662 357.581 213.78 359.122 214.136C362.503 226.471 369.204 254.342 364.637 264.364C358.648 277.351 353.785 290.041 287.546 264.364L236.369 249.598C236.369 249.598 223.442 248.294 213.005 247.938C209.98 247.285 207.015 246.337 204.169 245.21C202.331 244.38 201.204 242.601 201.204 240.584V238.687C201.204 238.687 198.891 237.382 198.239 236.018C197.587 234.654 198.239 231.63 198.239 231.63C198.239 231.63 194.503 231.749 193.613 229.673C192.724 227.597 196.045 226.649 196.045 226.649Z" fill="#BFF0E3"/>
<path d="M368.908 220.006C365.409 215.796 360.072 213.483 354.557 213.779C348.094 214.194 342.519 218.227 337.123 221.785C331.726 225.343 325.5 228.782 319.095 227.774" stroke="#F27932" stroke-width="0.59301" stroke-miterlimit="10"/>
<path d="M277.523 200.318C270.407 207.494 269.221 219.769 274.796 228.19" stroke="#F27932" stroke-width="0.59301" stroke-miterlimit="10"/>
<path d="M303.855 116.051C304.863 112.256 308.777 110.062 312.572 111.129C316.367 112.137 318.561 116.051 317.494 119.846C316.723 122.693 314.232 124.828 311.445 125.658C308.658 126.488 305.574 126.132 302.787 125.243" fill="#BFF0E3"/>
<path d="M289.621 116.884C286.715 113.682 281.734 113.444 278.532 116.409C277.464 117.418 276.693 118.663 276.278 120.027C280.963 121.569 286.122 120.383 289.621 116.884Z" fill="white"/>
<path d="M283.929 118.246C284.047 116.882 283.691 115.518 282.98 114.332C279.778 114.629 277.109 116.882 276.22 119.966C278.532 120.737 280.964 120.855 283.336 120.321C283.691 119.669 283.869 119.017 283.929 118.246Z" fill="#052D22"/>
<path d="M287.547 110.121C284.641 107.512 280.194 107.808 277.584 110.714L277.525 110.773C281.024 110.655 284.107 110.299 287.547 110.121Z" fill="#052D22" stroke="#052D22" stroke-width="0.148252" stroke-linejoin="round"/>
<path d="M289.09 117.061C287.785 115.4 285.828 114.392 283.753 114.333C281.737 114.273 279.78 115.163 278.416 116.705C277.645 117.535 277.111 118.602 276.874 119.729C276.815 120.085 276.222 119.966 276.281 119.551C276.815 117.416 278.238 115.637 280.195 114.57C283.397 112.969 287.311 113.799 289.564 116.645C289.742 116.942 289.327 117.416 289.09 117.061Z" fill="#052D22"/>
<path d="M271.715 118.543C270.529 119.314 269.402 120.203 268.335 121.152C267.92 121.449 267.564 121.923 267.327 122.398C267.03 123.346 267.742 124.354 268.572 124.888C269.402 125.422 270.41 125.778 271.122 126.43" fill="#BFF0E3"/>
<path d="M282.922 125.896C280.787 128.269 277.585 129.336 274.442 128.624" stroke="#052D22" stroke-width="0.59301" stroke-miterlimit="10"/>
<path d="M198.241 231.628L219.471 230.738" stroke="#0A503D" stroke-width="0.59301" stroke-miterlimit="10"/>
<path d="M201.145 238.627L220.951 240.643" stroke="#0A503D" stroke-width="0.59301" stroke-miterlimit="10"/>
<path d="M329.475 246.81L323.07 239.635" stroke="#0A503D" stroke-width="0.59301" stroke-miterlimit="10"/>
<path opacity="0.21" d="M290.511 131.233C287.563 131.233 285.173 128.843 285.173 125.896C285.173 122.948 287.563 120.559 290.511 120.559C293.458 120.559 295.848 122.948 295.848 125.896C295.848 128.843 293.458 131.233 290.511 131.233Z" fill="#ED4F2E"/>
<path opacity="0.19" d="M289.207 158.452C292.172 158.57 294.959 156.02 296.205 153.292C297.45 150.565 297.747 147.54 298.399 144.634C299.051 141.729 299.703 137.756 302.135 135.977L288.851 141.492C288.911 147.066 289.207 152.996 289.207 158.452Z" fill="#0A503D"/>
<path d="M83.7295 117.119C75.0122 112.968 66.6508 108.105 58.7045 102.59C60.2463 92.6872 62.2625 82.8433 64.6939 73.0586C77.3843 76.9132 87.584 88.121 99.9186 94.0511C104.248 96.1267 108.873 97.6092 113.617 98.4394V162.722C93.3956 165.687 72.7588 162.307 54.6127 152.937C54.7313 139.238 55.6801 125.54 57.3998 111.901L83.7295 117.119Z" fill="#052D22"/>
<path d="M129.51 270.293L138.82 301.485L129.747 301.426" fill="#BFF0E3"/>
<path d="M72.9366 326.866H111.423L129.51 308.364V270.293H72.9366V326.866Z" fill="white" stroke="#F27932" stroke-width="0.59301" stroke-miterlimit="10"/>
<path d="M84.7388 292.651C85.154 289.093 88.8306 286.72 92.0329 287.313C94.9979 287.847 97.6664 290.575 99.0304 293.599C100.513 290.634 103.3 288.025 106.265 287.61C109.527 287.195 113.085 289.745 113.322 293.303C113.5 296.031 111.958 298.521 110.179 300.419C107.036 303.799 98.6746 308.84 98.6746 308.84C95.413 306.764 90.5504 303.384 87.526 299.885C85.8656 297.869 84.383 295.319 84.7388 292.651Z" fill="#ED4F2E"/>
<path d="M217.572 56.4551L213.362 68.1374C212.294 71.1024 209.507 73.0594 206.364 73.0594H153.705C150.503 73.0594 147.656 71.0431 146.648 68.0188L142.734 56.4551H217.572Z" fill="#0A503D"/>
<path d="M312.809 90.9682C310.793 86.9358 313.283 81.5987 317.435 79.8197C321.586 78.0406 326.567 79.2859 330.006 82.1917C333.446 85.0974 335.403 89.4264 336.47 93.8147C337.478 98.0251 337.063 103.481 333.149 105.319C329.354 107.098 324.906 104.192 322.416 100.812C319.925 97.432 318.087 93.281 314.469 91.1461" fill="#052D22"/>
</svg>
