<svg width="227" height="192" viewBox="0 0 227 192" fill="none" xmlns="http://www.w3.org/2000/svg">
<g clip-path="url(#clip0_1425_3174)">
<path d="M207.363 154.361C205.9 150.14 202.99 146.572 199.148 144.291C195.307 142.01 190.782 141.163 186.375 141.898C181.969 142.634 177.965 144.906 175.073 148.312C172.181 151.717 170.588 156.036 170.576 160.504V181.576L182.648 181.933H211.291C214.049 181.933 216.745 181.115 219.037 179.581C221.329 178.047 223.115 175.867 224.167 173.318C225.219 170.769 225.49 167.964 224.947 165.261C224.404 162.557 223.07 160.075 221.115 158.13C219.16 156.185 216.671 154.864 213.965 154.334C211.258 153.805 208.455 154.091 205.911 155.156C203.367 156.222 201.197 158.018 199.675 160.318C198.153 162.618 197.348 165.318 197.362 168.076" fill="#67F4AA"/>
<path d="M195.469 168.754C195.194 168.751 194.931 168.638 194.739 168.441C194.546 168.245 194.439 167.98 194.441 167.704C194.518 164.424 195.612 161.249 197.573 158.618C199.533 155.987 202.263 154.03 205.384 153.018C205.656 152.938 205.948 152.964 206.202 153.09C206.456 153.215 206.654 153.432 206.755 153.697C206.803 153.831 206.824 153.974 206.815 154.117C206.807 154.259 206.77 154.399 206.707 154.527C206.644 154.654 206.555 154.768 206.447 154.861C206.339 154.955 206.213 155.025 206.077 155.068C203.32 155.92 200.903 157.623 199.174 159.933C197.444 162.243 196.49 165.041 196.448 167.926C196.446 168.047 196.419 168.167 196.367 168.277C196.315 168.387 196.24 168.484 196.147 168.563C196.054 168.641 195.946 168.699 195.829 168.732C195.712 168.765 195.589 168.773 195.469 168.754Z" fill="#29B260"/>
<path d="M225.006 168.291C225.01 170.121 224.652 171.934 223.953 173.625C223.254 175.317 222.229 176.854 220.934 178.148C219.64 179.442 218.103 180.468 216.412 181.167C214.72 181.866 212.907 182.223 211.077 182.219H209.005C210.777 181.383 212.365 180.206 213.68 178.754C214.995 177.302 216.01 175.605 216.667 173.76C217.324 171.915 217.61 169.958 217.509 168.002C217.408 166.046 216.921 164.129 216.077 162.362C215.262 160.617 214.111 159.049 212.689 157.75C211.267 156.451 209.602 155.445 207.791 154.79C209.569 154.36 211.414 154.284 213.221 154.569C215.028 154.853 216.761 155.491 218.32 156.447C219.88 157.403 221.236 158.657 222.309 160.138C223.383 161.618 224.154 163.297 224.577 165.076C224.869 166.122 225.013 167.204 225.006 168.291Z" fill="#29B260"/>
<path d="M216.291 165.933C217.475 165.933 218.434 164.974 218.434 163.79C218.434 162.607 217.475 161.647 216.291 161.647C215.108 161.647 214.148 162.607 214.148 163.79C214.148 164.974 215.108 165.933 216.291 165.933Z" fill="#29B260"/>
<path d="M214.72 168.719C215.272 168.719 215.72 168.271 215.72 167.719C215.72 167.166 215.272 166.719 214.72 166.719C214.168 166.719 213.72 167.166 213.72 167.719C213.72 168.271 214.168 168.719 214.72 168.719Z" fill="#29B260"/>
<path d="M213.22 165.933C213.457 165.933 213.648 165.645 213.648 165.29C213.648 164.935 213.457 164.647 213.22 164.647C212.983 164.647 212.791 164.935 212.791 165.29C212.791 165.645 212.983 165.933 213.22 165.933Z" fill="#29B260"/>
<path d="M206.791 154.862C206.681 154.86 206.574 154.826 206.485 154.762C206.395 154.698 206.328 154.608 206.291 154.504C205.238 151.531 203.443 148.876 201.077 146.79C200.973 146.685 200.915 146.544 200.915 146.397C200.915 146.25 200.973 146.109 201.077 146.004C201.181 145.9 201.322 145.842 201.47 145.842C201.617 145.842 201.758 145.9 201.862 146.004C204.371 148.238 206.286 151.061 207.434 154.219C207.474 154.361 207.46 154.513 207.394 154.645C207.328 154.777 207.215 154.88 207.077 154.933L206.791 154.862Z" fill="#000201"/>
<path d="M211.291 182.754H182.648L170.554 182.397C170.34 182.391 170.137 182.302 169.987 182.149C169.838 181.995 169.754 181.79 169.754 181.575V160.503C169.768 155.885 171.401 151.418 174.369 147.879C177.337 144.341 181.452 141.956 185.998 141.138C190.543 140.321 195.231 141.123 199.246 143.406C203.261 145.689 206.348 149.308 207.97 153.632C209.059 153.379 210.173 153.252 211.291 153.253C215.203 153.253 218.955 154.807 221.721 157.574C224.488 160.34 226.042 164.092 226.042 168.004C226.042 171.916 224.488 175.668 221.721 178.434C218.955 181.2 215.203 182.754 211.291 182.754ZM171.433 180.775L182.705 181.111H211.291C213.887 181.111 216.424 180.341 218.581 178.897C220.738 177.454 222.418 175.402 223.408 173.003C224.398 170.604 224.653 167.965 224.141 165.42C223.63 162.876 222.374 160.54 220.534 158.71C218.694 156.88 216.352 155.637 213.804 155.139C211.257 154.642 208.619 154.911 206.225 155.915C203.832 156.918 201.79 158.609 200.358 160.774C198.926 162.938 198.17 165.48 198.184 168.075C198.184 168.293 198.097 168.502 197.943 168.656C197.789 168.81 197.58 168.897 197.362 168.897C197.144 168.897 196.935 168.81 196.781 168.656C196.627 168.502 196.541 168.293 196.541 168.075C196.54 165.015 197.486 162.029 199.248 159.526C201.01 157.024 203.502 155.127 206.384 154.096C204.673 149.717 201.335 146.169 197.068 144.193C192.802 142.218 187.937 141.968 183.49 143.496C179.968 144.735 176.916 147.036 174.757 150.082C172.597 153.128 171.436 156.769 171.433 160.503V180.775Z" fill="#000201"/>
<path d="M188.005 183.862L186.648 182.29C187.385 181.628 187.983 180.826 188.408 179.93C188.833 179.035 189.076 178.064 189.122 177.073C189.169 176.083 189.018 175.094 188.679 174.162C188.34 173.231 187.82 172.376 187.148 171.647C185.869 170.245 184.111 169.372 182.221 169.2C180.33 169.028 178.444 169.57 176.933 170.719L175.576 169.147C177.537 167.509 180.068 166.716 182.613 166.944C185.158 167.172 187.509 168.401 189.148 170.362C189.965 171.321 190.584 172.432 190.969 173.631C191.354 174.831 191.497 176.095 191.391 177.35C191.284 178.605 190.931 179.827 190.349 180.945C189.768 182.062 188.971 183.054 188.005 183.862Z" fill="#29B260"/>
<path d="M200.077 145.361H199.791C199.348 145.023 198.869 144.736 198.362 144.503C198.24 144.435 198.146 144.326 198.094 144.197C198.042 144.067 198.036 143.923 198.077 143.789C198.145 143.649 198.265 143.54 198.411 143.487C198.558 143.434 198.72 143.44 198.862 143.503C199.401 143.786 199.926 144.096 200.434 144.432C200.5 144.47 200.557 144.522 200.601 144.584C200.645 144.646 200.675 144.717 200.688 144.792C200.702 144.867 200.699 144.943 200.68 145.017C200.66 145.091 200.625 145.159 200.577 145.218C200.421 145.298 200.251 145.347 200.077 145.361Z" fill="#000201"/>
<path d="M196.648 143.575H196.434C193.663 142.496 190.679 142.08 187.719 142.361C187.574 142.353 187.434 142.301 187.319 142.211C187.204 142.122 187.12 142 187.076 141.861C187.051 141.719 187.081 141.573 187.161 141.453C187.241 141.333 187.364 141.249 187.505 141.218H189.576C192.046 141.198 194.497 141.659 196.791 142.575C196.924 142.634 197.032 142.738 197.097 142.868C197.162 142.999 197.18 143.147 197.148 143.289C197.15 143.346 197.14 143.403 197.119 143.456C197.099 143.509 197.067 143.557 197.027 143.597C196.987 143.637 196.939 143.669 196.886 143.689C196.833 143.71 196.776 143.72 196.719 143.718L196.648 143.575Z" fill="#000201"/>
<path d="M186.505 183.862C186.421 183.864 186.339 183.846 186.264 183.808C186.189 183.771 186.125 183.716 186.076 183.648C185.973 183.543 185.914 183.402 185.914 183.255C185.914 183.107 185.973 182.966 186.076 182.862C187.561 181.547 188.473 179.704 188.618 177.726C188.763 175.748 188.131 173.792 186.855 172.273C185.579 170.755 183.76 169.795 181.787 169.598C179.814 169.401 177.841 169.983 176.29 171.219C176.184 171.31 176.047 171.358 175.906 171.353C175.766 171.348 175.632 171.29 175.533 171.19C175.434 171.091 175.376 170.958 175.37 170.817C175.365 170.677 175.413 170.539 175.505 170.433C177.299 169.071 179.548 168.453 181.786 168.707C184.024 168.96 186.078 170.066 187.521 171.795C188.965 173.524 189.687 175.742 189.537 177.989C189.388 180.236 188.379 182.339 186.719 183.862H186.505Z" fill="#000201"/>
<path d="M184.219 146.504C184.029 146.504 183.848 146.429 183.714 146.295C183.58 146.161 183.505 145.979 183.505 145.79C183.507 145.653 183.549 145.519 183.625 145.405C183.7 145.291 183.808 145.202 183.933 145.147C186.33 144.167 188.926 143.775 191.505 144.004C191.682 144.022 191.846 144.105 191.964 144.237C192.083 144.369 192.149 144.541 192.148 144.718C192.148 144.889 192.08 145.052 191.959 145.173C191.839 145.293 191.675 145.361 191.505 145.361H191.433C189.054 145.155 186.66 145.497 184.433 146.361L184.219 146.504Z" fill="white"/>
<path d="M180.005 149.646C179.853 149.632 179.706 149.583 179.576 149.503C179.445 149.37 179.372 149.19 179.372 149.003C179.372 148.817 179.445 148.637 179.576 148.503C180.087 147.921 180.636 147.372 181.219 146.861C181.352 146.748 181.524 146.693 181.698 146.706C181.872 146.72 182.033 146.801 182.148 146.932C182.215 146.989 182.27 147.06 182.307 147.14C182.344 147.22 182.363 147.308 182.363 147.396C182.363 147.485 182.344 147.572 182.307 147.652C182.27 147.733 182.215 147.804 182.148 147.861C181.636 148.3 181.159 148.778 180.719 149.289C180.66 149.422 180.556 149.531 180.426 149.596C180.295 149.661 180.147 149.679 180.005 149.646Z" fill="white"/>
<path d="M62.3588 154.361C63.8218 150.14 66.7318 146.572 70.5732 144.291C74.4147 142.01 78.9396 141.163 83.3462 141.898C87.7529 142.634 91.7569 144.906 94.6487 148.312C97.5405 151.717 99.1336 156.036 99.1455 160.504V181.576L87.0738 181.933H58.4302C55.6753 181.933 52.9823 181.116 50.6917 179.586C48.4011 178.055 46.6158 175.88 45.5615 173.335C44.5073 170.79 44.2314 167.989 44.7689 165.287C45.3063 162.585 46.6329 160.103 48.5809 158.155C50.5289 156.207 53.0108 154.881 55.7128 154.343C58.4147 153.806 61.2154 154.081 63.7605 155.136C66.3057 156.19 68.4811 157.975 70.0117 160.266C71.5422 162.556 72.3591 165.249 72.3591 168.004" fill="#67F4AA"/>
<path d="M74.5018 168.361C74.6379 168.357 74.7717 168.325 74.8956 168.269C75.0195 168.213 75.1311 168.132 75.2239 168.033C75.3168 167.933 75.3892 167.816 75.4369 167.689C75.4845 167.561 75.5066 167.426 75.5019 167.29C75.3496 164.011 74.1815 160.861 72.1594 158.276C70.1373 155.691 67.3613 153.798 64.2159 152.861C64.0777 152.811 63.9308 152.789 63.7841 152.797C63.6373 152.805 63.4937 152.843 63.362 152.908C63.2303 152.974 63.1132 153.065 63.0179 153.177C62.9225 153.289 62.8509 153.419 62.8073 153.559C62.7638 153.7 62.7492 153.847 62.7644 153.994C62.7796 154.14 62.8244 154.281 62.896 154.41C62.9676 154.538 63.0645 154.651 63.1809 154.741C63.2972 154.83 63.4306 154.896 63.573 154.932C66.3517 155.72 68.8095 157.368 70.5933 159.639C72.3772 161.911 73.3954 164.689 73.5018 167.576C73.5141 167.694 73.55 167.808 73.6073 167.912C73.6647 168.015 73.7423 168.107 73.8355 168.18C73.9288 168.253 74.0358 168.307 74.1503 168.338C74.2648 168.369 74.3843 168.377 74.5018 168.361Z" fill="#29B260"/>
<path d="M82.2879 183.861L83.5736 182.29C82.7822 181.662 82.1247 180.882 81.6399 179.996C81.1552 179.11 80.853 178.135 80.7512 177.13C80.6494 176.125 80.7501 175.11 81.0474 174.145C81.3447 173.179 81.8325 172.283 82.482 171.51C83.1314 170.736 83.9294 170.1 84.8287 169.64C85.728 169.18 86.7104 168.905 87.7179 168.832C88.7253 168.758 89.7373 168.887 90.694 169.211C91.6508 169.535 92.5329 170.047 93.2882 170.718L94.5739 169.146C93.6109 168.316 92.4922 167.685 91.283 167.291C90.0738 166.897 88.7982 166.747 87.5307 166.851C86.2631 166.955 85.0289 167.31 83.8999 167.895C82.7708 168.481 81.7696 169.285 80.9545 170.261C80.1394 171.238 79.5267 172.366 79.1521 173.582C78.7775 174.797 78.6485 176.075 78.7726 177.341C78.8966 178.606 79.2714 179.835 79.8749 180.954C80.4784 182.074 81.2987 183.062 82.2879 183.861Z" fill="#29B260"/>
<path d="M44.7154 168.291C44.7116 170.121 45.0693 171.934 45.768 173.625C46.4666 175.317 47.4925 176.854 48.7867 178.148C50.0808 179.442 51.6179 180.468 53.3095 181.167C55.0011 181.866 56.8141 182.223 58.6443 182.219H60.7158C58.9446 181.383 57.356 180.206 56.0412 178.754C54.7264 177.302 53.7113 175.605 53.0542 173.76C52.3972 171.915 52.111 169.958 52.2123 168.002C52.3135 166.046 52.8001 164.129 53.6442 162.362C54.4592 160.617 55.6106 159.049 57.0325 157.75C58.4544 156.451 60.1187 155.445 61.9301 154.79C60.1524 154.36 58.3071 154.284 56.5002 154.569C54.6933 154.853 52.9604 155.491 51.4008 156.447C49.8411 157.403 48.4856 158.657 47.4119 160.138C46.3382 161.618 45.5675 163.297 45.144 165.076C44.852 166.122 44.7077 167.204 44.7154 168.291Z" fill="#29B260"/>
<path d="M53.3585 165.933C54.542 165.933 55.5014 164.974 55.5014 163.79C55.5014 162.607 54.542 161.647 53.3585 161.647C52.175 161.647 51.2156 162.607 51.2156 163.79C51.2156 164.974 52.175 165.933 53.3585 165.933Z" fill="#29B260"/>
<path d="M55.0015 168.719C55.5538 168.719 56.0015 168.271 56.0015 167.719C56.0015 167.166 55.5538 166.719 55.0015 166.719C54.4492 166.719 54.0015 167.166 54.0015 167.719C54.0015 168.271 54.4492 168.719 55.0015 168.719Z" fill="#29B260"/>
<path d="M56.5013 165.933C56.738 165.933 56.9299 165.645 56.9299 165.29C56.9299 164.935 56.738 164.647 56.5013 164.647C56.2646 164.647 56.0728 164.935 56.0728 165.29C56.0728 165.645 56.2646 165.933 56.5013 165.933Z" fill="#29B260"/>
<path d="M62.9302 154.862C63.0401 154.86 63.1471 154.826 63.2365 154.762C63.3259 154.698 63.3936 154.608 63.4302 154.504C64.4834 151.531 66.2782 148.876 68.6446 146.79C68.7484 146.685 68.8067 146.544 68.8067 146.397C68.8067 146.25 68.7484 146.109 68.6446 146.004C68.5402 145.9 68.399 145.842 68.2518 145.842C68.1045 145.842 67.9633 145.9 67.8589 146.004C65.3051 148.199 63.382 151.034 62.2873 154.219C62.2513 154.288 62.2321 154.364 62.2315 154.442C62.2308 154.52 62.2486 154.597 62.2835 154.667C62.3183 154.737 62.3692 154.797 62.432 154.843C62.4947 154.89 62.5676 154.92 62.6445 154.933L62.9302 154.862Z" fill="#000201"/>
<path d="M70.2875 145.361H70.5733C71.0165 145.023 71.4956 144.736 72.0019 144.503C72.1322 144.43 72.2301 144.31 72.2759 144.168C72.3216 144.026 72.3119 143.871 72.2487 143.736C72.1855 143.6 72.0734 143.494 71.9349 143.437C71.7964 143.381 71.6417 143.379 71.5019 143.432C70.9627 143.715 70.4382 144.025 69.9304 144.361C69.8623 144.396 69.8032 144.447 69.7577 144.509C69.7122 144.571 69.6814 144.643 69.6676 144.719C69.6538 144.794 69.6575 144.872 69.6783 144.946C69.699 145.02 69.7364 145.089 69.7875 145.146C69.9297 145.265 70.1035 145.339 70.2875 145.361Z" fill="#000201"/>
<path d="M73.7877 143.575H74.002C76.7722 142.496 79.7567 142.08 82.7165 142.361C82.7952 142.378 82.8768 142.379 82.9559 142.364C83.0351 142.348 83.11 142.316 83.176 142.27C83.242 142.223 83.2976 142.163 83.3392 142.094C83.3807 142.025 83.4074 141.948 83.4174 141.868C83.4274 141.788 83.4206 141.707 83.3973 141.629C83.374 141.552 83.3349 141.481 83.2823 141.419C83.2298 141.358 83.165 141.309 83.0921 141.274C83.0193 141.239 82.94 141.22 82.8594 141.218H80.7879C78.3178 141.198 75.8674 141.659 73.5734 142.575C73.4403 142.634 73.3319 142.738 73.2668 142.868C73.2017 142.999 73.1838 143.147 73.2162 143.289C73.2529 143.393 73.3205 143.483 73.4099 143.547C73.4994 143.611 73.6063 143.645 73.7163 143.647L73.7877 143.575Z" fill="#000201"/>
<path d="M59.0015 182.576H87.6451C87.7204 182.577 87.7951 182.563 87.8649 182.534C87.9347 182.506 87.998 182.464 88.0513 182.41C88.1045 182.357 88.1466 182.294 88.175 182.224C88.2034 182.154 88.2175 182.08 88.2165 182.004C88.2175 181.929 88.2034 181.854 88.175 181.784C88.1466 181.715 88.1045 181.651 88.0513 181.598C87.998 181.545 87.9347 181.503 87.8649 181.474C87.7951 181.446 87.7204 181.432 87.6451 181.433H59.0015C56.3596 181.433 53.7771 180.649 51.5804 179.182C49.3838 177.714 47.6718 175.628 46.6608 173.187C45.6498 170.746 45.3852 168.06 45.9006 165.469C46.416 162.878 47.6882 160.498 49.5563 158.63C51.4244 156.762 53.8045 155.49 56.3956 154.974C58.9867 154.459 61.6724 154.724 64.1132 155.735C66.5539 156.746 68.6401 158.458 70.1078 160.654C71.5756 162.851 72.359 165.433 72.359 168.075C72.3449 168.146 72.3448 168.218 72.3587 168.288C72.3727 168.359 72.4003 168.426 72.4401 168.486C72.4799 168.545 72.5311 168.596 72.5907 168.636C72.6503 168.676 72.7172 168.704 72.7875 168.718C72.8579 168.732 72.9303 168.732 73.0007 168.718C73.0711 168.704 73.1381 168.677 73.1977 168.637C73.2574 168.597 73.3087 168.546 73.3486 168.486C73.3886 168.427 73.4164 168.36 73.4304 168.29V168.075C73.4304 165.222 72.5842 162.432 70.9987 160.059C69.4132 157.686 67.1597 155.837 64.5232 154.745C61.8866 153.653 58.9855 153.367 56.1865 153.924C53.3876 154.48 50.8166 155.855 48.7987 157.873C46.7807 159.89 45.4065 162.461 44.8498 165.26C44.293 168.059 44.5788 170.96 45.6709 173.597C46.7629 176.234 48.6123 178.487 50.9852 180.073C53.358 181.658 56.1477 182.504 59.0015 182.504V182.576Z" fill="#000201"/>
<path d="M83.9307 183.862C84.0143 183.864 84.0971 183.846 84.1719 183.808C84.2467 183.771 84.311 183.716 84.3593 183.648C84.4631 183.543 84.5214 183.402 84.5214 183.255C84.5214 183.107 84.4631 182.966 84.3593 182.862C82.875 181.547 81.963 179.704 81.8176 177.726C81.6722 175.748 82.3049 173.792 83.5809 172.273C84.8569 170.755 86.6753 169.795 88.6486 169.598C90.622 169.401 92.5943 169.983 94.1452 171.219C94.2518 171.31 94.389 171.358 94.5295 171.353C94.67 171.348 94.8032 171.29 94.9026 171.19C95.002 171.091 95.0602 170.958 95.0654 170.817C95.0707 170.677 95.0227 170.539 94.931 170.433C93.1371 169.071 90.8876 168.453 88.6499 168.707C86.4121 168.96 84.3581 170.066 82.9146 171.795C81.471 173.524 80.7489 175.742 80.8982 177.989C81.0475 180.236 82.0568 182.339 83.7164 183.862H83.9307Z" fill="#000201"/>
<path d="M86.2165 146.504C86.406 146.504 86.5877 146.428 86.7216 146.294C86.8556 146.161 86.9308 145.979 86.9308 145.789C86.9286 145.652 86.887 145.519 86.811 145.405C86.735 145.291 86.6278 145.201 86.5022 145.147C84.0822 144.161 81.4616 143.77 78.8592 144.004C78.6824 144.021 78.5185 144.104 78.3997 144.237C78.2808 144.369 78.2154 144.54 78.2163 144.718C78.2163 144.888 78.284 145.052 78.4046 145.173C78.5252 145.293 78.6887 145.361 78.8592 145.361H78.9306C81.3098 145.155 83.7045 145.497 85.9308 146.361C86.0022 146.504 86.0737 146.504 86.2165 146.504Z" fill="white"/>
<path d="M90.4308 149.646C90.5826 149.631 90.7291 149.582 90.8594 149.503C90.927 149.446 90.9814 149.375 91.0187 149.295C91.056 149.215 91.0753 149.127 91.0753 149.039C91.0753 148.95 91.056 148.863 91.0187 148.783C90.9814 148.703 90.927 148.631 90.8594 148.574C90.348 147.992 89.7992 147.443 89.2165 146.932C89.0718 146.834 88.8966 146.794 88.7238 146.817C88.551 146.84 88.3927 146.925 88.2785 147.057C88.1644 147.188 88.1023 147.357 88.104 147.532C88.1058 147.706 88.1712 147.874 88.2879 148.003C88.7991 148.443 89.2767 148.92 89.7165 149.432C89.926 149.577 90.1761 149.652 90.4308 149.646Z" fill="white"/>
<path d="M218.148 41.3575C218.173 36.3531 216.351 31.5155 213.031 27.7709C209.711 24.0262 205.127 21.6377 200.155 21.0628C195.184 20.4878 190.175 21.7667 186.088 24.6547C182.001 27.5426 179.123 31.8366 178.004 36.7146C176.458 35.8579 174.756 35.3187 172.998 35.1286C171.24 34.9386 169.462 35.1015 167.768 35.6078C166.074 36.1141 164.498 36.9537 163.133 38.0772C161.767 39.2006 160.64 40.5855 159.817 42.1504C158.994 43.7153 158.492 45.4288 158.341 47.1904C158.189 48.952 158.39 50.7261 158.933 52.4087C159.476 54.0914 160.35 55.6486 161.503 56.9892C162.656 58.3297 164.065 59.4265 165.647 60.2152C167.336 61.0785 169.183 61.5889 171.076 61.7152H199.862C204.906 61.2288 209.584 58.8672 212.97 55.0975C216.356 51.3277 218.204 46.4245 218.148 41.3575Z" fill="white"/>
<g opacity="0.2">
<path opacity="0.2" d="M43.2153 80.859C43.2207 83.0867 42.3721 85.2317 40.8441 86.8527C39.3161 88.4737 37.2249 89.4474 35.0008 89.5735H15.8575C13.4077 89.3218 11.0743 88.4012 9.11249 86.9125C7.15069 85.4239 5.63603 83.4244 4.73417 81.1328C3.8323 78.8412 3.57796 76.3457 3.99895 73.9193C4.41995 71.4928 5.50007 69.2289 7.12119 67.375C8.74231 65.5212 10.842 64.1488 13.1906 63.408C15.5392 62.6672 18.0464 62.5865 20.4378 63.1747C22.8292 63.7629 25.0128 64.9974 26.7498 66.7432C28.4868 68.489 29.7102 70.6787 30.2864 73.0731C31.2987 72.5253 32.4093 72.1831 33.5543 72.0662C34.6993 71.9494 35.8561 72.0601 36.9582 72.392C38.0602 72.724 39.0857 73.2706 39.9757 74.0004C40.8657 74.7302 41.6026 75.6289 42.1439 76.6446C42.8573 77.934 43.2264 79.3855 43.2153 80.859Z" fill="#C8D3D9"/>
</g>
<g opacity="0.2">
<path opacity="0.2" d="M81.2878 114.646C81.2932 116.873 80.4446 119.018 78.9166 120.639C77.3886 122.26 75.2974 123.234 73.0733 123.36H54.0728C51.6137 123.115 49.2696 122.197 47.2975 120.708C45.3255 119.218 43.8017 117.215 42.8932 114.916C41.9847 112.618 41.7267 110.114 42.1473 107.679C42.568 105.243 43.6511 102.971 45.2779 101.11C46.9047 99.2501 49.0124 97.8736 51.3699 97.132C53.7273 96.3904 56.2434 96.3122 58.6424 96.9061C61.0413 97.4999 63.2304 98.7429 64.9695 100.499C66.7087 102.255 67.9308 104.455 68.5018 106.86C70.5419 105.769 72.9291 105.525 75.1479 106.18C77.3666 106.835 79.2385 108.336 80.3592 110.36C81.0727 111.649 81.4417 113.101 81.4307 114.574L81.2878 114.646Z" fill="#C8D3D9"/>
</g>
<path d="M53.5013 77.2166C43.7868 77.2166 36.0723 74.0736 30.6436 67.7877C27.0721 63.6448 22.5719 56.0017 21.3576 42.5728C20.9171 37.772 20.941 32.94 21.429 28.1438C21.5005 27.8581 21.7148 27.6438 22.0005 27.7153C22.2862 27.7867 22.5005 28.001 22.4291 28.2867C22.4291 28.501 19.2861 53.4302 31.3579 67.1449C36.6437 73.0736 44.0725 76.0737 53.4299 76.0737C53.4961 76.0717 53.562 76.0833 53.6236 76.1077C53.6851 76.1321 53.741 76.1689 53.7878 76.2157C53.8347 76.2626 53.8714 76.3185 53.8959 76.38C53.9203 76.4416 53.9319 76.5075 53.9299 76.5737C53.9299 76.8594 53.787 77.2166 53.5013 77.2166Z" fill="#000201"/>
<path d="M58.9301 77.2166C49.2156 77.2166 41.5011 74.0736 36.0724 67.7877C32.5008 63.6448 28.0007 56.0017 26.7864 42.5728C26.2864 37.7761 26.2864 32.9405 26.7864 28.1438C26.8578 27.8581 27.0721 27.6438 27.3578 27.7153C27.4207 27.7144 27.4829 27.7273 27.5402 27.7532C27.5975 27.779 27.6484 27.8172 27.6893 27.8649C27.7301 27.9126 27.7601 27.9687 27.7768 28.0293C27.7936 28.0898 27.7969 28.1533 27.7864 28.2153V28.2867C27.7864 28.501 24.6435 53.4302 36.7152 67.1449C42.0011 73.145 49.4299 76.2165 58.7873 76.2165C58.9199 76.2165 59.047 76.2692 59.1408 76.363C59.2346 76.4568 59.2873 76.5839 59.2873 76.7166C59.2873 76.8492 59.2346 76.9763 59.1408 77.0701C59.047 77.1639 58.9199 77.2166 58.7873 77.2166H58.9301Z" fill="#000201"/>
<path d="M72.0733 23.2859H10.8574V28.4289H72.0733V23.2859Z" fill="#F9A948"/>
<path d="M71.859 23.0724H10.6431V25.1439H71.859V23.0724Z" fill="#FFD297"/>
<path d="M72.0019 28.7869H10.8575C10.7767 28.7853 10.6971 28.767 10.6238 28.7332C10.5504 28.6994 10.4848 28.6508 10.4312 28.5904C10.3775 28.53 10.3369 28.4592 10.3119 28.3824C10.2869 28.3056 10.2781 28.2244 10.286 28.144V23.001C10.286 22.8305 10.3537 22.667 10.4743 22.5464C10.5949 22.4259 10.7584 22.3582 10.9289 22.3582H72.0733C72.1578 22.3582 72.2414 22.3748 72.3194 22.4071C72.3974 22.4394 72.4682 22.4868 72.5279 22.5464C72.5876 22.6061 72.635 22.677 72.6673 22.755C72.6996 22.833 72.7162 22.9166 72.7162 23.001V28.144C72.7146 28.2341 72.6945 28.323 72.6571 28.405C72.6197 28.487 72.5658 28.5604 72.4988 28.6207C72.4318 28.681 72.3531 28.7269 72.2676 28.7555C72.1822 28.784 72.0917 28.7947 72.0019 28.7869ZM11.5003 27.5011H71.4305V23.6439H11.5003V27.5011Z" fill="#000201"/>
<path d="M39.8582 6.9281H33.4294V48.9292H39.8582V6.9281Z" fill="#D9E1E4"/>
<path d="M38.7868 6.9281H36.001V48.9292H38.7868V6.9281Z" fill="#B4BEC1"/>
<path d="M34.5009 6.9281H32.9294V48.9292H34.5009V6.9281Z" fill="white"/>
<path d="M39.0723 49.4293H32.7864C32.6159 49.4293 32.4524 49.3616 32.3318 49.241C32.2113 49.1205 32.1436 48.9569 32.1436 48.7864V6.78533C32.1436 6.61483 32.2113 6.45131 32.3318 6.33075C32.4524 6.21019 32.6159 6.14246 32.7864 6.14246H39.0723C39.2428 6.14246 39.4063 6.21019 39.5269 6.33075C39.6475 6.45131 39.7152 6.61483 39.7152 6.78533V48.7864C39.7152 48.9569 39.6475 49.1205 39.5269 49.241C39.4063 49.3616 39.2428 49.4293 39.0723 49.4293ZM33.3579 48.1436H38.5009V7.4282H33.4293L33.3579 48.1436Z" fill="#000201"/>
<path d="M44.9298 0.499268H39.0725V182.29H44.9298V0.499268Z" fill="#FFD297"/>
<path d="M44.4297 0.499268H41.3582V182.29H44.4297V0.499268Z" fill="#F9A948"/>
<path d="M38.9295 95.6458C38.759 95.6458 38.5955 95.5781 38.4749 95.4575C38.3544 95.3369 38.2866 95.1734 38.2866 95.0029V91.5743C38.2866 91.4038 38.3544 91.2403 38.4749 91.1197C38.5955 90.9991 38.759 90.9314 38.9295 90.9314C39.1 90.9314 39.2635 90.9991 39.3841 91.1197C39.5046 91.2403 39.5724 91.4038 39.5724 91.5743V95.0029C39.5724 95.1734 39.5046 95.3369 39.3841 95.4575C39.2635 95.5781 39.1 95.6458 38.9295 95.6458Z" fill="#000201"/>
<path d="M38.9295 101.36C38.759 101.36 38.5955 101.292 38.4749 101.172C38.3544 101.051 38.2866 100.888 38.2866 100.717V98.7884C38.2866 98.6179 38.3544 98.4544 38.4749 98.3338C38.5955 98.2132 38.759 98.1455 38.9295 98.1455C39.1 98.1455 39.2635 98.2132 39.3841 98.3338C39.5046 98.4544 39.5724 98.6179 39.5724 98.7884V100.86C39.5289 100.999 39.4441 101.121 39.3292 101.21C39.2143 101.3 39.0748 101.352 38.9295 101.36Z" fill="#000201"/>
<path d="M44.7868 183.219H38.9295C38.759 183.219 38.5955 183.151 38.4749 183.031C38.3544 182.91 38.2866 182.746 38.2866 182.576V104.002C38.2866 103.832 38.3544 103.668 38.4749 103.548C38.5955 103.427 38.759 103.36 38.9295 103.36C39.1 103.36 39.2635 103.427 39.3841 103.548C39.5046 103.668 39.5724 103.832 39.5724 104.002V181.862H44.2154V1.35693H39.5724V87.2878C39.5724 87.4583 39.5046 87.6218 39.3841 87.7423C39.2635 87.8629 39.1 87.9306 38.9295 87.9306C38.759 87.9306 38.5955 87.8629 38.4749 87.7423C38.3544 87.6218 38.2866 87.4583 38.2866 87.2878V0.64263C38.2866 0.472129 38.3544 0.308612 38.4749 0.188049C38.5955 0.067487 38.759 -0.000244141 38.9295 -0.000244141L44.7868 -0.000244141C44.9573 -0.000244141 45.1208 0.067487 45.2414 0.188049C45.3619 0.308612 45.4297 0.472129 45.4297 0.64263V182.505C45.4406 182.589 45.4343 182.675 45.4113 182.757C45.3883 182.84 45.3489 182.916 45.2956 182.983C45.2423 183.05 45.176 183.105 45.1009 183.145C45.0258 183.186 44.9432 183.211 44.8582 183.219H44.7868Z" fill="#000201"/>
<path d="M42.7868 56.8584C42.7391 56.8616 42.6913 56.8545 42.6465 56.8377C42.6018 56.8208 42.5611 56.7946 42.5273 56.7608C42.4935 56.727 42.4673 56.6864 42.4504 56.6416C42.4336 56.5968 42.4265 56.549 42.4297 56.5013V52.144C42.4297 52.0493 42.4673 51.9585 42.5343 51.8915C42.6013 51.8245 42.6921 51.7869 42.7868 51.7869C42.8816 51.7869 42.9724 51.8245 43.0394 51.8915C43.1064 51.9585 43.144 52.0493 43.144 52.144V56.5013C43.1374 56.5938 43.0976 56.6808 43.032 56.7464C42.9664 56.812 42.8794 56.8518 42.7868 56.8584Z" fill="#000201"/>
<path d="M42.7868 119.86C42.6943 119.853 42.6073 119.813 42.5417 119.748C42.4761 119.682 42.4363 119.595 42.4297 119.502V115.145C42.4297 115.05 42.4673 114.96 42.5343 114.893C42.6013 114.826 42.6921 114.788 42.7868 114.788C42.8816 114.788 42.9724 114.826 43.0394 114.893C43.1064 114.96 43.144 115.05 43.144 115.145V119.431C43.1374 119.523 43.0976 119.611 43.032 119.676C42.9664 119.742 42.8794 119.781 42.7868 119.788V119.86Z" fill="#000201"/>
<path d="M42.7868 113.431C42.6943 113.424 42.6073 113.384 42.5417 113.319C42.4761 113.253 42.4363 113.166 42.4297 113.074V110.502C42.4297 110.407 42.4673 110.317 42.5343 110.25C42.6013 110.183 42.6921 110.145 42.7868 110.145C42.8816 110.145 42.9724 110.183 43.0394 110.25C43.1064 110.317 43.144 110.407 43.144 110.502V113.074C43.1471 113.121 43.1401 113.169 43.1232 113.214C43.1064 113.259 43.0802 113.299 43.0464 113.333C43.0126 113.367 42.9719 113.393 42.9272 113.41C42.8824 113.427 42.8346 113.434 42.7868 113.431Z" fill="#000201"/>
<path d="M15.6431 26.3572H11.2859C11.2381 26.3604 11.1903 26.3533 11.1455 26.3365C11.1008 26.3197 11.0601 26.2935 11.0263 26.2596C10.9925 26.2258 10.9663 26.1852 10.9495 26.1404C10.9326 26.0957 10.9256 26.0478 10.9287 26.0001C10.9256 25.9524 10.9326 25.9045 10.9495 25.8598C10.9663 25.815 10.9925 25.7744 11.0263 25.7405C11.0601 25.7067 11.1008 25.6805 11.1455 25.6637C11.1903 25.6469 11.2381 25.6398 11.2859 25.6429H15.6431C15.7378 25.6429 15.8287 25.6806 15.8957 25.7476C15.9626 25.8145 16.0003 25.9054 16.0003 26.0001C16.0003 26.0948 15.9626 26.1857 15.8957 26.2526C15.8287 26.3196 15.7378 26.3572 15.6431 26.3572Z" fill="#000201"/>
<path d="M21.2862 26.3579H17.9289C17.8812 26.361 17.8334 26.3539 17.7886 26.3371C17.7438 26.3203 17.7032 26.2941 17.6694 26.2603C17.6356 26.2264 17.6094 26.1858 17.5925 26.141C17.5757 26.0963 17.5686 26.0484 17.5718 26.0007C17.5784 25.9082 17.6182 25.8211 17.6838 25.7555C17.7494 25.6899 17.8364 25.6502 17.9289 25.6436H21.2862C21.3809 25.6436 21.4717 25.6812 21.5387 25.7482C21.6057 25.8151 21.6433 25.906 21.6433 26.0007C21.6433 26.0954 21.6057 26.1863 21.5387 26.2533C21.4717 26.3202 21.3809 26.3579 21.2862 26.3579Z" fill="#000201"/>
<path d="M41.7153 164.146C41.6676 164.15 41.6197 164.142 41.575 164.126C41.5302 164.109 41.4896 164.083 41.4558 164.049C41.4219 164.015 41.3957 163.974 41.3789 163.93C41.3621 163.885 41.355 163.837 41.3582 163.789V159.432C41.3582 159.337 41.3958 159.246 41.4628 159.179C41.5297 159.112 41.6206 159.075 41.7153 159.075C41.81 159.075 41.9009 159.112 41.9679 159.179C42.0348 159.246 42.0725 159.337 42.0725 159.432V163.789C42.1439 164.004 41.9296 164.146 41.7153 164.146Z" fill="#000201"/>
<path d="M0.499986 52.8581C0.433787 52.86 0.367883 52.8485 0.306324 52.824C0.244765 52.7996 0.188853 52.7628 0.142022 52.716C0.0951915 52.6692 0.0584325 52.6133 0.0340044 52.5517C0.00957625 52.4902 -0.00200499 52.4242 -2.75707e-05 52.3581C0.00101577 52.2481 0.0358455 52.1412 0.0997366 52.0518C0.163628 51.9623 0.253487 51.8947 0.357125 51.858C13.6432 48.4294 14.0718 28.6431 14.0718 28.4288C14.0718 28.2962 14.1245 28.1691 14.2182 28.0753C14.312 27.9815 14.4392 27.9288 14.5718 27.9288C14.7044 27.9288 14.8316 27.9815 14.9253 28.0753C15.0191 28.1691 15.0718 28.2962 15.0718 28.4288C14.9289 32.0959 14.2799 35.7255 13.1432 39.2148C10.7145 46.6436 6.35728 51.4295 0.499986 52.8581Z" fill="#000201"/>
<path d="M4.07152 54.6438C4.00532 54.6458 3.93942 54.6342 3.87786 54.6098C3.8163 54.5854 3.76039 54.5486 3.71356 54.5018C3.66672 54.4549 3.62997 54.399 3.60554 54.3375C3.58111 54.2759 3.56953 54.21 3.57151 54.1438C3.57255 54.0339 3.60738 53.927 3.67127 53.8375C3.73516 53.7481 3.82502 53.6804 3.92866 53.6438C17.2147 50.2151 17.6433 28.6431 17.6433 28.4288C17.6433 28.2962 17.696 28.1691 17.7898 28.0753C17.8835 27.9815 18.0107 27.9288 18.1433 27.9288C18.2759 27.9288 18.4031 27.9815 18.4969 28.0753C18.5907 28.1691 18.6433 28.2962 18.6433 28.4288C18.5013 32.3764 17.8531 36.2895 16.7147 40.072C14.2861 48.0722 9.92882 53.0724 4.07152 54.6438Z" fill="#000201"/>
<path d="M197.362 80.7156V183.075H69.5732V173.075V79.787" fill="#D9E1E4"/>
<path opacity="0.4" d="M197.362 80.7156V183.075H145.647V173.075V79.787" fill="#94B5BF"/>
<path d="M197.791 92.1451V101.36C196.483 99.7389 195.754 97.7276 195.719 95.6452C195.719 98.0701 194.756 100.396 193.041 102.11C191.327 103.825 189.001 104.788 186.576 104.788C184.151 104.788 181.826 103.825 180.111 102.11C178.396 100.396 177.433 98.0701 177.433 95.6452C177.34 98.0075 176.336 100.242 174.631 101.88C172.927 103.519 170.654 104.434 168.29 104.434C165.926 104.434 163.653 103.519 161.949 101.88C160.244 100.242 159.24 98.0075 159.147 95.6452C159.054 98.0075 158.049 100.242 156.345 101.88C154.641 103.519 152.368 104.434 150.004 104.434C147.64 104.434 145.367 103.519 143.663 101.88C141.958 100.242 140.954 98.0075 140.861 95.6452C140.767 98.0075 139.763 100.242 138.059 101.88C136.354 103.519 134.082 104.434 131.718 104.434C129.353 104.434 127.081 103.519 125.377 101.88C123.672 100.242 122.668 98.0075 122.575 95.6452C122.481 98.0075 121.477 100.242 119.773 101.88C118.068 103.519 115.796 104.434 113.431 104.434C111.067 104.434 108.795 103.519 107.09 101.88C105.386 100.242 104.382 98.0075 104.288 95.6452C104.288 98.0701 103.325 100.396 101.61 102.11C99.8957 103.825 97.5702 104.788 95.1453 104.788C92.7204 104.788 90.3948 103.825 88.6801 102.11C86.9655 100.396 86.0022 98.0701 86.0022 95.6452C85.9906 97.5166 85.4042 99.3393 84.3223 100.866C83.2404 102.393 81.7153 103.551 79.9535 104.183C78.1918 104.814 76.2785 104.889 74.4729 104.396C72.6673 103.904 71.0566 102.869 69.8589 101.431V92.2165C71.4067 94.0767 73.6279 95.2486 76.0371 95.4762C78.4463 95.7037 80.8477 94.9684 82.7164 93.4309C83.7419 92.5701 84.5718 91.5004 85.1508 90.2932C85.7297 89.086 86.0444 87.7692 86.0736 86.4307C86.0736 88.8556 87.0369 91.1811 88.7515 92.8958C90.4662 94.6105 92.7918 95.5738 95.2167 95.5738C97.6416 95.5738 99.9672 94.6105 101.682 92.8958C103.397 91.1811 104.36 88.8556 104.36 86.4307C104.453 88.793 105.457 91.0275 107.162 92.6659C108.866 94.3043 111.139 95.2194 113.503 95.2194C115.867 95.2194 118.14 94.3043 119.844 92.6659C121.548 91.0275 122.553 88.793 122.646 86.4307C122.739 88.793 123.744 91.0275 125.448 92.6659C127.152 94.3043 129.425 95.2194 131.789 95.2194C134.153 95.2194 136.426 94.3043 138.13 92.6659C139.835 91.0275 140.839 88.793 140.932 86.4307C141.026 88.793 142.03 91.0275 143.734 92.6659C145.439 94.3043 147.711 95.2194 150.075 95.2194C152.439 95.2194 154.712 94.3043 156.416 92.6659C158.121 91.0275 159.125 88.793 159.218 86.4307C159.312 88.793 160.316 91.0275 162.02 92.6659C163.725 94.3043 165.997 95.2194 168.361 95.2194C170.726 95.2194 172.998 94.3043 174.703 92.6659C176.407 91.0275 177.411 88.793 177.505 86.4307C177.505 88.8556 178.468 91.1811 180.183 92.8958C181.897 94.6105 184.223 95.5738 186.648 95.5738C189.073 95.5738 191.398 94.6105 193.113 92.8958C194.827 91.1811 195.791 88.8556 195.791 86.4307C195.766 88.5113 196.474 90.5343 197.791 92.1451Z" fill="#94B5BF"/>
<path d="M70.4304 107.717H77.002C78.5532 107.725 80.0386 108.344 81.1355 109.441C82.2323 110.538 82.8518 112.024 82.8593 113.575V160.147C82.8369 161.346 82.3458 162.489 81.4913 163.33C80.6368 164.171 79.4868 164.644 78.2878 164.647H70.5018V107.717H70.4304Z" fill="#94B5BF"/>
<path d="M79.2878 164.219L59.073 162.79V104.931H79.2878V164.219Z" fill="white"/>
<path d="M79.2877 104.574V163.861H59.0015V159.647H64.7873C67.5153 159.647 70.1316 158.563 72.0606 156.634C73.9896 154.705 75.0733 152.089 75.0733 149.361V104.574H79.2877Z" fill="#FFEDE1"/>
<path d="M79.2878 164.897H59.0729C58.9648 164.898 58.8576 164.878 58.7575 164.837C58.6574 164.796 58.5664 164.735 58.49 164.659C58.4135 164.583 58.353 164.492 58.3121 164.392C58.2711 164.291 58.2505 164.184 58.2515 164.076V140.933C58.2515 140.715 58.338 140.506 58.4921 140.352C58.6461 140.198 58.8551 140.111 59.0729 140.111C59.2908 140.111 59.4997 140.198 59.6538 140.352C59.8079 140.506 59.8944 140.715 59.8944 140.933V163.255H78.4663V105.61H59.8944V118.361C59.8944 118.578 59.8079 118.787 59.6538 118.941C59.4997 119.095 59.2908 119.182 59.0729 119.182C58.8551 119.182 58.6461 119.095 58.4921 118.941C58.338 118.787 58.2515 118.578 58.2515 118.361V104.789C58.2505 104.681 58.2711 104.573 58.3121 104.473C58.353 104.373 58.4135 104.282 58.49 104.206C58.5664 104.129 58.6574 104.069 58.7575 104.028C58.8576 103.987 58.9648 103.966 59.0729 103.967H79.2878C79.3959 103.966 79.5031 103.987 79.6032 104.028C79.7033 104.069 79.7943 104.129 79.8707 104.206C79.9472 104.282 80.0077 104.373 80.0486 104.473C80.0896 104.573 80.1102 104.681 80.1092 104.789V164.076C80.1102 164.184 80.0896 164.291 80.0486 164.392C80.0077 164.492 79.9472 164.583 79.8707 164.659C79.7943 164.735 79.7033 164.796 79.6032 164.837C79.5031 164.878 79.3959 164.898 79.2878 164.897Z" fill="#000201"/>
<path d="M68.9303 123.36C71.6129 123.36 73.7875 121.185 73.7875 118.503C73.7875 115.82 71.6129 113.645 68.9303 113.645C66.2477 113.645 64.073 115.82 64.073 118.503C64.073 121.185 66.2477 123.36 68.9303 123.36Z" fill="#D6393A"/>
<path d="M70.4303 138.218C71.6927 138.218 72.7161 137.194 72.7161 135.932C72.7161 134.669 71.6927 133.646 70.4303 133.646C69.1679 133.646 68.1445 134.669 68.1445 135.932C68.1445 137.194 69.1679 138.218 70.4303 138.218Z" fill="#BA2028"/>
<path d="M68.9303 139.432C71.6129 139.432 73.7875 137.257 73.7875 134.574C73.7875 131.892 71.6129 129.717 68.9303 129.717C66.2477 129.717 64.073 131.892 64.073 134.574C64.073 137.257 66.2477 139.432 68.9303 139.432Z" fill="#D6393A"/>
<path d="M68.9303 154.219C71.6129 154.219 73.7875 152.044 73.7875 149.361C73.7875 146.679 71.6129 144.504 68.9303 144.504C66.2477 144.504 64.073 146.679 64.073 149.361C64.073 152.044 66.2477 154.219 68.9303 154.219Z" fill="#D6393A"/>
<path d="M63.3589 161.148C64.3057 161.148 65.0732 160.38 65.0732 159.433C65.0732 158.486 64.3057 157.719 63.3589 157.719C62.4121 157.719 61.6445 158.486 61.6445 159.433C61.6445 160.38 62.4121 161.148 63.3589 161.148Z" fill="#FFEDE1"/>
<path d="M66.6445 157.647C67.1179 157.647 67.5017 157.264 67.5017 156.79C67.5017 156.317 67.1179 155.933 66.6445 155.933C66.1711 155.933 65.7874 156.317 65.7874 156.79C65.7874 157.264 66.1711 157.647 66.6445 157.647Z" fill="#FFEDE1"/>
<path d="M75.7878 142.932C76.6557 142.932 77.3592 142.228 77.3592 141.36C77.3592 140.492 76.6557 139.789 75.7878 139.789C74.9199 139.789 74.2163 140.492 74.2163 141.36C74.2163 142.228 74.9199 142.932 75.7878 142.932Z" fill="#FFEDE1"/>
<path d="M59.0729 128.574C58.9648 128.575 58.8576 128.555 58.7575 128.514C58.6574 128.473 58.5664 128.412 58.49 128.336C58.4135 128.259 58.353 128.169 58.3121 128.068C58.2711 127.968 58.2505 127.861 58.2515 127.753V123.753C58.2515 123.535 58.338 123.326 58.4921 123.172C58.6461 123.018 58.8551 122.931 59.0729 122.931C59.2908 122.931 59.4997 123.018 59.6538 123.172C59.8079 123.326 59.8944 123.535 59.8944 123.753V127.753C59.8953 127.861 59.8747 127.968 59.8338 128.068C59.7929 128.169 59.7324 128.259 59.6559 128.336C59.5795 128.412 59.4885 128.473 59.3884 128.514C59.2883 128.555 59.1811 128.575 59.0729 128.574Z" fill="#000201"/>
<path d="M59.0729 136.682C58.9648 136.683 58.8576 136.662 58.7575 136.621C58.6574 136.58 58.5664 136.52 58.49 136.443C58.4135 136.367 58.353 136.276 58.3121 136.176C58.2711 136.076 58.2505 135.969 58.2515 135.86V132.432C58.2515 132.214 58.338 132.005 58.4921 131.851C58.6461 131.697 58.8551 131.61 59.0729 131.61C59.2908 131.61 59.4997 131.697 59.6538 131.851C59.8079 132.005 59.8944 132.214 59.8944 132.432V135.86C59.8953 135.969 59.8747 136.076 59.8338 136.176C59.7929 136.276 59.7324 136.367 59.6559 136.443C59.5795 136.52 59.4885 136.58 59.3884 136.621C59.2883 136.662 59.1811 136.683 59.0729 136.682Z" fill="#000201"/>
<path d="M69.5733 169.719C70.2045 169.719 70.7162 169.207 70.7162 168.576C70.7162 167.945 70.2045 167.433 69.5733 167.433C68.9421 167.433 68.4304 167.945 68.4304 168.576C68.4304 169.207 68.9421 169.719 69.5733 169.719Z" fill="#000201"/>
<path d="M80.6449 87.5015C82.5779 87.5015 84.145 85.9345 84.145 84.0014C84.145 82.0684 82.5779 80.5013 80.6449 80.5013C78.7118 80.5013 77.1448 82.0684 77.1448 84.0014C77.1448 85.9345 78.7118 87.5015 80.6449 87.5015Z" fill="#C8D3D9"/>
<path d="M152.218 80.7162C152.613 80.7162 152.933 80.3964 152.933 80.0019C152.933 79.6074 152.613 79.2876 152.218 79.2876C151.824 79.2876 151.504 79.6074 151.504 80.0019C151.504 80.3964 151.824 80.7162 152.218 80.7162Z" fill="#C8D3D9"/>
<path d="M131.646 183.576V111.574H90.0737V183.576" fill="#FFD297"/>
<path d="M131.646 158.29V150.29H90.0737V158.29" fill="#F29530"/>
<path d="M188.362 110.646H140.861V148.933H188.362V110.646Z" fill="#DEF6FF"/>
<path d="M69.5732 101.823C69.4651 101.824 69.3578 101.804 69.2577 101.763C69.1576 101.722 69.0667 101.661 68.9902 101.585C68.9137 101.508 68.8533 101.418 68.8123 101.317C68.7714 101.217 68.7508 101.11 68.7517 101.002V94.0018C68.7517 93.7839 68.8383 93.575 68.9923 93.4209C69.1464 93.2669 69.3553 93.1803 69.5732 93.1803C69.7911 93.1803 70 93.2669 70.154 93.4209C70.3081 93.575 70.3946 93.7839 70.3946 94.0018V101.002C70.3956 101.11 70.375 101.217 70.3341 101.317C70.2931 101.418 70.2326 101.508 70.1562 101.585C70.0797 101.661 69.9888 101.722 69.8887 101.763C69.7886 101.804 69.6813 101.824 69.5732 101.823Z" fill="#000201"/>
<path d="M188.633 150.004H140.589V110.589H188.633V150.004ZM143.989 146.604H185.233V113.989H143.989V146.604Z" fill="#99CDDD"/>
<path opacity="0.5" d="M111.574 111.574H108.146L89.4309 138.646L89.5023 143.717L111.574 111.574Z" fill="white"/>
<path d="M123.289 111.574H119.146L96.0024 145.217V150.289L123.289 111.574Z" fill="white"/>
<path d="M131.218 111.574H125.432L102.288 145.217L104.003 150.289L131.218 111.574Z" fill="white"/>
<path d="M131.646 183.897C131.538 183.898 131.431 183.878 131.331 183.837C131.231 183.796 131.14 183.735 131.063 183.659C130.987 183.582 130.926 183.491 130.885 183.391C130.844 183.291 130.824 183.184 130.825 183.076V111.895H90.8951V183.076C90.8951 183.184 90.8739 183.29 90.8326 183.39C90.7913 183.49 90.7308 183.58 90.6545 183.657C90.5783 183.733 90.4877 183.793 90.388 183.835C90.2884 183.876 90.1816 183.897 90.0737 183.897C89.9658 183.897 89.859 183.876 89.7593 183.835C89.6597 183.793 89.5691 183.733 89.4928 183.657C89.4165 183.58 89.356 183.49 89.3148 183.39C89.2735 183.29 89.2522 183.184 89.2522 183.076V111.074C89.2513 110.966 89.2719 110.859 89.3128 110.758C89.3538 110.658 89.4142 110.567 89.4907 110.491C89.5672 110.414 89.6581 110.354 89.7582 110.313C89.8583 110.272 89.9655 110.252 90.0737 110.252H131.646C131.754 110.252 131.862 110.272 131.962 110.313C132.062 110.354 132.153 110.414 132.229 110.491C132.306 110.567 132.366 110.658 132.407 110.758C132.448 110.859 132.469 110.966 132.468 111.074V183.076C132.469 183.184 132.448 183.291 132.407 183.391C132.366 183.491 132.306 183.582 132.229 183.659C132.153 183.735 132.062 183.796 131.962 183.837C131.862 183.878 131.754 183.898 131.646 183.897Z" fill="#000201"/>
<path d="M127.646 183.283C127.497 183.283 127.353 183.224 127.247 183.118C127.141 183.012 127.082 182.869 127.082 182.719V115.717H94.424V182.719C94.424 182.869 94.3646 183.012 94.2587 183.118C94.1529 183.224 94.0094 183.283 93.8597 183.283C93.71 183.283 93.5665 183.224 93.4607 183.118C93.3549 183.012 93.2954 182.869 93.2954 182.719V115.146C93.2954 114.996 93.3549 114.853 93.4607 114.747C93.5665 114.641 93.71 114.581 93.8597 114.581H127.646C127.796 114.581 127.94 114.641 128.045 114.747C128.151 114.853 128.211 114.996 128.211 115.146V182.719C128.211 182.869 128.151 183.012 128.045 183.118C127.94 183.224 127.796 183.283 127.646 183.283Z" fill="#000201"/>
<path d="M135.432 142.646H86.0737V155.218H135.432V142.646Z" fill="#FFD297"/>
<path d="M135.432 150.29H86.0737V155.218H135.432V150.29Z" fill="#F9A948"/>
<path d="M135.432 156.04H86.0737C85.9655 156.041 85.8583 156.021 85.7582 155.98C85.6581 155.939 85.5672 155.878 85.4907 155.802C85.4142 155.725 85.3538 155.634 85.3128 155.534C85.2719 155.434 85.2513 155.327 85.2522 155.219V142.647C85.2513 142.539 85.2719 142.432 85.3128 142.332C85.3538 142.231 85.4142 142.141 85.4907 142.064C85.5672 141.988 85.6581 141.927 85.7582 141.886C85.8583 141.845 85.9655 141.825 86.0737 141.826H135.432C135.54 141.825 135.648 141.845 135.748 141.886C135.848 141.927 135.939 141.988 136.015 142.064C136.092 142.141 136.152 142.231 136.193 142.332C136.234 142.432 136.255 142.539 136.254 142.647V155.219C136.255 155.327 136.234 155.434 136.193 155.534C136.152 155.634 136.092 155.725 136.015 155.802C135.939 155.878 135.848 155.939 135.748 155.98C135.648 156.021 135.54 156.041 135.432 156.04ZM86.8951 154.397H134.611V143.468H86.8951V154.397Z" fill="#000201"/>
<path d="M127.646 152.003C129.343 152.003 130.718 150.628 130.718 148.932C130.718 147.235 129.343 145.86 127.646 145.86C125.95 145.86 124.575 147.235 124.575 148.932C124.575 150.628 125.95 152.003 127.646 152.003Z" fill="white"/>
<path d="M127.646 152.382C126.964 152.382 126.297 152.18 125.729 151.801C125.162 151.422 124.72 150.883 124.459 150.253C124.198 149.622 124.129 148.928 124.262 148.259C124.395 147.59 124.724 146.975 125.207 146.493C125.689 146.01 126.304 145.682 126.973 145.548C127.642 145.415 128.336 145.484 128.966 145.745C129.597 146.006 130.136 146.448 130.515 147.016C130.894 147.583 131.096 148.25 131.096 148.932C131.096 149.385 131.007 149.834 130.834 150.253C130.66 150.671 130.406 151.051 130.086 151.372C129.765 151.692 129.385 151.946 128.966 152.12C128.548 152.293 128.099 152.382 127.646 152.382ZM127.646 146.239C127.114 146.239 126.593 146.397 126.15 146.693C125.707 146.989 125.362 147.41 125.158 147.902C124.954 148.394 124.901 148.935 125.005 149.458C125.109 149.98 125.365 150.46 125.742 150.836C126.119 151.213 126.598 151.47 127.121 151.573C127.643 151.677 128.185 151.624 128.677 151.42C129.169 151.216 129.589 150.871 129.885 150.428C130.181 149.986 130.339 149.465 130.339 148.932C130.339 148.579 130.269 148.228 130.134 147.902C129.999 147.575 129.8 147.278 129.55 147.028C129.3 146.778 129.003 146.58 128.677 146.444C128.35 146.309 128 146.239 127.646 146.239Z" fill="#000201"/>
<path d="M140.861 149.361H189.434C189.875 149.364 190.299 149.536 190.617 149.841C190.936 150.147 191.126 150.563 191.148 151.003C191.143 151.224 191.095 151.441 191.007 151.643C190.918 151.845 190.79 152.028 190.631 152.18C190.472 152.333 190.284 152.452 190.079 152.532C189.873 152.612 189.654 152.651 189.434 152.646H140.861C140.419 152.643 139.996 152.471 139.677 152.166C139.358 151.86 139.168 151.444 139.146 151.003C139.168 150.563 139.358 150.147 139.677 149.841C139.996 149.536 140.419 149.364 140.861 149.361Z" fill="#94B5BF"/>
<path d="M97.3595 146.753H86.0735C85.9693 146.753 85.8694 146.712 85.7957 146.638C85.7221 146.565 85.6807 146.465 85.6807 146.361C85.6807 146.256 85.7221 146.156 85.7957 146.083C85.8694 146.009 85.9693 145.968 86.0735 145.968H97.3595C97.4637 145.968 97.5637 146.009 97.6373 146.083C97.711 146.156 97.7524 146.256 97.7524 146.361C97.7524 146.465 97.711 146.565 97.6373 146.638C97.5637 146.712 97.4637 146.753 97.3595 146.753Z" fill="#000201"/>
<path d="M92.2166 148.754H86.0735C85.9693 148.754 85.8694 148.713 85.7957 148.639C85.7221 148.565 85.6807 148.465 85.6807 148.361C85.6807 148.257 85.7221 148.157 85.7957 148.083C85.8694 148.01 85.9693 147.968 86.0735 147.968H92.2166C92.3208 147.968 92.4207 148.01 92.4944 148.083C92.568 148.157 92.6094 148.257 92.6094 148.361C92.6094 148.465 92.568 148.565 92.4944 148.639C92.4207 148.713 92.3208 148.754 92.2166 148.754Z" fill="#000201"/>
<path d="M109.003 124.11C108.544 124.11 108.095 123.974 107.713 123.719C107.331 123.464 107.034 123.101 106.858 122.677C106.682 122.253 106.636 121.786 106.726 121.336C106.816 120.885 107.037 120.472 107.361 120.147C107.686 119.822 108.1 119.601 108.55 119.512C109 119.422 109.467 119.468 109.891 119.644C110.315 119.82 110.678 120.117 110.933 120.499C111.188 120.881 111.324 121.33 111.324 121.789C111.322 122.404 111.077 122.993 110.642 123.428C110.207 123.863 109.618 124.108 109.003 124.11ZM109.003 120.253C108.699 120.253 108.402 120.343 108.15 120.512C107.897 120.68 107.7 120.92 107.584 121.201C107.468 121.482 107.437 121.79 107.497 122.088C107.556 122.386 107.702 122.66 107.917 122.875C108.132 123.089 108.405 123.236 108.703 123.295C109.001 123.354 109.31 123.324 109.591 123.208C109.871 123.091 110.111 122.894 110.28 122.642C110.449 122.389 110.539 122.092 110.539 121.789C110.539 121.587 110.499 121.387 110.422 121.201C110.345 121.015 110.231 120.845 110.089 120.703C109.946 120.56 109.777 120.447 109.591 120.37C109.404 120.293 109.205 120.253 109.003 120.253Z" fill="#000201"/>
<path d="M103.788 137.897H103.681C103.582 137.867 103.498 137.799 103.447 137.709C103.396 137.618 103.383 137.511 103.41 137.411L107.553 123.339C107.567 123.289 107.59 123.243 107.622 123.202C107.654 123.162 107.694 123.128 107.739 123.103C107.784 123.077 107.834 123.061 107.885 123.055C107.937 123.049 107.989 123.053 108.038 123.068C108.138 123.098 108.222 123.165 108.272 123.256C108.323 123.346 108.336 123.453 108.31 123.553L104.167 137.625C104.14 137.704 104.089 137.773 104.021 137.822C103.953 137.87 103.872 137.897 103.788 137.897Z" fill="#000201"/>
<path d="M113.574 137.896C113.489 137.895 113.406 137.867 113.338 137.815C113.27 137.764 113.22 137.692 113.196 137.61L109.267 123.753C109.238 123.7 109.221 123.641 109.218 123.58C109.215 123.52 109.226 123.46 109.25 123.404C109.274 123.349 109.311 123.299 109.358 123.26C109.404 123.222 109.459 123.194 109.517 123.18C109.576 123.165 109.638 123.165 109.697 123.178C109.756 123.191 109.811 123.218 109.858 123.257C109.905 123.295 109.943 123.343 109.968 123.398C109.993 123.453 110.005 123.514 110.003 123.574L113.931 137.432C113.958 137.532 113.945 137.639 113.894 137.729C113.843 137.82 113.759 137.888 113.66 137.917L113.574 137.896Z" fill="#000201"/>
<path d="M123.789 137.503H95.8596V146.432H123.789V137.503Z" fill="white"/>
<path d="M123.789 147.253H95.8596C95.7514 147.254 95.6442 147.234 95.5441 147.193C95.444 147.152 95.3531 147.091 95.2766 147.015C95.2001 146.938 95.1397 146.848 95.0987 146.747C95.0578 146.647 95.0372 146.54 95.0381 146.432V137.503C95.0372 137.395 95.0578 137.288 95.0987 137.188C95.1397 137.088 95.2001 136.997 95.2766 136.92C95.3531 136.844 95.444 136.783 95.5441 136.742C95.6442 136.701 95.7514 136.681 95.8596 136.682H123.789C123.897 136.681 124.004 136.701 124.104 136.742C124.204 136.783 124.295 136.844 124.372 136.92C124.448 136.997 124.509 137.088 124.55 137.188C124.591 137.288 124.611 137.395 124.61 137.503V146.432C124.611 146.54 124.591 146.647 124.55 146.747C124.509 146.848 124.448 146.938 124.372 147.015C124.295 147.091 124.204 147.152 124.104 147.193C124.004 147.234 123.897 147.254 123.789 147.253ZM96.6453 145.61H122.932V138.325H96.6453V145.61Z" fill="#000201"/>
<path d="M186.505 134.575H172.933V148.147H186.505V134.575Z" fill="#99CDDD"/>
<path d="M169.29 139.789H160.933V148.146H169.29V139.789Z" fill="#99CDDD"/>
<path d="M177.005 143.004C176.957 143.007 176.909 143 176.864 142.983C176.82 142.967 176.779 142.94 176.745 142.907C176.711 142.873 176.685 142.832 176.668 142.787C176.651 142.743 176.644 142.695 176.647 142.647C176.646 142.573 176.665 142.501 176.703 142.438C176.741 142.375 176.796 142.323 176.862 142.29L183.933 139.79C184.026 139.76 184.127 139.767 184.215 139.809C184.303 139.851 184.372 139.924 184.408 140.014C184.444 140.105 184.445 140.205 184.41 140.296C184.375 140.387 184.307 140.461 184.219 140.504L177.005 143.004Z" fill="#000201"/>
<path d="M178.148 144.718C178.1 144.721 178.052 144.714 178.007 144.697C177.963 144.68 177.922 144.654 177.888 144.62C177.854 144.586 177.828 144.546 177.811 144.501C177.794 144.456 177.787 144.408 177.791 144.36C177.789 144.287 177.809 144.214 177.846 144.151C177.884 144.088 177.939 144.037 178.005 144.003L181.862 142.718C181.909 142.699 181.96 142.692 182.01 142.698C182.061 142.703 182.109 142.721 182.151 142.749C182.193 142.777 182.228 142.815 182.252 142.859C182.276 142.903 182.29 142.953 182.291 143.003C182.288 143.136 182.237 143.263 182.148 143.36L178.291 144.646L178.148 144.718Z" fill="#000201"/>
<path d="M156.29 149.361H151.433L163.29 111.074H168.147L156.29 149.361Z" fill="white"/>
<path d="M164.076 149.361H159.29L171.147 111.074H176.005L164.076 149.361Z" fill="white"/>
<path d="M188.362 150.161H140.861C140.649 150.161 140.445 150.077 140.295 149.927C140.145 149.777 140.061 149.574 140.061 149.361V111.075C140.061 110.862 140.145 110.659 140.295 110.509C140.445 110.359 140.649 110.275 140.861 110.275H188.362C188.574 110.275 188.778 110.359 188.928 110.509C189.078 110.659 189.162 110.862 189.162 111.075V149.361C189.162 149.574 189.078 149.777 188.928 149.927C188.778 150.077 188.574 150.161 188.362 150.161ZM141.661 148.576H187.562V111.875H141.661V148.576Z" fill="#000201"/>
<path d="M185.148 175.933C187.475 175.933 189.362 174.046 189.362 171.719C189.362 169.391 187.475 167.504 185.148 167.504C182.82 167.504 180.933 169.391 180.933 171.719C180.933 174.046 182.82 175.933 185.148 175.933Z" fill="#94B5BF"/>
<path d="M184.648 163.789C185.358 163.789 185.933 163.214 185.933 162.504C185.933 161.793 185.358 161.218 184.648 161.218C183.937 161.218 183.362 161.793 183.362 162.504C183.362 163.214 183.937 163.789 184.648 163.789Z" fill="#94B5BF"/>
<path d="M174.433 168.362C175.301 168.362 176.005 167.658 176.005 166.79C176.005 165.923 175.301 165.219 174.433 165.219C173.565 165.219 172.862 165.923 172.862 166.79C172.862 167.658 173.565 168.362 174.433 168.362Z" fill="#94B5BF"/>
<path d="M167.933 176.148C168.367 176.148 168.719 175.796 168.719 175.362C168.719 174.928 168.367 174.576 167.933 174.576C167.499 174.576 167.147 174.928 167.147 175.362C167.147 175.796 167.499 176.148 167.933 176.148Z" fill="#94B5BF"/>
<path d="M171.076 179.505C172.062 179.505 172.862 178.705 172.862 177.719C172.862 176.733 172.062 175.933 171.076 175.933C170.09 175.933 169.29 176.733 169.29 177.719C169.29 178.705 170.09 179.505 171.076 179.505Z" fill="#94B5BF"/>
<path d="M176.219 176.147C177.205 176.147 178.005 175.347 178.005 174.361C178.005 173.375 177.205 172.575 176.219 172.575C175.233 172.575 174.433 173.375 174.433 174.361C174.433 175.347 175.233 176.147 176.219 176.147Z" fill="#94B5BF"/>
<path d="M197.22 176.861H162.29V181.29H197.22V176.861Z" fill="#94B5BF"/>
<path d="M197.362 183.898H69.5732C69.4651 183.899 69.3578 183.878 69.2577 183.837C69.1576 183.796 69.0667 183.736 68.9902 183.659C68.9137 183.583 68.8533 183.492 68.8123 183.392C68.7714 183.292 68.7508 183.184 68.7517 183.076V173.076C68.7517 172.858 68.8383 172.649 68.9923 172.495C69.1464 172.341 69.3553 172.255 69.5732 172.255C69.7911 172.255 70 172.341 70.154 172.495C70.3081 172.649 70.3946 172.858 70.3946 173.076V182.255H196.541V97.717C196.541 97.4991 196.627 97.2902 196.781 97.1361C196.935 96.9821 197.144 96.8955 197.362 96.8955C197.58 96.8955 197.789 96.9821 197.943 97.1361C198.097 97.2902 198.184 97.4991 198.184 97.717V183.076C198.185 183.184 198.164 183.292 198.123 183.392C198.082 183.492 198.022 183.583 197.945 183.659C197.869 183.736 197.778 183.796 197.678 183.837C197.578 183.878 197.47 183.899 197.362 183.898Z" fill="#000201"/>
<path d="M213.148 181.291H28.072V189.863H213.148V181.291Z" fill="#D9E1E4"/>
<path d="M213.148 181.291H28.072V185.434H213.148V181.291Z" fill="white"/>
<path d="M213.148 191.254H28.0722C27.9641 191.255 27.8568 191.235 27.7567 191.194C27.6566 191.153 27.5657 191.092 27.4892 191.016C27.4128 190.939 27.3523 190.849 27.3114 190.748C27.2704 190.648 27.2498 190.541 27.2508 190.433V181.861C27.2498 181.753 27.2704 181.646 27.3114 181.546C27.3523 181.446 27.4128 181.355 27.4892 181.278C27.5657 181.202 27.6566 181.141 27.7567 181.1C27.8568 181.059 27.9641 181.039 28.0722 181.04H213.148C213.257 181.039 213.364 181.059 213.464 181.1C213.564 181.141 213.655 181.202 213.731 181.278C213.808 181.355 213.868 181.446 213.909 181.546C213.95 181.646 213.971 181.753 213.97 181.861V190.433C213.971 190.541 213.95 190.648 213.909 190.748C213.868 190.849 213.808 190.939 213.731 191.016C213.655 191.092 213.564 191.153 213.464 191.194C213.364 191.235 213.257 191.255 213.148 191.254ZM28.8937 189.611H212.327V182.683H28.8937V189.611Z" fill="#000201"/>
<path d="M208.013 87.6732L179.326 53.9437H87.0808L60.423 85.2946C59.6631 86.0049 58.9475 86.7611 58.2801 87.5589C58.007 87.9781 57.8178 88.4463 57.7229 88.9375H57.6586V89.3447C57.6157 89.7244 57.6157 90.1078 57.6586 90.4875V92.2376C57.7423 94.4193 58.6743 96.4821 60.2561 97.9869C61.8379 99.4918 63.9446 100.32 66.1277 100.295C68.3108 100.269 70.3979 99.3932 71.9447 97.8523C73.4914 96.3115 74.3756 94.2277 74.4091 92.0447V90.8304V92.259C74.4928 94.4407 75.4247 96.5035 77.0065 98.0084C78.5883 99.5132 80.695 100.341 82.8782 100.316C85.0613 100.291 87.1484 99.4146 88.6951 97.8738C90.2418 96.3329 91.1261 94.2492 91.1595 92.0662V91.0518V92.259C91.2432 94.4407 92.1752 96.5035 93.757 98.0084C95.3388 99.5132 97.4455 100.341 99.6286 100.316C101.812 100.291 103.899 99.4146 105.446 97.8738C106.992 96.3329 107.877 94.2492 107.91 92.0662V91.259V92.259C107.994 94.4407 108.926 96.5035 110.507 98.0084C112.089 99.5132 114.196 100.341 116.379 100.316C118.562 100.291 120.649 99.4146 122.196 97.8738C123.743 96.3329 124.627 94.2492 124.66 92.0662V91.4304V92.2233C124.744 94.405 125.676 96.4678 127.258 97.9726C128.84 99.4775 130.946 100.305 133.129 100.28C135.313 100.255 137.4 99.3789 138.946 97.838C140.493 96.2972 141.377 94.2135 141.411 92.0304V91.6376V92.2233C141.495 94.405 142.426 96.4678 144.008 97.9726C145.59 99.4775 147.697 100.305 149.88 100.28C152.063 100.255 154.15 99.3789 155.697 97.838C157.244 96.2972 158.128 94.2135 158.161 92.0304V91.8447V92.2233C158.243 94.4043 159.173 96.4672 160.753 97.9731C162.332 99.4791 164.437 100.309 166.62 100.287C168.802 100.265 170.89 99.3915 172.438 97.8535C173.987 96.3156 174.874 94.2341 174.912 92.0519V92.2233C174.995 94.405 175.927 96.4678 177.509 97.9726C179.091 99.4775 181.198 100.305 183.381 100.28C185.564 100.255 187.651 99.3789 189.198 97.838C190.744 96.2972 191.629 94.2135 191.662 92.0304V88.9089V92.2162C191.645 93.3353 191.852 94.4465 192.272 95.4842C192.691 96.5219 193.314 97.465 194.104 98.2579C194.894 99.0509 195.835 99.6775 196.871 100.101C197.907 100.524 199.017 100.736 200.136 100.723C201.256 100.71 202.361 100.473 203.387 100.026C204.413 99.5787 205.339 98.9306 206.111 98.1197C206.882 97.3088 207.483 96.3516 207.879 95.3045C208.274 94.2574 208.455 93.1417 208.413 92.0233V88.9089L208.013 87.6732ZM96.8168 54.2866H96.4311L96.5096 54.1723L96.8168 54.2866Z" fill="#D6393A"/>
<path d="M157.147 54.0806L172.362 88.9386C172.362 88.9386 174.833 96.0317 168.319 100.289L171.269 99.2175C171.269 99.2175 177.498 94.7102 173.333 84.8242C169.169 74.9383 159.511 54.5163 159.511 54.5163L157.147 54.0806Z" fill="#A01D29"/>
<path d="M137.218 54.2869L141.125 86.8734L141.354 91.2307C141.354 91.2307 140.154 98.3095 146.032 99.7023L148.461 100.638C148.461 100.638 154.433 101.095 156.725 96.5094C159.018 91.9236 157.875 88.9378 157.875 88.9378L148.461 54.5154L137.218 54.2869Z" fill="white"/>
<path d="M156.49 96.5101C154.775 99.3316 151.354 101.16 148.118 100.524C149.497 100.796 151.482 99.7459 152.547 98.9601C153.908 97.9053 154.907 96.4521 155.404 94.8029C156.89 90.6099 155.075 86.1455 153.975 81.9954L150.718 69.9451L146.611 54.5161L136.968 54.3232L148.211 54.5518L152.997 72.0451L156.025 83.124C157.211 87.4598 159.004 91.9528 156.625 96.2529L156.49 96.5101Z" fill="#C8D3D9"/>
<path d="M177.376 54.2869L205.827 89.6235C205.827 89.6235 209.613 98.5452 199.919 100.51C199.919 100.51 208.584 101.56 208.355 89.8521L207.641 87.5592L178.983 54.2869H177.376Z" fill="#A01D29"/>
<path d="M96.4955 53.9437L74.2377 87.6732V91.1161C74.2377 91.1161 72.8591 100.066 81.5808 100.752C90.3024 101.438 91.131 93.2019 91.131 93.2019L90.9882 89.2804L91.4453 86.7589L106.36 54.1723L96.4955 53.9437Z" fill="white"/>
<path d="M116.796 54.0579L107.86 87.5588L107.396 90.7732C107.396 90.7732 107.539 99.0591 113.66 100.309C119.782 101.559 122.403 98.2662 123.046 97.1591C123.689 96.0519 124.382 90.5446 124.382 90.5446L128.053 53.8293L116.796 54.0579Z" fill="white"/>
<path d="M158.79 54.5154L174.39 87.3306L174.854 93.4736C174.854 93.4736 175.333 100.867 182.09 100.617C188.848 100.367 191.376 93.9165 191.376 93.9165V89.6307L169.119 54.2869L158.79 54.5154Z" fill="white"/>
<path d="M167.304 54.6156L187.698 86.5093C188.57 87.8483 189.168 89.3477 189.455 90.9199C189.742 92.4922 189.713 94.1058 189.369 95.6667C188.969 97.4453 188.134 99.1025 186.512 99.8311C186.512 99.8311 192.741 98.1025 191.462 89.7309C191.012 86.8165 187.176 82.1307 183.798 76.7662C177.148 66.216 168.997 53.9871 168.997 53.9871L167.304 54.6156Z" fill="#C8D3D9"/>
<path d="M135.975 53.8293L139.289 88.7088C139.289 88.7088 140.589 99.8234 132.025 100.345C132.025 100.345 141.825 102.023 141.475 89.2874C141.125 76.5514 137.189 54.0579 137.189 54.0579L135.975 53.8293Z" fill="#A01D29"/>
<path d="M125.975 54.2874L121.846 87.3311C122.578 89.693 122.551 92.2249 121.77 94.5709C120.988 96.9169 119.491 98.9589 117.489 100.41L121.846 98.5742L124.139 93.5241C124.139 93.5241 128.046 54.5159 127.582 54.2874C127.053 54.1677 126.504 54.1677 125.975 54.2874Z" fill="#C8D3D9"/>
<path d="M114.96 54.059L105.553 88.7099C105.553 88.7099 108.082 96.5101 101.16 100.653C101.16 100.653 109.224 98.1173 107.51 89.4742C107.51 89.4742 117.717 54.5162 117.26 54.2876C116.506 54.119 115.733 54.0423 114.96 54.059Z" fill="#A01D29"/>
<path d="M104.638 54.2876L88.5736 88.4813C88.5736 88.4813 92.6666 96.0101 83.7378 100.732C83.7378 100.732 92.0166 99.0316 90.8808 89.3956L106.71 54.059L104.567 53.9019L104.638 54.2876Z" fill="#C8D3D9"/>
<path d="M94.1953 53.9939L71.8233 88.0162C71.8233 88.0162 72.9733 98.8022 65.1731 100.874C65.1731 100.874 75.4948 99.9594 74.1233 89.402L96.1453 54.2868L94.1953 53.9939Z" fill="#A01D29"/>
<path d="M132.811 101.324C130.455 101.326 128.193 100.398 126.517 98.7422C124.842 97.0864 123.887 94.8362 123.86 92.4805V89.1661C123.876 89.0247 123.944 88.894 124.05 88.7991C124.156 88.7042 124.293 88.6517 124.435 88.6517C124.578 88.6517 124.715 88.7042 124.821 88.7991C124.927 88.894 124.995 89.0247 125.01 89.1661V92.4734C125.035 94.5421 125.88 96.5163 127.361 97.9617C128.841 99.4071 130.835 100.205 132.903 100.181C134.972 100.156 136.946 99.3107 138.392 97.8304C139.837 96.3502 140.635 94.3564 140.611 92.2876V89.1661C140.627 89.0247 140.694 88.894 140.8 88.7991C140.906 88.7042 141.043 88.6517 141.186 88.6517C141.328 88.6517 141.465 88.7042 141.572 88.7991C141.678 88.894 141.745 89.0247 141.761 89.1661V92.2805C141.786 94.6518 140.868 96.9361 139.21 98.6316C137.552 100.327 135.289 101.295 132.918 101.324H132.811Z" fill="#000201"/>
<path d="M149.561 101.324C147.205 101.326 144.944 100.398 143.268 98.7422C141.592 97.0864 140.637 94.8362 140.611 92.4805V89.1661C140.627 89.0247 140.694 88.894 140.8 88.7991C140.906 88.7042 141.044 88.6517 141.186 88.6517C141.328 88.6517 141.466 88.7042 141.572 88.7991C141.678 88.894 141.745 89.0247 141.761 89.1661V92.4734C141.785 94.5421 142.631 96.5163 144.111 97.9617C145.591 99.4071 147.585 100.205 149.654 100.181C151.723 100.156 153.697 99.3107 155.142 97.8304C156.588 96.3502 157.386 94.3564 157.361 92.2876V89.1661C157.377 89.0247 157.444 88.894 157.551 88.7991C157.657 88.7042 157.794 88.6517 157.936 88.6517C158.079 88.6517 158.216 88.7042 158.322 88.7991C158.428 88.894 158.496 89.0247 158.511 89.1661V92.2805C158.536 94.6518 157.619 96.9361 155.961 98.6316C154.303 100.327 152.04 101.295 149.668 101.324H149.561Z" fill="#000201"/>
<path d="M166.312 101.324C163.956 101.326 161.694 100.398 160.018 98.7422C158.342 97.0864 157.388 94.8362 157.361 92.4805V89.1661C157.377 89.0247 157.444 88.894 157.551 88.7991C157.657 88.7042 157.794 88.6517 157.936 88.6517C158.079 88.6517 158.216 88.7042 158.322 88.7991C158.428 88.894 158.496 89.0247 158.511 89.1661V92.4734C158.536 94.5421 159.381 96.5163 160.862 97.9617C162.342 99.4071 164.336 100.205 166.404 100.181C168.473 100.156 170.447 99.3107 171.893 97.8304C173.338 96.3502 174.136 94.3564 174.112 92.2876V89.1661C174.128 89.0247 174.195 88.894 174.301 88.7991C174.407 88.7042 174.544 88.6517 174.687 88.6517C174.829 88.6517 174.966 88.7042 175.073 88.7991C175.179 88.894 175.246 89.0247 175.262 89.1661V92.2805C175.287 94.6494 174.371 96.9315 172.716 98.6266C171.061 100.322 168.802 101.292 166.433 101.324H166.312Z" fill="#000201"/>
<path d="M183.062 101.324C180.706 101.326 178.444 100.398 176.769 98.7422C175.093 97.0864 174.138 94.8362 174.112 92.4805V89.1661C174.127 89.0247 174.195 88.894 174.301 88.7991C174.407 88.7042 174.544 88.6517 174.687 88.6517C174.829 88.6517 174.966 88.7042 175.072 88.7991C175.178 88.894 175.246 89.0247 175.262 89.1661V92.4734C175.286 94.5421 176.132 96.5163 177.612 97.9617C179.092 99.4071 181.086 100.205 183.155 100.181C185.223 100.156 187.198 99.3107 188.643 97.8304C190.088 96.3502 190.887 94.3564 190.862 92.2876V89.1661C190.878 89.0247 190.945 88.894 191.051 88.7991C191.157 88.7042 191.295 88.6517 191.437 88.6517C191.579 88.6517 191.717 88.7042 191.823 88.7991C191.929 88.894 191.996 89.0247 192.012 89.1661V92.2805C192.037 94.6518 191.119 96.9361 189.461 98.6316C187.803 100.327 185.54 101.295 183.169 101.324H183.062Z" fill="#000201"/>
<path d="M199.812 101.324C197.456 101.326 195.195 100.398 193.519 98.7422C191.843 97.0864 190.888 94.8362 190.862 92.4805V89.1661C190.878 89.0247 190.945 88.894 191.051 88.7991C191.157 88.7042 191.295 88.6517 191.437 88.6517C191.579 88.6517 191.717 88.7042 191.823 88.7991C191.929 88.894 191.996 89.0247 192.012 89.1661V92.4734C192.037 94.5421 192.882 96.5163 194.362 97.9617C195.843 99.4071 197.836 100.205 199.905 100.181C201.974 100.156 203.948 99.3107 205.394 97.8304C206.839 96.3502 207.637 94.3564 207.612 92.2876V89.1661C207.628 89.0247 207.696 88.894 207.802 88.7991C207.908 88.7042 208.045 88.6517 208.187 88.6517C208.33 88.6517 208.467 88.7042 208.573 88.7991C208.679 88.894 208.747 89.0247 208.763 89.1661V92.2805C208.787 94.6518 207.87 96.9361 206.212 98.6316C204.554 100.327 202.291 101.295 199.919 101.324H199.812Z" fill="#000201"/>
<path d="M116.06 101.324C113.711 101.316 111.458 100.384 109.79 98.7297C108.122 97.0749 107.172 94.83 107.146 92.4805V89.1661C107.162 89.0247 107.229 88.894 107.335 88.7991C107.441 88.7042 107.578 88.6517 107.721 88.6517C107.863 88.6517 108 88.7042 108.107 88.7991C108.213 88.894 108.28 89.0247 108.296 89.1661V92.4734C108.32 94.5421 109.166 96.5163 110.646 97.9617C112.126 99.4071 114.12 100.205 116.189 100.181C118.258 100.156 120.232 99.3107 121.677 97.8304C123.123 96.3502 123.921 94.3564 123.896 92.2876V89.1661C123.912 89.0247 123.979 88.894 124.085 88.7991C124.192 88.7042 124.329 88.6517 124.471 88.6517C124.614 88.6517 124.751 88.7042 124.857 88.7991C124.963 88.894 125.03 89.0247 125.046 89.1661V92.2805C125.071 94.6518 124.154 96.9361 122.496 98.6316C120.838 100.327 118.574 101.295 116.203 101.324H116.06Z" fill="#000201"/>
<path d="M99.2881 101.324C96.9323 101.326 94.6707 100.398 92.9949 98.7422C91.319 97.0864 90.3642 94.8362 90.3379 92.4805V89.1661C90.3537 89.0247 90.4211 88.894 90.5271 88.7991C90.6332 88.7042 90.7706 88.6517 90.9129 88.6517C91.0552 88.6517 91.1926 88.7042 91.2987 88.7991C91.4048 88.894 91.4721 89.0247 91.4879 89.1661V92.4734C91.5001 93.5015 91.7147 94.5171 92.1194 95.4622C92.5241 96.4074 93.111 97.2636 93.8466 97.9819C94.5822 98.7003 95.452 99.2667 96.4065 99.6489C97.361 100.031 98.3815 100.221 99.4096 100.209C100.438 100.197 101.453 99.9825 102.398 99.5778C103.344 99.1731 104.2 98.5862 104.918 97.8506C105.636 97.115 106.203 96.2451 106.585 95.2906C106.967 94.3361 107.158 93.3157 107.145 92.2876V89.1661C107.161 89.0247 107.229 88.894 107.335 88.7991C107.441 88.7042 107.578 88.6517 107.72 88.6517C107.863 88.6517 108 88.7042 108.106 88.7991C108.212 88.894 108.28 89.0247 108.296 89.1661V92.2805C108.32 94.6518 107.403 96.9361 105.745 98.6316C104.087 100.327 101.824 101.295 99.4524 101.324H99.2881Z" fill="#000201"/>
<path d="M82.5594 101.324C80.2035 101.326 77.942 100.398 76.2661 98.7422C74.5903 97.0864 73.6355 94.8362 73.6091 92.4805V89.1661C73.6249 89.0247 73.6923 88.894 73.7984 88.7991C73.9045 88.7042 74.0418 88.6517 74.1841 88.6517C74.3265 88.6517 74.4638 88.7042 74.5699 88.7991C74.676 88.894 74.7434 89.0247 74.7592 89.1661V92.4734C74.7838 94.5421 75.6292 96.5163 77.1094 97.9617C78.5897 99.4071 80.5835 100.205 82.6522 100.181C84.721 100.156 86.6952 99.3107 88.1406 97.8304C89.586 96.3502 90.3842 94.3564 90.3596 92.2876V89.1661C90.3754 89.0247 90.4427 88.894 90.5488 88.7991C90.6549 88.7042 90.7922 88.6517 90.9346 88.6517C91.0769 88.6517 91.2143 88.7042 91.3203 88.7991C91.4264 88.894 91.4938 89.0247 91.5096 89.1661V92.2805C91.5344 94.6518 90.617 96.9361 88.959 98.6316C87.301 100.327 85.0378 101.295 82.6665 101.324H82.5594Z" fill="#000201"/>
<path d="M65.8089 101.324C63.453 101.326 61.1915 100.398 59.5156 98.7422C57.8398 97.0864 56.885 94.8362 56.8586 92.4805V89.1661C56.8744 89.0247 56.9418 88.894 57.0479 88.7991C57.154 88.7042 57.2913 88.6517 57.4337 88.6517C57.576 88.6517 57.7133 88.7042 57.8194 88.7991C57.9255 88.894 57.9929 89.0247 58.0087 89.1661V92.4734C58.0333 94.5421 58.8787 96.5163 60.359 97.9617C61.8392 99.4071 63.833 100.205 65.9017 100.181C67.9705 100.156 69.9447 99.3107 71.3901 97.8304C72.8355 96.3502 73.6337 94.3564 73.6091 92.2876V89.1661C73.6249 89.0247 73.6923 88.894 73.7983 88.7991C73.9044 88.7042 74.0418 88.6517 74.1841 88.6517C74.3264 88.6517 74.4638 88.7042 74.5699 88.7991C74.6759 88.894 74.7433 89.0247 74.7591 89.1661V92.2805C74.7839 94.6518 73.8665 96.9361 72.2085 98.6316C70.5505 100.327 68.2873 101.295 65.916 101.324H65.8089Z" fill="#000201"/>
<path d="M124.489 88.0168H124.425C124.35 88.0097 124.277 87.9877 124.211 87.9521C124.144 87.9165 124.086 87.8679 124.039 87.8094C123.991 87.7508 123.956 87.6834 123.936 87.611C123.915 87.5387 123.909 87.463 123.918 87.3882L127.353 54.1159C127.371 53.9642 127.448 53.8256 127.567 53.7295C127.685 53.6334 127.837 53.5875 127.989 53.6016C128.142 53.6178 128.281 53.6939 128.378 53.8131C128.474 53.9323 128.519 54.0849 128.503 54.2374L125.06 87.5097C125.046 87.6504 124.979 87.7807 124.874 87.8747C124.768 87.9686 124.63 88.0193 124.489 88.0168Z" fill="#000201"/>
<path d="M138.939 67.9437C138.799 67.9399 138.664 67.886 138.559 67.7918C138.454 67.6975 138.387 67.5691 138.368 67.4294L136.997 54.2291C136.989 54.154 136.996 54.0783 137.018 54.0061C137.04 53.9339 137.076 53.8667 137.123 53.8083C137.171 53.7499 137.23 53.7015 137.296 53.6659C137.363 53.6302 137.436 53.608 137.511 53.6005C137.586 53.593 137.662 53.6004 137.734 53.6221C137.806 53.6439 137.873 53.6797 137.932 53.7275C137.99 53.7752 138.038 53.834 138.074 53.9005C138.11 53.9669 138.132 54.0398 138.139 54.1148L139.518 67.308C139.532 67.4593 139.486 67.6101 139.39 67.7277C139.293 67.8453 139.155 67.9204 139.004 67.9366L138.939 67.9437Z" fill="#000201"/>
<path d="M139.675 75.1451C139.534 75.1427 139.398 75.0893 139.293 74.9948C139.188 74.9003 139.121 74.771 139.104 74.6308L138.711 70.8664C138.704 70.7182 138.754 70.5729 138.851 70.4605C138.948 70.3481 139.084 70.2773 139.232 70.2626C139.379 70.2479 139.527 70.2905 139.644 70.3817C139.761 70.4728 139.839 70.6054 139.861 70.7521L140.247 74.5094C140.256 74.5841 140.249 74.6598 140.229 74.7322C140.208 74.8045 140.173 74.8719 140.125 74.9305C140.078 74.9891 140.02 75.0376 139.953 75.0732C139.887 75.1088 139.814 75.1309 139.739 75.1379H139.675V75.1451Z" fill="#000201"/>
<path d="M141.004 88.017C140.862 88.0161 140.725 87.9633 140.62 87.8685C140.515 87.7737 140.448 87.6435 140.432 87.5027L139.653 79.8954C139.646 79.8203 139.653 79.7445 139.675 79.6723C139.697 79.6001 139.733 79.5329 139.78 79.4745C139.828 79.4162 139.887 79.3678 139.953 79.3321C140.02 79.2965 140.093 79.2743 140.168 79.2668C140.243 79.2593 140.319 79.2666 140.391 79.2884C140.463 79.3102 140.53 79.346 140.589 79.3937C140.647 79.4415 140.695 79.5003 140.731 79.5667C140.767 79.6332 140.789 79.706 140.796 79.7811L141.582 87.3884C141.598 87.539 141.554 87.6898 141.459 87.8077C141.364 87.9255 141.226 88.0008 141.075 88.017H141.004Z" fill="#000201"/>
<path d="M157.526 88.4804C157.4 88.4796 157.277 88.4372 157.178 88.3597C157.078 88.2822 157.007 88.1739 156.976 88.0518L148.025 54.3223C147.987 54.1755 148.008 54.0193 148.084 53.888C148.16 53.7567 148.286 53.6611 148.433 53.6223C148.579 53.5835 148.736 53.6046 148.867 53.6809C148.998 53.7573 149.094 53.8826 149.133 54.0295L158.083 87.7589C158.104 87.8326 158.111 87.9098 158.102 87.986C158.093 88.0622 158.069 88.1358 158.031 88.2025C157.993 88.2692 157.942 88.3275 157.881 88.374C157.82 88.4205 157.75 88.4543 157.676 88.4732C157.626 88.4825 157.576 88.485 157.526 88.4804Z" fill="#000201"/>
<path d="M174.505 88.481C174.396 88.4798 174.29 88.4476 174.198 88.3881C174.107 88.3286 174.035 88.2444 173.99 88.1453L158.611 54.4158C158.548 54.2765 158.543 54.118 158.596 53.9747C158.65 53.8315 158.758 53.7153 158.897 53.6515C158.965 53.6205 159.039 53.6032 159.114 53.6008C159.19 53.5983 159.265 53.6107 159.335 53.6373C159.405 53.6638 159.47 53.704 159.524 53.7554C159.579 53.8069 159.623 53.8687 159.654 53.9373L175.005 87.6667C175.042 87.7549 175.057 87.851 175.049 87.9465C175.04 88.0419 175.009 88.1339 174.957 88.2143C174.904 88.2947 174.833 88.361 174.75 88.4075C174.666 88.454 174.572 88.4793 174.476 88.481H174.505Z" fill="#000201"/>
<path d="M91.2167 88.4801C91.1376 88.4755 91.0601 88.4561 90.9882 88.423C90.9196 88.3921 90.8578 88.348 90.8063 88.2932C90.7549 88.2384 90.7147 88.174 90.6882 88.1037C90.6616 88.0334 90.6492 87.9585 90.6517 87.8833C90.6541 87.8082 90.6714 87.7343 90.7024 87.6658L106.074 53.9364C106.106 53.8679 106.15 53.8063 106.206 53.755C106.261 53.7038 106.326 53.6639 106.396 53.6377C106.467 53.6115 106.542 53.5995 106.617 53.6023C106.693 53.6052 106.767 53.6228 106.835 53.6542C106.903 53.6856 106.965 53.7302 107.016 53.7855C107.068 53.8407 107.107 53.9055 107.134 53.9761C107.16 54.0468 107.172 54.1219 107.169 54.1972C107.166 54.2725 107.149 54.3465 107.117 54.415L91.7453 88.1444C91.6994 88.2457 91.625 88.3315 91.5311 88.3911C91.4372 88.4508 91.3279 88.4817 91.2167 88.4801Z" fill="#000201"/>
<path d="M89.1667 65.8723C89.092 65.8733 89.0178 65.8594 88.9485 65.8315C88.8792 65.8035 88.8162 65.7621 88.763 65.7096C88.7099 65.6571 88.6676 65.5946 88.6388 65.5257C88.61 65.4567 88.5952 65.3827 88.5952 65.308C88.5973 65.1946 88.6293 65.0837 88.6881 64.9866L95.7811 54.0935C95.8188 54.028 95.8691 53.9706 95.9291 53.9247C95.9891 53.8787 96.0577 53.8452 96.1307 53.8259C96.2038 53.8066 96.28 53.802 96.3549 53.8124C96.4297 53.8228 96.5018 53.8479 96.5669 53.8863C96.6977 53.9638 96.7928 54.0897 96.8316 54.2367C96.8703 54.3837 96.8497 54.5401 96.774 54.672V54.7149L89.681 65.6152C89.6256 65.6997 89.5489 65.768 89.4585 65.8132C89.3682 65.8583 89.2675 65.8788 89.1667 65.8723Z" fill="#000201"/>
<path d="M84.3593 73.2584C84.2846 73.2593 84.2104 73.2454 84.1411 73.2175C84.0719 73.1895 84.0088 73.1481 83.9556 73.0956C83.9025 73.0431 83.8603 72.9806 83.8315 72.9117C83.8027 72.8427 83.7878 72.7688 83.7878 72.6941C83.7899 72.5806 83.8219 72.4697 83.8807 72.3726L86.8665 67.7868C86.907 67.7231 86.9599 67.6681 87.022 67.6252C87.0842 67.5823 87.1543 67.5523 87.2282 67.537C87.3021 67.5217 87.3784 67.5214 87.4525 67.536C87.5265 67.5507 87.5969 67.5801 87.6594 67.6225C87.7862 67.7058 87.8752 67.8356 87.9073 67.9839C87.9394 68.1322 87.9119 68.2871 87.8308 68.4154L84.845 73.0012C84.7937 73.0829 84.7218 73.1497 84.6366 73.1948C84.5513 73.2399 84.4557 73.2619 84.3593 73.2584Z" fill="#000201"/>
<path d="M74.4663 88.4814C74.3146 88.4796 74.1696 88.419 74.0617 88.3125C73.9537 88.2059 73.8914 88.0616 73.8877 87.91C73.8881 87.7974 73.923 87.6877 73.9877 87.5957L82.0808 75.1453C82.1708 75.034 82.299 74.96 82.4404 74.9377C82.5819 74.9154 82.7266 74.9464 82.8465 75.0246C82.9665 75.1027 83.0532 75.2227 83.0899 75.3611C83.1265 75.4995 83.1106 75.6466 83.0451 75.7739L74.9449 88.2171C74.8935 88.2977 74.8228 88.364 74.7392 88.4102C74.6556 88.4564 74.5618 88.4809 74.4663 88.4814Z" fill="#000201"/>
<path d="M191.026 88.4811C190.931 88.4806 190.837 88.4561 190.753 88.4099C190.67 88.3638 190.599 88.2974 190.548 88.2168L168.754 54.716C168.707 54.6553 168.672 54.5855 168.652 54.511C168.632 54.4364 168.627 54.3586 168.638 54.2821C168.649 54.2057 168.675 54.1323 168.715 54.0664C168.755 54.0004 168.809 53.9432 168.871 53.8983C168.934 53.8534 169.005 53.8217 169.081 53.805C169.156 53.7884 169.234 53.7872 169.31 53.8016C169.386 53.8159 169.458 53.8454 169.522 53.8884C169.586 53.9314 169.641 53.9869 169.683 54.0517V54.0945L191.483 87.5954C191.565 87.7236 191.592 87.8786 191.56 88.0269C191.528 88.1752 191.439 88.305 191.312 88.3883C191.226 88.443 191.128 88.4749 191.026 88.4811Z" fill="#000201"/>
<path d="M207.777 88.4813C207.694 88.4792 207.612 88.4597 207.537 88.424C207.462 88.3883 207.395 88.3373 207.341 88.2741L178.662 54.5447C178.558 54.4338 178.502 54.2862 178.506 54.1341C178.511 53.9821 178.576 53.8381 178.687 53.7339C178.798 53.6297 178.945 53.5738 179.097 53.5785C179.249 53.5832 179.393 53.6481 179.498 53.7589L179.533 53.8018L208.213 87.5312C208.261 87.5884 208.299 87.6547 208.322 87.7262C208.345 87.7978 208.354 87.8732 208.348 87.9482C208.342 88.0232 208.321 88.0962 208.287 88.1632C208.253 88.2302 208.206 88.2897 208.148 88.3384C208.047 88.4307 207.914 88.4817 207.777 88.4813Z" fill="#000201"/>
<path d="M58.173 88.481C58.0214 88.4773 57.8771 88.415 57.7705 88.3071C57.6639 88.1991 57.6034 88.0541 57.6016 87.9024C57.603 87.7667 57.6509 87.6356 57.7373 87.531L86.4309 53.8015C86.5392 53.6942 86.6856 53.634 86.838 53.634C86.9905 53.634 87.1369 53.6942 87.2452 53.8015C87.3492 53.8983 87.4128 54.0308 87.4234 54.1725C87.434 54.3142 87.3908 54.4546 87.3023 54.5658L58.6087 88.2739C58.5553 88.3377 58.4887 88.3893 58.4135 88.425C58.3383 88.4608 58.2563 88.4799 58.173 88.481Z" fill="#000201"/>
<path d="M111.574 74.8727C111.525 74.8797 111.474 74.8797 111.424 74.8727C111.35 74.8528 111.281 74.8186 111.221 74.7718C111.16 74.7251 111.11 74.6669 111.072 74.6004C111.034 74.534 111.01 74.4608 111 74.3849C110.991 74.309 110.997 74.232 111.017 74.1584L116.36 54.0364C116.379 53.9637 116.413 53.8955 116.458 53.8357C116.504 53.7759 116.561 53.7257 116.626 53.6879C116.691 53.6501 116.763 53.6254 116.837 53.6154C116.912 53.6053 116.987 53.61 117.06 53.6293C117.133 53.6485 117.201 53.6819 117.261 53.7274C117.321 53.773 117.371 53.8299 117.409 53.895C117.447 53.96 117.471 54.0318 117.481 54.1063C117.491 54.1808 117.487 54.2566 117.467 54.3293L112.146 74.4512C112.113 74.5763 112.039 74.6864 111.935 74.7631C111.831 74.8398 111.703 74.8785 111.574 74.8727Z" fill="#000201"/>
<path d="M107.967 88.4803C107.917 88.4872 107.867 88.4872 107.817 88.4803C107.743 88.4613 107.673 88.4276 107.612 88.381C107.551 88.3345 107.5 88.2762 107.462 88.2095C107.424 88.1429 107.4 88.0693 107.391 87.993C107.382 87.9168 107.388 87.8396 107.41 87.766L109.874 78.48C109.891 78.4064 109.922 78.3367 109.965 78.2749C110.008 78.2132 110.063 78.1606 110.127 78.1201C110.191 78.0797 110.262 78.0521 110.336 78.0391C110.41 78.0261 110.486 78.0279 110.56 78.0443C110.634 78.0607 110.703 78.0915 110.765 78.1348C110.827 78.1781 110.88 78.2332 110.92 78.2969C110.96 78.3606 110.988 78.4316 111.001 78.5059C111.014 78.5802 111.012 78.6564 110.996 78.73C110.996 78.73 110.996 78.73 110.996 78.7729L108.531 88.0588C108.498 88.182 108.424 88.2904 108.322 88.3668C108.22 88.4432 108.095 88.4831 107.967 88.4803Z" fill="#000201"/>
<path d="M179.097 54.7434H86.8522C86.7006 54.7434 86.5553 54.6831 86.4481 54.576C86.341 54.4688 86.2808 54.3235 86.2808 54.1719C86.2808 54.0203 86.341 53.875 86.4481 53.7678C86.5553 53.6607 86.7006 53.6005 86.8522 53.6005H179.097C179.173 53.6005 179.247 53.6152 179.316 53.644C179.386 53.6727 179.448 53.7148 179.502 53.7678C179.555 53.8209 179.597 53.8839 179.625 53.9532C179.654 54.0226 179.669 54.0969 179.669 54.1719C179.669 54.2469 179.654 54.3213 179.625 54.3906C179.597 54.4599 179.555 54.5229 179.502 54.576C179.448 54.629 179.386 54.6711 179.316 54.6999C179.247 54.7286 179.173 54.7434 179.097 54.7434Z" fill="#000201"/>
<path d="M112.746 70.3375C112.655 70.3357 112.568 70.2992 112.503 70.2355C112.438 70.1718 112.399 70.0856 112.396 69.9946C112.394 69.9217 112.416 69.8501 112.459 69.7908C112.501 69.7315 112.562 69.6877 112.632 69.666L119.132 67.4017C119.219 67.3719 119.314 67.3778 119.397 67.4179C119.48 67.458 119.544 67.5292 119.575 67.616C119.604 67.7012 119.599 67.7948 119.561 67.8764C119.522 67.958 119.452 68.021 119.367 68.0517L112.86 70.316C112.823 70.3293 112.785 70.3365 112.746 70.3375Z" fill="#000201"/>
<path d="M113.846 71.9233C113.799 71.9303 113.751 71.928 113.705 71.9166C113.659 71.9051 113.616 71.8847 113.578 71.8565C113.501 71.7996 113.449 71.7144 113.435 71.6197C113.421 71.525 113.445 71.4285 113.502 71.3514C113.559 71.2744 113.644 71.2232 113.739 71.209L117.31 70.0232C117.394 69.99 117.487 69.9909 117.57 70.0256C117.652 70.0603 117.718 70.1261 117.753 70.2089C117.787 70.2934 117.786 70.3875 117.751 70.4715C117.717 70.5555 117.651 70.6227 117.567 70.6589H117.525L113.953 71.8518C113.92 71.8798 113.884 71.9038 113.846 71.9233Z" fill="#000201"/>
<path d="M113.524 93.0022C113.467 93.0025 113.41 92.9877 113.36 92.9593L108.181 90.245C108.141 90.2247 108.105 90.1963 108.075 90.1617C108.046 90.127 108.024 90.0868 108.011 90.0434C107.997 90 107.993 89.9543 107.998 89.9092C108.003 89.864 108.016 89.8203 108.039 89.7807C108.06 89.7407 108.088 89.7054 108.123 89.6765C108.158 89.6477 108.198 89.6261 108.241 89.6128C108.284 89.5995 108.33 89.5949 108.375 89.5992C108.419 89.6035 108.463 89.6166 108.503 89.6378L113.682 92.3521C113.76 92.3946 113.819 92.4662 113.846 92.5517C113.873 92.6371 113.865 92.7295 113.824 92.8093C113.798 92.8669 113.756 92.9158 113.703 92.95C113.65 92.9842 113.588 93.0023 113.524 93.0022Z" fill="#000201"/>
<path d="M110.474 93.0517C110.417 93.0521 110.36 93.0373 110.31 93.0088L108.017 91.8017C107.938 91.7578 107.879 91.6849 107.852 91.5983C107.825 91.5118 107.833 91.4182 107.874 91.3374C107.894 91.2968 107.923 91.2607 107.957 91.2313C107.992 91.202 108.032 91.1799 108.076 91.1666C108.119 91.1532 108.165 91.1488 108.21 91.1536C108.255 91.1584 108.299 91.1723 108.338 91.1945L110.624 92.4017C110.704 92.4454 110.762 92.5188 110.788 92.6058C110.813 92.6928 110.803 92.7864 110.76 92.866C110.732 92.9217 110.689 92.9686 110.636 93.0014C110.583 93.0342 110.522 93.0516 110.46 93.0517H110.474Z" fill="#000201"/>
<path d="M172.862 84.1022C172.771 84.1022 172.684 84.0661 172.619 84.0018C172.555 83.9375 172.519 83.8503 172.519 83.7593C172.519 83.6878 172.541 83.6179 172.581 83.5591C172.622 83.5004 172.68 83.4556 172.747 83.4307L179.255 81.1735C179.34 81.1437 179.434 81.1487 179.515 81.1875C179.597 81.2263 179.66 81.2957 179.69 81.3807C179.721 81.4669 179.716 81.5615 179.677 81.6443C179.638 81.727 179.569 81.7914 179.483 81.8236L172.983 84.0808C172.944 84.0953 172.903 84.1026 172.862 84.1022Z" fill="#000201"/>
<path d="M174.197 85.916C174.106 85.9123 174.02 85.8741 173.956 85.809C173.893 85.744 173.856 85.657 173.854 85.5659C173.857 85.4958 173.88 85.428 173.92 85.3708C173.961 85.3136 174.018 85.2697 174.083 85.2445L177.655 84.0516C177.74 84.0175 177.835 84.0187 177.92 84.0548C178.004 84.091 178.071 84.1592 178.105 84.2445C178.139 84.3297 178.138 84.425 178.101 84.5094C178.065 84.5938 177.997 84.6604 177.912 84.6945L174.34 85.8874L174.197 85.916Z" fill="#000201"/>
<path d="M138.368 88.2453C139.382 88.2453 140.204 87.4234 140.204 86.4095C140.204 85.3956 139.382 84.5737 138.368 84.5737C137.354 84.5737 136.532 85.3956 136.532 86.4095C136.532 87.4234 137.354 88.2453 138.368 88.2453Z" fill="#A01D29"/>
<path d="M154.89 91.6885C155.904 91.6885 156.725 90.8666 156.725 89.8527C156.725 88.8389 155.904 88.017 154.89 88.017C153.876 88.017 153.054 88.8389 153.054 89.8527C153.054 90.8666 153.876 91.6885 154.89 91.6885Z" fill="#C8D3D9"/>
<path d="M147.204 70.1237C148.281 70.1237 149.154 69.2507 149.154 68.1737C149.154 67.0967 148.281 66.2236 147.204 66.2236C146.127 66.2236 145.254 67.0967 145.254 68.1737C145.254 69.2507 146.127 70.1237 147.204 70.1237Z" fill="#C8D3D9"/>
<path d="M146.747 65.3017C147.062 65.3017 147.318 65.0459 147.318 64.7303C147.318 64.4147 147.062 64.1588 146.747 64.1588C146.431 64.1588 146.175 64.4147 146.175 64.7303C146.175 65.0459 146.431 65.3017 146.747 65.3017Z" fill="#C8D3D9"/>
<path d="M86.5093 93.2947C88.2845 93.2947 89.7237 91.8556 89.7237 90.0803C89.7237 88.3051 88.2845 86.866 86.5093 86.866C84.734 86.866 83.2949 88.3051 83.2949 90.0803C83.2949 91.8556 84.734 93.2947 86.5093 93.2947Z" fill="#C8D3D9"/>
<path d="M204.684 91.9158C205.698 91.9158 206.52 91.0939 206.52 90.08C206.52 89.0662 205.698 88.2443 204.684 88.2443C203.67 88.2443 202.848 89.0662 202.848 90.08C202.848 91.0939 203.67 91.9158 204.684 91.9158Z" fill="#A01D29"/>
<path d="M202.041 88.2446C202.357 88.2446 202.612 87.9887 202.612 87.6731C202.612 87.3575 202.357 87.1017 202.041 87.1017C201.725 87.1017 201.469 87.3575 201.469 87.6731C201.469 87.9887 201.725 88.2446 202.041 88.2446Z" fill="#A01D29"/>
<path d="M152.133 87.0947C152.511 87.0947 152.818 86.7877 152.818 86.409C152.818 86.0303 152.511 85.7233 152.133 85.7233C151.754 85.7233 151.447 86.0303 151.447 86.409C151.447 86.7877 151.754 87.0947 152.133 87.0947Z" fill="#C8D3D9"/>
<path d="M136.075 84.5737C136.454 84.5737 136.761 84.2667 136.761 83.888C136.761 83.5093 136.454 83.2023 136.075 83.2023C135.696 83.2023 135.389 83.5093 135.389 83.888C135.389 84.2667 135.696 84.5737 136.075 84.5737Z" fill="#A01D29"/>
<path d="M83.7594 86.1874C84.3945 86.1874 84.9094 85.6725 84.9094 85.0374C84.9094 84.4022 84.3945 83.8873 83.7594 83.8873C83.1243 83.8873 82.6094 84.4022 82.6094 85.0374C82.6094 85.6725 83.1243 86.1874 83.7594 86.1874Z" fill="#C8D3D9"/>
<path d="M208.013 89.0519H57.8586C57.7777 89.0609 57.6958 89.0528 57.6183 89.028C57.5407 89.0033 57.4693 88.9624 57.4086 88.9081C57.348 88.8539 57.2995 88.7874 57.2662 88.7131C57.233 88.6388 57.2158 88.5583 57.2158 88.4769C57.2158 88.3955 57.233 88.315 57.2662 88.2407C57.2995 88.1664 57.348 88.1 57.4086 88.0457C57.4693 87.9914 57.5407 87.9506 57.6183 87.9258C57.6958 87.901 57.7777 87.8929 57.8586 87.9019H208.013C208.154 87.9177 208.285 87.9851 208.38 88.0911C208.474 88.1972 208.527 88.3346 208.527 88.4769C208.527 88.6192 208.474 88.7566 208.38 88.8627C208.285 88.9687 208.154 89.0361 208.013 89.0519Z" fill="#000201"/>
<path d="M149.725 64.7295C149.398 64.7281 149.075 64.8017 148.781 64.9445C148.486 65.0874 148.228 65.2958 148.027 65.5537C147.826 65.8116 147.686 66.1121 147.619 66.4324C147.552 66.7526 147.559 67.0839 147.639 67.401L150.004 76.8655C150.119 77.3313 150.387 77.745 150.765 78.0403C151.143 78.3356 151.61 78.4954 152.09 78.4942H153.39L149.725 64.7295Z" fill="#C8D3D9"/>
</g>
<defs>
<clipPath id="clip0_1425_3174">
<rect width="226.042" height="191.255" fill="white"/>
</clipPath>
</defs>
</svg>
