<svg width="468" height="391" viewBox="0 0 468 391" fill="none" xmlns="http://www.w3.org/2000/svg">
<g clip-path="url(#clip0_989_5441)">
<path d="M275.163 91.9031H277.288V33.6914C277.288 29.267 278.159 24.8859 279.852 20.7982C281.546 16.7106 284.027 12.9965 287.156 9.86795C290.284 6.73941 293.998 4.25772 298.086 2.56458C302.174 0.871431 306.555 -1.38419e-05 310.979 1.64904e-10H434.309C438.733 -1.38419e-05 443.114 0.87143 447.202 2.56458C451.289 4.25772 455.003 6.73941 458.132 9.86795C461.261 12.9965 463.742 16.7106 465.435 20.7982C467.129 24.8859 468 29.267 468 33.6914V353.045C468 357.47 467.129 361.851 465.435 365.938C463.742 370.026 461.261 373.74 458.132 376.869C455.003 379.997 451.289 382.479 447.202 384.172C443.114 385.865 438.733 386.737 434.309 386.737H310.979C306.555 386.737 302.174 385.865 298.086 384.172C293.998 382.479 290.284 379.997 287.156 376.869C284.027 373.74 281.546 370.026 279.852 365.938C278.159 361.851 277.288 357.47 277.288 353.045V133.339H275.163V91.9031Z" fill="#E6E6E6"/>
<path d="M309.619 8.76563H325.718C324.978 10.5807 324.695 12.5499 324.895 14.4999C325.095 16.4499 325.772 18.3208 326.865 19.9478C327.958 21.5747 329.435 22.9078 331.165 23.8296C332.895 24.7514 334.825 25.2337 336.785 25.2338H407.439C409.399 25.2337 411.33 24.7514 413.06 23.8296C414.79 22.9078 416.266 21.5747 417.36 19.9478C418.453 18.3208 419.13 16.4499 419.33 14.4999C419.53 12.5499 419.247 10.5807 418.507 8.76563H433.543C436.847 8.76562 440.119 9.41641 443.171 10.6808C446.224 11.9452 448.997 13.7985 451.334 16.1349C453.67 18.4712 455.523 21.2449 456.788 24.2975C458.052 27.3501 458.703 30.6218 458.703 33.9259V352.811C458.703 356.115 458.052 359.387 456.788 362.44C455.523 365.492 453.67 368.266 451.334 370.602C448.997 372.939 446.224 374.792 443.171 376.056C440.119 377.321 436.847 377.972 433.543 377.972H309.619C306.315 377.972 303.044 377.321 299.991 376.056C296.938 374.792 294.165 372.939 291.828 370.602C289.492 368.266 287.639 365.492 286.374 362.44C285.11 359.387 284.459 356.115 284.459 352.811V33.9259C284.459 30.6218 285.11 27.3501 286.374 24.2975C287.639 21.2449 289.492 18.4712 291.828 16.1349C294.165 13.7985 296.938 11.9452 299.991 10.6808C303.044 9.41641 306.315 8.76562 309.619 8.76563Z" fill="white"/>
<path d="M408.092 73.5918H415.491C415.751 73.5918 416 73.6952 416.184 73.8791C416.368 74.0631 416.472 74.3126 416.472 74.5728V77.8204C416.472 78.0806 416.368 78.3301 416.184 78.5141C416 78.6981 415.751 78.8014 415.491 78.8014H414.265V83.6675H409.318V78.8014H408.092C407.831 78.8014 407.582 78.6981 407.398 78.5141C407.214 78.3301 407.111 78.0806 407.111 77.8204V74.5728C407.111 74.3126 407.214 74.0631 407.398 73.8791C407.582 73.6952 407.831 73.5918 408.092 73.5918Z" fill="#E6E6E6"/>
<path d="M400.681 103.314C405.212 96.6832 407.529 88.7884 407.299 80.7606C407.295 80.5753 407.355 80.3944 407.469 80.2484C407.583 80.1025 407.744 80.0006 407.925 79.9599V78.5566H415.739V79.9404H415.847C416.06 79.9407 416.264 80.0255 416.414 80.176C416.564 80.3266 416.648 80.5307 416.648 80.7433C416.648 80.7628 416.647 80.7822 416.646 80.8017C416.03 89.3834 418.109 97.0793 422.882 103.889C423.157 104.281 423.297 104.751 423.282 105.229L422.428 131.66C422.407 132.249 422.16 132.808 421.737 133.22C421.314 133.631 420.749 133.863 420.159 133.868H402.484C401.888 133.863 401.316 133.626 400.892 133.206C400.468 132.786 400.225 132.217 400.214 131.621L399.885 105.958C399.875 105.016 400.153 104.094 400.681 103.314Z" fill="#E6E6E6"/>
<path d="M403.478 112.092H418.863C419.091 112.092 419.316 112.141 419.523 112.236C419.729 112.331 419.913 112.47 420.062 112.643C420.21 112.816 420.319 113.019 420.382 113.238C420.444 113.457 420.459 113.686 420.424 113.911L418.099 129.023H404.75L401.926 113.962C401.883 113.734 401.891 113.5 401.949 113.275C402.007 113.05 402.114 112.841 402.263 112.663C402.411 112.484 402.597 112.34 402.807 112.242C403.017 112.143 403.246 112.092 403.478 112.092Z" fill="white"/>
<path d="M325.725 152.77H333.124C333.385 152.77 333.634 152.873 333.818 153.057C334.002 153.241 334.105 153.49 334.105 153.75V156.998C334.105 157.258 334.002 157.508 333.818 157.692C333.634 157.876 333.385 157.979 333.124 157.979H331.898V162.845H326.952V157.979H325.725C325.465 157.979 325.216 157.876 325.032 157.692C324.848 157.508 324.744 157.258 324.744 156.998V153.75C324.744 153.49 324.848 153.241 325.032 153.057C325.216 152.873 325.465 152.77 325.725 152.77Z" fill="#E6E6E6"/>
<path d="M318.315 182.492C322.846 175.861 325.163 167.966 324.933 159.938C324.928 159.753 324.989 159.572 325.103 159.426C325.217 159.28 325.378 159.178 325.559 159.138V157.734H333.373V159.118H333.481C333.586 159.118 333.69 159.139 333.788 159.18C333.885 159.22 333.973 159.279 334.048 159.354C334.122 159.428 334.181 159.517 334.221 159.614C334.261 159.711 334.282 159.816 334.282 159.921C334.282 159.941 334.281 159.96 334.279 159.979C333.664 168.561 335.743 176.257 340.516 183.067C340.791 183.459 340.931 183.928 340.916 184.406L340.061 210.837C340.041 211.427 339.793 211.986 339.371 212.397C338.948 212.809 338.383 213.041 337.793 213.046H320.118C319.521 213.041 318.95 212.803 318.526 212.384C318.102 211.964 317.859 211.395 317.848 210.799L317.519 185.136C317.509 184.194 317.787 183.272 318.315 182.492Z" fill="#E6E6E6"/>
<path d="M321.113 191.271H336.498C336.725 191.271 336.95 191.321 337.157 191.416C337.364 191.511 337.548 191.65 337.696 191.823C337.845 191.995 337.954 192.198 338.016 192.417C338.079 192.636 338.093 192.866 338.059 193.091L335.734 208.203H322.384L319.56 193.142C319.518 192.914 319.526 192.679 319.584 192.455C319.642 192.23 319.749 192.021 319.897 191.842C320.046 191.664 320.231 191.52 320.442 191.421C320.652 191.323 320.881 191.271 321.113 191.271H321.113Z" fill="white"/>
<path d="M418.494 264.703H422.003C422.127 264.703 422.245 264.752 422.332 264.839C422.42 264.927 422.469 265.045 422.469 265.168V266.709C422.469 266.832 422.42 266.951 422.332 267.038C422.245 267.125 422.127 267.174 422.003 267.174H421.422V269.482H419.075V267.174H418.494C418.37 267.174 418.252 267.125 418.165 267.038C418.077 266.951 418.028 266.832 418.028 266.709V265.168C418.028 265.045 418.077 264.927 418.165 264.839C418.252 264.752 418.37 264.703 418.494 264.703Z" fill="#E6E6E6"/>
<path d="M414.978 278.802C417.127 275.657 418.226 271.912 418.117 268.104C418.115 268.016 418.144 267.93 418.198 267.861C418.252 267.792 418.328 267.743 418.414 267.724V267.059H422.121V267.715H422.172C422.222 267.715 422.271 267.725 422.317 267.744C422.364 267.763 422.405 267.791 422.441 267.827C422.476 267.862 422.504 267.904 422.523 267.95C422.542 267.996 422.552 268.046 422.552 268.096C422.552 268.105 422.551 268.114 422.551 268.124C422.209 272.009 423.257 275.89 425.509 279.075C425.639 279.261 425.706 279.484 425.699 279.71L425.293 292.248C425.284 292.527 425.166 292.793 424.966 292.988C424.765 293.183 424.497 293.293 424.217 293.295H415.833C415.55 293.293 415.279 293.18 415.078 292.981C414.877 292.782 414.762 292.512 414.757 292.229L414.6 280.056C414.596 279.61 414.727 279.172 414.978 278.802Z" fill="#E6E6E6"/>
<path d="M416.185 283.412H424.185V287.412H416.185V283.412Z" fill="white"/>
<path d="M402.156 264.703H405.666C405.789 264.703 405.907 264.752 405.995 264.839C406.082 264.927 406.131 265.045 406.131 265.168V266.709C406.131 266.832 406.082 266.951 405.995 267.038C405.907 267.125 405.789 267.174 405.666 267.174H405.084V269.482H402.737V267.174H402.156C402.032 267.174 401.914 267.125 401.827 267.038C401.74 266.951 401.691 266.832 401.691 266.709V265.168C401.691 265.045 401.74 264.927 401.827 264.839C401.914 264.752 402.032 264.703 402.156 264.703Z" fill="#E6E6E6"/>
<path d="M398.64 278.802C400.79 275.657 401.888 271.912 401.779 268.104C401.777 268.016 401.806 267.93 401.86 267.861C401.914 267.792 401.99 267.743 402.076 267.724V267.059H405.783V267.715H405.834C405.884 267.715 405.933 267.725 405.98 267.744C406.026 267.763 406.068 267.791 406.103 267.827C406.138 267.862 406.166 267.904 406.185 267.95C406.204 267.996 406.214 268.046 406.214 268.096C406.214 268.105 406.214 268.114 406.213 268.124C405.871 272.009 406.919 275.89 409.171 279.075C409.301 279.261 409.368 279.484 409.361 279.71L408.956 292.248C408.946 292.527 408.828 292.793 408.628 292.988C408.427 293.183 408.159 293.293 407.879 293.295H399.495C399.212 293.293 398.941 293.18 398.74 292.981C398.539 292.782 398.424 292.512 398.419 292.229L398.262 280.056C398.258 279.61 398.39 279.172 398.64 278.802Z" fill="#E6E6E6"/>
<path d="M399.847 283.412H407.847V287.412H399.847V283.412Z" fill="white"/>
<path d="M385.818 264.703H389.328C389.451 264.703 389.569 264.752 389.657 264.839C389.744 264.927 389.793 265.045 389.793 265.168V266.709C389.793 266.832 389.744 266.951 389.657 267.038C389.569 267.125 389.451 267.174 389.328 267.174H388.746V269.482H386.4V267.174H385.818C385.695 267.174 385.576 267.125 385.489 267.038C385.402 266.951 385.353 266.832 385.353 266.709V265.168C385.353 265.045 385.402 264.927 385.489 264.839C385.576 264.752 385.695 264.703 385.818 264.703Z" fill="#E6E6E6"/>
<path d="M382.302 278.802C384.452 275.657 385.55 271.912 385.441 268.104C385.439 268.016 385.468 267.93 385.522 267.861C385.576 267.792 385.653 267.743 385.738 267.724V267.059H389.445V267.715H389.496C389.546 267.715 389.596 267.725 389.642 267.744C389.688 267.763 389.73 267.791 389.765 267.827C389.8 267.862 389.828 267.904 389.847 267.95C389.866 267.996 389.876 268.046 389.876 268.096C389.876 268.105 389.876 268.114 389.875 268.124C389.533 272.009 390.581 275.89 392.833 279.075C392.964 279.261 393.03 279.484 393.023 279.71L392.618 292.248C392.608 292.527 392.491 292.793 392.29 292.988C392.09 293.183 391.821 293.293 391.542 293.295H383.158C382.874 293.293 382.604 293.18 382.402 292.981C382.201 292.782 382.086 292.512 382.081 292.229L381.925 280.056C381.92 279.61 382.052 279.172 382.302 278.802Z" fill="#E6E6E6"/>
<path d="M383.509 283.412H391.509V287.412H383.509V283.412Z" fill="white"/>
<path d="M338.58 234.072H345.979C346.108 234.072 346.235 234.098 346.354 234.147C346.473 234.196 346.582 234.268 346.673 234.36C346.764 234.451 346.836 234.559 346.885 234.678C346.935 234.797 346.96 234.924 346.96 235.053V238.301C346.96 238.561 346.857 238.811 346.673 238.995C346.489 239.179 346.239 239.282 345.979 239.282H344.753V244.148H339.806V239.282H338.58C338.32 239.282 338.07 239.179 337.886 238.995C337.702 238.811 337.599 238.561 337.599 238.301V235.053C337.599 234.924 337.624 234.797 337.674 234.678C337.723 234.559 337.795 234.451 337.886 234.36C337.977 234.268 338.085 234.196 338.205 234.147C338.324 234.098 338.451 234.072 338.58 234.072Z" fill="#E6E6E6"/>
<path d="M331.168 263.796C335.7 257.166 338.016 249.271 337.786 241.243C337.782 241.058 337.842 240.877 337.956 240.731C338.07 240.585 338.232 240.483 338.412 240.442V239.039H346.227V240.423H346.334C346.44 240.423 346.544 240.444 346.641 240.484C346.738 240.525 346.827 240.584 346.901 240.658C346.975 240.733 347.034 240.821 347.075 240.919C347.115 241.016 347.135 241.12 347.135 241.226C347.135 241.245 347.134 241.265 347.133 241.284C346.517 249.866 348.596 257.562 353.369 264.372C353.644 264.763 353.784 265.233 353.769 265.711L352.915 292.142C352.894 292.732 352.647 293.291 352.224 293.702C351.802 294.113 351.236 294.346 350.646 294.35H332.971C332.375 294.346 331.804 294.108 331.38 293.688C330.956 293.268 330.712 292.7 330.702 292.103L330.372 266.441C330.363 265.499 330.64 264.576 331.168 263.796Z" fill="#E6E6E6"/>
<path d="M333.966 272.574H349.351C349.579 272.574 349.804 272.623 350.011 272.719C350.218 272.814 350.402 272.952 350.55 273.125C350.698 273.298 350.807 273.501 350.87 273.72C350.932 273.939 350.947 274.169 350.912 274.394L348.587 289.505H335.238L332.414 274.445C332.371 274.217 332.379 273.982 332.437 273.757C332.496 273.533 332.603 273.324 332.751 273.145C332.899 272.966 333.085 272.823 333.295 272.724C333.505 272.625 333.734 272.574 333.966 272.574Z" fill="white"/>
<path d="M334.54 137.27H378.646C375.562 120.598 376.271 100.467 378.646 78.8164H334.54C336.851 100.467 337.541 120.598 334.54 137.27Z" fill="#E6E6E6"/>
<path d="M356.327 117.078C350.458 117.078 345.699 112.32 345.699 106.45C345.699 100.581 350.458 95.8223 356.327 95.8223C362.197 95.8223 366.955 100.581 366.955 106.45C366.955 112.32 362.197 117.078 356.327 117.078Z" fill="white"/>
<path d="M374.926 214.856H419.031C415.948 198.184 416.657 178.052 419.031 156.402H374.926C377.237 178.053 377.927 198.184 374.926 214.856Z" fill="#E6E6E6"/>
<path d="M396.713 194.66C390.843 194.66 386.085 189.902 386.085 184.032C386.085 178.163 390.843 173.404 396.713 173.404C402.583 173.404 407.341 178.163 407.341 184.032C407.341 189.902 402.583 194.66 396.713 194.66Z" fill="white"/>
<path d="M309.564 140.99H353.67C350.586 124.319 351.296 104.187 353.67 82.5371H309.564C311.875 104.187 312.566 124.319 309.564 140.99Z" fill="#E6E6E6"/>
<path d="M331.353 120.799C325.483 120.799 320.725 116.04 320.725 110.171C320.725 104.301 325.483 99.543 331.353 99.543C337.222 99.543 341.98 104.301 341.98 110.171C341.98 116.04 337.222 120.799 331.353 120.799Z" fill="white"/>
<path d="M309.564 138.334H353.67C350.586 121.663 351.296 101.531 353.67 79.8809H309.564C311.875 101.531 312.566 121.663 309.564 138.334Z" fill="#E6E6E6"/>
<path d="M331.353 118.141C325.483 118.141 320.725 113.382 320.725 107.513C320.725 101.643 325.483 96.8848 331.353 96.8848C337.222 96.8848 341.98 101.643 341.98 107.513C341.98 113.382 337.222 118.141 331.353 118.141Z" fill="white"/>
<path d="M309.564 140.99H353.67C350.586 124.319 351.296 104.187 353.67 82.5371H309.564C311.875 104.187 312.566 124.319 309.564 140.99Z" fill="#E6E6E6"/>
<path d="M331.353 120.799C325.483 120.799 320.725 116.04 320.725 110.171C320.725 104.301 325.483 99.543 331.353 99.543C337.222 99.543 341.98 104.301 341.98 110.171C341.98 116.04 337.222 120.799 331.353 120.799Z" fill="white"/>
<path d="M299.468 134.082H444.007V150.024H299.468V134.082Z" fill="#E6E6E6"/>
<path d="M299.468 213.26H444.007V229.202H299.468V213.26Z" fill="#E6E6E6"/>
<path d="M299.468 292.438H444.007V308.379H299.468V292.438Z" fill="#E6E6E6"/>
<path d="M48.0359 357.114L84.0449 331.645C71.9003 319.814 60.8545 302.969 50.291 283.922L14.282 309.391C28.6707 325.732 40.8595 341.769 48.0359 357.114Z" fill="#0A503D"/>
<path d="M48.0264 329.998C42.1568 329.998 37.3985 325.24 37.3985 319.37C37.3985 313.5 42.1568 308.742 48.0264 308.742C53.896 308.742 58.6543 313.5 58.6543 319.37C58.6543 325.24 53.896 329.998 48.0264 329.998Z" fill="white"/>
<path d="M221.74 240.893H225.693C225.832 240.893 225.965 240.948 226.063 241.046C226.162 241.144 226.217 241.278 226.217 241.417V243.152C226.217 243.22 226.203 243.289 226.177 243.352C226.151 243.416 226.112 243.473 226.063 243.522C226.015 243.571 225.957 243.609 225.893 243.636C225.83 243.662 225.762 243.676 225.693 243.676H225.038V246.275H222.395V243.676H221.74C221.601 243.676 221.468 243.62 221.37 243.522C221.271 243.424 221.216 243.291 221.216 243.152V241.417C221.216 241.278 221.271 241.144 221.37 241.046C221.468 240.948 221.601 240.893 221.74 240.893Z" fill="#E6E6E6"/>
<path d="M217.781 256.771C220.202 253.228 221.439 249.011 221.316 244.722C221.314 244.623 221.346 244.527 221.407 244.449C221.468 244.371 221.554 244.316 221.651 244.295V243.545H225.825V244.284H225.883C225.939 244.284 225.995 244.295 226.047 244.317C226.099 244.339 226.146 244.37 226.186 244.41C226.225 244.45 226.257 244.497 226.278 244.549C226.3 244.601 226.311 244.657 226.311 244.713C226.311 244.723 226.31 244.734 226.31 244.744C225.924 249.12 227.105 253.491 229.641 257.078C229.788 257.287 229.863 257.538 229.855 257.793L229.398 271.913C229.387 272.228 229.255 272.527 229.029 272.747C228.804 272.966 228.502 273.091 228.187 273.093H218.744C218.426 273.09 218.12 272.964 217.894 272.739C217.667 272.515 217.537 272.211 217.532 271.893L217.356 258.183C217.351 257.68 217.499 257.187 217.781 256.771Z" fill="#0A503D"/>
<path opacity="0.2" d="M222.565 241.459C222.565 241.759 222.684 242.046 222.896 242.258C223.108 242.47 223.396 242.59 223.696 242.59C223.995 242.59 224.283 242.47 224.495 242.258C224.707 242.046 224.826 241.759 224.826 241.459" fill="black"/>
<path d="M219.621 259.492H227.592V264.806H219.621V259.492Z" fill="white"/>
<path d="M96.6551 296.055H104.054C104.314 296.055 104.564 296.158 104.748 296.342C104.932 296.526 105.035 296.775 105.035 297.036V300.283C105.035 300.544 104.932 300.793 104.748 300.977C104.564 301.161 104.314 301.264 104.054 301.264H102.828V306.13H97.8812V301.264H96.6551C96.3949 301.264 96.1454 301.161 95.9615 300.977C95.7775 300.793 95.6742 300.544 95.6742 300.283V297.036C95.6742 296.775 95.7775 296.526 95.9615 296.342C96.1454 296.158 96.3949 296.055 96.6551 296.055Z" fill="#E6E6E6"/>
<path d="M89.2445 325.775C93.7759 319.144 96.0924 311.249 95.8623 303.221C95.8581 303.036 95.9183 302.855 96.0324 302.709C96.1466 302.563 96.3077 302.461 96.4885 302.421V301.018H104.303V302.401H104.411C104.516 302.402 104.62 302.422 104.717 302.463C104.815 302.503 104.903 302.562 104.977 302.637C105.052 302.712 105.111 302.8 105.151 302.897C105.191 302.995 105.211 303.099 105.211 303.204C105.211 303.224 105.211 303.243 105.209 303.263C104.594 311.844 106.672 319.54 111.446 326.35C111.72 326.742 111.861 327.212 111.846 327.69L110.991 354.121C110.971 354.71 110.723 355.269 110.3 355.68C109.878 356.092 109.313 356.324 108.723 356.329H91.0476C90.451 356.324 89.8799 356.087 89.4559 355.667C89.0319 355.247 88.7885 354.678 88.7777 354.082L88.4485 328.419C88.4387 327.477 88.7164 326.555 89.2445 325.775Z" fill="#0A503D"/>
<path opacity="0.2" d="M98.1978 297.111C98.1978 297.673 98.4208 298.211 98.8177 298.608C99.2146 299.005 99.753 299.228 100.314 299.228C100.876 299.228 101.414 299.005 101.811 298.608C102.208 298.211 102.431 297.673 102.431 297.111" fill="black"/>
<path d="M92.0426 334.555H107.427C107.655 334.555 107.88 334.604 108.087 334.699C108.294 334.794 108.478 334.933 108.626 335.106C108.774 335.279 108.884 335.481 108.946 335.7C109.009 335.919 109.023 336.149 108.988 336.374L106.664 351.486H93.314L90.4901 336.425C90.4474 336.197 90.4554 335.962 90.5136 335.738C90.5719 335.513 90.6789 335.304 90.8271 335.125C90.9754 334.947 91.1611 334.803 91.3712 334.704C91.5813 334.606 91.8105 334.555 92.0426 334.555Z" fill="white"/>
<path d="M117.766 357.072H161.872C158.788 340.401 159.498 320.269 161.872 298.619H117.766C120.077 320.269 120.768 340.401 117.766 357.072Z" fill="#0A503D"/>
<path d="M139.554 336.877C133.684 336.877 128.926 332.119 128.926 326.249C128.926 320.379 133.684 315.621 139.554 315.621C145.423 315.621 150.182 320.379 150.182 326.249C150.182 332.119 145.423 336.877 139.554 336.877Z" fill="white"/>
<path d="M298.169 173.11L288.268 172.21L281.967 156.909L293.218 150.607L298.169 173.11Z" fill="#FFB8B8"/>
<path d="M207.301 215.118C206.971 214.297 206.842 213.41 206.923 212.529C207.004 211.648 207.294 210.799 207.767 210.052C208.241 209.304 208.885 208.68 209.647 208.231C210.409 207.782 211.267 207.52 212.15 207.467L227.524 206.551L229.787 214.078L213.961 218.424C212.639 218.787 211.229 218.651 210 218.041C208.772 217.432 207.811 216.391 207.301 215.118Z" fill="#FFB8B8"/>
<path d="M223.808 218.551L223.977 204.427L258.125 198.978L284.431 168.807C285.8 167.238 287.691 166.217 289.755 165.935C291.818 165.653 293.914 166.128 295.654 167.273C296.708 167.966 297.596 168.882 298.256 169.956C298.917 171.03 299.334 172.236 299.477 173.489C299.62 174.742 299.486 176.011 299.085 177.206C298.683 178.402 298.024 179.494 297.154 180.407L275.451 207.116L223.808 218.551Z" fill="#575A89"/>
<path d="M305.82 377.438H296.819L274.493 276.494L251.363 307.678L237.861 375.187H229.31L231.11 302.727L261.264 225.316H290.968C299.086 240.007 305.453 255.151 298.169 270.773L305.82 377.438Z" fill="#2F2E41"/>
<path d="M243.378 383.571C243.478 383.889 243.508 384.225 243.468 384.556C243.428 384.888 243.317 385.206 243.144 385.491C242.97 385.777 242.738 386.021 242.463 386.21C242.188 386.398 241.875 386.526 241.547 386.584L219.521 390.493C218.65 390.652 217.752 390.488 216.994 390.03C216.237 389.573 215.673 388.854 215.409 388.009C215.153 387.202 215.188 386.331 215.511 385.547C215.833 384.764 216.421 384.12 217.171 383.727C222.014 381.24 226.182 377.616 229.318 373.166C231.739 375.42 234.444 375.208 237.318 373.547L240.365 373.928L243.378 383.571Z" fill="#2F2E41"/>
<path d="M309.989 383.571C310.088 383.889 310.119 384.225 310.078 384.556C310.038 384.888 309.927 385.206 309.754 385.491C309.581 385.777 309.349 386.021 309.073 386.21C308.798 386.398 308.486 386.526 308.157 386.584L286.131 390.493C285.26 390.652 284.362 390.488 283.605 390.03C282.847 389.573 282.284 388.854 282.02 388.009C281.763 387.202 281.799 386.331 282.121 385.547C282.443 384.764 283.031 384.12 283.781 383.727C288.624 381.24 292.792 377.616 295.928 373.166C298.349 375.42 301.055 375.208 303.928 373.547L306.975 373.928L309.989 383.571Z" fill="#2F2E41"/>
<path d="M281.741 162.534C274.781 162.534 269.139 156.892 269.139 149.932C269.139 142.972 274.781 137.33 281.741 137.33C288.701 137.33 294.343 142.972 294.343 149.932C294.343 156.892 288.701 162.534 281.741 162.534Z" fill="#FFB8B8"/>
<path d="M292.994 228.693L260.139 227.793L269.788 197.426C263.792 187.813 269.826 178.211 278.367 168.61L285.118 164.109L295.919 163.209C300.596 168.213 303.155 174.833 303.06 181.682C302.846 196.347 300.249 212.312 292.994 228.693Z" fill="#575A89"/>
<path d="M217.508 249.135C216.883 248.509 216.415 247.744 216.143 246.903C215.871 246.061 215.803 245.166 215.944 244.293C216.086 243.42 216.433 242.593 216.956 241.88C217.48 241.167 218.166 240.589 218.957 240.193L232.73 233.303L237.772 239.332L224.932 249.554C223.859 250.408 222.51 250.838 221.14 250.76C219.771 250.683 218.478 250.104 217.508 249.135Z" fill="#FFB8B8"/>
<path d="M234.035 245.797L228.635 232.745L257.886 214.302L270.202 176.215C270.843 174.233 272.18 172.551 273.967 171.48C275.753 170.409 277.866 170.021 279.916 170.389C281.158 170.612 282.335 171.105 283.364 171.833C284.394 172.56 285.252 173.505 285.876 174.601C286.5 175.696 286.877 176.916 286.978 178.173C287.079 179.43 286.903 180.693 286.463 181.875L277.016 214.967L234.035 245.797Z" fill="#575A89"/>
<path d="M302.445 144.983C302.445 149.886 299.261 157.48 295.244 160.735C292.542 162.925 288.97 162.833 287.593 159.835C286.181 156.759 281.311 149.53 272.741 144.983C261.316 138.921 276.793 128.549 287.593 130.131C295.709 131.319 302.445 136.78 302.445 144.983Z" fill="#2F2E41"/>
<path d="M294.794 138.231C289.822 138.231 285.792 134.201 285.792 129.23C285.792 124.259 289.822 120.229 294.794 120.229C299.765 120.229 303.795 124.259 303.795 129.23C303.795 134.201 299.765 138.231 294.794 138.231Z" fill="#2F2E41"/>
<path d="M284.442 126.079C284.443 123.81 285.302 121.625 286.846 119.962C288.39 118.299 290.506 117.281 292.769 117.112C292.545 117.096 292.321 117.078 292.093 117.078C289.706 117.078 287.417 118.026 285.729 119.715C284.041 121.403 283.092 123.692 283.092 126.079C283.092 128.467 284.041 130.756 285.729 132.444C287.417 134.132 289.706 135.081 292.093 135.081C292.321 135.081 292.545 135.063 292.769 135.047C290.506 134.878 288.39 133.86 286.846 132.197C285.302 130.534 284.443 128.349 284.442 126.079Z" fill="#2F2E41"/>
<path d="M281.517 154.434C280.398 154.434 279.491 153.225 279.491 151.734C279.491 150.242 280.398 149.033 281.517 149.033C282.635 149.033 283.542 150.242 283.542 151.734C283.542 153.225 282.635 154.434 281.517 154.434Z" fill="#FFB8B8"/>
<path d="M26.4826 360.932H166.604L196.276 220.663H221.6V214.369H191.175L161.503 354.637H26.4826V360.932Z" fill="#3F3D56"/>
<path d="M146.07 386.557C138.621 386.557 132.583 380.518 132.583 373.069C132.583 365.621 138.621 359.582 146.07 359.582C153.519 359.582 159.558 365.621 159.558 373.069C159.558 380.518 153.519 386.557 146.07 386.557Z" fill="#3F3D56"/>
<path d="M45.3652 386.557C37.9163 386.557 31.8778 380.518 31.8778 373.069C31.8778 365.621 37.9163 359.582 45.3652 359.582C52.814 359.582 58.8525 365.621 58.8525 373.069C58.8525 380.518 52.814 386.557 45.3652 386.557Z" fill="#3F3D56"/>
<path d="M29.0371 357.97H165.368L189.422 239.098H6.46373C5.53015 239.098 4.6077 239.3 3.75975 239.691C2.91182 240.081 2.15852 240.651 1.55174 241.36C0.944946 242.07 0.499069 242.902 0.24472 243.801C-0.0096283 244.699 -0.0664368 245.642 0.0782928 246.564L22.6526 352.51C22.8856 354.034 23.6584 355.424 24.8303 356.426C26.0022 357.428 27.4952 357.976 29.0371 357.97ZM163.887 356.171H29.0371C27.9243 356.176 26.8468 355.781 26.001 355.057C25.1553 354.334 24.5977 353.331 24.4299 352.23L1.85553 246.285C1.75085 245.619 1.79166 244.939 1.97511 244.29C2.15858 243.642 2.48039 243.041 2.91832 242.529C3.35626 242.017 3.89998 241.606 4.51202 241.324C5.12405 241.042 5.78989 240.896 6.46373 240.896H187.239L163.887 356.171Z" fill="#3F3D56"/>
<path d="M138.864 357.587L154.617 240.141L152.843 239.848L137.09 357.294L138.864 357.587Z" fill="#3F3D56"/>
<path d="M51.2733 356.684L53.0488 356.396L37.7561 239.85L35.9805 240.137L51.2733 356.684Z" fill="#3F3D56"/>
<path d="M93.0064 239.994H94.8047V357.44H93.0064V239.994Z" fill="#3F3D56"/>
<path d="M180.236 271.465L180.24 273.264L6.16599 273.685L6.16164 271.887L180.236 271.465Z" fill="#3F3D56"/>
<path d="M18.446 327.017L171.374 328.062L171.362 329.861L18.4337 328.815L18.446 327.017Z" fill="#3F3D56"/>
<path d="M218.901 222.013C213.439 222.013 209.011 219.597 209.011 216.618C209.011 213.638 213.439 211.223 218.901 211.223C224.364 211.223 228.792 213.638 228.792 216.618C228.792 219.597 224.364 222.013 218.901 222.013Z" fill="#3F3D56"/>
</g>
<defs>
<clipPath id="clip0_989_5441">
<rect width="468" height="390.552" fill="white" transform="matrix(-1 0 0 1 468 0)"/>
</clipPath>
</defs>
</svg>
