<svg width="218" height="181" viewBox="0 0 218 181" fill="none" xmlns="http://www.w3.org/2000/svg">
<path d="M192.751 103.196C191.554 113.449 189.067 121.681 185.654 128.246C181.113 136.993 173.344 140.517 166.404 144.205C164.399 145.269 162.314 146.175 160.169 146.917C147.541 151.299 133.407 150.137 122.305 147.823C114.518 146.198 106.614 145.199 98.6677 144.834C96.4014 144.732 94.1329 144.681 91.862 144.682C88.3604 144.687 25.3107 145.883 9.95989 114.805C6.16987 107.138 3.57204 97.7735 2.63872 86.3581C-0.0022552 54.085 14.5129 32.889 33.2359 19.0347C68.6541 -7.17303 117.202 -6.07395 152.098 20.8241C175.342 38.741 197.106 65.857 192.751 103.196Z" fill="#F2F2F2"/>
<path d="M68.125 93.8526C68.125 119.506 52.8747 128.463 34.0625 128.463C15.2503 128.463 0 119.506 0 93.8526C0 68.1996 34.0625 35.5649 34.0625 35.5649C34.0625 35.5649 68.125 68.1996 68.125 93.8526Z" fill="#0A503D"/>
<path d="M32.8217 124.538L33.1705 103.069L47.6889 76.5088L33.2253 99.7012L33.382 90.0479L43.3879 70.8317L33.4235 87.4932L33.7056 70.1311L44.4203 54.8325L33.7498 67.4009L33.9261 35.5649L32.8186 77.71L32.9096 75.9715L22.016 59.297L32.735 79.3089L31.7199 98.6996L31.6897 98.1848L19.1313 80.6374L31.6516 100.003L31.5246 102.428L31.5019 102.464L31.5124 102.664L28.9373 151.859H32.3778L32.7906 126.449L45.2802 107.13L32.8217 124.538Z" fill="#3F3D56"/>
<path d="M218 95.4422C218 121.095 202.75 130.052 183.938 130.052C165.125 130.052 149.875 121.095 149.875 95.4422C149.875 69.7892 183.938 37.1545 183.938 37.1545C183.938 37.1545 218 69.7892 218 95.4422Z" fill="#0A503D"/>
<path d="M182.697 126.128L183.046 104.659L197.564 78.0984L183.1 101.291L183.257 91.6375L193.263 72.4213L183.299 89.0828L183.581 71.7207L194.295 56.4221L183.625 68.9905L183.801 37.1545L182.694 79.2996L182.785 77.5611L171.891 60.8866L182.61 80.8985L181.595 100.289L181.565 99.7744L169.006 82.227L181.527 101.593L181.4 104.018L181.377 104.054L181.387 104.253L178.812 153.449H182.253L182.666 128.038L195.155 108.72L182.697 126.128Z" fill="#3F3D56"/>
<path d="M147.15 73.6558C147.15 101.703 130.477 111.496 109.909 111.496C89.3407 111.496 72.667 101.703 72.667 73.6558C72.667 45.6085 109.909 9.92798 109.909 9.92798C109.909 9.92798 147.15 45.6085 147.15 73.6558Z" fill="#0A503D"/>
<path d="M108.552 107.206L108.933 83.7326L124.806 54.6931L108.993 80.0504L109.164 69.496L120.104 48.4863L109.21 66.7029L109.518 47.7203L121.233 30.9938L109.567 44.7353L109.759 9.92798L108.548 56.0066L108.648 54.1057L96.7375 35.875L108.457 57.7547L107.347 78.9552L107.314 78.3923L93.5835 59.2073L107.273 80.3804L107.134 83.0316L107.109 83.0715L107.12 83.2891L104.305 137.076H108.066L108.518 109.294L122.173 88.173L108.552 107.206Z" fill="#3F3D56"/>
<path d="M188.933 155.775C188.933 161.795 149.486 180.527 100.825 180.527C52.1642 180.527 12.7168 161.795 12.7168 155.775C12.7168 149.755 48.9851 136.246 97.646 136.246C146.307 136.246 188.933 149.755 188.933 155.775Z" fill="#3F3D56"/>
<path opacity="0.1" d="M188.933 155.775C188.933 161.795 149.486 180.527 100.825 180.527C52.1642 180.527 12.7168 161.795 12.7168 155.775C12.7168 149.755 48.9851 136.246 97.646 136.246C146.307 136.246 188.933 149.755 188.933 155.775Z" fill="black"/>
<path d="M188.933 155.775C188.933 161.795 149.486 166.675 100.825 166.675C52.1642 166.675 12.7168 161.795 12.7168 155.775C12.7168 149.755 48.9851 136.246 97.646 136.246C146.307 136.246 188.933 149.755 188.933 155.775Z" fill="#3F3D56"/>
<path d="M130.443 125.592C130.443 134.227 135.861 141.215 142.556 141.215L130.443 125.592Z" fill="#3F3D56"/>
<path d="M142.556 141.215C142.556 132.482 148.601 125.416 156.073 125.416L142.556 141.215Z" fill="#0A503D"/>
<path d="M134.832 126.375C134.832 134.578 138.287 141.215 142.556 141.215L134.832 126.375Z" fill="#0A503D"/>
<path d="M142.556 141.215C142.556 130.057 149.544 121.027 158.179 121.027L142.556 141.215Z" fill="#3F3D56"/>
<path d="M140.008 141.325C140.008 141.325 141.726 141.272 142.243 140.904C142.761 140.535 144.886 140.095 145.014 140.686C145.143 141.277 147.596 143.627 145.656 143.642C143.717 143.658 141.15 143.34 140.633 143.025C140.117 142.711 140.008 141.325 140.008 141.325Z" fill="#A8A8A8"/>
<path opacity="0.2" d="M145.691 143.436C143.751 143.451 141.185 143.134 140.668 142.819C140.274 142.579 140.118 141.719 140.065 141.322C140.029 141.324 140.008 141.325 140.008 141.325C140.008 141.325 140.117 142.71 140.633 143.025C141.15 143.34 143.717 143.657 145.656 143.642C146.216 143.637 146.409 143.438 146.399 143.143C146.321 143.321 146.108 143.432 145.691 143.436Z" fill="black"/>
<path opacity="0.1" d="M101.96 159.408C118.515 159.408 131.935 157.273 131.935 154.64C131.935 152.006 118.515 149.871 101.96 149.871C85.4056 149.871 71.9854 152.006 71.9854 154.64C71.9854 157.273 85.4056 159.408 101.96 159.408Z" fill="black"/>
<path d="M115.131 143.967H112.179V150.779H115.131V143.967Z" fill="#FFB9B9"/>
<path d="M115.358 51.9976H104.004V72.4351H115.358V51.9976Z" fill="#FF6584"/>
<path d="M123.697 90.677L124.09 93.821L113.742 96.9647L112.432 91.2011L123.697 90.677Z" fill="#FFB9B9"/>
<path d="M108.37 60.4176C108.37 60.4176 108.108 62.7755 107.585 62.7755C107.061 62.7755 105.227 63.6925 105.227 63.6925L104.703 66.1813L108.37 68.4082L114.396 67.7533L116.099 65.1334L114.396 63.4305C114.396 63.4305 112.955 60.2866 113.479 59.6316C114.003 58.9767 108.37 60.4176 108.37 60.4176Z" fill="#FFB9B9"/>
<path opacity="0.1" d="M108.37 60.4176C108.37 60.4176 108.108 62.7755 107.585 62.7755C107.061 62.7755 105.227 63.6925 105.227 63.6925L104.703 66.1813L108.37 68.4082L114.396 67.7533L116.099 65.1334L114.396 63.4305C114.396 63.4305 112.955 60.2866 113.479 59.6316C114.003 58.9767 108.37 60.4176 108.37 60.4176Z" fill="black"/>
<path d="M91.9964 142.027C91.9964 142.027 90.8175 149.886 89.3765 150.41C87.9356 150.934 94.8783 151.851 94.8783 151.851L95.4022 148.97C95.4022 148.97 95.5332 143.73 96.0572 142.944C96.5812 142.158 91.9964 142.027 91.9964 142.027Z" fill="#FFB9B9"/>
<path d="M105.358 96.3099C105.358 96.3099 124.352 92.904 124.483 92.2491C124.614 91.5941 128.413 97.2268 126.055 108.23C123.697 119.234 117.802 145.171 117.802 145.171C117.802 145.171 111.777 147.004 111.908 145.564C112.039 144.123 114.003 119.103 114.003 119.103L112.694 108.492L110.467 109.802L101.166 128.141L96.4503 143.992C96.4503 143.992 90.4246 145.04 91.3415 142.813C92.2585 140.586 95.2714 123.295 95.2714 123.295L103.524 98.9297C103.524 98.9297 103.262 96.3099 105.358 96.3099Z" fill="#2F2E41"/>
<path d="M110.139 62.1861C113.178 62.1861 115.641 59.7229 115.641 56.6844C115.641 53.6458 113.178 51.1826 110.139 51.1826C107.101 51.1826 104.638 53.6458 104.638 56.6844C104.638 59.7229 107.101 62.1861 110.139 62.1861Z" fill="#FFB9B9"/>
<path d="M115.837 63.5615C115.837 63.5615 113.218 66.0504 107.061 65.3954C100.904 64.7405 108.764 79.4118 108.764 79.4118L111.253 94.2141C111.253 94.2141 122.256 92.9041 122.649 90.4153C123.042 87.9264 115.837 63.5615 115.837 63.5615Z" fill="#F2F2F2"/>
<path d="M113.217 77.5778C113.217 77.5778 110.073 76.0059 108.894 71.6831C107.716 67.3603 106.668 62.9065 106.013 63.0375C105.46 63.1481 100.331 65.1264 98.6685 66.4493C98.362 66.6932 98.1734 66.9148 98.153 67.0983C98.022 68.2773 102.869 80.0667 102.869 80.0667C102.869 80.0667 106.668 88.5813 105.096 91.3322C103.524 94.083 103.393 97.6199 106.275 97.3579C109.156 97.0959 118.719 96.5719 117.409 89.2363C117.409 89.2363 119.898 94.345 126.841 90.6772C126.841 90.6772 131.032 90.0222 130.901 88.5813C130.77 87.1404 124.221 74.696 124.221 74.696C124.221 74.696 123.173 69.1942 125.138 67.0983L120.684 61.8586C120.684 61.8586 119.636 60.2866 118.588 61.0726C117.54 61.8586 115.182 63.1685 114.789 63.2995C114.396 63.4305 114.138 62.8287 114.138 62.8287C113.23 64.727 112.866 66.8396 113.086 68.9322C113.479 72.3381 113.217 77.5778 113.217 77.5778Z" fill="#2F2E41"/>
<path d="M92.3894 148.838C92.3894 148.838 92.0969 147.921 90.4092 148.838C90.4092 148.838 90.9485 145.956 89.1145 145.956C87.2806 145.956 86.6257 149.362 86.6257 149.362C86.6257 149.362 86.1017 151.589 82.5649 152.506C79.028 153.423 81.7789 156.567 84.2678 156.567C86.7567 156.567 90.0315 154.602 90.0315 154.602C90.0315 154.602 96.8432 154.733 96.9742 153.423C97.1052 152.113 96.3192 148.183 95.7952 148.183C95.2713 148.183 94.2233 150.017 94.2233 150.017L92.3894 148.838Z" fill="#2F2E41"/>
<path d="M114.658 146.533C114.658 146.533 112.824 144.568 111.776 147.843C110.728 151.118 109.942 152.428 110.597 152.952C111.252 153.476 111.776 153.214 111.514 154.261C111.252 155.309 112.3 157.536 114.658 157.536C117.016 157.536 117.671 155.833 117.54 154.654C117.409 153.476 116.361 152.035 116.361 152.035L115.313 148.367L114.658 146.533Z" fill="#2F2E41"/>
<path d="M125.007 54.3914L118.064 56.7492C118.064 56.7492 111.776 60.4171 114.527 61.203C117.278 61.989 119.636 58.8451 119.636 58.8451L125.662 57.2732L125.007 54.3914Z" fill="#FFB9B9"/>
<path d="M106.395 48.1768C105.571 48.7415 104.915 49.515 104.291 50.2954C103.023 51.8811 101.781 53.775 102.094 55.781C102.212 56.5429 102.551 57.252 102.741 57.9991C102.999 59.0075 102.982 60.0627 102.963 61.1032C102.979 61.5453 102.924 61.987 102.801 62.412C102.617 62.8261 102.402 63.225 102.155 63.6052C101.525 64.7803 101.509 66.1765 101.508 67.5103C101.478 67.9593 101.539 68.4098 101.688 68.8345C101.86 69.2356 102.181 69.55 102.447 69.8961C102.888 70.4808 103.182 71.1626 103.305 71.8845C103.427 72.6063 103.375 73.347 103.153 74.0446C103.495 74.0461 103.83 73.95 104.119 73.7677C104.408 73.5853 104.64 73.3242 104.786 73.0151C104.831 73.3475 104.802 73.6858 104.702 74.0059C104.601 74.3259 104.431 74.6198 104.204 74.8664C105.703 74.4207 107.31 73.6694 107.858 72.2039C108.018 71.706 108.109 71.1881 108.127 70.6652C108.418 66.9893 108.584 63.1759 107.266 59.7322C106.844 58.6304 106.27 57.5639 106.129 56.3927C105.987 55.2214 106.42 53.8679 107.496 53.3842C107.521 53.6841 107.654 53.9646 107.87 54.1736C108.11 54.3514 108.553 54.2399 108.557 53.9416L109.077 54.6653C109.276 54.5674 109.446 54.4189 109.57 54.2347L109.927 54.6709L110.685 54.1196L111.343 54.8293C111.596 54.685 111.798 54.4652 111.92 54.2005C112.062 54.412 112.237 54.6445 112.49 54.6674C113.042 54.7173 113.156 53.8415 113.638 53.5684C113.816 53.4897 114.017 53.4775 114.203 53.534C114.389 53.5904 114.549 53.7119 114.653 53.8762C114.852 54.2143 114.925 54.612 114.858 54.9985C114.658 56.7998 113.121 58.4434 113.577 60.1974C113.833 61.1838 114.696 61.9746 114.762 62.9916C114.814 63.8043 114.336 64.5732 114.343 65.3876C114.352 66.3419 115.011 67.1525 115.655 67.8572C116.8 69.1113 118.006 70.3066 119.272 71.4432L118.881 70.759C119.064 70.7446 119.247 70.7699 119.419 70.8331C119.591 70.8963 119.747 70.996 119.877 71.1252C119.99 70.7319 119.803 70.3221 119.627 69.9528C118.574 67.7413 117.724 65.3865 117.597 62.9404C117.42 59.5402 118.643 56.087 117.868 52.7715C117.423 50.9152 116.384 49.2548 114.91 48.0419C114.193 47.452 113.65 47.0987 112.722 47.0337C111.684 46.9435 110.641 46.9517 109.605 47.0581C108.461 47.167 107.36 47.5508 106.395 48.1768Z" fill="#FF6584"/>
<path d="M119.636 61.9896C119.636 61.9896 121.077 62.1206 121.732 61.9896C122.387 61.8586 123.304 61.2037 123.304 61.2037L128.282 57.5358L123.959 58.1908C123.959 58.1908 124.745 52.1651 124.483 52.0341C124.221 51.9031 137.189 49.4142 136.927 53.475C136.665 57.5358 129.33 65.5265 125.138 67.0984L122.387 67.4914L119.636 61.9896Z" fill="#2F2E41"/>
<path d="M133.752 108.43H71.9854V122.964H133.752V108.43Z" fill="white"/>
<path d="M125.691 111.723H79.8198V119.443H125.691V111.723Z" fill="#3F3D56"/>
<path d="M90.4794 115.414C90.461 115.216 89.5854 115.128 88.3839 115.178C89.0801 114.197 89.4834 113.415 89.3273 113.292C89.1802 113.175 88.5779 113.678 87.8447 114.494C87.7754 113.399 87.6144 112.631 87.4269 112.631C87.2223 112.631 87.0494 113.545 86.9925 114.8C85.9722 114.067 85.1483 113.636 85.0214 113.796C84.9003 113.95 85.4518 114.597 86.3285 115.371C85.1714 115.543 84.3563 115.785 84.3743 115.98C84.3927 116.178 85.2683 116.266 86.4698 116.216C85.7736 117.197 85.3704 117.979 85.5264 118.102C85.6735 118.219 86.2758 117.716 87.0091 116.9C87.0784 117.995 87.2393 118.763 87.4269 118.763C87.6314 118.763 87.8043 117.849 87.8612 116.594C88.8815 117.327 89.7055 117.758 89.8323 117.597C89.9534 117.444 89.4019 116.797 88.5252 116.022C89.6823 115.851 90.4974 115.609 90.4794 115.414Z" fill="white"/>
<path d="M98.2006 115.414C98.1822 115.216 97.3066 115.128 96.1051 115.178C96.8013 114.197 97.2045 113.415 97.0485 113.292C96.9014 113.175 96.2991 113.678 95.5658 114.494C95.4965 113.399 95.3356 112.631 95.148 112.631C94.9435 112.631 94.7706 113.545 94.7137 114.8C93.6934 114.067 92.8695 113.636 92.7426 113.796C92.6215 113.95 93.173 114.597 94.0497 115.371C92.8926 115.543 92.0775 115.785 92.0955 115.98C92.1139 116.178 92.9895 116.266 94.191 116.216C93.4948 117.197 93.0915 117.979 93.2476 118.102C93.3947 118.219 93.997 117.716 94.7303 116.9C94.7996 117.995 94.9605 118.763 95.148 118.763C95.3526 118.763 95.5255 117.849 95.5824 116.594C96.6027 117.327 97.4266 117.758 97.5535 117.597C97.6746 117.444 97.1231 116.797 96.2464 116.022C97.4035 115.851 98.2186 115.609 98.2006 115.414Z" fill="white"/>
<path d="M105.921 115.414C105.903 115.216 105.027 115.128 103.826 115.178C104.522 114.197 104.925 113.415 104.769 113.292C104.622 113.175 104.02 113.678 103.287 114.494C103.217 113.399 103.056 112.631 102.869 112.631C102.664 112.631 102.491 113.545 102.434 114.8C101.414 114.067 100.59 113.636 100.463 113.796C100.342 113.95 100.894 114.597 101.77 115.371C100.613 115.543 99.7982 115.785 99.8162 115.98C99.8346 116.178 100.71 116.266 101.912 116.216C101.215 117.197 100.812 117.979 100.968 118.102C101.115 118.219 101.718 117.716 102.451 116.9C102.52 117.995 102.681 118.763 102.869 118.763C103.073 118.763 103.246 117.849 103.303 116.594C104.323 117.327 105.147 117.758 105.274 117.597C105.395 117.444 104.844 116.797 103.967 116.022C105.124 115.851 105.939 115.609 105.921 115.414Z" fill="white"/>
<path d="M113.642 115.414C113.624 115.216 112.748 115.128 111.546 115.178C112.243 114.197 112.646 113.415 112.49 113.292C112.343 113.175 111.741 113.678 111.007 114.494C110.938 113.399 110.777 112.631 110.589 112.631C110.385 112.631 110.212 113.545 110.155 114.8C109.135 114.067 108.311 113.636 108.184 113.796C108.063 113.95 108.614 114.597 109.491 115.371C108.334 115.543 107.519 115.785 107.537 115.98C107.555 116.178 108.431 116.266 109.632 116.216C108.936 117.197 108.533 117.979 108.689 118.102C108.836 118.219 109.438 117.716 110.172 116.9C110.241 117.995 110.402 118.763 110.589 118.763C110.794 118.763 110.967 117.849 111.024 116.594C112.044 117.327 112.868 117.758 112.995 117.597C113.116 117.444 112.565 116.797 111.688 116.022C112.845 115.851 113.66 115.609 113.642 115.414Z" fill="white"/>
<path d="M121.363 115.414C121.345 115.216 120.469 115.128 119.268 115.178C119.964 114.197 120.367 113.415 120.211 113.292C120.064 113.175 119.462 113.678 118.728 114.494C118.659 113.399 118.498 112.631 118.311 112.631C118.106 112.631 117.933 113.545 117.876 114.8C116.856 114.067 116.032 113.636 115.905 113.796C115.784 113.95 116.336 114.597 117.212 115.371C116.055 115.543 115.24 115.785 115.258 115.98C115.276 116.178 116.152 116.266 117.354 116.216C116.657 117.197 116.254 117.979 116.41 118.102C116.557 118.219 117.16 117.716 117.893 116.9C117.962 117.995 118.123 118.763 118.311 118.763C118.515 118.763 118.688 117.849 118.745 116.594C119.765 117.327 120.589 117.758 120.716 117.597C120.837 117.444 120.286 116.797 119.409 116.022C120.566 115.851 121.381 115.609 121.363 115.414Z" fill="white"/>
<path d="M97.3672 102.205C97.3672 102.205 96.7122 110.85 99.8561 111.243C103 111.636 100.118 101.419 100.118 101.419L97.3672 102.205Z" fill="#FFB9B9"/>
<path d="M99.0704 66.8359L98.1534 67.0979C98.1534 67.0979 94.3546 97.4885 96.8435 103.383C96.8435 103.383 99.4634 101.942 100.773 102.204L102.869 77.4464L99.0704 66.8359Z" fill="#2F2E41"/>
</svg>
