<svg width="238" height="181" viewBox="0 0 238 181" fill="none" xmlns="http://www.w3.org/2000/svg">
<g clip-path="url(#clip0_1859_4833)">
<path d="M142.805 37.5352H143.673V13.7603C143.673 11.9533 144.029 10.1639 144.72 8.49447C145.412 6.82499 146.425 5.30807 147.703 4.0303C148.981 2.75254 150.498 1.73897 152.167 1.04744C153.837 0.355924 155.626 1.53106e-06 157.433 0H207.804C211.453 -6.95711e-06 214.953 1.44972 217.534 4.03027C220.114 6.61082 221.564 10.1108 221.564 13.7603V144.191C221.564 145.998 221.208 147.788 220.517 149.457C219.825 151.127 218.811 152.644 217.534 153.921C216.256 155.199 214.739 156.213 213.07 156.904C211.4 157.596 209.611 157.952 207.804 157.952H157.433C153.784 157.952 150.284 156.502 147.703 153.921C145.123 151.341 143.673 147.841 143.673 144.192V54.4586H142.805V37.5352Z" fill="#0A503D"/>
<path d="M156.878 3.5791H163.453C163.15 4.32041 163.035 5.1247 163.116 5.92112C163.198 6.71755 163.474 7.48166 163.921 8.14615C164.368 8.81063 164.971 9.3551 165.677 9.73158C166.384 10.1081 167.172 10.305 167.973 10.3051H196.829C197.63 10.305 198.418 10.1081 199.125 9.73159C199.831 9.3551 200.434 8.81064 200.881 8.14615C201.328 7.48166 201.604 6.71755 201.686 5.92113C201.767 5.12471 201.652 4.32041 201.349 3.5791H207.491C208.84 3.5791 210.176 3.8449 211.423 4.36132C212.67 4.87773 213.803 5.63466 214.757 6.58888C215.711 7.54309 216.468 8.67591 216.984 9.92266C217.501 11.1694 217.767 12.5057 217.767 13.8551V144.095C217.767 145.444 217.501 146.781 216.984 148.027C216.468 149.274 215.711 150.407 214.757 151.361C213.803 152.315 212.67 153.072 211.423 153.589C210.176 154.105 208.84 154.371 207.491 154.371H156.878C155.528 154.371 154.192 154.105 152.945 153.589C151.698 153.072 150.566 152.315 149.611 151.361C148.657 150.407 147.9 149.274 147.384 148.027C146.867 146.781 146.602 145.444 146.602 144.095V13.8551C146.602 12.5057 146.867 11.1694 147.384 9.92266C147.9 8.67591 148.657 7.54309 149.611 6.58888C150.566 5.63466 151.698 4.87773 152.945 4.36132C154.192 3.8449 155.528 3.5791 156.878 3.5791Z" fill="white"/>
<path d="M126.66 157.974H237.709C237.786 157.974 237.86 157.943 237.915 157.888C237.969 157.834 238 157.76 238 157.682C238 157.605 237.969 157.531 237.915 157.476C237.86 157.421 237.786 157.391 237.709 157.391H126.66C126.583 157.391 126.509 157.421 126.454 157.476C126.399 157.531 126.369 157.605 126.369 157.682C126.369 157.76 126.399 157.834 126.454 157.888C126.509 157.943 126.583 157.974 126.66 157.974Z" fill="#CBCBCB"/>
<path d="M182.184 100.754C168.59 100.754 157.571 89.7341 157.571 76.1406C157.571 62.5472 168.59 51.5275 182.184 51.5275C195.777 51.5275 206.797 62.5472 206.797 76.1406C206.797 89.7341 195.777 100.754 182.184 100.754Z" fill="#0A503D"/>
<path d="M179.988 85.5298C179.434 85.5307 178.895 85.3516 178.452 85.0194L178.424 84.9988L172.64 80.5739C172.372 80.3685 172.147 80.1124 171.978 79.8201C171.809 79.5278 171.7 79.2051 171.655 78.8705C171.611 78.5358 171.633 78.1957 171.721 77.8696C171.808 77.5435 171.958 77.2378 172.164 76.9699C172.369 76.702 172.625 76.4772 172.918 76.3082C173.21 76.1393 173.533 76.0297 173.867 75.9854C174.202 75.9412 174.542 75.9634 174.868 76.0506C175.194 76.1378 175.5 76.2884 175.768 76.4938L179.515 79.367L188.368 67.8165C188.573 67.5487 188.829 67.3239 189.122 67.1551C189.414 66.9863 189.736 66.8766 190.071 66.8324C190.405 66.7882 190.745 66.8104 191.071 66.8976C191.397 66.9848 191.703 67.1353 191.971 67.3406L191.971 67.3412L191.916 67.4175L191.973 67.3412C192.513 67.7564 192.867 68.369 192.956 69.0445C193.045 69.72 192.862 70.4033 192.448 70.9444L182.034 84.5243C181.793 84.8372 181.484 85.0904 181.129 85.2642C180.775 85.4381 180.385 85.5279 179.99 85.5267L179.988 85.5298Z" fill="white"/>
<path d="M35.6506 160.393C35.3511 159.909 34.9986 159.46 34.5996 159.054C34.435 158.883 34.2615 158.722 34.0825 158.566C32.9942 157.597 31.6676 156.936 30.239 156.65C28.8105 156.364 27.3315 156.464 25.9542 156.939C24.5769 157.414 23.3511 158.247 22.4027 159.353C21.4542 160.459 20.8175 161.798 20.5579 163.232C19.3559 158.786 22.4851 154.407 25.6311 151.044C28.7789 147.681 32.3766 143.993 32.3585 139.386C32.3497 136.822 31.0956 134.535 29.2022 132.839C29.1438 132.788 29.0854 132.737 29.0258 132.687C26.7372 130.725 23.7928 129.699 20.7808 129.814C15.1849 130.113 10.2989 133.874 6.9057 138.335C1.44394 145.513 -0.949402 155.589 2.87423 163.76C6.23745 170.947 13.4104 175.214 20.7309 178.645C21.7531 179.124 22.7733 179.589 23.7915 180.039C23.7981 180.041 23.8055 180.046 23.8123 180.048C23.8613 180.069 23.9103 180.091 23.9563 180.113C24.1664 180.206 24.3766 180.298 24.5849 180.39L24.4884 180.453L24.1874 180.648C24.2918 180.585 24.395 180.523 24.4994 180.46C24.5304 180.441 24.5633 180.423 24.5942 180.404C28.1896 178.246 31.8352 175.964 34.3191 172.596C36.8951 169.099 37.9309 164.09 35.6506 160.393Z" fill="#F1F1F1"/>
<path d="M11.6637 152.272C10.8675 154.084 10.3397 156.001 10.0969 157.965C9.90585 159.716 9.97767 161.485 10.3099 163.215C11.0239 166.769 12.581 170.1 14.8502 172.927C16.5622 175.074 18.5386 176.995 20.7325 178.646C21.7547 179.125 22.7748 179.59 23.793 180.04C23.7997 180.042 23.8071 180.046 23.8139 180.048C23.8628 180.07 23.9119 180.091 23.9579 180.113C24.168 180.206 24.3782 180.299 24.5865 180.39L24.49 180.454L24.189 180.648C24.2933 180.585 24.3966 180.524 24.5009 180.461C24.5319 180.442 24.5648 180.424 24.5957 180.404C23.8045 177.637 23.6882 174.72 24.2565 171.898C24.8249 169.076 26.0613 166.431 27.8623 164.185C29.6729 161.968 31.9819 160.21 34.6011 159.054C34.4366 158.884 34.263 158.723 34.0841 158.567C33.0752 159.03 32.1093 159.581 31.1976 160.215C27.9368 162.469 25.4883 165.712 24.2145 169.466C23.0772 172.871 22.9352 176.53 23.805 180.014C23.6245 179.896 23.4434 179.774 23.2672 179.654C19.9177 177.395 16.8308 174.682 14.5055 171.356C12.5 168.544 11.2167 165.283 10.7685 161.858C10.3228 158.118 11.2588 154.439 12.9288 151.102C14.7729 147.531 17.0967 144.229 19.8354 141.288C22.5862 138.266 25.6966 135.591 29.097 133.325C29.1737 133.273 29.2275 133.194 29.2473 133.104C29.2672 133.013 29.2516 132.919 29.2038 132.84C29.1673 132.768 29.1039 132.713 29.0273 132.688C28.9884 132.678 28.9478 132.677 28.9085 132.685C28.8691 132.693 28.8321 132.709 28.8001 132.734C28.3803 133.014 27.9641 133.296 27.5529 133.587C24.1285 136.012 21.0185 138.853 18.2945 142.044C15.6623 145.121 13.2668 148.539 11.6637 152.272Z" fill="white"/>
<path d="M84.9681 11.4281C82.0813 11.4281 79.741 9.08779 79.741 6.20091C79.741 3.31403 82.0813 0.973755 84.9681 0.973755C87.855 0.973755 90.1953 3.31403 90.1953 6.20091C90.1953 9.08779 87.855 11.4281 84.9681 11.4281Z" fill="#F1F1F1"/>
<path d="M19.9718 81.3798C18.2117 81.3798 16.7849 79.953 16.7849 78.1929C16.7849 76.4328 18.2117 75.006 19.9718 75.006C21.7319 75.006 23.1587 76.4328 23.1587 78.1929C23.1587 79.953 21.7319 81.3798 19.9718 81.3798Z" fill="#F1F1F1"/>
<path d="M113.24 90.1245C111.48 90.1245 110.053 88.6977 110.053 86.9376C110.053 85.1776 111.48 83.7507 113.24 83.7507C115 83.7507 116.427 85.1776 116.427 86.9376C116.427 88.6977 115 90.1245 113.24 90.1245Z" fill="#F1F1F1"/>
<path d="M111.44 181H0.391663C0.314362 181 0.240227 180.97 0.18557 180.915C0.130905 180.86 0.100197 180.786 0.100197 180.709C0.100197 180.632 0.130905 180.557 0.18557 180.503C0.240227 180.448 0.314362 180.417 0.391663 180.417H111.44C111.517 180.417 111.591 180.448 111.646 180.503C111.701 180.557 111.731 180.632 111.731 180.709C111.731 180.786 111.701 180.86 111.646 180.915C111.591 180.97 111.517 181 111.44 181Z" fill="#CBCBCB"/>
<path d="M12.6487 28.1658C12.5029 27.1305 12.7419 26.0777 13.3204 25.2069C13.899 24.3361 14.7769 23.7078 15.7877 23.441C16.7986 23.1742 17.8722 23.2874 18.8051 23.7593C19.738 24.2312 20.4655 25.0289 20.8495 26.0013L29.8608 36.3321L27.2168 43.7169L18.1542 31.6457C17.5629 31.8352 16.9372 31.8926 16.3212 31.8141C15.7052 31.7355 15.1139 31.5229 14.589 31.1911C14.0641 30.8593 13.6184 30.4165 13.2831 29.8938C12.9479 29.3711 12.7313 28.7812 12.6487 28.1658Z" fill="#FFB7B7"/>
<path d="M50.0009 68.3623L20.088 36.4384L24.1228 30.0238L61.6411 61.7539L50.0009 68.3623Z" fill="#0A503D"/>
<path d="M56.6777 48.9666C50.8827 48.9666 46.1849 44.2688 46.1849 38.4738C46.1849 32.6788 50.8827 27.9811 56.6777 27.9811C62.4726 27.9811 67.1704 32.6788 67.1704 38.4738C67.1704 44.2688 62.4726 48.9666 56.6777 48.9666Z" fill="black"/>
<path d="M55.833 32.5454C53.5752 30.2558 50.8428 28.4889 47.8285 27.3692C45.8935 26.6524 43.7874 26.2095 41.7645 26.6166C39.7416 27.0237 37.8285 28.4231 37.2642 30.4079C36.8027 32.0309 37.2792 33.7784 37.9954 35.3061C38.7115 36.8339 39.6677 38.2507 40.2469 39.8355C40.8378 41.4525 41.0155 43.1916 40.7639 44.8947C40.5122 46.5979 39.8392 48.2113 38.8059 49.5883C37.7726 50.9654 36.4117 52.0626 34.8468 52.7803C33.2819 53.4981 31.5625 53.8136 29.8447 53.6982C31.8323 53.9648 33.6645 54.8988 35.6073 55.396C37.55 55.8931 39.843 55.8594 41.2868 54.4676C42.8143 52.995 42.845 50.6007 42.7711 48.4802C42.6613 45.328 42.5515 42.1758 42.4417 39.0236C42.3857 37.416 42.3379 35.757 42.9177 34.2565C43.4974 32.7561 44.8752 31.4422 46.4836 31.4559C47.7027 31.4662 48.7817 32.2047 49.7593 32.933C50.737 33.6613 51.7717 34.4384 52.986 34.5467C54.2003 34.655 55.5867 33.7564 55.4959 32.5407L55.833 32.5454Z" fill="black"/>
<path d="M96.5287 108.928C97.536 109.207 98.611 109.108 99.55 108.648C100.489 108.188 101.227 107.4 101.623 106.433C102.02 105.466 102.048 104.386 101.702 103.4C101.356 102.413 100.66 101.588 99.7462 101.08L90.6815 90.796L83.0145 92.4524L93.798 103.015C93.5329 103.576 93.3942 104.189 93.3916 104.81C93.3889 105.431 93.5225 106.045 93.7829 106.609C94.0432 107.172 94.424 107.672 94.8984 108.073C95.3728 108.474 95.9293 108.765 96.5287 108.928H96.5287Z" fill="#FFB7B7"/>
<path d="M66.7059 72.1105L89.2988 100.47L96.1855 97.3082L69.6301 55.9653L66.7059 72.1105Z" fill="#0A503D"/>
<path d="M84.7341 157.744L90.1187 157.66L89.471 176.012H84.735L84.7341 157.744Z" fill="#FFB7B7"/>
<path d="M83.5267 174.466L92.8539 174.465H92.8543C94.4307 174.465 95.9425 175.092 97.0573 176.206C98.172 177.321 98.7982 178.833 98.7983 180.409V180.602L83.527 180.603L83.5267 174.466Z" fill="black"/>
<path d="M49.0818 152.877L54.9639 156.653L43.198 170.808L39.2125 168.249L49.0818 152.877Z" fill="#FFB7B7"/>
<path d="M39.0316 166.296L46.8805 171.335L46.8808 171.335C48.2073 172.187 49.1411 173.53 49.4769 175.071C49.8126 176.611 49.5228 178.221 48.6712 179.548L48.5668 179.711L35.716 171.46L39.0316 166.296Z" fill="black"/>
<path d="M46.987 96.8354C46.987 96.8354 60.0562 53.4282 64.2563 52.8416C68.4564 52.255 75.2236 63.9794 75.2236 63.9794C83.9976 75.1741 93.0449 111.436 93.0449 111.436C93.0449 111.436 77.9626 112.38 66.9374 118.246C55.9122 124.112 42.9009 117.949 42.9009 117.949L46.987 96.8354Z" fill="#0A503D"/>
<path opacity="0.1" d="M46.987 96.8363C46.987 96.8363 60.0562 53.4291 64.2563 52.8425C68.4564 52.2559 73.5048 64.0993 73.5048 64.0993C77.8768 82.1701 93.0449 111.437 93.0449 111.437C93.0449 111.437 77.9626 112.381 66.9374 118.247C55.9122 124.112 42.9009 117.95 42.9009 117.95L46.987 96.8363Z" fill="black"/>
<path d="M57.7085 83.8503V105.662L55.1416 137.258L42.3171 161.158L48.4379 165.53L65.9258 142.796L72.8426 120.222L83.7052 170.194L91.8662 169.611L86.1984 100.326L75.443 80.8243L57.7085 83.8503Z" fill="black"/>
<path d="M70.8849 62.7521C74.9654 66.8326 71.1764 71.2046 71.1764 71.2046L75.8398 81.6974L57.4775 86.6523L51.0606 57.9784L55.4325 53.315C64.1765 53.0235 64.1812 52.8423 64.1812 52.8423C65.7132 54.3415 70.8849 62.7521 70.8849 62.7521Z" fill="#0A503D"/>
<path d="M50.3214 55.0085C51.1554 54.3929 52.1032 53.9489 53.11 53.7022C54.1168 53.4555 55.1625 53.411 56.1866 53.5713C57.2107 53.7316 58.1929 54.0935 59.0761 54.6361C59.9594 55.1786 60.7262 55.891 61.3322 56.732C65.9484 63.1595 70.2167 73.5382 64.3356 86.4824C54.8925 107.267 46.6748 117.907 43.334 117.905C43.1882 117.907 43.0431 117.884 42.9047 117.838C40.8483 117.14 37.8752 113.661 37.337 110.594C37.1443 109.497 37.1901 107.968 38.5027 106.918C42.2729 103.903 49.0414 94.5131 51.1528 82.1542C52.3197 75.3253 50.0568 69.1047 47.9531 65.089C47.0645 63.4274 46.8046 61.5012 47.2209 59.6635C47.6372 57.8258 48.702 56.1997 50.2199 55.0832L50.3214 55.0085Z" fill="#0A503D"/>
<path d="M56.1372 47.9354C52.3942 45.8893 51.0186 41.1963 53.0647 37.4533C55.1108 33.7102 59.8039 32.3346 63.5469 34.3807C67.2899 36.4269 68.6655 41.1199 66.6194 44.8629C64.5733 48.6059 59.8802 49.9815 56.1372 47.9354Z" fill="#FFB7B7"/>
<path d="M70.7041 40.574H59.551L59.4366 38.9727L58.8648 40.574H57.1474L56.9208 37.4004L55.7874 40.574H52.4645V40.4168C52.4669 38.2073 53.3457 36.0891 54.908 34.5267C56.4703 32.9644 58.5886 32.0856 60.798 32.0831H62.3705C64.5799 32.0856 66.6982 32.9644 68.2605 34.5267C69.8228 36.0891 70.7016 38.2073 70.7041 40.4168V40.574Z" fill="black"/>
<path d="M54.1484 46.3299L49.3888 44.7855V33.2273H58.3789L58.1563 33.4495C55.0596 36.5422 51.6155 47.5148 54.1484 46.3299Z" fill="black"/>
</g>
<defs>
<clipPath id="clip0_1859_4833">
<rect width="237.899" height="181" fill="white" transform="matrix(-1 0 0 1 238 0)"/>
</clipPath>
</defs>
</svg>
