<svg width="602" height="486" viewBox="0 0 602 486" fill="none" xmlns="http://www.w3.org/2000/svg">
<g clip-path="url(#clip0_974_1602)">
<path d="M23.9045 -0.000846408H204.594C213.313 -0.00127344 221.773 2.96499 228.584 8.41034C235.394 13.8557 240.148 21.456 242.066 29.962L333.363 434.924C334.359 439.341 334.377 443.923 333.415 448.347C332.453 452.772 330.535 456.932 327.795 460.537C325.055 464.142 321.559 467.104 317.554 469.215C313.548 471.326 309.129 472.536 304.607 472.758L118.856 481.91C108.91 482.4 99.1246 479.255 91.3272 473.06C83.5297 466.866 78.2523 458.046 76.4799 448.247L24.687 161.935L20.8339 163.036L10.9214 108.769L14.8871 107.777L0.430634 27.8571C-0.188873 24.4338 -0.0455322 20.916 0.850464 17.5546C1.74649 14.1931 3.37311 11.0706 5.61429 8.40989C7.8555 5.74915 10.6561 3.61562 13.8164 2.16142C16.9768 0.707212 20.419 -0.0318572 23.8978 -0.00309801L23.9045 -0.000846408Z" fill="#3F3D56"/>
<path d="M180.809 8.72852H201.899C207.956 8.72858 213.831 10.8001 218.548 14.5993C223.266 18.3985 226.542 23.6968 227.833 29.6146L315.469 431.273C315.974 433.585 315.974 435.98 315.468 438.292C314.963 440.604 313.964 442.781 312.54 444.672C311.116 446.563 309.301 448.124 307.219 449.249C305.136 450.374 302.835 451.037 300.473 451.191L115.326 463.326C110.103 463.668 104.936 462.076 100.813 458.852C96.6888 455.628 93.8965 450.998 92.9684 445.846L18.1891 30.6937C17.7051 28.0067 17.8167 25.2463 18.5161 22.6071C19.2155 19.968 20.4856 17.5145 22.2367 15.4198C23.9878 13.325 26.1773 11.6401 28.6507 10.484C31.124 9.32783 33.821 8.72858 36.5512 8.72852H56.5587C58.4953 8.72846 60.3779 9.36681 61.915 10.5448C63.4522 11.7227 64.5581 13.3745 65.0617 15.2445C65.5063 16.8959 66.483 18.3547 67.8407 19.3947C69.1983 20.4348 70.8609 20.9981 72.5712 20.9975H167.557C170.905 20.9974 174.13 19.7338 176.587 17.4592C179.044 15.1846 180.551 12.0667 180.809 8.72852Z" fill="white"/>
<path d="M78.4593 289.522C78.0993 289.534 77.7469 289.417 77.4662 289.191C77.1856 288.965 76.9954 288.646 76.9304 288.292L35.9865 62.319C35.9475 62.1042 35.9552 61.8835 36.0093 61.672C36.0633 61.4605 36.1624 61.2632 36.2996 61.0934C36.4356 60.925 36.6071 60.7887 36.8018 60.6941C36.9965 60.5994 37.2096 60.5489 37.426 60.546L223.705 58.3457H223.723C224.061 58.3486 224.388 58.4662 224.651 58.6793C224.913 58.8924 225.096 59.1883 225.168 59.5187L273.436 278.157C273.483 278.371 273.484 278.592 273.438 278.805C273.392 279.019 273.3 279.22 273.169 279.395C273.039 279.568 272.873 279.711 272.682 279.813C272.49 279.915 272.279 279.973 272.063 279.984L78.4593 289.522Z" fill="#E6E6E6"/>
<path d="M240.112 304.133C240.282 304.133 240.446 304.19 240.579 304.296C240.711 304.401 240.804 304.548 240.843 304.713L242.587 312.19C242.612 312.295 242.614 312.405 242.592 312.511C242.57 312.618 242.525 312.718 242.461 312.805C242.397 312.893 242.315 312.965 242.22 313.018C242.125 313.07 242.02 313.102 241.911 313.11L143.365 320.114C143.182 320.125 143.001 320.07 142.856 319.959C142.71 319.848 142.61 319.687 142.574 319.508L140.896 310.858C140.876 310.753 140.878 310.645 140.903 310.541C140.928 310.437 140.975 310.339 141.04 310.255C141.106 310.17 141.189 310.101 141.283 310.051C141.378 310.001 141.482 309.972 141.589 309.965L240.066 304.134L240.112 304.133Z" fill="#E6E6E6"/>
<path d="M120.383 347.887C120.206 347.901 120.029 347.851 119.884 347.747C119.739 347.643 119.637 347.49 119.594 347.317L117.458 338.649C117.432 338.543 117.429 338.432 117.45 338.325C117.472 338.217 117.516 338.116 117.58 338.027C117.645 337.939 117.727 337.866 117.823 337.813C117.919 337.76 118.025 337.728 118.134 337.72L243.985 328.918C244.156 328.905 244.326 328.951 244.467 329.048C244.607 329.146 244.71 329.289 244.757 329.454L246.977 336.944C247.008 337.052 247.016 337.164 246.998 337.275C246.981 337.385 246.939 337.49 246.876 337.582C246.812 337.674 246.73 337.751 246.633 337.807C246.536 337.863 246.429 337.897 246.317 337.906L120.383 347.887Z" fill="#E6E6E6"/>
<path d="M127.142 375.67C126.964 375.684 126.787 375.635 126.643 375.53C126.498 375.426 126.395 375.274 126.353 375.101L124.217 366.432C124.191 366.326 124.188 366.215 124.209 366.108C124.23 366.001 124.274 365.899 124.339 365.811C124.403 365.722 124.486 365.649 124.582 365.596C124.677 365.543 124.784 365.511 124.893 365.503L250.743 356.702C250.914 356.688 251.084 356.734 251.225 356.831C251.366 356.929 251.469 357.072 251.516 357.237L253.735 364.728C253.767 364.835 253.774 364.948 253.757 365.058C253.739 365.168 253.697 365.273 253.634 365.365C253.571 365.457 253.488 365.534 253.392 365.59C253.295 365.646 253.187 365.68 253.076 365.689L127.142 375.67Z" fill="#E6E6E6"/>
<path d="M345.342 473.486C345.342 479.771 402.869 480.44 473.671 484.865C544.411 489.286 602 479.771 602 473.486C602 467.202 544.142 454.557 473.671 462.107C402.869 469.693 345.342 467.202 345.342 473.486Z" fill="#E6E6E6"/>
<path d="M185.104 423.168C184.925 423.186 184.745 423.139 184.598 423.035C184.451 422.931 184.347 422.777 184.305 422.602L179.789 404.541C179.763 404.435 179.76 404.325 179.78 404.218C179.8 404.111 179.843 404.01 179.907 403.921C179.97 403.833 180.052 403.759 180.146 403.705C180.241 403.651 180.346 403.619 180.455 403.609L257.739 397.109C257.92 397.097 258.099 397.149 258.244 397.256C258.39 397.363 258.493 397.518 258.535 397.694L262.387 415.028C262.41 415.132 262.411 415.24 262.389 415.345C262.367 415.449 262.324 415.547 262.261 415.634C262.198 415.72 262.118 415.792 262.025 415.844C261.933 415.897 261.83 415.929 261.724 415.939L185.104 423.168Z" fill="#0A503D"/>
<path d="M497.161 349.57C496.188 348.903 495.373 348.031 494.773 347.015C494.174 345.999 493.804 344.863 493.691 343.689C493.578 342.515 493.723 341.33 494.118 340.218C494.512 339.106 495.145 338.095 495.973 337.254L492.844 267.402L508.775 269.19L507.849 337.515C509.17 338.999 509.901 340.915 509.903 342.901C509.906 344.888 509.179 346.806 507.861 348.292C506.543 349.778 504.725 350.728 502.753 350.963C500.78 351.198 498.79 350.701 497.16 349.567L497.161 349.57Z" fill="#A0616A"/>
<path d="M468.097 467.813L459.029 469.407L450.067 435.191L461.948 432.838L468.097 467.813Z" fill="#A0616A"/>
<path d="M443.02 480.902L471.517 475.892L469.582 464.882L452.095 467.956C449.174 468.47 446.578 470.122 444.876 472.55C443.174 474.978 442.506 477.982 443.02 480.902L443.02 480.902Z" fill="#2F2E41"/>
<path d="M492.985 472.353H483.778L479.399 436.842H492.986L492.985 472.353Z" fill="#A0616A"/>
<path d="M466.026 480.902L494.961 480.904L494.961 469.725L477.206 469.724C474.241 469.723 471.397 470.901 469.301 472.998C467.204 475.094 466.026 477.937 466.026 480.902Z" fill="#2F2E41"/>
<path d="M454.575 459.624C454.718 459.624 454.862 459.615 455.004 459.598L465.84 458.707C466.334 458.649 466.81 458.491 467.241 458.243C467.671 457.996 468.047 457.663 468.345 457.265C468.643 456.868 468.857 456.414 468.974 455.931C469.091 455.449 469.109 454.947 469.027 454.457L458.269 401.38L465.028 365.729C465.083 365.439 465.241 365.179 465.473 364.997C465.704 364.815 465.994 364.722 466.289 364.737C466.583 364.752 466.863 364.872 467.075 365.077C467.288 365.281 467.419 365.555 467.445 365.849L477.403 456.434C477.496 457.388 477.956 458.269 478.686 458.891C479.416 459.512 480.359 459.826 481.316 459.766L491.525 459.386C492.42 459.322 493.26 458.934 493.888 458.293C494.515 457.652 494.886 456.804 494.931 455.908L494.116 346.444L441.188 339.828L437.491 396.931L437.506 396.992L451.016 456.824C451.21 457.621 451.667 458.33 452.312 458.838C452.957 459.346 453.754 459.622 454.575 459.624Z" fill="#2F2E41"/>
<path d="M476.662 222.142C466.475 222.142 458.217 213.884 458.217 203.698C458.217 193.512 466.475 185.254 476.662 185.254C486.848 185.254 495.106 193.512 495.106 203.698C495.106 213.884 486.848 222.142 476.662 222.142Z" fill="#A0616A"/>
<path d="M459.283 354.772C462.168 354.789 464.997 353.98 467.436 352.44C476.372 346.856 486.518 349.075 491.772 350.895C492.294 351.078 492.849 351.14 493.398 351.077C493.947 351.015 494.475 350.829 494.942 350.534C495.403 350.244 495.793 349.853 496.083 349.392C496.372 348.93 496.553 348.408 496.612 347.866L506.165 262.54C507.766 248.243 499.154 234.802 485.688 230.58C485.182 230.421 484.667 230.271 484.145 230.129C479.954 228.993 475.566 228.789 471.288 229.531C467.01 230.274 462.947 231.945 459.384 234.427C455.756 236.936 452.721 240.21 450.493 244.018C448.266 247.826 446.901 252.076 446.493 256.469L438.45 342.368C438.395 342.924 438.47 343.485 438.669 344.007C438.868 344.53 439.185 344.998 439.596 345.377C442.417 347.984 450.601 354.771 459.283 354.772Z" fill="#0A503D"/>
<path d="M488.376 280.839L509.928 278.469C510.541 278.402 511.133 278.203 511.662 277.886C512.192 277.57 512.647 277.143 512.996 276.634C513.346 276.126 513.582 275.548 513.688 274.94C513.794 274.332 513.768 273.709 513.611 273.112L508.125 252.201C507.963 250.634 507.492 249.114 506.74 247.73C505.988 246.345 504.968 245.124 503.741 244.136C502.514 243.148 501.103 242.413 499.589 241.973C498.076 241.534 496.491 241.399 494.925 241.575C493.36 241.752 491.845 242.237 490.468 243.003C489.091 243.769 487.879 244.8 486.903 246.037C485.927 247.274 485.205 248.692 484.781 250.209C484.356 251.726 484.236 253.313 484.428 254.877L483.613 276.41C483.59 277.027 483.7 277.641 483.935 278.212C484.171 278.782 484.526 279.295 484.978 279.715C485.43 280.136 485.967 280.454 486.553 280.648C487.138 280.843 487.759 280.908 488.373 280.841L488.376 280.839Z" fill="#0A503D"/>
<path d="M438.537 346.58C437.652 345.801 436.948 344.837 436.476 343.757C436.004 342.676 435.774 341.505 435.803 340.326C435.832 339.147 436.119 337.988 436.644 336.932C437.169 335.876 437.92 334.948 438.842 334.214L444.154 264.494L459.765 268.009L450.604 335.905C451.737 337.536 452.231 339.527 451.994 341.499C451.757 343.471 450.804 345.288 449.317 346.604C447.829 347.92 445.91 348.645 443.924 348.641C441.938 348.636 440.022 347.903 438.54 346.58H438.537Z" fill="#A0616A"/>
<path d="M465.75 276.457C466.201 276.036 466.557 275.524 466.793 274.954C467.028 274.383 467.138 273.769 467.115 273.152L466.3 251.619C466.476 250.063 466.343 248.488 465.91 246.983C465.477 245.478 464.752 244.073 463.776 242.849C462.8 241.625 461.592 240.604 460.222 239.847C458.851 239.089 457.345 238.608 455.789 238.433C454.233 238.257 452.658 238.39 451.153 238.823C449.649 239.256 448.244 239.981 447.019 240.957C445.795 241.933 444.775 243.141 444.017 244.511C443.259 245.881 442.779 247.387 442.603 248.943L437.117 269.854C436.96 270.451 436.934 271.075 437.04 271.682C437.146 272.29 437.382 272.868 437.732 273.376C438.081 273.885 438.536 274.312 439.066 274.629C439.595 274.945 440.187 275.144 440.8 275.212L462.352 277.582C462.966 277.649 463.587 277.583 464.172 277.389C464.758 277.195 465.295 276.876 465.747 276.455L465.75 276.457Z" fill="#0A503D"/>
<path d="M477.759 222.836C478.087 222.836 478.415 222.798 478.735 222.723L478.829 222.7C495.045 220.222 498.629 210.826 499.415 206.904C500.229 202.843 499.303 198.923 497.207 197.4C498.35 193.795 498.166 190.596 496.662 187.891C494.033 183.175 488.34 181.583 487.575 181.385C483.026 178.029 477.583 180.269 476.592 180.724C467.792 177.468 464.427 180.178 463.82 180.783C459.887 181.49 457.489 183.009 456.693 185.301C455.198 189.604 459.926 194.958 460.128 195.184L460.233 195.301L467.277 195.637C467.945 195.669 468.6 195.841 469.197 196.142C469.795 196.443 470.322 196.866 470.746 197.384C471.169 197.902 471.479 198.503 471.655 199.149C471.832 199.795 471.87 200.47 471.768 201.131C471.578 201.985 471.337 202.826 471.047 203.651C469.846 207.41 468.945 210.622 470.106 211.843C470.369 212.079 470.694 212.236 471.042 212.297C471.391 212.357 471.749 212.318 472.077 212.185C473.179 211.89 473.926 211.952 474.298 212.368C474.877 213.014 474.7 214.648 473.801 216.968C473.519 217.702 473.443 218.499 473.582 219.273C473.72 220.047 474.068 220.768 474.587 221.359C474.977 221.82 475.464 222.19 476.011 222.445C476.559 222.7 477.156 222.834 477.76 222.836H477.759Z" fill="#2F2E41"/>
</g>
<defs>
<clipPath id="clip0_974_1602">
<rect width="601.941" height="486" fill="white" transform="matrix(-1 0 0 1 602 0)"/>
</clipPath>
</defs>
</svg>
